<svg width="39" height="65" viewBox="0 0 39 65" fill="none" xmlns="http://www.w3.org/2000/svg">
<path d="M34.243 59.465C32.86 61.096 30.713 61.565 29.103 62.854C24.429 64.054 19.785 65.084 14.942 63.487C12.5218 62.6512 10.2486 61.439 8.20603 59.895C7.74903 59.195 7.15403 58.595 6.70603 57.883C2.33003 50.352 3.70603 43.101 7.77603 35.983L8.68902 35.428C8.7839 35.3434 8.90439 35.293 9.03127 35.2848C9.15814 35.2766 9.28409 35.3112 9.38903 35.383C10.41 36.326 9.87702 37.16 9.19602 37.975C4.50902 43.582 4.60803 52.253 8.25603 56.891C9.39303 58.337 10.432 59.805 12.511 60.033C13.777 60.171 14.458 61.433 15.652 61.933C20.509 63.963 24.916 62.398 29.283 60.496C30.805 59.834 32.183 58.86 33.963 59.202C34.062 59.287 34.152 59.376 34.243 59.465Z" fill="#86B5BE"/>
<path d="M12.662 55.91C16.021 59.024 20.085 58.747 24.135 58.15C27.6813 57.524 30.931 55.7705 33.401 53.15C34.59 51.985 35.772 51.55 37.101 52.695C38.481 53.889 38.301 55.422 37.385 56.738C36.669 57.9677 35.5649 58.9248 34.246 59.459L34.155 59.368C33.455 58.446 33.942 57.657 34.418 56.85C34.818 56.178 35.678 55.698 35.31 54.563C33.847 54.516 32.949 55.599 31.895 56.317C28.27 58.787 24.53 60.829 19.906 60.555C16.35 60.345 13.355 58.641 10.456 56.936C8.59402 55.841 8.32502 53.427 8.12502 51.364C7.89102 49.0432 7.89102 46.7048 8.12502 44.384C8.50602 40.761 11.037 38.273 13.33 35.806C14.847 34.1296 16.7783 32.8819 18.93 32.188C21.243 31.488 22.941 30.218 23.402 27.696C23.495 27.608 23.59 27.522 23.685 27.436C25.923 29.731 25.518 31.631 22.428 32.717C19.147 33.871 15.918 35.051 13.666 37.911C9.22002 41.911 7.79503 49.7 10.726 54.017C11.1921 54.8085 11.8603 55.4618 12.662 55.91Z" fill="#86B5BE"/>
<path d="M9.19698 35.429H8.69698C8.99698 34.229 8.10398 33.639 7.41898 32.929C4.39398 29.806 4.58599 26.14 6.00499 22.504C7.37499 18.995 10.172 17.304 14.005 17.352C16.16 17.2234 18.3184 17.5396 20.346 18.281C20.7265 18.3998 21.0774 18.5983 21.3752 18.8634C21.673 19.1284 21.9109 19.4538 22.0731 19.818C22.2353 20.1822 22.318 20.5768 22.3157 20.9754C22.3135 21.3741 22.2263 21.7677 22.06 22.13C21.46 23.85 20.18 24.216 18.453 23.63C16.9776 23.0593 15.3936 22.8243 13.816 22.942C13.3146 22.9633 12.8229 23.0863 12.3706 23.3036C11.9183 23.5209 11.5149 23.8279 11.185 24.206C10.8551 24.5841 10.6055 25.0254 10.4515 25.5029C10.2974 25.9805 10.2422 26.4844 10.289 26.984C10.465 29.42 12.275 29.436 14.105 29.484C15.605 29.523 16.784 28.73 18.094 28.24C19.887 27.57 21.629 26.298 23.694 27.434L23.653 27.479C20.406 28.902 17.267 30.605 13.678 31.125C12.8169 31.2925 11.9244 31.148 11.1601 30.7174C10.3959 30.2868 9.80985 29.5983 9.50699 28.775C9.0956 27.7259 8.98998 26.5816 9.20237 25.4749C9.41476 24.3682 9.93646 23.3443 10.707 22.522C11.0485 22.0492 11.5317 21.6974 12.0865 21.5176C12.6414 21.3378 13.2391 21.3393 13.793 21.522C15.219 22.006 16.77 21.722 18.252 21.975C18.92 22.088 19.652 22.075 19.801 21.17C19.912 20.483 19.44 20.109 18.884 19.844C17.1734 18.9629 15.2192 18.6731 13.3266 19.0197C11.4339 19.3663 9.70929 20.3299 8.42199 21.76C5.60899 24.842 5.76599 28.53 8.59399 31.913C9.48399 32.993 10.28 34.034 9.19698 35.429Z" fill="#89B4BD"/>
<path d="M9.19698 35.429C9.29837 34.8601 9.25224 34.2746 9.063 33.7286C8.87375 33.1826 8.5477 32.6942 8.11598 32.31C3.69398 28.421 6.09798 20.769 11.222 18.968C14.151 17.94 16.501 18.539 19.07 19.061C19.3644 19.0751 19.6512 19.1588 19.907 19.3052C20.1628 19.4516 20.3803 19.6565 20.5415 19.9032C20.7028 20.1499 20.8034 20.4313 20.8349 20.7243C20.8665 21.0173 20.8281 21.3137 20.723 21.589C20.291 23.031 19.371 23.145 18.216 22.699C16.416 22.004 14.438 22.909 12.581 21.973C12.223 21.792 10.551 23.017 10.13 24.348C9.52098 26.275 9.32098 28.115 10.786 29.724C11.612 30.631 12.576 30.577 13.872 30.475C17.407 30.197 20.066 27.352 23.648 27.475C23.648 30.708 23.028 31.498 19.498 32.749C16.144 33.937 13.777 36.183 11.507 38.958C7.34098 44.052 8.38798 49.382 9.67698 54.918C9.71301 55.2486 9.8226 55.567 9.99772 55.8498C10.1728 56.1325 10.409 56.3724 10.689 56.552C15.277 58.837 19.921 61.281 25.227 59.241C27.5746 58.4194 29.7654 57.2048 31.706 55.649C32.5491 54.98 33.4383 54.3712 34.367 53.827C35.045 53.396 35.784 53.202 36.367 53.962C36.867 54.615 36.5 55.177 36.098 55.762C35.32 56.891 33.983 57.73 34.151 59.37C30.995 59.613 28.727 62.07 25.677 62.689C21.94 63.45 18.03 64.503 14.74 62.24C12.599 60.768 9.66998 60.602 8.17398 57.986C6.68796 55.6467 5.63171 53.0607 5.05498 50.35C4.33398 46.333 6.19998 43.015 6.81898 39.378C6.96098 38.545 7.90598 38.419 8.43898 37.918C9.17798 37.228 10.012 36.585 9.19698 35.429Z" fill="#80B4C3"/>
<path d="M2.862 9.932L29.273 2" stroke="#81B4C3" stroke-width="4" stroke-linecap="round" stroke-linejoin="round"/>
</svg>
