<svg id="Layer_1" data-name="Layer 1" xmlns="http://www.w3.org/2000/svg" viewBox="0 0 48.635 68.395">
  <defs>
    <style>
      .cls-1 {
        fill: #f0fbfc;
      }

      .cls-2 {
        fill: #fbfcfd;
      }

      .cls-3 {
        fill: #effbfd;
      }

      .cls-4 {
        fill: #86b5be;
      }

      .cls-5 {
        fill: #d9e7ef;
      }

      .cls-6 {
        fill: #89b4bd;
      }

      .cls-7 {
        fill: #80b4c3;
      }

      .cls-8 {
        fill: none;
        stroke: #81b4c3;
        stroke-linecap: round;
        stroke-linejoin: round;
        stroke-width: 4px;
      }
    </style>
  </defs>
  <path class="cls-1" d="M50.771,184.024l-.009-3c-1.1-1.5-.349-2.995.005-4.492q0-1.249,0-2.5a5.136,5.136,0,0,1,3-3.5l1-.5c.465-.691,1.059-1.285,1.5-1.994h1c1.275-.611,2.324.37,3.5.495l2,.006c.868.537,1.783.156,2.665.095,1.813-.124,3.023.488,3.331,2.4a1.037,1.037,0,0,0,.5,1,1.333,1.333,0,0,1,.5,2c-.794.5-.132,1,0,1.5-1.308,2.186-3.42,1.611-5.36,1.511-1.156-.06-2.251-.639-3.429-.577a2.884,2.884,0,0,0-2.569,1.7,1.2,1.2,0,0,0,.474,1.534,2.065,2.065,0,0,0,2.767-.087c2.364-2.1,5.146-1.866,7.955-1.718a3.512,3.512,0,0,1,2.661,1.138,6.26,6.26,0,0,1,.5,3c.244,1.895-1.36,2.252-2.5,3-1.211,1.8-3.225,1.6-5,2a1.512,1.512,0,0,0-1.5,1,4.924,4.924,0,0,1-3,2l-.5.011a.378.378,0,0,1-.592-.03c-.053-1.415,1.08-1.95,1.993-2.618a31.29,31.29,0,0,1,6.708-3.2c2.436-1.018,2.629-2.354.815-4.228-1.842-.409-3.429.349-5,1.113a9.1,9.1,0,0,1-4.3,1.118c-2.491-.066-3.843-.951-4.1-2.782a4.464,4.464,0,0,1,3.2-4.769,8.97,8.97,0,0,1,4.436.139c1.523.329,3.4,1.357,4.042-1.215.4-1.6-.8-2.79-3.321-3.2a18.916,18.916,0,0,0-6.218,0,6.722,6.722,0,0,0-5.346,4.728c-1.141,3.355-1.335,6.7,1.439,9.534a2.778,2.778,0,0,1,1.081,2.641,1.134,1.134,0,0,1-1.259.808l-.11-.07q.023-.24.021-.483c-.564-.367-.158-1.055-.493-1.5-1.091.09-.843-1.155-1.5-1.5C51.527,184.178,51.006,184.387,50.771,184.024Z" transform="translate(-38.07 -152.09)"/>
  <path class="cls-2" d="M72.253,179.03c-2.286-.987-4.745-.334-7.114-.664-1.033-.144-2.007,1.309-3.135,1.9-1.389.725-2.523,1.2-3.788-.039-.684-.67-1.4-1.507-.668-2.354,1.037-1.192,2.041-2.761,4.082-2.136a12.774,12.774,0,0,0,5.845.738,10.657,10.657,0,0,0,2.279-.939C70.047,177.085,72.2,177.308,72.253,179.03Z" transform="translate(-38.07 -152.09)"/>
  <path class="cls-2" d="M59.739,190l.523.025c-.1.225-.346.513-.28.666a4.13,4.13,0,0,1-.729,4.606c-1.968,2.442-.6,5.847-2.307,8.441-.7,1.064.78,1.448,1.192,1.673a2.769,2.769,0,0,1,1.625,2.58,1.273,1.273,0,0,1-1.151.349c-3.124-1.511-3.861-4.365-3.967-7.43a15.225,15.225,0,0,1,2.966-9.539C58.133,190.641,58.6,189.791,59.739,190Z" transform="translate(-38.07 -152.09)"/>
  <path class="cls-3" d="M58.732,208l1.031-.011h0c3.032.3,5.869,1.756,8.993,1.5,1.651-.548,3.46-.57,5-1.5.288-.647.96-.721,1.5-1l.5-.5c2.064-.833,2.957-3.129,5-4l1,0c3.525.834,3.444,1.987,3.5,6.989-.349.983-1.4,1.266-2,2-.471.723-1.294.743-2,1h0c-2.079.685-3.686,2.535-6.074,2.458,1.052-2.11,3.538-2.356,5.038-3.885a7.88,7.88,0,0,0,2.949-3.273,1.939,1.939,0,0,0-.52-2.455,1.7,1.7,0,0,0-2.446.155c-.688.595-1.387,1.181-2.095,1.751-4.895,3.944-10.443,4.757-16.39,3.213C60.458,210.126,58.836,209.885,58.732,208Z" transform="translate(-38.07 -152.09)"/>
  <path class="cls-2" d="M53.768,170.542l-3,3.5c-2.335.452-1.829-1.781-2.356-2.783a3,3,0,0,1,.633-3.429c.118-.118.662-.04.666-.01.354,2.887,3.163-.237,3.9,1.6C53.759,169.762,53.327,170.214,53.768,170.542Z" transform="translate(-38.07 -152.09)"/>
  <path class="cls-2" d="M60.762,190.015c.633-1.215,1.992-1.342,3-2A1.925,1.925,0,0,0,64.8,190.7c1.676.832,2.6,2.864,4.769,2.907.549.01.605.557.283.916-.575.642-1.741.768-2.014.311-.756-1.266-2.282-.957-3.03-1.722C63.586,191.863,60.694,192.829,60.762,190.015Z" transform="translate(-38.07 -152.09)"/>
  <path class="cls-2" d="M68.757,209.49c-3.306,1.349-6.1-.371-8.993-1.5H61.75c-.081-.8-.968-.246-1.074-.771a.484.484,0,0,1,.6-.561c2.329.754,4.824-.033,7.6.633-1.348,1.11-2.6.39-4.3,1.177C66.617,208.135,67.4,209.545,68.757,209.49Z" transform="translate(-38.07 -152.09)"/>
  <path class="cls-2" d="M61.441,166.546c-.692-.195-1.953.493-2.082-.938-.12-1.318,1.232-1.057,1.943-1.481a.362.362,0,0,1,.242-.044c1.055.265,2.231-1.082,3.211.247a.76.76,0,0,1,.046.9C64.394,166.06,63.209,166.558,61.441,166.546Z" transform="translate(-38.07 -152.09)"/>
  <path class="cls-2" d="M65.258,187.02c1.508-1.06,3.61-.635,5-2-.108.868.424,2.244-1.452,1.615a1.26,1.26,0,0,0-1.682,1.053c-.022,1.042.9.438,1.482.533a1.625,1.625,0,0,1,1.354,1.765c-.264.917-1.139.418-1.841.13C66.659,189.521,65.443,188.762,65.258,187.02Z" transform="translate(-38.07 -152.09)"/>
  <path class="cls-2" d="M41.519,218.481a5.587,5.587,0,0,1,1.617.243c.508.189,1.6,0,1.343,1.033-.19.773-1.031.768-1.691.7-1.064-.11-2.121-.3-3.177-.484-.582-.1-1.585.318-1.539-.691.035-.769.933-.793,1.613-.8C40.1,218.478,40.517,218.481,41.519,218.481Z" transform="translate(-38.07 -152.09)"/>
  <path class="cls-2" d="M50.771,184.024a1.034,1.034,0,0,1,1,.5c-.4.087-1.074.243-.772.676,1.774,2.538-.741,3.96-1.4,5.862C50.135,188.734,48.412,186.034,50.771,184.024Z" transform="translate(-38.07 -152.09)"/>
  <path class="cls-2" d="M80.747,202.5c-1.315,1.77-2.567,3.618-5,4,.537-.564,1.2-1.063,1-2,.247-.2.7-.4.709-.61C77.61,201.128,79.115,201.684,80.747,202.5Z" transform="translate(-38.07 -152.09)"/>
  <path class="cls-2" d="M54.466,167.177c-1.057-.327-2.739.24-2.775-1.576-.014-.7.921-1.165,1.727-1,1.129.227,2.34.524,2.291,2.051C55.68,167.536,55.054,167.4,54.466,167.177Z" transform="translate(-38.07 -152.09)"/>
  <path class="cls-2" d="M85.243,209.49c-.629-.417-.345-.977-.315-1.553.132-2.487-.606-4.512-3.183-5.436,1.356,0,3.242-.653,3.37,1.462C85.226,205.787,87.247,207.629,85.243,209.49Z" transform="translate(-38.07 -152.09)"/>
  <path class="cls-2" d="M86.705,198.966c-.019.921-.642,1.086-1.359,1.008-1.007-.109-2.1-.276-2.023-1.633a1.263,1.263,0,0,1,1.615-1.132C85.812,197.388,86.7,197.8,86.705,198.966Z" transform="translate(-38.07 -152.09)"/>
  <path class="cls-2" d="M47.687,217.411c-.581-.034-.88-.448-.687-.628,1.041-.969.888-2.782,2.055-3.379.55-.281,1.588,1.729,1.446,1.878A17.55,17.55,0,0,1,47.687,217.411Z" transform="translate(-38.07 -152.09)"/>
  <path class="cls-2" d="M50.767,176.535q0,2.246-.005,4.492A2.643,2.643,0,0,1,48.385,179c-.259-1.371.642-1.75,1.866-1.715C50.416,177.287,50.594,176.8,50.767,176.535Z" transform="translate(-38.07 -152.09)"/>
  <path class="cls-2" d="M68.756,171.041c-.678-1.7-2.013-2.132-3.712-2.021-.771.05-1.65.279-2.284-.475,2.059-.5,4.139-.113,6.235-.287C68.907,169.28,68.832,170.161,68.756,171.041Z" transform="translate(-38.07 -152.09)"/>
  <path class="cls-2" d="M75.25,206.992a1.506,1.506,0,0,1-1.5,1c-.625-.057-1.66.121-1.56-.673a1.34,1.34,0,0,1,1.944-.87C74.506,206.638,74.879,206.812,75.25,206.992Z" transform="translate(-38.07 -152.09)"/>
  <path class="cls-2" d="M73.686,174.123c.507.124.928.385.879.957a.774.774,0,0,1-.993.756.958.958,0,0,1-.733-1.093C72.885,174.275,73.214,174.075,73.686,174.123Z" transform="translate(-38.07 -152.09)"/>
  <path class="cls-2" d="M72.752,182.026c-.9-.875-.337-2-.5-3C73.035,179.927,73.806,180.825,72.752,182.026Z" transform="translate(-38.07 -152.09)"/>
  <path class="cls-2" d="M81.246,212.486a2.751,2.751,0,0,1,2-1C83.105,212.869,82.409,213.143,81.246,212.486Z" transform="translate(-38.07 -152.09)"/>
  <path class="cls-2" d="M60.761,168.539l-3.5-.495C58.61,166.949,59.651,167.988,60.761,168.539Z" transform="translate(-38.07 -152.09)"/>
  <path class="cls-2" d="M56.267,168.045a2.349,2.349,0,0,1-1.5,1.994A2.36,2.36,0,0,1,56.267,168.045Z" transform="translate(-38.07 -152.09)"/>
  <path class="cls-2" d="M69.754,174.037a3.35,3.35,0,0,0-.5-2C70.667,172.4,70.444,173.158,69.754,174.037Z" transform="translate(-38.07 -152.09)"/>
  <path class="cls-2" d="M53.268,186.022c.588.36.486.947.493,1.5C52.461,187.4,53,186.665,53.268,186.022Z" transform="translate(-38.07 -152.09)"/>
  <path class="cls-2" d="M76.757,204.509c-.413-.26-1.059-.528-.759-1.048.323-.561.619-.116.711.313A4.863,4.863,0,0,1,76.757,204.509Z" transform="translate(-38.07 -152.09)"/>
  <path class="cls-4" d="M80.313,211.555c-1.383,1.631-3.53,2.1-5.14,3.389-4.674,1.2-9.318,2.23-14.161.633a24.352,24.352,0,0,1-6.736-3.592c-.457-.7-1.052-1.3-1.5-2.012-4.376-7.531-3-14.782,1.07-21.9l.913-.555a.569.569,0,0,1,.7-.045c1.021.943.488,1.777-.193,2.592-4.687,5.607-4.588,14.278-.94,18.916,1.137,1.446,2.176,2.914,4.255,3.142,1.266.138,1.947,1.4,3.141,1.9,4.857,2.03,9.264.465,13.631-1.437,1.522-.662,2.9-1.636,4.68-1.294C80.132,211.377,80.222,211.466,80.313,211.555Z" transform="translate(-38.07 -152.09)"/>
  <path class="cls-5" d="M52.78,209.973a2.6,2.6,0,0,1,1.5,2.012A2.3,2.3,0,0,1,52.78,209.973Z" transform="translate(-38.07 -152.09)"/>
  <path class="cls-4" d="M58.732,208c3.359,3.114,7.423,2.837,11.473,2.24a16.73,16.73,0,0,0,9.266-5c1.189-1.165,2.371-1.6,3.7-.455,1.38,1.194,1.2,2.727.284,4.043a6.422,6.422,0,0,1-3.139,2.721l-.091-.091c-.7-.922-.213-1.711.263-2.518.4-.672,1.26-1.152.892-2.287-1.463-.047-2.361,1.036-3.415,1.754-3.625,2.47-7.365,4.512-11.989,4.238-3.556-.21-6.551-1.914-9.45-3.619-1.862-1.095-2.131-3.509-2.331-5.572a34.789,34.789,0,0,1,0-6.98c.381-3.623,2.912-6.111,5.205-8.578A12.886,12.886,0,0,1,65,184.278c2.313-.7,4.011-1.97,4.472-4.492.093-.088.188-.174.283-.26,2.238,2.295,1.833,4.195-1.257,5.281-3.281,1.154-6.51,2.334-8.762,5.194-4.446,4-5.871,11.789-2.94,16.106A5.18,5.18,0,0,0,58.732,208Z" transform="translate(-38.07 -152.09)"/>
  <path class="cls-6" d="M55.267,187.519l-.5,0c.3-1.2-.593-1.79-1.278-2.5-3.025-3.123-2.833-6.789-1.414-10.425,1.37-3.509,4.167-5.2,8-5.152a15.736,15.736,0,0,1,6.341.929,2.806,2.806,0,0,1,1.714,3.849c-.6,1.72-1.88,2.086-3.607,1.5a10.656,10.656,0,0,0-4.637-.688,3.7,3.7,0,0,0-3.527,4.042c.176,2.436,1.986,2.452,3.816,2.5,1.5.039,2.679-.754,3.989-1.244,1.793-.67,3.535-1.942,5.6-.806l-.041.045c-3.247,1.423-6.386,3.126-9.975,3.646a3.693,3.693,0,0,1-4.171-2.35,5.962,5.962,0,0,1,1.2-6.253,2.746,2.746,0,0,1,3.086-1c1.426.484,2.977.2,4.459.453.668.113,1.4.1,1.549-.805.111-.687-.361-1.061-.917-1.326a8.71,8.71,0,0,0-10.462,1.916c-2.813,3.082-2.656,6.77.172,10.153C55.554,185.083,56.35,186.124,55.267,187.519Z" transform="translate(-38.07 -152.09)"/>
  <path class="cls-7" d="M55.267,187.519a3.381,3.381,0,0,0-1.081-3.119c-4.422-3.889-2.018-11.541,3.106-13.342,2.929-1.028,5.279-.429,7.848.093a1.865,1.865,0,0,1,1.653,2.528c-.432,1.442-1.352,1.556-2.507,1.11-1.8-.695-3.778.21-5.635-.726-.358-.181-2.03,1.044-2.451,2.375-.609,1.927-.809,3.767.656,5.376.826.907,1.79.853,3.086.751,3.535-.278,6.194-3.123,9.776-3,0,3.233-.62,4.023-4.15,5.274-3.354,1.188-5.721,3.434-7.991,6.209-4.166,5.094-3.119,10.424-1.83,15.96a2.228,2.228,0,0,0,1.012,1.634c4.588,2.285,9.232,4.729,14.538,2.689a21.947,21.947,0,0,0,6.479-3.592,22.943,22.943,0,0,1,2.661-1.822c.678-.431,1.417-.625,2,.135.5.653.133,1.215-.269,1.8-.778,1.129-2.115,1.968-1.947,3.608-3.156.243-5.424,2.7-8.474,3.319-3.737.761-7.647,1.814-10.937-.449-2.141-1.472-5.07-1.638-6.566-4.254a23.274,23.274,0,0,1-3.119-7.636c-.721-4.017,1.145-7.335,1.764-10.972.142-.833,1.087-.959,1.62-1.46C55.248,189.318,56.082,188.675,55.267,187.519Z" transform="translate(-38.07 -152.09)"/>
  <line class="cls-8" x1="10.862" y1="9.932" x2="37.273" y2="2"/>
</svg>
