<svg id="Layer_1" data-name="Layer 1" xmlns="http://www.w3.org/2000/svg" viewBox="0 0 17.206 51.637">
  <defs>
    <style>
      .cls-1 {
        fill: #efaa4d;
      }

      .cls-2 {
        fill: none;
        stroke: #efaa4d;
        stroke-linecap: round;
        stroke-linejoin: round;
        stroke-width: 4px;
      }
    </style>
  </defs>
  <path class="cls-1" d="M290.3,235.5c0,2.575.053,5.152-.02,7.725-.043,1.549-.618,2.872-2.5,2.718-1.828-.15-2.22-1.53-2.167-3.06.312-9.062-.7-18.061-1.315-27.077a13.72,13.72,0,0,0-.811-2.587,2.684,2.684,0,0,1,1.378-3.387c1.407-.727,2.375.016,3.023,1.281a15.366,15.366,0,0,1,2.052,8.973c-.521,5.09.376,9.544.376,14.688C290.318,234.951,290.318,235.119,290.3,235.5Z" transform="translate(-276.348 -194.321)"/>
  <line class="cls-2" x1="2" y1="8.557" x2="15.206" y2="2"/>
</svg>
