<svg width="18" height="52" viewBox="0 0 18 52" fill="none" xmlns="http://www.w3.org/2000/svg">
<g clip-path="url(#clip0_704_1154)">
<path d="M13.952 41.179C13.952 43.754 14.005 46.331 13.932 48.904C13.889 50.453 13.314 51.776 11.432 51.622C9.60399 51.472 9.212 50.092 9.265 48.562C9.577 39.5 8.56499 30.501 7.94999 21.485C7.76573 20.598 7.49407 19.7314 7.13899 18.898C6.89812 18.2638 6.90634 17.5619 7.162 16.9335C7.41766 16.3051 7.90177 15.7969 8.51698 15.511C9.92398 14.784 10.892 15.527 11.54 16.792C13.1248 19.503 13.841 22.6346 13.592 25.765C13.071 30.855 13.968 35.309 13.968 40.453C13.97 40.63 13.97 40.798 13.952 41.179Z" fill="#EFAA4D"/>
<path d="M2 8.557L15.206 2" stroke="#EFAA4D" stroke-width="4" stroke-linecap="round" stroke-linejoin="round"/>
</g>
<defs>
<clipPath id="clip0_704_1154">
<rect width="17.206" height="51.637" fill="white"/>
</clipPath>
</defs>
</svg>
