<svg xmlns="http://www.w3.org/2000/svg" viewBox="0 0 6.977 36.409">
  <defs>
    <style>
      .cls-1 {
        fill: #efaa4d;
      }
    </style>
  </defs>
  <g id="Layer_2" data-name="Layer 2">
    <g id="Layer_1-2" data-name="Layer 1">
      <path class="cls-1" d="M6.958,25.954c0,2.575.053,5.152-.02,7.725-.043,1.549-.618,2.872-2.5,2.718-1.828-.15-2.22-1.53-2.167-3.06C2.586,24.274,1.57,15.276.959,6.26A13.729,13.729,0,0,0,.148,3.672,2.683,2.683,0,0,1,1.526.286C2.933-.441,3.9.3,4.548,1.566A15.364,15.364,0,0,1,6.6,10.54c-.521,5.09.376,9.544.376,14.687C6.972,25.4,6.972,25.571,6.958,25.954Z"/>
    </g>
  </g>
</svg>
