<svg xmlns="http://www.w3.org/2000/svg" viewBox="0 0 43.672 27.701">
  <defs>
    <style>
      .cls-1 {
        fill: #81b4c3;
      }

      .cls-2 {
        fill: #8ab5bb;
      }
    </style>
  </defs>
  <g id="Layer_2" data-name="Layer 2">
    <g id="Layer_1-2" data-name="Layer 1">
      <path class="cls-1" d="M38.587,7.312a1.009,1.009,0,0,0,.006-1.556,25.269,25.269,0,0,1-.619-2.645C37.8,1.8,37.995.521,39.512.1c1.478-.412,2.347.536,2.952,1.7,2.642,5.084.837,10.71-4.292,13.681a30.307,30.307,0,0,1-11.107,3.51c-5.606.8-11.231,1.346-16.865.231C3.5,17.9-.292,13.335.018,7.085.1,5.408.654,3.955,2.458,3.9c2.034-.062,2.2,1.574,2.2,3.192a6.165,6.165,0,0,0,4.727,6.5,11.544,11.544,0,0,0,4.652.735c2.8.991,5.6.064,8.377-.119,4.472-.295,8.954-.869,12.977-3.116C36.9,10.251,38.514,9.41,38.587,7.312Z"/>
      <path class="cls-2" d="M23.994,25.168c-.194,1.546-.9,2.506-2.357,2.533-1.406.026-2.067-.927-2.086-2.233a2.169,2.169,0,0,1,2.254-2.408A2.241,2.241,0,0,1,23.994,25.168Z"/>
    </g>
  </g>
</svg>
