<svg width="44" height="56" viewBox="0 0 44 56" fill="none" xmlns="http://www.w3.org/2000/svg">
<g clip-path="url(#clip0_704_1157)">
<path d="M38.587 28.727C38.702 28.6328 38.7948 28.5143 38.8586 28.3801C38.9225 28.2458 38.9559 28.0991 38.9565 27.9504C38.9571 27.8018 38.9248 27.6548 38.8619 27.52C38.7991 27.3853 38.7073 27.2661 38.593 27.171C38.3395 26.3011 38.1329 25.4181 37.974 24.526C37.804 23.209 37.995 21.935 39.512 21.513C40.99 21.1 41.859 22.049 42.464 23.213C45.106 28.297 43.301 33.923 38.172 36.894C34.7315 38.7712 30.9595 39.9632 27.065 40.404C21.459 41.204 15.834 41.751 10.2 40.636C3.50001 39.311 -0.291998 34.75 0.0180018 28.501C0.101002 26.823 0.654004 25.371 2.458 25.316C4.492 25.253 4.658 26.889 4.658 28.508C4.53794 29.9778 4.94888 31.4419 5.8162 32.6345C6.68353 33.8272 7.94976 34.6693 9.38501 35.008C10.8686 35.5704 12.4522 35.8209 14.037 35.744C16.837 36.735 19.637 35.807 22.414 35.624C26.886 35.329 31.368 34.755 35.391 32.508C36.898 31.666 38.514 30.824 38.587 28.727Z" fill="#81B4C3"/>
<path d="M23.994 46.583C23.8 48.128 23.094 49.089 21.637 49.115C20.231 49.141 19.57 48.189 19.551 46.883C19.5161 46.5715 19.5492 46.2561 19.648 45.9585C19.7467 45.661 19.9088 45.3884 20.123 45.1596C20.3372 44.9307 20.5985 44.751 20.8889 44.6328C21.1793 44.5146 21.4918 44.4608 21.805 44.475C22.368 44.4871 22.9058 44.7107 23.3114 45.1013C23.717 45.4919 23.9607 46.0209 23.994 46.583Z" fill="#8AB5BB"/>
<path d="M9.08099 9.932L35.493 2" stroke="#81B4C3" stroke-width="4" stroke-miterlimit="10" stroke-linecap="round"/>
</g>
<defs>
<clipPath id="clip0_704_1157">
<rect width="43.672" height="55.2" fill="white"/>
</clipPath>
</defs>
</svg>
