<svg id="Layer_1" data-name="Layer 1" xmlns="http://www.w3.org/2000/svg" viewBox="0 0 43.672 55.2">
  <defs>
    <style>
      .cls-1 {
        fill: #fbfcfd;
      }

      .cls-2 {
        fill: #81b4c3;
      }

      .cls-3 {
        fill: #8ab5bb;
      }

      .cls-4 {
        fill: none;
        stroke: #81b4c3;
        stroke-linecap: round;
        stroke-miterlimit: 10;
        stroke-width: 4px;
      }
    </style>
  </defs>
  <path class="cls-1" d="M246.838,286.8c-1.77-.022-3.471.357-5.293.279-4.935-.212-9.884-.1-14.828-.111-.24,0-.811-.05-.239.425a2.39,2.39,0,0,0,.722.252c-4.722.84-19.28.16-22.6-1.577h42.271Z" transform="translate(-203.648 -232.804)"/>
  <path class="cls-2" d="M242.235,261.531a1.009,1.009,0,0,0,.006-1.556,25.328,25.328,0,0,1-.619-2.645c-.17-1.317.021-2.591,1.538-3.013,1.478-.413,2.347.536,2.952,1.7,2.642,5.084.837,10.71-4.292,13.681a30.307,30.307,0,0,1-11.107,3.51c-5.606.8-11.231,1.347-16.865.232-6.7-1.325-10.492-5.886-10.182-12.135.083-1.678.636-3.13,2.44-3.185,2.034-.063,2.2,1.573,2.2,3.192a6.163,6.163,0,0,0,4.727,6.5,11.545,11.545,0,0,0,4.652.736c2.8.991,5.6.063,8.377-.12,4.472-.295,8.954-.869,12.977-3.116C240.546,264.47,242.162,263.628,242.235,261.531Z" transform="translate(-203.648 -232.804)"/>
  <path class="cls-3" d="M227.642,279.387c-.194,1.545-.9,2.506-2.357,2.532-1.406.026-2.067-.926-2.086-2.232a2.169,2.169,0,0,1,2.254-2.408A2.241,2.241,0,0,1,227.642,279.387Z" transform="translate(-203.648 -232.804)"/>
  <line class="cls-4" x1="9.081" y1="9.932" x2="35.493" y2="2"/>
</svg>
