<svg id="Layer_1" data-name="Layer 1" xmlns="http://www.w3.org/2000/svg" viewBox="0 0 24.817 41.185">
  <defs>
    <style>
      .cls-1 {
        fill: #fbfcfd;
      }

      .cls-2 {
        fill: #eaae5b;
      }

      .cls-3 {
        fill: #e8b26a;
      }

      .cls-4 {
        fill: #efa94a;
      }

      .cls-5 {
        fill: none;
        stroke: #efaa4d;
        stroke-linecap: round;
        stroke-linejoin: round;
        stroke-width: 4px;
      }
    </style>
  </defs>
  <path class="cls-1" d="M39.436,205.072c.227,1.215-.668,2.381-.076,3.661.2.443.985,1.259-.016,1.685-.735.313-1.2-.362-1.594-.9-.171-.233.035-.681-.422-.764-1.355,2.373-2.629,2.689-5.006,1.179a1.1,1.1,0,0,0-1.366-.06,4.23,4.23,0,0,1-5.252.249c-1.7-1.076-3.369.011-5.065.288-2.411.394-2.584.111-1.551-2.117.417-.9.334-1.936.987-2.79.269-.353.147-1.288-.772-.956-.546.2-.979.4-1.172-.271-.167-.575.654-.8.708-1,.3-1.119,1.26-1.833,1.612-2.877.206-.609.674-.318.984-.3a6.346,6.346,0,0,1,5.082,2.151c.477.581,1.605-.415,2.6-.044-.52-.855-2.254-.969-.948-2.584.739-.914-.691-1.21-1.282-.974-1.982.789-4.135-.424-6.159.824-1.017.627-2.425.323-1.874-1.789a11.393,11.393,0,0,0,.8-3.779c-.054-.782.087-1.483-.623-1.914-1.832-1.109-.434-2.365.286-2.575a6.146,6.146,0,0,0,2.613-1.77c.8-.759,1.846-1.645,2.915-.2,2.93-1.948,4.115,3.091,6.9,1.723,1.346,1.861,3.323,1.431,5.183,1.427.793.952-.052,2.874,2.428,3.005,1.256.066.218,2.241.073,3.466-1.884.066-2.1-2.34-3.792-2.555a39.725,39.725,0,0,0-9.725-4.908c-1.361-.442-2.522-.343-3.014,1.2-.46,1.442.559,2.116,1.649,2.64,1.5.718,3.068,1.254,4.623,1.834a26.963,26.963,0,0,1,4.163,2.7c2.821,2.18,2.569,3.957-.736,5.414a10.864,10.864,0,0,1-7.3.487c-1.252-.328-2.356-.5-2.939.862-.575,1.344.319,2.219,1.347,2.854,2.216,1.372,4.636.874,7,.567a13.476,13.476,0,0,0,2.831-.911,20.02,20.02,0,0,0,4.587-2.445,1.45,1.45,0,0,1,1.045.034C39.261,204.909,39.348,204.991,39.436,205.072Z" transform="translate(-17.842 -169.732)"/>
  <path class="cls-1" d="M39.947,198.076c1.475,1,3.139,2.3,2.612,4.063-.33,1.111-.95,3.2-3.123,2.933l-.015-.019A57.964,57.964,0,0,1,39.947,198.076Z" transform="translate(-17.842 -169.732)"/>
  <path class="cls-1" d="M23.419,183.1c-.89-.04-2.027-.023-2.189-1.058-.134-.863.765-1.406,1.66-1.4,1.038.008,2.083.381,2.173,1.539C25.145,183.225,24.124,183.034,23.419,183.1Z" transform="translate(-17.842 -169.732)"/>
  <path class="cls-1" d="M36.892,190.6c.458-.555.438-1.562,1.5-1.392.115.019.311.249.287.32C38.4,190.367,37.664,190.475,36.892,190.6Z" transform="translate(-17.842 -169.732)"/>
  <path class="cls-2" d="M34.01,207.652a14.422,14.422,0,0,1-7.973,1.434,5.861,5.861,0,0,1-3.394-1.4,2.583,2.583,0,0,1-.843-3.529,2.353,2.353,0,0,1,3.389-1.012c2.437,1.108,4.913.589,7.253-.392,2.943-1.235,3.076-2.374.569-4.273-1.321-1-2.74-1.871-4.115-2.8a.511.511,0,0,1-.007-.683c2.248-.066,6.882,3.091,7.382,5.031.413,1.6-1.46,3.959-3.911,4.461-2.238.458-4.5,1.271-6.87.436-.66-.233-1.64-.451-1.962.455-.356,1,.573,1.445,1.285,1.856a5,5,0,0,0,4.792.192,4.859,4.859,0,0,1,3.858-.277A1.115,1.115,0,0,1,34.01,207.652Z" transform="translate(-17.842 -169.732)"/>
  <path class="cls-3" d="M28.935,195.087l-.039.589a21,21,0,0,1-5.11-1.91A2.463,2.463,0,0,1,22.33,190.3a2.32,2.32,0,0,1,3.218-1.459,34.153,34.153,0,0,1,10.394,5.241q.591.94,1.18,1.881c-.851.666-1.375-.073-1.875-.516-2.511-2.225-5.683-3.232-8.588-4.73a4.2,4.2,0,0,0-.7-.251c-.782-.24-1.674-.689-2.036.506-.281.927.4,1.27,1.152,1.584A8.345,8.345,0,0,1,28.935,195.087Z" transform="translate(-17.842 -169.732)"/>
  <path class="cls-2" d="M39.017,203.6q-.281.741-.562,1.481a11.1,11.1,0,0,1-4.446,2.574l-.112-.143C34.348,205.728,37.154,203.584,39.017,203.6Z" transform="translate(-17.842 -169.732)"/>
  <path class="cls-4" d="M39.017,203.6c-1.746,1.253-3.686,2.252-5.12,3.913a11.505,11.505,0,0,0-4.734.786c-1.97.9-4.071.181-5.832-1.146a2.022,2.022,0,0,1-.757-2.434c.34-.957,1.323-.782,1.933-.6a12.88,12.88,0,0,0,6.772-.027,5.579,5.579,0,0,0,1.675-.348c3.752-2.127,3.839-3.368.411-6.032-1.368-1.062-2.623-2.3-4.43-2.619-1.845-.4-3.146-1.943-5.123-2.226-1.334-.192-.755-1.735-.592-2.535.194-.951,1.036-1.3,2.155-.792,3.868,1.749,7.961,3.076,11.054,6.206.15.153.457.151.692.22C39.863,198.524,40.363,200.541,39.017,203.6Z" transform="translate(-17.842 -169.732)"/>
  <line class="cls-5" x1="2" y1="8.557" x2="15.206" y2="2"/>
  <path class="cls-4" d="M34.858,193.316s10.1,7.232,2.93,12.309l-2.146-4.04Z" transform="translate(-17.842 -169.732)"/>
</svg>
