<svg width="23" height="40" viewBox="0 0 23 40" fill="none" xmlns="http://www.w3.org/2000/svg">
<path d="M16.168 37.92C13.7019 39.1499 10.9351 39.6476 8.19498 39.354C6.94291 39.2629 5.75318 38.7721 4.80098 37.954C4.2248 37.5947 3.8133 37.0229 3.65553 36.3624C3.49776 35.702 3.60642 35.0059 3.95798 34.425C4.09759 34.1207 4.30052 33.8497 4.55322 33.6302C4.80592 33.4106 5.10256 33.2474 5.42334 33.1516C5.74411 33.0559 6.08164 33.0296 6.41337 33.0747C6.74509 33.1198 7.06338 33.2351 7.34698 33.413C9.78398 34.521 12.26 34.002 14.6 33.021C17.543 31.786 17.676 30.647 15.169 28.748C13.848 27.748 12.429 26.877 11.054 25.948C10.9688 25.8551 10.9209 25.7339 10.9196 25.6078C10.9183 25.4818 10.9637 25.3596 11.047 25.265C13.295 25.199 17.929 28.356 18.429 30.296C18.842 31.896 16.969 34.255 14.518 34.757C12.28 35.215 10.018 36.028 7.64798 35.193C6.98798 34.96 6.00798 34.742 5.68598 35.648C5.32998 36.648 6.25898 37.093 6.97098 37.504C7.68965 37.935 8.50512 38.1785 9.34246 38.212C10.1798 38.2456 11.0121 38.0681 11.763 37.696C12.3528 37.3881 12.9996 37.2047 13.6632 37.1571C14.3269 37.1094 14.9932 37.1986 15.621 37.419C15.8551 37.5187 16.0482 37.6955 16.168 37.92Z" fill="#EAAE5B"/>
<path d="M11.093 25.355L11.054 25.944C9.27485 25.5322 7.55702 24.8901 5.94398 24.034C5.60267 23.9266 5.28887 23.7461 5.0244 23.5051C4.75992 23.2641 4.55114 22.9684 4.41256 22.6385C4.27398 22.3086 4.20894 21.9525 4.22197 21.5949C4.23499 21.2374 4.32577 20.8869 4.48798 20.568C4.58069 20.245 4.74244 19.946 4.96206 19.6917C5.18167 19.4374 5.45391 19.2339 5.75994 19.0951C6.06597 18.9564 6.39848 18.8857 6.73449 18.8881C7.07049 18.8905 7.40196 18.9659 7.70598 19.109C11.445 20.2483 14.9608 22.0211 18.1 24.35C18.494 24.9767 18.8873 25.6037 19.28 26.231C18.429 26.897 17.905 26.158 17.405 25.715C14.894 23.49 11.722 22.483 8.81698 20.985C8.59153 20.8808 8.35728 20.7968 8.11698 20.734C7.33498 20.494 6.44298 20.045 6.08098 21.24C5.79998 22.167 6.48098 22.51 7.23298 22.824C8.73202 23.288 10.0699 24.1652 11.093 25.355Z" fill="#E8B26A"/>
<path d="M21.175 33.868C20.9877 34.362 20.8003 34.8557 20.613 35.349C19.3527 36.5429 17.8299 37.4245 16.167 37.923L16.055 37.78C16.506 35.996 19.312 33.852 21.175 33.868Z" fill="#EAAE5B"/>
<path d="M21.175 33.868C19.429 35.121 17.489 36.12 16.055 37.781C14.4393 37.7073 12.8262 37.9752 11.321 38.567C9.35103 39.467 7.25003 38.748 5.48903 37.421C5.10266 37.1638 4.81653 36.7815 4.67869 36.3383C4.54085 35.8951 4.55968 35.418 4.73203 34.987C5.07203 34.03 6.05503 34.205 6.66503 34.387C8.88436 34.9822 11.2225 34.9729 13.437 34.36C14.0099 34.3308 14.5749 34.2134 15.112 34.012C18.864 31.885 18.951 30.644 15.523 27.98C14.155 26.918 12.9 25.68 11.093 25.361C9.24803 24.961 7.94703 23.418 5.97003 23.135C4.63603 22.943 5.21503 21.4 5.37803 20.6C5.57203 19.649 6.41403 19.3 7.53303 19.808C11.401 21.557 15.494 22.884 18.587 26.014C18.737 26.167 19.044 26.165 19.279 26.234C22.021 28.792 22.521 30.809 21.175 33.868Z" fill="#EFA94A"/>
<path d="M2 8.557L15.206 2" stroke="#EFAA4D" stroke-width="4" stroke-linecap="round" stroke-linejoin="round"/>
<path d="M17.016 23.584C17.016 23.584 27.116 30.816 19.946 35.893L17.8 31.853L17.016 23.584Z" fill="#EFA94A"/>
</svg>
