<svg width="52" height="53" viewBox="0 0 52 53" fill="none" xmlns="http://www.w3.org/2000/svg">
<path d="M6.391 51.089C0.528997 46.936 -0.609003 41.054 0.259997 34.422C0.377997 33.522 0.378997 32.609 0.433997 31.703C0.600118 31.425 0.734302 31.1291 0.833996 30.821C1.173 29.171 1.826 27.564 3.801 28.006C5.776 28.448 6.04 30.098 5.549 31.949C4.97556 34.0993 4.74639 36.3269 4.87 38.549C4.77844 39.2878 4.92823 40.0363 5.297 40.683C5.897 45.223 8.497 47.211 13.727 47.131C18.427 47.059 21.439 44.419 21.805 39.701C22.087 36.065 22.287 32.401 21.19 28.801C20.673 27.108 21.028 25.492 22.902 24.981C24.545 24.533 25.553 25.581 25.863 27.201C26.0986 27.999 26.5264 28.7269 27.109 29.321C28.132 30.637 28.962 30.577 30.036 29.259C32.1111 26.6479 34.5752 24.3713 37.342 22.509C42.425 19.174 48.161 20.177 50.542 24.776C51.597 26.811 51.342 28.981 51.295 31.136C48.727 37.361 43.549 38.498 37.62 38.092C35.8006 38.0308 33.9905 37.8045 32.212 37.416C30.49 36.974 29.712 37.58 29.295 39.107C26.87 39.918 26.337 41.954 25.66 44.141C23.581 50.864 16.403 54.041 8.76 51.823C7.965 51.596 7.18 51.338 6.391 51.089Z" fill="#AA7C8E"/>
<path d="M37.887 16.177C37.655 17.516 37.046 18.585 35.512 18.416C35.1995 18.3953 34.8948 18.3088 34.6181 18.162C34.3414 18.0152 34.0989 17.8116 33.9065 17.5644C33.7141 17.3172 33.5762 17.0321 33.5018 16.7279C33.4275 16.4236 33.4183 16.107 33.475 15.799C33.4688 15.5069 33.5241 15.2167 33.6373 14.9473C33.7505 14.6779 33.9191 14.4353 34.1321 14.2353C34.3451 14.0353 34.5978 13.8823 34.8738 13.7863C35.1498 13.6903 35.4429 13.6534 35.734 13.678C37.27 13.763 37.815 14.766 37.887 16.177Z" fill="#AB8695"/>
<path d="M38.666 32.753C37.482 32.444 35.284 33.398 34.808 31.999C34.427 30.876 36.472 29.788 37.534 28.779C38.9071 27.4457 40.5814 26.4629 42.415 25.914C44.115 25.414 45.59 25.808 46.324 27.579C47.039 29.303 46.351 30.638 44.895 31.634C43.066 32.888 40.972 32.795 38.666 32.753Z" fill="#F9F9FB"/>
<path d="M20.064 10.375L46.475 2.44299" stroke="#AA7C8E" stroke-width="4" stroke-linecap="round" stroke-linejoin="round"/>
</svg>
