<svg id="Layer_1" data-name="Layer 1" xmlns="http://www.w3.org/2000/svg" viewBox="0 0 73.053 79.83">
  <defs>
    <style>
      .cls-1 {
        fill: #fbfcfd;
      }

      .cls-2 {
        fill: #fcfdfe;
      }

      .cls-3 {
        fill: #aa7c8e;
      }

      .cls-4 {
        fill: #ab8695;
      }

      .cls-5 {
        fill: #f9f9fb;
      }

      .cls-6 {
        fill: none;
        stroke: #aa7c8e;
        stroke-linecap: round;
        stroke-linejoin: round;
        stroke-width: 4px;
      }
    </style>
  </defs>
  <path class="cls-1" d="M75.221,151.681c.453.025.93.228.918.656a1.224,1.224,0,0,1-1.13,1.13.765.765,0,0,1-.872-.708C74.07,152.051,74.573,151.756,75.221,151.681Z" transform="translate(-22.553 -146.262)"/>
  <path class="cls-1" d="M81.519,146.334c1.331,0,2.665-.045,3.992.032a1.353,1.353,0,0,1,.932.685c.218.451-.282.671-.584.949a3.365,3.365,0,0,1-2.535.8c-1.664-.044-3.33.006-4.994-.03-1.024-.021-1.9-.552-1.942-1.563-.051-1.344,1.162-.845,1.886-.9,1.077-.075,2.163-.019,3.245-.019Z" transform="translate(-22.553 -146.262)"/>
  <path class="cls-1" d="M55.588,149.547H68.206c-4.2,1.146-8.4.663-12.59.7Z" transform="translate(-22.553 -146.262)"/>
  <path class="cls-1" d="M91.83,166.186c-.349-.913-1.054-1.526-.456-2.369a.636.636,0,0,1,.612-.084C92.689,164.408,92.612,165.14,91.83,166.186Z" transform="translate(-22.553 -146.262)"/>
  <path class="cls-2" d="M94.457,198.145a2.255,2.255,0,0,1,.315,3.719c-.851.9-1.948.83-2.314-.723A2.914,2.914,0,0,1,94.457,198.145Z" transform="translate(-22.553 -146.262)"/>
  <path class="cls-1" d="M94.457,198.145l-2,3c-1.391-.236-1.03-1.113-.548-1.816.569-.828.2-2.37,1.656-2.475C94.208,196.8,94.42,197.525,94.457,198.145Z" transform="translate(-22.553 -146.262)"/>
  <path class="cls-1" d="M91.905,182.415c-.87-.208-.944-.777-.918-1.364.022-.5.163-1.116.759-1.027.749.111.917.9,1.018,1.514C92.875,182.206,92.134,182.132,91.905,182.415Z" transform="translate(-22.553 -146.262)"/>
  <path class="cls-1" d="M27.941,209.873a3.342,3.342,0,0,1,2.272.812c-1.555.677-1.6,1.688-.381,2.6,2.6,1.955,5.365,3.3,8.77,2.112a2.61,2.61,0,0,0,1.89-1.795c.212-.908-.591-1.9.067-2.858.009-.014-.111-.168-.156-.161-.672.109-1.685,1.045-1.772-.432-.053-.9,1.036-.321,1.579-.556a2.05,2.05,0,0,1,2.987,1c-.28-1.516,1.665-3.022-.1-4.557a.487.487,0,0,1-.082-.462c1.933-2.722.083-5.392-.086-8.084-.077-1.234-.329-2.706.956-3.391,1.462-.78,3.16-1.243,4.716-.144.722.511.966.864,1.514-.267.951-1.962,2.594.715,4.014-.363.509-.387,2.488,1.6,2.066-1.126,1.894.469,2.052-3.259,4.447-1.828.341.2,1.172-.414,1.941-.716A3.349,3.349,0,0,0,58.38,188.4c-.6.23-.208,2.377-1.591.878-.79-.856-1.748-.805-2.711-.948-.148-.022-.4-.154-.4-.24-.057-1.9-.17-3.813-.064-5.709.029-.521.795-.417,1.259-.133,1.7,1.044,2.835.052,3.832-1.146.709-.853,1.5-.534,2.248-.276a15.363,15.363,0,0,1,1.711,1c.927.467,1.685,1.25.984,2.125-.682.853-1.154-.419-1.741-.7-.5-.239-.991-.491-1.49-.74-.721,1.726,4.8,2.174.582,4.549,1.662-.347,3.259-.636,3.944,1.282.341.955-1.021.243-1.053,1.07,1.833-.038,3.717-.847,5.478.263.762.48.659-.419.966-.673,1.012-.839,4.48.061,4.906,1.31.208.611.405,1.388-.234,1.825-.507.346-.863-.274-1.235-.572a2.533,2.533,0,0,0-1.727-.716c.725.982,1.46,1.957,2.172,2.948,1.075,1.5.912,5.055-.291,6.663-.1-.087-.2-.173-.3-.259a4.5,4.5,0,0,1-.411-2.174c-.37-6.046-4.914-8.98-10.636-6.833-2.794,1.049-4.877,3.112-6.993,5.106-.664.626-1.237,1.344-1.886,1.988-2.389,2.37-3.857,2.157-5.577-.813a6.834,6.834,0,0,1-.316-.677c-.418-.941-.907-1.954-2.15-1.6a1.931,1.931,0,0,0-1.216,2.642c.973,3.352.6,6.766.581,10.152-.024,3.644-1.332,6.727-4.914,8.244a9.966,9.966,0,0,1-10.376-1.15c-1.556-1.163-2.675-2.751-2.074-4.937C27.753,210.055,27.847,209.964,27.941,209.873Z" transform="translate(-22.553 -146.262)"/>
  <path class="cls-1" d="M51.894,215.4h-2a3.222,3.222,0,0,1-.321-2.636c.438,1.64-1.312,3.192-1.178,5.133-.266.745.742,1.636-.189,2.271s-1.241-.423-1.809-.772a3.5,3.5,0,0,1-2.782,1.793c-1.5.274.3.9-.216,1.2.047,1.076-.205,1.926-1.5,2-1.21.87-2.39.249-3.488-.195-.919-.371-.587-.988.009-1.453-2.079.324-4.218.5-6.338.856-2.171.364-2.992-1.093-3.407-2.912a.838.838,0,0,1,.458-.54c1.538-.23,2.93.483,4.4.708,7.371,1.127,12.46-2.022,14.492-9.243a4.249,4.249,0,0,1,3.52-3.389.977.977,0,0,1,.713.291c.929,1.379.82,3,1.023,4.539A2.046,2.046,0,0,1,51.894,215.4Z" transform="translate(-22.553 -146.262)"/>
  <path class="cls-1" d="M73.923,200.463c-.132.724-.284,1.445-.386,2.173-.04.289-.4,1,.352.7,1.377-.566,1.424.381,1.448,1.184.023.764.442,1.834-.542,2.2-.656.245-1.421.645-2.2-.563-.653-1.015-1.163.631-2.024.952a5.031,5.031,0,0,0,3.8.3c.5,1.831-.885,1.779-2,2-1.491.691-2.931.9-4.208-.445a2.181,2.181,0,0,0-1.787-.554,55.819,55.819,0,0,1-7.164.258,5.19,5.19,0,0,1-2.828-.757h-1c-.979-.565-1.691.208-2.5.5a.653.653,0,0,1-.941.041l-.1-.076c-.461-1.937.836-2.364,2.25-2.342a37.528,37.528,0,0,1,4.71.487,20.093,20.093,0,0,0,7.433-.268,9.179,9.179,0,0,0,5.772-4.031c.476-.709.67-1.776,1.835-1.817Z" transform="translate(-22.553 -146.262)"/>
  <path class="cls-2" d="M28.879,220.453c2.336,4.892,6.267,1.137,9.4,1.69.483.086,1.064-.378,1.857-.014L37.85,223.6l4.052.783a1.42,1.42,0,0,1-.68,1.256c-2.459,1.307-11.125-.443-12.868-2.621a4.093,4.093,0,0,1-.44-1.131C28.353,221.49,27.62,220.3,28.879,220.453Z" transform="translate(-22.553 -146.262)"/>
  <path class="cls-2" d="M51.953,208.448l.941-.041a1.864,1.864,0,0,0,.163.713c.761.991,2.321,1.415,2.154,3.06-.288,2.841-.5,5.721-2.445,8.036-.461.549-1.034,1.62-1.961.672a1.454,1.454,0,0,1,.3-2.359c1.479-.846,1.2-1.923.789-3.131C53.212,213.093,52.4,210.769,51.953,208.448Z" transform="translate(-22.553 -146.262)"/>
  <path class="cls-2" d="M56.391,207.908c3.323.313,6.709-.633,9.992.5q-.943.554-1.888,1.107C60.682,211.762,59.147,211.458,56.391,207.908Z" transform="translate(-22.553 -146.262)"/>
  <path class="cls-1" d="M38.559,212.113c.211,2.1-.635,3.039-2.622,3.051-.537,0-1.006.089-1.262-.436-.34-.7.182-1.182.664-1.41C36.365,212.833,37.468,212.51,38.559,212.113Z" transform="translate(-22.553 -146.262)"/>
  <path class="cls-2" d="M43.4,222.389c-.318-.638-1.05-.348-1.515-.663,1.167-1.446,3.152-1.284,4.513-2.332A2.974,2.974,0,0,1,43.4,222.389Z" transform="translate(-22.553 -146.262)"/>
  <path class="cls-2" d="M48.4,217.9c-.374-.189-.88-.48-.561-.9,1.256-1.633,1-3.706,2.06-5.512v3.91C48.739,215.836,48.967,217.105,48.4,217.9Z" transform="translate(-22.553 -146.262)"/>
  <path class="cls-1" d="M46.462,191.8c-.846.053-1.015-.37-1.036-.906-.027-.678-.005-1.351.919-1.4.55-.028.984.177.949.806A2,2,0,0,1,46.462,191.8Z" transform="translate(-22.553 -146.262)"/>
  <path class="cls-1" d="M55.7,178.24a.553.553,0,0,1-.639.628.946.946,0,0,1-.934-.674.475.475,0,0,1,.478-.662A1.06,1.06,0,0,1,55.7,178.24Z" transform="translate(-22.553 -146.262)"/>
  <path class="cls-2" d="M52.894,208.407c.553-1.559,1.5-1.158,2.5-.5C54.523,207.9,53.952,209.369,52.894,208.407Z" transform="translate(-22.553 -146.262)"/>
  <path class="cls-3" d="M28.944,220.351c-5.862-4.153-7-10.035-6.131-16.667.118-.9.119-1.813.174-2.719a4.3,4.3,0,0,0,.4-.882c.339-1.65.992-3.257,2.967-2.815s2.239,2.092,1.748,3.943a21.072,21.072,0,0,0-.679,6.6,3.451,3.451,0,0,0,.427,2.134c.6,4.54,3.2,6.528,8.43,6.448,4.7-.072,7.712-2.712,8.078-7.43.282-3.636.482-7.3-.615-10.9-.517-1.693-.162-3.309,1.712-3.82,1.643-.448,2.651.6,2.961,2.22a5.084,5.084,0,0,0,1.246,2.12c1.023,1.316,1.853,1.256,2.927-.062a32.545,32.545,0,0,1,7.306-6.75c5.083-3.335,10.819-2.332,13.2,2.267,1.055,2.035.8,4.205.753,6.36-2.568,6.225-7.746,7.362-13.675,6.956a30.082,30.082,0,0,1-5.408-.676c-1.722-.442-2.5.164-2.917,1.691-2.425.811-2.958,2.847-3.635,5.034-2.079,6.723-9.257,9.9-16.9,7.682C30.518,220.858,29.733,220.6,28.944,220.351Z" transform="translate(-22.553 -146.262)"/>
  <path class="cls-4" d="M60.44,185.439c-.232,1.339-.841,2.408-2.375,2.239a2.22,2.22,0,0,1-2.037-2.617,2.084,2.084,0,0,1,2.259-2.121C59.823,183.025,60.368,184.028,60.44,185.439Z" transform="translate(-22.553 -146.262)"/>
  <path class="cls-5" d="M61.219,202.015c-1.184-.309-3.382.645-3.858-.754-.381-1.123,1.664-2.211,2.726-3.22a11.91,11.91,0,0,1,4.881-2.865c1.7-.5,3.175-.106,3.909,1.665.715,1.724.027,3.059-1.429,4.055C65.619,202.15,63.525,202.057,61.219,202.015Z" transform="translate(-22.553 -146.262)"/>
  <line class="cls-6" x1="20.064" y1="33.375" x2="46.475" y2="25.443"/>
</svg>
