<svg width="24" height="47" viewBox="0 0 24 47" fill="none" xmlns="http://www.w3.org/2000/svg">
<path d="M12.411 26.784C15.356 28.614 18.611 29.947 21.088 32.52C25.382 36.978 24.788 41.284 19.358 44.197C16.4833 45.7323 13.2307 46.4171 9.98097 46.171C8.89962 46.0898 7.85824 45.7275 6.95997 45.12C6.32093 44.7878 5.83357 44.2233 5.59824 43.5426C5.36291 42.8619 5.39754 42.1169 5.69498 41.461C6.32898 39.92 7.69497 39.817 9.06497 40.31C11.942 41.344 14.65 40.723 17.232 39.463C19.432 38.387 19.412 37.929 17.485 36.17C15.104 33.718 11.985 32.522 8.92097 31.306C7.13097 30.597 5.52798 29.714 6.20198 27.591C6.96098 25.197 8.89197 25.626 10.739 26.355C11.2863 26.5345 11.8448 26.6778 12.411 26.784Z" fill="#7FB5C3"/>
<path d="M6.63801 17.706C7.26661 17.79 7.8386 18.1132 8.23496 18.6083C8.63133 19.1034 8.82153 19.7322 8.766 20.364C8.76212 20.6597 8.69818 20.9514 8.57807 21.2216C8.45797 21.4918 8.2842 21.7348 8.06732 21.9358C7.85044 22.1368 7.59498 22.2916 7.31644 22.3908C7.0379 22.49 6.7421 22.5316 6.447 22.513C4.982 22.436 4.29501 21.426 4.42401 19.935C4.42241 19.3459 4.65468 18.7803 5.0698 18.3624C5.48492 17.9445 6.04895 17.7084 6.63801 17.706Z" fill="#8EB8C0"/>
<path d="M2.50897 8.557L15.715 2" stroke="#81B4C3" stroke-width="4" stroke-miterlimit="10" stroke-linecap="round"/>
</svg>
