<svg id="Layer_1" data-name="Layer 1" xmlns="http://www.w3.org/2000/svg" viewBox="0 0 32.456 47.672">
  <defs>
    <style>
      .cls-1 {
        fill: #fbfcfd;
      }

      .cls-2 {
        fill: #7fb5c3;
      }

      .cls-3 {
        fill: #8eb8c0;
      }

      .cls-4 {
        fill: none;
        stroke: #81b4c3;
        stroke-linecap: round;
        stroke-miterlimit: 10;
        stroke-width: 4px;
      }
    </style>
  </defs>
  <path class="cls-1" d="M60.8,189.144c-2.307.69-4.279,2.463-6.96,1.989A10.76,10.76,0,0,1,51,190.324a.727.727,0,0,1-.236-1.234.6.6,0,0,1,1.041.029c.779,1.209,1.884,1.055,3.43.814-3.077-.865-2.3-2.5-1.1-4.357a4.527,4.527,0,0,0-1.131.282c-.86.543-1.539,2.407-2.227,1.829-1.282-1.075-2.824-2.326-2.905-4.346a8.518,8.518,0,0,0-.319-2.45c-.283-.845-.184-1.826-1.589-1.6a1.467,1.467,0,0,1-1.193-.723c-.322-.789.562-.828.989-1.137,1.042-.752,1.606-1,.522-2.7a6.979,6.979,0,0,1-.808-5.473,1.161,1.161,0,0,1,1.779-.725,8.241,8.241,0,0,0,5.767.992c1.72-.35,2.25.262,2.347,1.8.058.923-.037,1.964,1.553,1.14,1.2-.623,1.69.692,2.232,1.435a.987.987,0,0,1-.463,1.476c-1.081.578-1.538,0-2.06-.967-.491-.914-1.792-1.877-2.574-1.156-1.08.995-.7,2.5.3,3.79.714-.931-.595-1.916.48-2.7,1.635,1.5.559,3.555,1.044,5.265-.083.081-.166.162-.249.245a3.264,3.264,0,0,1-2.419-.226c-1.258-.383-2.421-.308-2.886,1.087s.521,2.161,1.653,2.664a46.668,46.668,0,0,1,6.713,3.289c.884.577,1.976.966,2.275,2.168C60.9,188.935,60.85,189.039,60.8,189.144Z" transform="translate(-39.374 -152.916)"/>
  <path class="cls-1" d="M55.866,179.6l3.48.512c.19.27.374.769.57.774,3.2.083,4.4,3.238,6.86,4.41a2.221,2.221,0,0,1,1.376,2.172c-.354,2.084.442,4.078.195,6.122-.07.582-.056,1.126-.616,1.535a5.751,5.751,0,0,0-2.321,3.7c-.636,2.761-3.316,1.195-5.056,1.381-2.684.285-5.395-.287-8.141.244-2.124.411-4.332-.285-6.576-.007-1.77.219-3.29-5.268-2.095-7.165.433-.688,1.187-1.139,1.321-2.059.2-1.329.574-2.311,1.534-.329.365.755,1.267-1.919,1.334.176.029.931-1.317.989-1.664,1.531-.868,1.353-.366,2.913.165,4.328a.808.808,0,0,0,1.1.269.791.791,0,0,0,.279-1.086c-.493-1.084-.077-2.08.18-3.136a2.227,2.227,0,0,1,2.69-1.9,37.372,37.372,0,0,1,3.7.777,6.075,6.075,0,0,0,6.613-2.708l.061-.055c2.108.782,2.434,1.909.914,3.242a7.223,7.223,0,0,1-2.874,1.42,13.814,13.814,0,0,1-5.668.336c-1.351-.18-2.942-.82-3.48,1.194-.349,1.312,1.006,2.733,3.016,3a14.7,14.7,0,0,0,11.856-3.295c2.141-1.8,2.462-3.947,1.189-6.47-1.662-3.293-4.7-5.027-7.707-6.8-.884-.522-2.111-.691-2.32-2.007Z" transform="translate(-39.374 -152.916)"/>
  <path class="cls-1" d="M71.814,193.483c0,.555-.079.969-.471,1.2-.48.289-.736-.149-1.046-.386-1.574-1.2-1.711-4.4-.242-5.639.321-.27.668-.573,1.09-.3a1.383,1.383,0,0,1,.583.736c.205.85-.494.5-.887.67-1.156.489-1.165.726-.073,1.479C71.631,191.841,71.543,192.791,71.814,193.483Z" transform="translate(-39.374 -152.916)"/>
  <path class="cls-1" d="M44.342,180.849c.028.8-.3,1.327-1.147,1.212-.819-.112-1.688-.323-1.774-1.376-.078-.958.644-1.366,1.4-1.376A1.373,1.373,0,0,1,44.342,180.849Z" transform="translate(-39.374 -152.916)"/>
  <path class="cls-1" d="M63.972,181.011c-.41.027-.979.078-.908-.475.132-1.029.6-1.893,1.847-1.9.643-.005,1.636-.072,1.553.73C66.328,180.679,64.87,180.532,63.972,181.011Z" transform="translate(-39.374 -152.916)"/>
  <path class="cls-1" d="M43.107,172.655c.545.032,1.176-.012,1.026.712a2.3,2.3,0,0,1-1.363,1.88c-.629.214-.8-.385-.864-.867A1.391,1.391,0,0,1,43.107,172.655Z" transform="translate(-39.374 -152.916)"/>
  <path class="cls-1" d="M40.34,189.707a1.114,1.114,0,0,1,.932,1.226,1.028,1.028,0,0,1-1.1,1.055c-.977-.049-.793-.846-.775-1.461A.76.76,0,0,1,40.34,189.707Z" transform="translate(-39.374 -152.916)"/>
  <path class="cls-1" d="M60.439,177.78c.533.189.887.531.713,1.1-.193.629-.491,1.2-1.317,1.231-.988.044-.426-.662-.446-.974A1.118,1.118,0,0,1,60.439,177.78Z" transform="translate(-39.374 -152.916)"/>
  <path class="cls-1" d="M68.176,198.252a.993.993,0,0,1,1.07.905A.976.976,0,0,1,68.4,200.4c-.573.078-.879-.36-.973-.876A1.1,1.1,0,0,1,68.176,198.252Z" transform="translate(-39.374 -152.916)"/>
  <path class="cls-1" d="M71.138,179.356a1.49,1.49,0,0,1,.276,2.291c-.212.275-.615.415-.827.076C70.061,180.883,70.491,180.176,71.138,179.356Z" transform="translate(-39.374 -152.916)"/>
  <path class="cls-1" d="M70.341,185.237c-.048.671-.037,1.317-.864,1.271a1.038,1.038,0,0,1-1.066-1.1c.021-1.22,1.057.475,1.6-.564C70.447,184.012,69.822,185.44,70.341,185.237Z" transform="translate(-39.374 -152.916)"/>
  <path class="cls-1" d="M66.085,183.276c-.347-.529-1.277-.622-.977-1.5.046-.136.507-.29.542-.246C66.046,182.017,66.541,182.505,66.085,183.276Z" transform="translate(-39.374 -152.916)"/>
  <path class="cls-2" d="M55.785,179.7c2.945,1.83,6.2,3.163,8.677,5.736,4.294,4.458,3.7,8.764-1.73,11.677a17.155,17.155,0,0,1-9.377,1.974,6.225,6.225,0,0,1-3.021-1.051,2.814,2.814,0,0,1-1.265-3.659c.634-1.541,2-1.644,3.37-1.151,2.877,1.034,5.585.413,8.167-.847,2.2-1.076,2.18-1.534.253-3.293-2.381-2.452-5.5-3.648-8.564-4.864-1.79-.709-3.393-1.592-2.719-3.715.759-2.394,2.69-1.965,4.537-1.236A13.129,13.129,0,0,0,55.785,179.7Z" transform="translate(-39.374 -152.916)"/>
  <path class="cls-3" d="M50.012,170.622a2.464,2.464,0,0,1,2.128,2.658,2.182,2.182,0,0,1-2.319,2.149c-1.465-.077-2.152-1.087-2.023-2.578A2.223,2.223,0,0,1,50.012,170.622Z" transform="translate(-39.374 -152.916)"/>
  <line class="cls-4" x1="6.509" y1="8.557" x2="19.715" y2="2"/>
</svg>
