<svg id="Layer_1" data-name="Layer 1" xmlns="http://www.w3.org/2000/svg" viewBox="0 0 47.041 56.748">
  <defs>
    <style>
      .cls-1 {
        fill: #fbfcfd;
      }

      .cls-2 {
        fill: #fbf9eb;
      }

      .cls-3 {
        fill: #fcf5e9;
      }

      .cls-4 {
        fill: #f3a749;
      }

      .cls-5 {
        fill: #f6dfb6;
      }

      .cls-6 {
        fill: #faeccd;
      }

      .cls-7 {
        fill: #f8e5cb;
      }

      .cls-8 {
        fill: #eeaa4b;
      }

      .cls-9 {
        fill: #e4b675;
      }

      .cls-10 {
        fill: #eebb83;
      }

      .cls-11 {
        fill: #e9ae59;
      }

      .cls-12 {
        fill: #fbf6e5;
      }

      .cls-13 {
        fill: #f0ba71;
      }

      .cls-14 {
        fill: #e1c079;
      }

      .cls-15 {
        fill: #fbf9f3;
      }

      .cls-16 {
        fill: none;
        stroke: #efaa4d;
        stroke-linecap: round;
        stroke-linejoin: round;
        stroke-width: 4px;
      }
    </style>
  </defs>
  <path class="cls-1" d="M58.387,168.016c1.99-.114,1.328,1.718,1.359,2.409a9.507,9.507,0,0,0,1.663,5.747,2.194,2.194,0,0,1-.026,2.981,4.13,4.13,0,0,0-.853,4.62c1.149,2.839.683,5.691.855,8.542.05.829-.392,1.929.99,2.167,1.068,1.984,1.2,1.962,2.39.4.633-.831,2.353-.2,2.618-1.729-.81-.514-2.444.39-2.572-.846-.143-1.368,1.706-.384,2.37-1.168-4.306-1.2-5.359-4.971-4.415-11.318,1.306,1.962.841,5.126,4.272,4.854-.619-1.12-1.491-2.112-1.178-3.45.13-.557.017-1.3.758-1.359.593-.048.71.6.8,1.093.255,1.349,1.294,1.6,2.405,1.713.808.08,1.412-.467,1.275-1.139-.158-.774-1.019-1.419.6-1.574,1.392-.133,2.807-.755,3.86.652.4.533.59,1.357-.22,1.7s-.907-.428-1-1c-.061-.364-.241-.6-.865-.761.436,1.282.739,2.554-1.193,2.6-.2,0-.584.631-.56.655,1.593,1.637-.614,4.008,1.033,5.55,1.074,1.006-.691,1.233-.518,1.9a.925.925,0,0,0,1.222-.192c.624-.577.828-2.093,1.846-1.627,1.11.507,2.588.358,3.319,1.88.7,1.45.84,1.3,1.658-.14a2.252,2.252,0,0,1,1.622-.99c.823-.015.564.569.4,1.229-.3,1.214,1.057,1.684,1.552,2.57,1.669,1.853.207,3.875.306,5.813a55.094,55.094,0,0,0,1,5.677c.5.34.149.481-.11.642-.521.323-.978,1.116-1.692.51a1.482,1.482,0,0,0-2-.158c-.538-.644-.069-1.218.085-1.843a9.045,9.045,0,0,0-5.711-10.98c-1.568-.636-3.256-.081-4.774.689-3.7.94-6.351,3.582-9.33,5.7a1.986,1.986,0,0,1-1.28-1.509c-.1-4.867-1.417-9.636-1.18-14.53.4-4.683-.746-9.245-1.1-13.869C58.018,169.378,57.784,168.649,58.387,168.016Z" transform="translate(-39.129 -158.674)"/>
  <path class="cls-2" d="M58.387,168.016c.65,5.319,1.835,10.589,1.476,16-1.169-.112-1.038-1.067-1.123-1.818a7.546,7.546,0,0,0-.444-2.6c-.981-3.377-.843-6.911-1.443-10.343-.071-.41-.1-.825-.179-1.234-.194-1.05-.221-2.424-1.682-2.331s-1.295,1.494-1.369,2.536a15.767,15.767,0,0,0,.15,3.232c1.427,10.621,2.214,21.306,3.13,31.977.193,2.244-.815,3.311-3.089,3.088-2.4-.234-4.8-.6-6.688-2.378a2.218,2.218,0,0,0-2.454-.763c-1.916,1.471-.746,2.814.3,3.956,1.9,2.073,4.528,2.646,7.187,2.938a4.4,4.4,0,0,1,3.456,1.6c.861,1.165,1.929,1.122,2.978.16a7.063,7.063,0,0,1,.921-.693c2.989-1.107,6.089-.429,9.135-.521,2.922-.087,5.822-.046,8.4-1.722a2.648,2.648,0,0,1,.712-.388,1.351,1.351,0,0,1,1.148.179c.173,1.2-.086,2.083-1.545,2.074-1.434.621-2.855,1.3-4.5,1.024-1.352.71-2.683.261-4.089.115a65.517,65.517,0,0,0-7.445-.091c-.371,0-.951.2-1.074.475-1.016,2.239-2.958,2.056-4.879,1.973l-1.5-2c-2.248-.138-4.627.292-6.493-1.5h-.5c-1.088.058-1.818-.97-3.059-.822-.85.1-.815-.952-.439-1.675a3.789,3.789,0,0,0-2-2.5c-1.213-1.976.375-2.9,1.5-3.993a5.82,5.82,0,0,1,4.994,0c1.542.953,3,2.053,4.97,2.032,1.111-.011,1.7-.238,1.66-1.522-.12-3.838.178-7.7-.634-11.5l0-.5c-.67-1.786.2-3.71-.5-5.493a15.924,15.924,0,0,0-.5-4.994c-.594-1.96-1.3-3.912-.509-5.99-.219-1.659.507-3.412-.5-4.993a4.476,4.476,0,0,1,2-6.49h0c.567.53,1.417.493,2,.995l.5,0c1.08.722,2.575,1.166,2,2.993Q58.385,167.267,58.387,168.016Z" transform="translate(-39.129 -158.674)"/>
  <path class="cls-1" d="M58.382,166.518c-.037-1.419-1.544-1.856-2-2.993.476-.024.6-.211.687-.741.149-.929-.669-2.3.92-2.692,2.179-.534,4.578-.927,6.379.488,1.243.975.861,3.177.348,4.466-.677,1.7-1.288,3.409-1.831,5.249-.1-2.757-4.445-3.419-2.6-7.2C58.718,164.271,59.257,165.718,58.382,166.518Z" transform="translate(-39.129 -158.674)"/>
  <path class="cls-1" d="M53.881,162.527c-2.1,1.723-2.3,4.028-2,6.49-2.568,1.051-2.594,3.5-1.771,5.189.918,1.886.362,3.712,1.02,5.468a14.408,14.408,0,0,1-2.011.147c-1.047-.071-1.793-.647-1.464-1.749.744-2.487.176-5.229.632-7.405.6-2.854-.673-6.831,2.983-8.818,1.129-.614,1.343-2.02,1.993-3.175C54.749,159.826,52.845,161.421,53.881,162.527Z" transform="translate(-39.129 -158.674)"/>
  <path class="cls-1" d="M53.883,190.987a22.074,22.074,0,0,1,1.009,7.239,14.174,14.174,0,0,0,.351,4.679c.34.973-.032,2.13-1.167,1.954-2.288-.356-5.094.113-6.189-2.887,1.8-2,3.159-1.959,4.509.193.229.364.346.774.857.674a1.167,1.167,0,0,0,.817-1.366c-.321-2.053.292-4.087.107-6.069C54.04,193.934,53.963,192.461,53.883,190.987Z" transform="translate(-39.129 -158.674)"/>
  <path class="cls-3" d="M70.837,193.912c3.512-2.463,6.722-.858,9.233,2.039a9.01,9.01,0,0,1,1.294,10.516,5.561,5.561,0,0,1-1.5,2,.484.484,0,0,1-.677-.057,1.646,1.646,0,0,1-.22-1.109,2.252,2.252,0,0,1,.262-.713c2.877-4.3,1.432-9.985-2.94-11.647-1.594-.6-3.3-.021-4.887-.539A1.156,1.156,0,0,1,70.837,193.912Z" transform="translate(-39.129 -158.674)"/>
  <path class="cls-1" d="M79.28,208.425l.584.044c.566.568-.191,2.919,1.985,1.392.485-.34,3.015,2.578,2.919,3.324a.859.859,0,0,1-.351.593c-.293.149-.749.151-.852-.214-.623-2.209-2.424-1.514-3.886-1.591-.923-.049-1.849.028-2.316-1.012.913-.407,1.157-1.273,1.448-2.106A.471.471,0,0,1,79.28,208.425Z" transform="translate(-39.129 -158.674)"/>
  <path class="cls-1" d="M43.39,208.464c.058.624.015,1.712.863,1.349,1.493-.64,1.756.814,2.635,1.148a.836.836,0,0,1-1.436.078c-.45-.462-.812-.54-1,.193-.128.5.714,1.532-.54,1.37a4.067,4.067,0,0,1-2.557-1.2c-.517-.682.649-1.055,1.116-1.551A9.291,9.291,0,0,0,43.39,208.464Z" transform="translate(-39.129 -158.674)"/>
  <path class="cls-1" d="M42.893,201.974c-.155,1.461-2.043,2.27-1.5,3.993-.7-.2-1.385.471-2.261-.043C40.037,204.237,40.215,201.989,42.893,201.974Z" transform="translate(-39.129 -158.674)"/>
  <path class="cls-1" d="M46.327,170.654c-.635-1.5.251-2.449.108-3.51-.111-.821.453-1.232,1.259-1.019a1.064,1.064,0,0,1,.592,1.62A24.114,24.114,0,0,1,46.327,170.654Z" transform="translate(-39.129 -158.674)"/>
  <path class="cls-1" d="M47.387,210.961l6.493,1.5C51.469,213.026,49,213.857,47.387,210.961Z" transform="translate(-39.129 -158.674)"/>
  <path class="cls-1" d="M52.377,174.01c-.3,2.036.619,3.97.509,5.99C51.5,178.375,51.22,175.088,52.377,174.01Z" transform="translate(-39.129 -158.674)"/>
  <path class="cls-1" d="M83.827,193.966v-1.7c0-.61-.691-1.227-.011-1.818.15-.13.515-.233.631-.147.726.539.343,1.347.393,2.04C84.892,193.071,84.948,193.893,83.827,193.966Z" transform="translate(-39.129 -158.674)"/>
  <path class="cls-1" d="M62.383,194.482c-.521-1.062-.8-1.909.046-2.65a.478.478,0,0,1,.8.166C63.523,193,63.485,193.939,62.383,194.482Z" transform="translate(-39.129 -158.674)"/>
  <path class="cls-1" d="M45.3,165.353a2.808,2.808,0,0,1,.175,3.174A3.035,3.035,0,0,1,45.3,165.353Z" transform="translate(-39.129 -158.674)"/>
  <path class="cls-1" d="M73.757,188.305l.859-2.464C75.807,187.754,75.715,188.018,73.757,188.305Z" transform="translate(-39.129 -158.674)"/>
  <path class="cls-1" d="M84.436,209.2c.039-.524.245-.979.81-1.017.621-.041.736.543.879.977.174.527-.209.724-.642.757C84.968,209.962,84.511,209.844,84.436,209.2Z" transform="translate(-39.129 -158.674)"/>
  <path class="cls-1" d="M85.016,199.627c.852.693,1.356,1.281,1.078,2.184a.468.468,0,0,1-.783.229C84.618,201.384,84.861,200.62,85.016,199.627Z" transform="translate(-39.129 -158.674)"/>
  <path class="cls-1" d="M53.384,184.994c1.048,1.751.242,3.67.5,5.493C52.817,188.737,53.642,186.816,53.384,184.994Z" transform="translate(-39.129 -158.674)"/>
  <path class="cls-1" d="M84.1,215.042a.7.7,0,0,1-.81.367c-.307-.042-.734-.064-.621-.534.088-.366.463-.412.791-.37C83.773,214.545,84.142,214.566,84.1,215.042Z" transform="translate(-39.129 -158.674)"/>
  <path class="cls-1" d="M43.881,178.922c-.182-.275-.375-.438-.391-.618-.03-.328.126-.644.521-.533.139.039.276.365.27.556C44.275,178.5,44.07,178.657,43.881,178.922Z" transform="translate(-39.129 -158.674)"/>
  <path class="cls-1" d="M55.879,163.521a1.758,1.758,0,0,1-2-.995A1.754,1.754,0,0,1,55.879,163.521Z" transform="translate(-39.129 -158.674)"/>
  <path class="cls-1" d="M69.34,181.966c-.137-.305-.314-.512-.271-.649.058-.18.289-.3.446-.452.095.169.281.348.263.5C69.759,181.542,69.553,181.693,69.34,181.966Z" transform="translate(-39.129 -158.674)"/>
  <path class="cls-4" d="M71.318,187.059c-.406,3.051-.991,3.492-3.726,2.809a2.393,2.393,0,0,1-.775-2.547A2.824,2.824,0,0,1,69,185.229C70.268,185.068,70.756,186.172,71.318,187.059Z" transform="translate(-39.129 -158.674)"/>
  <path class="cls-5" d="M58.835,179.529c1.292,1.279-.115,3.175,1.028,4.488-.243,5.016,1.289,9.907,1.054,14.922.228.73.6,1.47-.164,2.123-1.009-.318-.994-1.218-1.1-2.013-.723-5.471-.931-10.99-1.491-16.477A3.629,3.629,0,0,1,58.835,179.529Z" transform="translate(-39.129 -158.674)"/>
  <path class="cls-6" d="M70.837,193.912l.59.113c-.52,1.629-2.315,1.4-3.338,2.292a25.592,25.592,0,0,0-3.907,2.915c-.6.524-1.16,1.195-2.118.923-.082-.084-.162-.17-.243-.255A14.94,14.94,0,0,1,70.837,193.912Z" transform="translate(-39.129 -158.674)"/>
  <path class="cls-7" d="M71.318,187.059c-1-.441-1.5-2.242-3.072-1.139-1.556,1.092-1.166,2.511-.655,3.948-1.48-.678-1.448-1.963-.98-3.13a2.988,2.988,0,0,1,2.626-2.013A2.252,2.252,0,0,1,71.318,187.059Z" transform="translate(-39.129 -158.674)"/>
  <path class="cls-6" d="M60.889,200.918q.014-.989.028-1.979l.9.962c.056.067.115.133.178.2C62.124,201.04,61.82,201.4,60.889,200.918Z" transform="translate(-39.129 -158.674)"/>
  <path class="cls-8" d="M60.889,200.918c.722.2,1-.2,1.109-.821,2.176-1.05,3.466-3.342,5.82-4.14a35.621,35.621,0,0,0,3.43-1.335c4.217-1.579,9.727,1.55,9.6,6.766-.04,1.592.391,3.316-1,4.621-1.613-1.3-3.138-2.439-3.3-4.955-.16-2.454-2.79-2.966-5.157-1.268-1.718,1.357-3.4,2.756-5.162,4.056-.662.284-1.287.609-1.434,1.41a15.958,15.958,0,0,0,9.989-.2c1.949-1.269,3.367-.14,4.769,1.06a1.4,1.4,0,0,1-.115,1,.776.776,0,0,1-.037.367,8.963,8.963,0,0,1-1.484,1.544v0a12.662,12.662,0,0,1-7.425,2.186q-4.464-.021-8.928,0c-.8,0-1.7-.2-2.169.763l-.449.529c-1.492.813-2.816.987-3.74-.842-.426-.845-1.246-.906-2.126-.981a15.494,15.494,0,0,1-6.868-1.958c-2.551-1.542-3.068-2.768-2.347-5.8,1.366-1.3,2.554-.86,3.581.43,1.959,2.461,4.826,2.241,7.489,2.515,1.246.128,1.44-.923,1.346-1.907q-1.3-13.735-2.636-27.468c-.293-3.051-.609-6.1-.824-9.159-.1-1.466.4-2.752,2.13-2.761,1.616-.009,2.267,1.138,2.439,2.621q.718,6.171,1.454,12.34.816,10.4,1.648,20.794C60.5,200.531,60.749,200.72,60.889,200.918Z" transform="translate(-39.129 -158.674)"/>
  <path class="cls-9" d="M43.857,202.918c.088,4.12,1.712,5.928,6.029,6.977,2.259.548,4.993-.155,6.49,2.611.385.71,1.682-.026,2.561-.007-1.231,1.586-2.622,1.423-3.648-.031a3.734,3.734,0,0,0-3.1-1.566c-2.807-.3-5.575-.916-7.645-3.039C43.162,206.445,42.159,204.832,43.857,202.918Z" transform="translate(-39.129 -158.674)"/>
  <path class="cls-10" d="M59.387,211.97c.275-1.532,1.507-.959,2.376-1.01,4-.238,8.057.519,12.019-.512,1.405-.366,2.753-.946,4.127-1.428-1.729,2.195-4.291,2.293-6.711,2.442-2.963.181-5.945.036-8.919.024A5.471,5.471,0,0,0,59.387,211.97Z" transform="translate(-39.129 -158.674)"/>
  <path class="cls-10" d="M77.909,209.023a2.366,2.366,0,0,1,1.484-1.544q-.056.474-.112.946l-.47.43Z" transform="translate(-39.129 -158.674)"/>
  <path class="cls-11" d="M79.363,205.966c1.893-2.083,1.387-4.659.595-6.725-1.767-4.612-5.256-5.749-9.992-3.792a4.066,4.066,0,0,1-2.147.508c.967-1.082,2.466-1.175,3.608-1.932,5.747-.279,8.617,1.26,9.687,5.566.667,2.681.752,5.436-1.685,7.52-.022-.381-.046-.762-.069-1.143Z" transform="translate(-39.129 -158.674)"/>
  <path class="cls-12" d="M65.9,203.5l4.987-3.945c1.517-1.034,3.019-1.574,4.739-.312,2.118,1.555,2.019,3.786-.357,5.921-3.469,1.849-7.172.881-10.793.892C64.182,204.778,64.951,204.089,65.9,203.5Z" transform="translate(-39.129 -158.674)"/>
  <path class="cls-11" d="M75.326,204.9c1.057-1.336,2.134-2.714.982-4.479-1.454-2.226-3.509-1.2-5.417-.862a2.852,2.852,0,0,1,3.789-1.407c1.332.552,2.823,1.442,2.7,3.427-.065,1.06-.421,2.311,1.5,2.39.69.028.416,1.281.478,2l0,0c-1.418.47-2.482-1.844-4.01-.509-.169-.118-.228-.24-.179-.367S75.272,204.9,75.326,204.9Z" transform="translate(-39.129 -158.674)"/>
  <path class="cls-13" d="M75.326,204.9c.009.186.017.373.024.56-3.57,1.976-7.43.887-11.149.889-1.376,0-.37-.964.125-1.442q.258.156.2.343c-.043.13-.091.195-.143.195A16.027,16.027,0,0,0,75.326,204.9Z" transform="translate(-39.129 -158.674)"/>
  <path class="cls-14" d="M64.379,205.444c-.017-.179-.035-.358-.053-.537.155-.885.6-1.442,1.578-1.4Z" transform="translate(-39.129 -158.674)"/>
  <path class="cls-15" d="M65.57,205.468c2.26-2.841,4.342-5.3,8.021-5.495a2.192,2.192,0,0,1,2.421,1.264c.5,1.051-.283,1.471-.732,2.119a4.772,4.772,0,0,1-4.215,2.113C69.35,205.464,67.635,205.468,65.57,205.468Z" transform="translate(-39.129 -158.674)"/>
  <line class="cls-16" x1="24.759" y1="19.215" x2="37.965" y2="12.659"/>
</svg>
