<svg width="40" height="50" viewBox="0 0 40 50" fill="none" xmlns="http://www.w3.org/2000/svg">
<path d="M29.189 23.385C28.783 26.436 28.198 26.877 25.463 26.194C25.0961 25.8939 24.8266 25.4917 24.6886 25.0382C24.5506 24.5848 24.5504 24.1006 24.688 23.647C24.8162 23.1272 25.0894 22.6546 25.4759 22.2842C25.8624 21.9138 26.3463 21.6609 26.871 21.555C28.139 21.394 28.627 22.498 29.189 23.385Z" fill="#F3A749"/>
<path d="M18.76 37.244C19.482 37.444 19.76 37.044 19.869 36.423C22.045 35.373 23.335 33.081 25.689 32.283C26.8546 31.8974 27.9995 31.4518 29.119 30.948C33.336 29.369 38.846 32.498 38.719 37.714C38.679 39.306 39.11 41.03 37.719 42.335C36.106 41.035 34.581 39.896 34.419 37.38C34.259 34.926 31.629 34.414 29.262 36.112C27.544 37.469 25.862 38.868 24.1 40.168C23.438 40.452 22.813 40.777 22.666 41.578C25.9313 42.5823 29.4326 42.5121 32.655 41.378C34.604 40.109 36.022 41.238 37.424 42.438C37.511 42.7741 37.47 43.1305 37.309 43.438C37.3264 43.5615 37.3137 43.6874 37.272 43.805C36.8408 44.3771 36.3426 44.8955 35.788 45.349C33.6019 46.8348 31.0055 47.5992 28.363 47.535C25.387 47.521 22.411 47.521 19.435 47.535C18.635 47.535 17.735 47.335 17.266 48.298L16.817 48.827C15.325 49.64 14.001 49.814 13.077 47.985C12.651 47.14 11.831 47.079 10.951 47.004C8.54045 46.8951 6.18865 46.2246 4.08302 45.046C1.53202 43.504 1.01502 42.278 1.73602 39.246C3.10202 37.946 4.29002 38.386 5.31702 39.676C7.27602 42.137 10.143 41.917 12.806 42.191C14.052 42.319 14.246 41.268 14.152 40.284C13.2854 31.1273 12.4067 21.9713 11.516 12.816C11.223 9.76502 10.907 6.716 10.692 3.657C10.592 2.191 11.092 0.905018 12.822 0.896018C14.438 0.887018 15.089 2.03401 15.261 3.51701C15.7397 7.63101 16.2244 11.7444 16.715 15.857C17.259 22.7903 17.8084 29.7217 18.363 36.651C18.371 36.857 18.62 37.046 18.76 37.244Z" fill="#EEAA4B"/>
<path d="M1.72799 39.244C1.81599 43.364 3.44 45.172 7.757 46.221C10.016 46.769 12.75 46.066 14.247 48.832C14.632 49.542 15.929 48.806 16.808 48.825C15.577 50.411 14.186 50.248 13.16 48.794C12.8088 48.3014 12.3432 47.9014 11.8031 47.6286C11.2631 47.3558 10.6649 47.2183 10.06 47.228C7.25299 46.928 4.48499 46.312 2.41499 44.189C1.03299 42.771 0.0299932 41.158 1.72799 39.244Z" fill="#E4B675"/>
<path d="M17.258 48.296C17.533 46.764 18.765 47.337 19.634 47.286C23.634 47.048 27.691 47.805 31.653 46.774C33.058 46.408 34.406 45.828 35.78 45.346C34.051 47.541 31.489 47.639 29.069 47.788C26.106 47.969 23.124 47.824 20.15 47.812C19.1599 47.7072 18.16 47.8745 17.258 48.296Z" fill="#EEBB83"/>
<path d="M35.78 45.349C35.8885 44.9931 36.0794 44.6678 36.3373 44.3995C36.5951 44.1312 36.9126 43.9275 37.264 43.805C37.2266 44.121 37.1893 44.4363 37.152 44.751L36.682 45.181L35.78 45.349Z" fill="#EEBB83"/>
<path d="M37.234 42.292C39.127 40.209 38.621 37.633 37.829 35.567C36.062 30.955 32.573 29.818 27.837 31.775C27.1818 32.139 26.4388 32.3148 25.69 32.283C26.657 31.201 28.156 31.108 29.298 30.351C35.045 30.072 37.915 31.611 38.985 35.917C39.652 38.598 39.737 41.353 37.3 43.437C37.278 43.056 37.254 42.675 37.231 42.294L37.234 42.292Z" fill="#E9AE59"/>
<path d="M23.771 39.826L28.758 35.881C30.275 34.847 31.777 34.307 33.497 35.569C35.615 37.124 35.516 39.355 33.14 41.49C29.671 43.339 25.968 42.371 22.347 42.382C22.053 41.104 22.822 40.415 23.771 39.826Z" fill="#FBF6E5"/>
<path d="M33.197 41.226C34.254 39.89 35.331 38.512 34.179 36.747C32.725 34.521 30.67 35.547 28.762 35.885C28.9178 35.5433 29.1395 35.2357 29.4145 34.9799C29.6894 34.7241 30.0122 34.5252 30.3643 34.3944C30.7163 34.2637 31.0907 34.2038 31.466 34.2181C31.8412 34.2325 32.21 34.3208 32.551 34.478C33.883 35.03 35.374 35.92 35.251 37.905C35.186 38.965 34.83 40.216 36.751 40.295C37.441 40.323 37.167 41.576 37.229 42.295C35.811 42.765 34.747 40.451 33.219 41.786C33.05 41.668 32.991 41.546 33.04 41.419C33.089 41.292 33.143 41.226 33.197 41.226Z" fill="#E9AE59"/>
<path d="M33.197 41.226C33.206 41.412 33.214 41.599 33.221 41.786C29.651 43.762 25.791 42.673 22.072 42.675C20.696 42.675 21.702 41.711 22.197 41.233C22.369 41.337 22.4357 41.4513 22.397 41.576C22.354 41.706 22.306 41.771 22.254 41.771C25.8524 42.8805 29.7266 42.6876 33.197 41.226Z" fill="#F0BA71"/>
<path d="M22.25 41.77C22.233 41.591 22.215 41.412 22.197 41.233C22.352 40.348 22.797 39.791 23.775 39.833L22.25 41.77Z" fill="#E1C079"/>
<path d="M23.441 41.794C25.701 38.953 27.783 36.494 31.462 36.299C31.949 36.2046 32.4536 36.2783 32.8934 36.5079C33.3331 36.7375 33.682 37.1094 33.883 37.563C34.383 38.614 33.6 39.034 33.151 39.682C32.6916 40.3691 32.0615 40.925 31.3227 41.2954C30.5838 41.6658 29.7614 41.838 28.936 41.795C27.221 41.79 25.506 41.794 23.441 41.794Z" fill="#FBF9F3"/>
<path d="M21.759 14.215L34.965 7.659" stroke="#EFAA4D" stroke-width="4" stroke-linecap="round" stroke-linejoin="round"/>
</svg>
