<svg width="45" height="57" viewBox="0 0 45 57" fill="none" xmlns="http://www.w3.org/2000/svg">
<path d="M34.438 46.051C35.1863 45.5285 35.813 44.8506 36.2752 44.0636C36.7374 43.2766 37.0242 42.399 37.116 41.491C35.753 41.845 34.594 42.205 33.416 42.441C31.8137 42.751 30.1543 42.537 28.6831 41.8307C27.2119 41.1243 26.0071 39.9632 25.247 38.519C23.952 36.068 24.691 32.41 26.906 30.314C28.0197 29.1827 29.487 28.4666 31.0641 28.2847C32.6412 28.1027 34.233 28.466 35.575 29.314C37.499 30.4056 39.1072 31.9772 40.2428 33.8755C41.3784 35.7738 42.0027 37.934 42.0548 40.1455C42.1069 42.357 41.5849 44.5442 40.5399 46.4938C39.4949 48.4435 37.9624 50.089 36.092 51.27C27.426 56.685 17.839 57.799 8.25001 53.556C6.67316 52.8354 5.2596 51.8012 4.09548 50.5164C2.93137 49.2316 2.0411 47.7233 1.47895 46.0832C0.916801 44.4432 0.694542 42.7058 0.825731 40.9771C0.95692 39.2483 1.43881 37.5644 2.24201 36.028C2.5996 35.3742 3.02314 34.7586 3.50601 34.191C3.80065 33.677 4.28689 33.3007 4.85831 33.1444C5.42973 32.9881 6.0398 33.0646 6.55501 33.357C7.08603 33.6135 7.50402 34.0565 7.72923 34.6016C7.95444 35.1466 7.97109 35.7555 7.77601 36.312C7.68701 36.712 7.53101 37.102 7.40601 37.496C5.44201 41.102 5.52901 44.872 7.90601 46.629C10.0363 48.3877 12.6327 49.4878 15.378 49.795C20.2654 50.1245 25.1744 49.7049 29.935 48.551L29.924 48.56C31.5349 47.9309 33.0533 47.0869 34.438 46.051Z" fill="#EA9292"/>
<path d="M29.75 23.13C29.4533 22.7548 29.2919 22.2904 29.2919 21.812C29.2919 21.3336 29.4533 20.8693 29.75 20.494C30.719 19.703 31.766 19.248 32.762 20.34C32.9561 20.5263 33.1111 20.7496 33.2177 20.9966C33.3243 21.2436 33.3805 21.5095 33.3829 21.7785C33.3853 22.0476 33.334 22.3144 33.2318 22.5633C33.1296 22.8122 32.9787 23.0382 32.788 23.228C31.828 24.267 30.741 23.909 29.75 23.13Z" fill="#E8959B"/>
<path d="M31.917 33.457C33.246 33.946 35.064 34.185 35.091 35.539C35.122 37.086 33.199 37.16 32.003 37.283C31.7151 37.3389 31.4186 37.3338 31.1327 37.2681C30.8468 37.2024 30.5779 37.0775 30.3432 36.9015C30.1085 36.7255 29.9133 36.5023 29.7702 36.2463C29.627 35.9903 29.5391 35.7071 29.512 35.415C29.469 33.932 30.94 33.877 31.917 33.457Z" fill="#F8EEEE"/>
<path d="M16.085 9.932L42.497 2" stroke="#EA9292" stroke-width="4" stroke-linecap="round" stroke-linejoin="round"/>
</svg>
