<svg id="Layer_1" data-name="Layer 1" xmlns="http://www.w3.org/2000/svg" viewBox="0 0 57.441 99.172">
  <defs>
    <style>
      .cls-1 {
        fill: #fbfcfd;
      }

      .cls-2 {
        fill: #fcfdfe;
      }

      .cls-3 {
        fill: #ea9292;
      }

      .cls-4 {
        fill: #f9edea;
      }

      .cls-5 {
        fill: #e8959b;
      }

      .cls-6 {
        fill: #e0abac;
      }

      .cls-7 {
        fill: #f8eeee;
      }

      .cls-8 {
        fill: none;
        stroke: #ea9292;
        stroke-linecap: round;
        stroke-linejoin: round;
        stroke-width: 4px;
      }
    </style>
  </defs>
  <path class="cls-1" d="M88.248,222.629c-1.59,1.012-3.361.5-5.019.443-2.824-.087-5.7.626-8.475-.441Z" transform="translate(-40.114 -127.349)"/>
  <path class="cls-1" d="M49.276,219.631c-.05.568-.145,1.255-.845,1.181a1.652,1.652,0,0,1-1.653-1.68C48.069,217.009,48.5,219.189,49.276,219.631Z" transform="translate(-40.114 -127.349)"/>
  <path class="cls-1" d="M96.739,224.894c.5.06.61.487.751.848.2.52-.088.809-.572.776s-.656-.432-.636-.884C96.3,225.315,96.3,224.963,96.739,224.894Z" transform="translate(-40.114 -127.349)"/>
  <path class="cls-1" d="M56.271,222.629c-2.333.07-4.665.994-7,0C52.167,219.861,52.167,219.861,56.271,222.629Z" transform="translate(-40.114 -127.349)"/>
  <path class="cls-1" d="M62.766,218.63c1.69-.524,3.341-.872,4.5,1C65.575,220.154,63.8,221.057,62.766,218.63Z" transform="translate(-40.114 -127.349)"/>
  <path class="cls-1" d="M62.266,222.624l-3,0c.394-.253,1.026-.432,1.133-.775.217-.693.432-1.335,1.236-1.107C62.6,221.019,62.156,221.956,62.266,222.624Z" transform="translate(-40.114 -127.349)"/>
  <path class="cls-1" d="M69.051,220.919c-.8.791-1.384.929-2.164.168A1.793,1.793,0,0,1,69.051,220.919Z" transform="translate(-40.114 -127.349)"/>
  <path class="cls-1" d="M58.75,219.29c-.095.405-.219.709-.6.74-.326.027-.729-.026-.6-.461.059-.2.47-.324.744-.4C58.386,219.141,58.794,218.878,58.75,219.29Z" transform="translate(-40.114 -127.349)"/>
  <path class="cls-2" d="M91.007,192.853c.645-1.764-1.329-3.166-.681-4.931-1.031-.355-2.046-.768-3.1-1.056-4.547-1.247-9.208-1.015-13.85-1.007a15.929,15.929,0,0,1-2.241-.075,1.325,1.325,0,0,1-1.243-1.069c-.069-.808.856-.571,1.209-.883,2.1-1.866,5-1.424,7.306-2.637.217-.114.52-.309.687-.238,2.024.856,1.651-.662,1.685-1.889.977,1.58,3.093,2.355,2.418,4.637-.11.371.264.6.625.558a.51.51,0,0,0,.474-.7c-.472-1.212-.219-2.471-.3-3.706-.1-1.565-1.991-.092-2.253-1.59a5.553,5.553,0,0,1,2.6-1.024c1.912-.16,3.624-.886,2.7-3.516-.444-1.259.1-2.606.145-3.895.111-3.315-1.966-6.156-1.675-9.434.176-.377.439-.846.861-.685.747.285.621,1.043.638,1.684,1.395,2.847,2.741,5.7,1.5,8.988l1,2a57.6,57.6,0,0,0,1.852,8.494c-.061.292-.355.4-.5.623.242-.124.474-.3.784-.159,1.651,1.255,2,2.75.864,4.524,1.824.722,1.595,1.787.5,3a2.581,2.581,0,0,1-.5,2C92.553,191.931,92.3,192.782,91.007,192.853Z" transform="translate(-40.114 -127.349)"/>
  <path class="cls-2" d="M62.529,155.9c1.439,2.241,3.662,4.037,3.665,7.087a5.65,5.65,0,0,1-.374,2.044c-.426,1.211-.863,2.651.9,3.326.609.233.645.583.6,1.14a1.117,1.117,0,0,0,.873,1.32c1.678.231,3.375.344,4.331,2.061.433.465,1.821.736.231,1.577-.515.272-.826.933-1.23,1.417a1.04,1.04,0,0,1-.637.253c-2.161-.54-4.327-1.223-6.33.477a1.024,1.024,0,0,1-.933.26c-2.217-1.133-4.454.655-6.66-.082a1.536,1.536,0,0,1-.558-.412c-.2-1-.6-1.954.444-2.864.415-.36-.488-.068-.575-.388-.084-.082-.161-.16-.239-.238a1.03,1.03,0,0,0-.5-1,2.163,2.163,0,0,1,3.222-.752c1.961,1.42,2.813-.041,3.792-1.093,1.164-1.253-.43-1.7-.838-2.556a5.887,5.887,0,0,1,.319-5.586c1.369-.226,1.243,1.017,1.707,1.693.4-1.481-1.582-2.211-1.208-3.69C61.661,158.565,60.626,157.233,62.529,155.9Z" transform="translate(-40.114 -127.349)"/>
  <path class="cls-1" d="M91.007,181.368c.084-1.164-.711-1.987-1.093-2.971a9.9,9.9,0,0,1-.406-6.017c1.247-.829,1.6.125,2,1,1.159,2.037,1.963,4.128,1,6.492a2.884,2.884,0,0,0,.913,2.353,2.121,2.121,0,0,1-.914,3.639C92.383,184.238,93.086,182.339,91.007,181.368Z" transform="translate(-40.114 -127.349)"/>
  <path class="cls-2" d="M92.506,179.87q-.5-3.246-1-6.492c.888-.509,1.665-1.442,2.868-.751s1.133,1.854,1.136,3.016C95.52,179.392,95.258,179.779,92.506,179.87Z" transform="translate(-40.114 -127.349)"/>
  <path class="cls-1" d="M88.509,170.382c.193-3.111-1.272-5.946-1.5-8.988l.682-.281c.7,1.734,2.727,2.821,2.744,4.789C90.451,167.546,90.8,169.611,88.509,170.382Z" transform="translate(-40.114 -127.349)"/>
  <path class="cls-2" d="M67.525,150.908c-2.18.289-2.648,2.779-4.5,3.5-3.046-1-.139-2,0-3-.128-.111-.17-.222-.128-.333s.085-.166.128-.166C64.528,149.6,66.027,148.574,67.525,150.908Z" transform="translate(-40.114 -127.349)"/>
  <path class="cls-1" d="M46.043,187.859c-.514-.088-1.135,1.436-1.421.158-.412-1.844-1.576-1.847-2.936-1.746-.635.047-1.286-.012-1.357-.7-.1-.926.754-.692,1.25-.684,1.523.024,3.012-.246,4.406,1.018.987.9.421,1.3.058,1.958Z" transform="translate(-40.114 -127.349)"/>
  <path class="cls-1" d="M45.431,181.228a1.848,1.848,0,0,1-1.819,2.1c-.858.12-1.756,0-1.969-1.046a2.688,2.688,0,0,1,.743-2.961c.411-.319.854-.577,1.335-.19.392.315.275.743.072,1.124-.292.551-1.129,1.135-.475,1.714C44.23,182.782,44.354,180.843,45.431,181.228Z" transform="translate(-40.114 -127.349)"/>
  <path class="cls-2" d="M51.039,160.394c-1.833-1.37-3.664-.28-5.5,0,.214-1-.192-2.324,1.717-2.194C50.705,158.436,50.712,158.345,51.039,160.394Z" transform="translate(-40.114 -127.349)"/>
  <path class="cls-1" d="M62.529,159.9c.752,1.224,2.1,2.136,1.994,3.81-.036.58-.033,1.289-.754,1.327-.56.029-.722-.588-.722-1.1,0-.858-.1-1.647-1.017-2.039A1.409,1.409,0,0,1,62.529,159.9Z" transform="translate(-40.114 -127.349)"/>
  <path class="cls-1" d="M94.022,169.681c-.268.62.513,1.97-.735,1.862-1.1-.1-.826-1.454-.739-2.283.069-.65-.689-1.957.632-1.865C94.375,167.479,93.889,168.809,94.022,169.681Z" transform="translate(-40.114 -127.349)"/>
  <path class="cls-1" d="M74.678,142.269c-.6-.032-1.028-.305-.965-.887.106-.978,1.022-.928,1.69-1.109.77-.209,1.126.328,1.016.952C76.256,142.153,75.25,141.917,74.678,142.269Z" transform="translate(-40.114 -127.349)"/>
  <path class="cls-1" d="M82.235,142.2c.762.226.961.925,1.092,1.531a.8.8,0,0,1-1.024,1c-.61-.138-1.358-.408-1.189-1.3A1.646,1.646,0,0,1,82.235,142.2Z" transform="translate(-40.114 -127.349)"/>
  <path class="cls-1" d="M41.9,177.2c-.015.575-.266.988-.858.985s-.858-.431-.919-.965a.959.959,0,0,1,.719-1.138C41.606,175.961,41.648,176.728,41.9,177.2Z" transform="translate(-40.114 -127.349)"/>
  <path class="cls-1" d="M41.131,188.524c.413.125.752.366.728.818a.928.928,0,0,1-1.147.913c-.482-.044-.656-.421-.565-.87A.964.964,0,0,1,41.131,188.524Z" transform="translate(-40.114 -127.349)"/>
  <path class="cls-1" d="M82.359,147.192c.45.226.933.51.839,1.059a.939.939,0,0,1-1.869-.179A1.065,1.065,0,0,1,82.359,147.192Z" transform="translate(-40.114 -127.349)"/>
  <path class="cls-2" d="M51.54,164.39c1.074-1.165.442-2.33,0-3.495C53.637,162.3,53.637,163.264,51.54,164.39Z" transform="translate(-40.114 -127.349)"/>
  <path class="cls-2" d="M48.27,156.641c-.135.437-.4.655-.75.608a1.314,1.314,0,0,1-1.174-1.082c-.07-.379.314-.571.671-.459C47.549,155.874,48.116,156.046,48.27,156.641Z" transform="translate(-40.114 -127.349)"/>
  <path class="cls-1" d="M83.283,153.163a.54.54,0,0,1-.51.671c-.512.063-1.015.04-1.138-.593a.576.576,0,0,1,.478-.72A.987.987,0,0,1,83.283,153.163Z" transform="translate(-40.114 -127.349)"/>
  <path class="cls-2" d="M85.011,160.4c-1.01.012-1.86-.138-1.5-1.5C84.494,158.915,84.65,159.758,85.011,160.4Z" transform="translate(-40.114 -127.349)"/>
  <path class="cls-1" d="M92.505,190.855c.071-.69-.231-1.472.5-2C94.743,190,93.045,190.282,92.505,190.855Z" transform="translate(-40.114 -127.349)"/>
  <path class="cls-1" d="M63.029,150.908v.5c-.508-.026-1.01-.116-1.2-.652-.046-.128.2-.5.349-.532C62.67,150.126,62.852,150.54,63.029,150.908Z" transform="translate(-40.114 -127.349)"/>
  <path class="cls-2" d="M51.024,156.5a2.03,2.03,0,0,1-.712-.017c-.177-.085-.434-.332-.406-.45a.4.4,0,0,1,.7-.224A2.791,2.791,0,0,1,51.024,156.5Z" transform="translate(-40.114 -127.349)"/>
  <path class="cls-3" d="M77.552,173.4a6.339,6.339,0,0,0,2.678-4.56c-1.363.354-2.522.714-3.7.95a7.6,7.6,0,0,1-8.169-3.922c-1.295-2.451-.556-6.109,1.659-8.205a6.953,6.953,0,0,1,8.669-1,12.8,12.8,0,0,1,.517,21.956c-8.666,5.415-18.253,6.529-27.842,2.286a12.768,12.768,0,0,1-6.008-17.528,10.927,10.927,0,0,1,1.264-1.837,2.24,2.24,0,0,1,3.049-.834,2.4,2.4,0,0,1,1.221,2.955c-.089.4-.245.79-.37,1.184-1.964,3.606-1.877,7.376.5,9.133a14.22,14.22,0,0,0,7.472,3.166A48.069,48.069,0,0,0,73.049,175.9l-.011.009A19.19,19.19,0,0,0,77.552,173.4Z" transform="translate(-40.114 -127.349)"/>
  <path class="cls-4" d="M73.049,175.9c-1.841,1.525-4.182,1.514-6.325,1.744-5.1.549-10.264.894-14.808-2.321a6.9,6.9,0,0,1-1.4-10.483c-.69,2.671-1.864,5.347.02,8a9.209,9.209,0,0,0,1,1.035,4.557,4.557,0,0,1,1.811.8c.911.848,2.268.861,3.185,1.7h0c3.878.872,7.717.265,11.543-.363a25.929,25.929,0,0,1,2.952-.133c.165,0,.33,0,.494-.007Z" transform="translate(-40.114 -127.349)"/>
  <path class="cls-5" d="M72.864,150.479a2.125,2.125,0,0,1,0-2.636c.969-.791,2.016-1.246,3.012-.154a2.019,2.019,0,0,1,.026,2.888C74.942,151.616,73.855,151.258,72.864,150.479Z" transform="translate(-40.114 -127.349)"/>
  <path class="cls-6" d="M72.864,150.479c1.321.318,3.008,1.179,3.1-1.2.1-2.555-1.653-1.831-3.1-1.439.824-1.625,2.019-1.636,3.207-.541a2.245,2.245,0,0,1,.129,3.518C75.136,151.816,73.83,152.008,72.864,150.479Z" transform="translate(-40.114 -127.349)"/>
  <path class="cls-2" d="M53.033,174.88a1.526,1.526,0,0,1-1.5-1c1.225-1.562,3.1-.213,4.5-1h0C56.322,175.475,54.553,174.991,53.033,174.88Z" transform="translate(-40.114 -127.349)"/>
  <path class="cls-2" d="M72.541,172.9c-.168-2.753,2.439-.966,3.014-2.338C74.77,171.66,74.1,172.9,72.541,172.9Z" transform="translate(-40.114 -127.349)"/>
  <path class="cls-4" d="M77.552,173.4a6.268,6.268,0,0,1-4.514,2.516C74.218,174.492,76.022,174.189,77.552,173.4Z" transform="translate(-40.114 -127.349)"/>
  <path class="cls-1" d="M86.08,183.63c.425-.889.158-1.217-.095-1.546-.89-1.156.242-1.614.813-2.2.614-.631,1.494-.419,1.5.335.018,1.518,2.013,3.02.3,4.45-.769.643-1.868-.063-2.683-.62C85.865,184.009,86.138,183.485,86.08,183.63Z" transform="translate(-40.114 -127.349)"/>
  <path class="cls-1" d="M91.029,181.372c-.108.662-.228,1.124-.7,1.141-.176.006-.449-.446-.534-.732a.483.483,0,0,1,.511-.641A2.331,2.331,0,0,1,91.029,181.372Z" transform="translate(-40.114 -127.349)"/>
  <path class="cls-1" d="M71.028,175.88c-4.791,1.364-9.6,2.089-14.5.5,1.578-.288,3.776,1.035,4.4-2.217,1.347,3.055,2.756,2.388,4.753,1.051C67.3,174.127,69.358,174.694,71.028,175.88Z" transform="translate(-40.114 -127.349)"/>
  <path class="cls-1" d="M53.033,174.88c.912-.8,2.894,0,3-2,.9.23,2.061-.877,2.893.753-2.021-.077-2.508,1.108-2.4,2.745C55.138,176.409,53.839,176.221,53.033,174.88Z" transform="translate(-40.114 -127.349)"/>
  <path class="cls-7" d="M75.031,160.806c1.329.489,3.147.728,3.174,2.082.031,1.547-1.892,1.621-3.088,1.744a2.1,2.1,0,0,1-2.491-1.868C72.583,161.281,74.054,161.226,75.031,160.806Z" transform="translate(-40.114 -127.349)"/>
  <line class="cls-8" x1="19.085" y1="9.932" x2="45.497" y2="2"/>
</svg>
