<svg id="Layer_1" data-name="Layer 1" xmlns="http://www.w3.org/2000/svg" viewBox="0 0 54.881 78.463">
  <defs>
    <style>
      .cls-1 {
        fill: #fbfcfd;
      }

      .cls-2 {
        fill: #fcfdfe;
      }

      .cls-3 {
        fill: #fdfce5;
      }

      .cls-4 {
        fill: #fcfded;
      }

      .cls-5 {
        fill: #fdf3c3;
      }

      .cls-6 {
        fill: #fcfae5;
      }

      .cls-7 {
        fill: #fce15d;
      }

      .cls-8 {
        fill: #f9e888;
      }

      .cls-9 {
        fill: #f8e278;
      }

      .cls-10 {
        fill: #f5e477;
      }

      .cls-11 {
        fill: #f8e164;
      }

      .cls-12 {
        fill: none;
        stroke: #ffde00;
        stroke-linecap: round;
        stroke-linejoin: round;
        stroke-width: 4px;
      }
    </style>
  </defs>
  <path class="cls-1" d="M65.763,166.7c.5-.044,1.209-.136,1.152-.669-.216-1.988,1.095-1.828,2.345-1.827.232.1.5.249.542.479.308,1.823,1.163,2.233,2.729,1.174a2.265,2.265,0,0,1,1.226-.155c.648-.318.658-1.462,1.642-1.312.436.066.911.556.738.839-.582.953.13,2.3-.914,3.028-2.075,1.447-2.361,6.165-.52,8.026,1.524,1.542-1.368,1.487-1.017,2.643,2.844.523,3.056,1.09,1.571,4.253a6.747,6.747,0,0,0-5.464-2.534,4.251,4.251,0,0,0-3.251,1.41,25.847,25.847,0,0,1-2.821.867c-1.943.471-3.412,0-3.991-2.12.41-2.6,1.637-3.639,4.336-3.75,1.6-.065,3.108.514,4.7.513a2.63,2.63,0,0,0,2.883-2.191,2.547,2.547,0,0,0-1.6-3.242,14.016,14.016,0,0,0-7.526-1.065,7.016,7.016,0,0,1-3.686-.031c-3.356-3.054-3.365-3.089-1.571-6.333l1-.5a1,1,0,0,1,.657.678,1.356,1.356,0,0,1,.022.651c-.1-1.389-.521-3.2,1.319-4.325.442-1.066,1.165-1.006,2-.5,1.005,1.057,3.383.193,3.5,2.5q0,1.251,0,2.5c-1.343.262-1.437-1.128-2.181-1.662-.61-.439-1.158-.982-1.99-.706a1.773,1.773,0,0,0-1.174,1.964c.035,1.1-.429,2.371.851,3.131,1.309.778,2.158-.1,3.031-.875A2.611,2.611,0,0,1,65.763,166.7Z" transform="translate(-42.675 -148.058)"/>
  <path class="cls-2" d="M44.78,218.633c.525.73,1.308.429,2,.5.789.383,1.44,1.456,2.5.5-.008-2.411,1.066-3.541,3.575-3.126a3.794,3.794,0,0,0,1.421-.369c.44-.2.878-.394.5-1a7.593,7.593,0,0,0-2.547-2.3,3.7,3.7,0,0,1-2.449-3.7c.808-.576.1-2.5,1.929-2.171a18,18,0,0,0,3.779,4.787,3.161,3.161,0,0,1,1.184,2.1c-.082.844.622,1.291.954,1.928a1.615,1.615,0,0,1-1.034,2.578c.666.2,1.487-.379,2.164.242.056.1.009.486.3.109.325-.757-.545-1.694.38-2.345,1.767-.458,2.794.6,3.752,1.811,1.04,1.894,2.643,1.233,4.171.908.866-.134,1.716-.335,2.57-.524,1.3-.017,3.113-.642,3.641.666.418,1.037-1.5,1.682-2.219,2.656a3.205,3.205,0,0,1-3.158,1.077,5.333,5.333,0,0,0-2.453.14,6.175,6.175,0,0,1-3.079-.05c-1.228-2.087-2.442-.21-3.662.027a5.478,5.478,0,0,1-2.486,0,1.8,1.8,0,0,1-.9-.334c-2.176-2.38-4.191-1.661-6.16.277a2.772,2.772,0,0,1-1.739.269c-1.1-.644-2.582-.5-3.431-1.666C41.7,220.172,43.585,219.46,44.78,218.633Z" transform="translate(-42.675 -148.058)"/>
  <path class="cls-3" d="M66.727,181.644c.742-.625.022-1.546.459-2.449a4.588,4.588,0,0,0,3.736.972c2.395-.339,3.67.888,4.335,3.013a7.788,7.788,0,0,1-1.5,3.494c-.308.811-1.047.984-1.764,1.184a19.572,19.572,0,0,0-6.767,3.483c-.357.284-.733.543-1.1.808a5.766,5.766,0,0,0-1.858,2.66,3.811,3.811,0,0,1-.3.6,5.342,5.342,0,0,0-1.258,3.3c-.17.653-.6,1.2-.732,1.869a11.836,11.836,0,0,0-.045,2.35,6.8,6.8,0,0,0,.691,2.23,5.337,5.337,0,0,0,2.63,4.028c1.458.971,3.275.945,4.795,1.731a11.236,11.236,0,0,0,3.367.228l.338-.006c1.512-.464,3.356.071,4.5-1.491a1.919,1.919,0,0,1,1.1-.609,3.017,3.017,0,0,0,1.309-.882c1.3-1.191,2.336-2.71,4.148-3.242,1.445-.464,2.82-.555,3.935.734l1,1.5c.534.376,1.063.753.5,1.5l-.012,1c-.67.911-.621,2.785-2.6,1.941-.162-.879.408-1.59.559-2.4a1.75,1.75,0,0,0-.494-1.825,1.809,1.809,0,0,0-2.109-.094,15.563,15.563,0,0,0-1.777,1.367c-4.7,3.342-9.7,5.463-15.638,4.01-6.2-1.516-9.4-6.486-8.291-12.741a15.128,15.128,0,0,1,4.528-8.945c2.551-2.461,5.764-3.752,8.984-5.018,1.452-.571,2.591-1.442,1.982-3.12-.6-1.644-2.053-1.649-3.54-1.247-.935.252-1.848.789-2.87.332Q66.85,181.776,66.727,181.644Z" transform="translate(-42.675 -148.058)"/>
  <path class="cls-4" d="M85.687,211.621c1.428.086,1.727-1.287,2.554-1.977.213,1.049-.546,1.711-1,2.5-1.57,1.074-2.832,2.544-4.5,3.5-1.7.7-3.435,1.349-5.095,2.145a4.937,4.937,0,0,1-1.893.365c-.728,1.156-1.845.718-2.879.749s-2.118-.3-3.123.235a4.114,4.114,0,0,1-2.5.5c-1.4-.771-3.026-.546-4.5-1a3.783,3.783,0,0,0-3.5-2,5.483,5.483,0,0,1-3-2.495c-.376-1.884-2.095-2.689-3.242-3.935a3.567,3.567,0,0,1-1.255-3.056,6.769,6.769,0,0,0-.225-3.393,3.613,3.613,0,0,1-.138-2.882c.96-1.822.668-3.647.311-5.506a2.675,2.675,0,0,1,.444-1.771,17.1,17.1,0,0,1,1.8-1.573c.41-.322.969-.419,1.309-.854l.492-.5a1.6,1.6,0,0,1,.462,1.5,25.152,25.152,0,0,0-2.344,10.55c.108,4.793,1.721,8.682,5.689,11.486,4.844,4.3,16.618,3.879,22.473-.7C83.11,212.661,84.076,211.469,85.687,211.621Z" transform="translate(-42.675 -148.058)"/>
  <path class="cls-2" d="M52.773,193.665c-.584.36-.48.95-.5,1.5-.708,2.506-.373,5.125-.879,7.686-.372,1.882.058,3.807-2.862,3.191-.22-.046-.465.437-.755.608-2.7-.754-1.369-3.227-1.867-4.839-.421-1.366.191-3.082.48-4.618.122-.655.558-1.319,1.387-.53.666.455.5,1.36,1.014,1.92.5-.831-.427-1.619-.014-2.42.42-3.966.888-5.26,6.493-4.993a.91.91,0,0,1-1,1C53.336,192.23,53.206,193.1,52.773,193.665Z" transform="translate(-42.675 -148.058)"/>
  <path class="cls-2" d="M42.805,188.77c-.473-1.8.426-3.5,1.378-5.13.41-.7,1.159-1.469,1.679.069a3.618,3.618,0,0,0,.737,1.273c.781.845,2.391,1.191,1.848,2.82a13.783,13.783,0,0,1-3.338,5.031c-.824.859-2.1.367-2.283-1.108A25.308,25.308,0,0,1,42.805,188.77Z" transform="translate(-42.675 -148.058)"/>
  <path class="cls-1" d="M64.757,191.166c2.428-2.64,5.757-3.48,9-4.492a1.466,1.466,0,0,1-.112,1.945c-.58.69-.053.965.613,1.052-.275,2.407-2.413,2.332-4,3h-1C68.171,190.932,66.215,191.794,64.757,191.166Z" transform="translate(-42.675 -148.058)"/>
  <path class="cls-2" d="M70.259,192.667l4-3c.65.327,1.541.49,1.9,1.016.706,1.041,1.381,2.381-.9,2.479-.943-.942-1.426-.045-2,.5.039,1.035,1.04,1.194,1.6,1.748.367.36,1.336.121,1.143,1-.136.623-.81.809-1.34,1.011a2.956,2.956,0,0,1-3.86-2.436C70.633,194.215,71.062,193.3,70.259,192.667Z" transform="translate(-42.675 -148.058)"/>
  <path class="cls-1" d="M69.76,219.132c1.875-1.1,4.107-.013,6-.984,2.021,2.653,4.953,2.572,7.9,2.746-1.686-.038-3.183.787-4.839.735-.416-.013-1.046.159-1.215-.049-2.478-3.049-3.768-.281-5.352,1.046-2.165-.006-4.33,1.213-6.495,0a1.348,1.348,0,0,1,1.563-.464c2.021.563,3.581.145,4.4-1.924.287-.726,1.23-.324,1.568-1.109Z" transform="translate(-42.675 -148.058)"/>
  <path class="cls-2" d="M82.748,205.637c-1.869.29-2.446,2.3-4,3.006-.534.124-.947.372-1,.983l-1.49.019c-.671-.434-1.822-.465-.723-1.839,1.464-1.83,2.411-4.061,4.22-5.652C80.781,203.289,83.023,203.381,82.748,205.637Z" transform="translate(-42.675 -148.058)"/>
  <path class="cls-1" d="M47.777,206.649c.312-1.727.281-1.658,1.725-1.015a.843.843,0,0,0,1.213-.993c-.623-2.287,1.854-4.385.209-6.814-.521-.77.882-1.75,1.349-2.663.518,1.989.931,3.9-.312,5.881-.7,1.116.241,2.354.521,3.528.231.971.941,2.107-.708,2.575-1.434-.1-.564,2.1-2,2C49.881,207.7,48.126,207.735,47.777,206.649Z" transform="translate(-42.675 -148.058)"/>
  <path class="cls-1" d="M68.261,211.143c-1.838-.482-3.9-.144-5.5-1.509-.551-.809-1.146-1.611-.41-2.623.385-.425.62-1.1,1.411-.862,1.9-.557,3.593,1.11,5.5.5.669.5,1.364,1,0,1.5a5.364,5.364,0,0,0-3.345.883,4.4,4.4,0,0,0,4.032,1.63,1.764,1.764,0,0,1,1.8.476l.006.007A5.52,5.52,0,0,1,68.261,211.143Z" transform="translate(-42.675 -148.058)"/>
  <path class="cls-2" d="M47.278,212.141c-.2.346-.42.68-.588,1.039-.615,1.309-1.767,1.009-2.784.859-1.04-.155-1.135-1.041-1.119-1.9a12.442,12.442,0,0,1,.081-1.963c.492-2.758.611-2.78,2.794-.961a3.806,3.806,0,0,0,1.116.433C47.561,210.353,47.379,211.256,47.278,212.141Z" transform="translate(-42.675 -148.058)"/>
  <path class="cls-1" d="M82.748,205.637c-.261-1.794-2.911-1.536-3-3.483.781-.987,1.258-2.885,3-1,1.052.956,2.763.2,3.732,1.452-.229.984-1.344.164-1.842,1.012,1.5-.1,2.24.574,2.108,2.026C85.415,205.318,84.083,204.747,82.748,205.637Z" transform="translate(-42.675 -148.058)"/>
  <path class="cls-2" d="M82.749,201.156c-1.468-1.074-2.007.638-3,1-.122-1.6.346-3.257-.771-4.765-.533-.72.019-1.448.879-1.644,1.268-.289,2.415.323,3.576.683.325.1.694.81.343,1C82.047,198.336,83.006,199.9,82.749,201.156Z" transform="translate(-42.675 -148.058)"/>
  <path class="cls-5" d="M55.761,192.15q0-.741,0-1.484c.015-.162.025-.323.031-.485.033-.543.445-.921.6-1.411.117-1.079-.741-1.735-1.118-2.6a2.97,2.97,0,0,1-1.021-2c-1.9-2.187-1.121-4.621-.654-7.024a3.2,3.2,0,0,1,.211-.729,13.843,13.843,0,0,1,4.085-5.3,1.538,1.538,0,0,1,.681-.211c.584.121,1.21-.095,1.771.22-.032,1.532-1.73,1.509-2.332,2.509-3.744,4.318-3.848,8.343-.323,12.851,1.49,1.906,1.31,2.729-1.25,5.722A.536.536,0,0,1,55.761,192.15Z" transform="translate(-42.675 -148.058)"/>
  <path class="cls-2" d="M54.28,176.207a3.961,3.961,0,0,1-.024.487c-1.46,2.169-.217,4.718-.984,6.985h-1.5c-.333.346-.666.025-1,0a1.722,1.722,0,0,1-1-1,18.728,18.728,0,0,0,.417-3.418c.168-1.067.371-2.136,1.582-2.574,1.278-.109,1.363-1.708,2.5-2A1.126,1.126,0,0,1,54.28,176.207Z" transform="translate(-42.675 -148.058)"/>
  <path class="cls-1" d="M61.771,194.666a4.992,4.992,0,0,1,1.994-3c1.382,1.107,3.183,1.736,4,3.493.713.118,1.269.812.5,1.022-1.531.419-2.745,1.82-4.5,1.474a1.263,1.263,0,0,1-.422-.856C63.435,195.64,62.072,195.542,61.771,194.666Z" transform="translate(-42.675 -148.058)"/>
  <path class="cls-2" d="M57.27,164.7c-1.051,2.385.206,4.193,1.5,5.992-.031.3-.342.326-.489.512l-.014-.015c-1.583.478-1.993-1.782-3.494-1.5a2.408,2.408,0,0,1-1.176-3.544A2.642,2.642,0,0,1,57.27,164.7Z" transform="translate(-42.675 -148.058)"/>
  <path class="cls-2" d="M61.95,155.78c-1.145-.266-2.746.532-2.645-1.459.088-1.748,1.5-2.178,2.813-2.023,1.346.158,3.59.136,3.44,1.912S63.12,155.288,61.95,155.78Z" transform="translate(-42.675 -148.058)"/>
  <path class="cls-1" d="M93.38,221.882c-.328.507.161,1.68-.813,1.486-.647-.13-1.4,1.2-2.018-.273-.472-1.129-1.97-1.036-3.023-1.441-.962-.37-1.764-1.02-1.335-1.968.468-1.037,1.5-.447,2.122.027a5.06,5.06,0,0,0,3.486.936C92.6,220.618,93.566,220.566,93.38,221.882Z" transform="translate(-42.675 -148.058)"/>
  <path class="cls-6" d="M65.763,166.7c-1.324,1.437-2.21,3.7-4.925,2.31-1.523-.779-1.013-2.088-1.067-3.245s-.078-2.326,1.165-3.02c1.828-1.022,2.7.5,3.677,1.463.416.41.452,1.22,1.148,1.5C65.762,166.038,65.762,166.37,65.763,166.7Z" transform="translate(-42.675 -148.058)"/>
  <path class="cls-2" d="M73.757,165.7a3.563,3.563,0,0,1-2.432,1.556c-1.807.037-2.12-1.5-2.065-3.054.947-.968,1.884-1.893,3.444-1.265C74.092,163.5,73.687,164.677,73.757,165.7Z" transform="translate(-42.675 -148.058)"/>
  <path class="cls-2" d="M67.761,195.164c-1.2-1.312-3.4-1.492-4-3.493l.992-.5c1.793-.375,3.759-1.269,4.5,1.5C69.6,194,68.123,194.249,67.761,195.164Z" transform="translate(-42.675 -148.058)"/>
  <path class="cls-2" d="M63.765,196.662v1q-1.249,3.5-2.5,6.991l-.29.212c-.379.081-.7.024-.85-.387.219-1.934,1.46-3.844.143-5.817-.078-1.412-.088-2.795,1.494-3.5A4.787,4.787,0,0,1,63.765,196.662Z" transform="translate(-42.675 -148.058)"/>
  <path class="cls-1" d="M54.772,169.7c.123-.694.314-1.1,1.056-.439.774.688,1.622,1.293,2.438,1.935l-3.986,5.014q0-.759-.008-1.516C54.524,173.035,54.112,171.313,54.772,169.7Z" transform="translate(-42.675 -148.058)"/>
  <path class="cls-1" d="M82.75,215.638c1.107-1.669,2.27-3.265,4.5-3.5.142,1.457-1.51,2.6-.725,4.211.112.231-.671.863-.814.519C85.089,215.389,83.406,216.771,82.75,215.638Z" transform="translate(-42.675 -148.058)"/>
  <path class="cls-1" d="M51.775,176.688a6.651,6.651,0,0,0-1.017,4.142c.06.768.211,1.7-.982,1.85-1.326-2.524-.219-4.675,1.03-6.814.18-.309.41-.635.686-.31C51.718,175.822,51.69,176.3,51.775,176.688Z" transform="translate(-42.675 -148.058)"/>
  <path class="cls-2" d="M65.763,163.206c-.578-1.654-3.083-.613-3.5-2.5a10.492,10.492,0,0,0,1.311-.554c1-.588,2.134-.832,2.835.159A1.843,1.843,0,0,1,65.763,163.206Z" transform="translate(-42.675 -148.058)"/>
  <path class="cls-2" d="M60.267,161.209c-1.4,1.992-.855,4.341-1.085,6.753-1.841-1.073.163-2.763-.913-3.757C57.319,161.437,57.673,160.907,60.267,161.209Z" transform="translate(-42.675 -148.058)"/>
  <path class="cls-2" d="M46.28,176.532c-.035.734.079,1.638-1.028,1.584-1.185-.058-1.372-1.041-1.418-1.958a1.242,1.242,0,0,1,1.355-1.411C46.477,174.743,46.218,175.75,46.28,176.532Z" transform="translate(-42.675 -148.058)"/>
  <path class="cls-1" d="M65.185,157.193a1.9,1.9,0,0,1-2.048,1.326c-.571,0-1.56-.4-1.21-1.155A2.3,2.3,0,0,1,64,155.72C64.76,155.744,65.287,155.981,65.185,157.193Z" transform="translate(-42.675 -148.058)"/>
  <path class="cls-2" d="M69.26,208.147c.794-.5.133-1,0-1.5a.864.864,0,0,0,.242-.029,3.857,3.857,0,0,1,3.458.356c.4.208.258.79-.109,1.029A2.928,2.928,0,0,1,69.26,208.147Z" transform="translate(-42.675 -148.058)"/>
  <path class="cls-1" d="M88.532,214.233c1.72,1.175.344,3.956,3.692,4.125C88.761,219.313,87.909,218.069,88.532,214.233Z" transform="translate(-42.675 -148.058)"/>
  <path class="cls-1" d="M88.248,222.629c-1.59,1.012-3.361.5-5.019.443-2.824-.087-5.7.626-8.475-.441Z" transform="translate(-42.675 -148.058)"/>
  <path class="cls-1" d="M96.886,219.893c-.991-.6-2.749.333-2.92-1.347-.082-.81.986-1.257,1.641-1.206C97.1,217.456,96.688,218.856,96.886,219.893Z" transform="translate(-42.675 -148.058)"/>
  <path class="cls-2" d="M77.753,200.157c-.169.809.447,1.856-.65,2.375a1.077,1.077,0,0,1-1.34-.277,2.379,2.379,0,0,1-.008-3.1C76.4,199.529,77.08,199.84,77.753,200.157Z" transform="translate(-42.675 -148.058)"/>
  <path class="cls-1" d="M48.777,196.162c.86,1.235,1.736,2.47-.152,3.7a4.741,4.741,0,0,1-.848-3.2Z" transform="translate(-42.675 -148.058)"/>
  <path class="cls-1" d="M49.276,219.631c-.05.568-.145,1.255-.845,1.181a1.652,1.652,0,0,1-1.653-1.68C48.069,217.009,48.5,219.189,49.276,219.631Z" transform="translate(-42.675 -148.058)"/>
  <path class="cls-1" d="M53.272,183.679c0-1.559.009-3.117,0-4.676-.007-.92-.041-1.837.986-2.309a13.983,13.983,0,0,0,0,7.484A1.016,1.016,0,0,1,53.272,183.679Z" transform="translate(-42.675 -148.058)"/>
  <path class="cls-2" d="M63.765,206.149l-1,1c-1.919-.03-2.161-.433-1.5-2.5A2.38,2.38,0,0,1,63.765,206.149Z" transform="translate(-42.675 -148.058)"/>
  <path class="cls-1" d="M73.257,193.666c-.4-.149-1.215-.179-.49-.825.444-.394,1.248-.2,1.775-.7.349-.331.765-1.168,1.332-.425.441.578-.545.894-.619,1.449A3.362,3.362,0,0,1,73.257,193.666Z" transform="translate(-42.675 -148.058)"/>
  <path class="cls-1" d="M56.785,189.189l-.992.992c-.984-.861-2.311-1.663-.523-3.007C55.874,187.771,57.353,187.711,56.785,189.189Z" transform="translate(-42.675 -148.058)"/>
  <path class="cls-1" d="M74.939,174.976c-.182-.234-.554-.5-.52-.705.133-.793.306-1.664,1.283-1.851.417-.08.538.367.462.681A2.51,2.51,0,0,1,74.939,174.976Z" transform="translate(-42.675 -148.058)"/>
  <path class="cls-1" d="M47.278,212.141a4.112,4.112,0,0,1-.5-2.5c.144-.406.27-1.263.812-.516A1.98,1.98,0,0,1,47.278,212.141Z" transform="translate(-42.675 -148.058)"/>
  <path class="cls-1" d="M44.718,216.3c.853.1,1.1.757,1.232,1.4s-.537,1.046-.89.856a2.761,2.761,0,0,1-1.03-1.423C43.855,216.675,44.318,216.433,44.718,216.3Z" transform="translate(-42.675 -148.058)"/>
  <path class="cls-2" d="M64.438,203.851c-.139-.909-.523-1.736.267-2.429.093-.082.652.137.763.342C66.024,202.791,65.486,203.375,64.438,203.851Z" transform="translate(-42.675 -148.058)"/>
  <path class="cls-1" d="M77.753,200.157c-1.161.657-1.856.383-2-1C77.117,198.1,77.492,199.014,77.753,200.157Z" transform="translate(-42.675 -148.058)"/>
  <path class="cls-1" d="M90.451,211.869c-.957-1.285-.665-2.089-.5-3.182C91.116,209.618,90.693,210.488,90.451,211.869Z" transform="translate(-42.675 -148.058)"/>
  <path class="cls-1" d="M91.55,210.127c.877.721,1.317,1.281.96,2.1-.048.111-.484.192-.623.1C91.1,211.83,91.2,211.131,91.55,210.127Z" transform="translate(-42.675 -148.058)"/>
  <path class="cls-4" d="M56.785,189.189c.012-1.06-1.571-.922-1.515-2.015l0-1C56.1,187.018,57.9,187.374,56.785,189.189Z" transform="translate(-42.675 -148.058)"/>
  <path class="cls-1" d="M85.914,198.972c.513.018.71.359.766.792s-.044.91-.509.993c-.521.094-.6-.464-.729-.811A.7.7,0,0,1,85.914,198.972Z" transform="translate(-42.675 -148.058)"/>
  <path class="cls-1" d="M96.739,224.894c.5.06.61.487.751.848.2.52-.088.809-.572.776s-.656-.432-.636-.884C96.3,225.315,96.3,224.963,96.739,224.894Z" transform="translate(-42.675 -148.058)"/>
  <path class="cls-1" d="M50.774,183.679c.334-.554.667-.043,1,0-.056.707.177,1.48-.609,2.216C50.538,185.2,50.871,184.383,50.774,183.679Z" transform="translate(-42.675 -148.058)"/>
  <path class="cls-1" d="M55.714,160.984c-.061.443-.185.818-.562.8-.44-.018-.369-.445-.339-.748.034-.345.186-.685.6-.571C55.567,160.51,55.641,160.85,55.714,160.984Z" transform="translate(-42.675 -148.058)"/>
  <path class="cls-1" d="M54.772,215.137c.446.236,1.039.555.78,1.076-.316.636-.845.017-1.28-.077Z" transform="translate(-42.675 -148.058)"/>
  <path class="cls-1" d="M88.253,208.643q-.252-.747-.5-1.5c.455.062,1.074-.167,1.269.426S88.672,208.4,88.253,208.643Z" transform="translate(-42.675 -148.058)"/>
  <path class="cls-6" d="M58.28,171.208l.489-.512c3.105-.014,6.206-.855,9.317,0,1.854.509,3.688.944,4.309,3.175.478,1.716-.328,2.873-1.477,3.894-1.392,1.237-3,.4-4.448.19a9.144,9.144,0,0,0-3.913-.081c-1.331.387-2.421,1.148-2.287,2.811a.49.49,0,0,1-.706-.112c-.352-2.35.191-3.208,2.445-4.041a6.475,6.475,0,0,1,4.59,0,5.841,5.841,0,0,1,.683.22c.937.32,1.872.619,2.646-.344.193-.275.375-.555.544-.845.743-1.4-.116-2.156-1.16-2.773a9.133,9.133,0,0,0-4.5-.974c-1.513-.053-3.13.473-4.516-.6Z" transform="translate(-42.675 -148.058)"/>
  <path class="cls-3" d="M59.787,180.682h.483c.421,1.719,1.555,2.133,3.133,1.684a9.6,9.6,0,0,1,3.325-.722l.068.087c-1.38,2.24-5,2.845-6.727,1.118C59.426,182.209,59.122,181.5,59.787,180.682Z" transform="translate(-42.675 -148.058)"/>
  <path class="cls-1" d="M56.271,222.629c-2.333.07-4.665.994-7,0C52.167,219.861,52.167,219.861,56.271,222.629Z" transform="translate(-42.675 -148.058)"/>
  <path class="cls-1" d="M56.271,214.139a6.207,6.207,0,0,1,3,2.495c-.372.792,2.1,2.151-.5,2.5-1.056-1.211-2.516.075-3.64-.466-.095-.541.122-.779.5-.758.583.032,1.667.49,1.595-.1-.086-.707.974-1.989-.7-2.352C55.978,215.335,55.544,214.734,56.271,214.139Z" transform="translate(-42.675 -148.058)"/>
  <path class="cls-1" d="M62.766,218.63c1.69-.524,3.341-.872,4.5,1C65.575,220.154,63.8,221.057,62.766,218.63Z" transform="translate(-42.675 -148.058)"/>
  <path class="cls-1" d="M62.266,222.624l-3,0c.394-.253,1.026-.432,1.133-.775.217-.693.432-1.335,1.236-1.107C62.6,221.019,62.156,221.956,62.266,222.624Z" transform="translate(-42.675 -148.058)"/>
  <path class="cls-1" d="M69.051,220.919c-.8.791-1.384.929-2.164.168A1.793,1.793,0,0,1,69.051,220.919Z" transform="translate(-42.675 -148.058)"/>
  <path class="cls-1" d="M58.75,219.29c-.095.405-.219.709-.6.74-.326.027-.729-.026-.6-.461.059-.2.47-.324.744-.4C58.386,219.141,58.794,218.878,58.75,219.29Z" transform="translate(-42.675 -148.058)"/>
  <path class="cls-7" d="M70.752,176.189l-.413.546a2.649,2.649,0,0,1-3.079.456h0a5.734,5.734,0,0,0-3.325-.761c-1.74.179-3.585.191-4.325,2.24-.5,1.378-.77,2.913.465,3.95a4.645,4.645,0,0,0,5.158.458,26.642,26.642,0,0,1,5.35-1.978,2.137,2.137,0,0,1,2.106.314c.76.7,1.469,1.49,1.191,2.571a2.648,2.648,0,0,1-1.915,2.034c-3.391,1.095-6.661,2.5-9.19,5.168-3.283,3.925-5.158,8.245-4.134,13.522a8.537,8.537,0,0,0,5.484,6.563c6.682,2.741,12.473.584,17.806-3.594.392-.307.7-.717,1.1-1.01a2.5,2.5,0,0,1,3.221-.128,2.466,2.466,0,0,1,.656,2.943,13.7,13.7,0,0,1-1.224,2.138,23.649,23.649,0,0,1-16.293,6.319c-3.649-.057-7.242-.7-10.148-3.264a16.307,16.307,0,0,1-4.934-7.525,14.039,14.039,0,0,1-.091-9.22c.676-1.936.732-4.085,2.017-5.813,2.093-2.579,1.807-4.652-.483-7.266-2.644-3.019-1.371-8.587,1.982-11.68a11.807,11.807,0,0,1,10.487-1.047C70.825,172.978,71.217,173.549,70.752,176.189Z" transform="translate(-42.675 -148.058)"/>
  <path class="cls-8" d="M62.774,191.187c2.076-3.245,5.573-4.254,8.879-5.454,1.325-.48,2.148-1.143,1.817-2.425s-1.025-2.286-2.893-1.88c-2.306.5-4.236,1.871-6.5,2.382-2.389.539-4.463-.373-5.114-2.286-.593-1.743.282-4.259,1.975-4.858,2.117-.75,4.345-1.154,6.324.525-1.588-.078-3.075-.766-4.787-.2-1.941.638-2.91,1.645-2.685,3.694.471,2.188,2.174,3.089,4.639,2.319a13.812,13.812,0,0,0,2.37-1.27c1.188-.331,2.368-.7,3.566-.985,1.8-.432,3.254.237,3.764,1.944a2.718,2.718,0,0,1-2.039,3.633A34.541,34.541,0,0,0,62.774,191.187Z" transform="translate(-42.675 -148.058)"/>
  <path class="cls-1" d="M60.27,198.659c3.042,1.266.367,3.322.648,4.972.05.295-.42.678-.649,1.02.126.113.168.225.125.336s-.086.167-.128.167a2.731,2.731,0,0,1-.992-2,2.375,2.375,0,0,0,.005-2.991Z" transform="translate(-42.675 -148.058)"/>
  <path class="cls-2" d="M60.266,205.154l0-.5h1c.009,1.127-.163,2.361,1.5,2.5-.7.828-.088,1.657,0,2.486C61.382,208.446,59.829,207.354,60.266,205.154Z" transform="translate(-42.675 -148.058)"/>
  <path class="cls-2" d="M63.765,196.662a2.363,2.363,0,0,1-2-1.5c0-.164,0-.329.007-.494C62.288,195.478,64.518,194.582,63.765,196.662Z" transform="translate(-42.675 -148.058)"/>
  <path class="cls-2" d="M59.279,200.161c1.153,1,1.8,2-.005,2.991Q59.277,201.657,59.279,200.161Z" transform="translate(-42.675 -148.058)"/>
  <path class="cls-1" d="M77.745,209.626c-.077-.418-1-.5-.513-1.1s1.016-.037,1.516.121A1.6,1.6,0,0,1,77.745,209.626Z" transform="translate(-42.675 -148.058)"/>
  <path class="cls-4" d="M68.261,211.143h3.5A2.9,2.9,0,0,1,68.261,211.143Z" transform="translate(-42.675 -148.058)"/>
  <path class="cls-9" d="M56.238,192.118c-.845,2.268-.9,4.728-1.9,6.987-1.585,3.593.2,6.843,1.293,10.191.715,2.2,2.812,3.325,3.611,5.38-5.816-3.287-7.143-11.489-5.3-18.21a11.024,11.024,0,0,1,1.816-4.315A2.72,2.72,0,0,0,56.238,192.118Z" transform="translate(-42.675 -148.058)"/>
  <path class="cls-1" d="M52.773,193.665c.153-1.787.273-1.907,1.5-1.5A3.124,3.124,0,0,1,52.773,193.665Z" transform="translate(-42.675 -148.058)"/>
  <path class="cls-10" d="M70.752,176.189c-.522-3.5-5.67-5.66-9.752-4.107-1.071.407-2.174.729-3.263,1.09.5-1.116,1.875-1.078,2.555-1.954,3.089.027,6.238-.592,9.195.851C71.626,173.112,72.05,174.506,70.752,176.189Z" transform="translate(-42.675 -148.058)"/>
  <path class="cls-11" d="M64.29,166.378c-.086,1.236-.563,2.226-1.906,2.171A2.072,2.072,0,0,1,60.23,166.3c-.032-1.54.887-2.04,2.209-2.072C63.912,164.194,64.141,165.274,64.29,166.378Z" transform="translate(-42.675 -148.058)"/>
  <path class="cls-8" d="M67.26,177.191a6.76,6.76,0,0,0,3.079-.456C69.526,178.325,68.41,177.873,67.26,177.191Z" transform="translate(-42.675 -148.058)"/>
  <line class="cls-12" x1="7.645" y1="9.932" x2="34.057" y2="2"/>
</svg>
