<svg width="40" height="70" viewBox="0 0 40 70" fill="none" xmlns="http://www.w3.org/2000/svg">
<path d="M23.077 28.131L22.664 28.677C22.2645 29.0682 21.7516 29.323 21.1985 29.4049C20.6454 29.4868 20.0806 29.3916 19.585 29.133C18.5795 28.5479 17.4198 28.2825 16.26 28.372C14.52 28.551 12.675 28.563 11.935 30.612C11.435 31.99 11.165 33.525 12.4 34.562C13.1171 35.1417 13.9907 35.4949 14.9092 35.5764C15.8278 35.658 16.7499 35.4643 17.558 35.02C19.2654 34.1711 21.059 33.508 22.908 33.042C23.2558 32.9057 23.6333 32.8629 24.0029 32.918C24.3724 32.9731 24.721 33.1241 25.014 33.356C25.774 34.056 26.483 34.846 26.205 35.927C26.1071 36.4108 25.8759 36.8577 25.5375 37.2171C25.1991 37.5765 24.767 37.8341 24.29 37.961C20.899 39.056 17.629 40.461 15.1 43.129C11.817 47.054 9.94197 51.374 10.966 56.651C11.2221 58.1306 11.864 59.5165 12.8268 60.6688C13.7897 61.8211 15.0394 62.699 16.45 63.214C23.132 65.955 28.923 63.798 34.256 59.62C34.648 59.313 34.956 58.903 35.356 58.61C35.7915 58.2121 36.3536 57.9809 36.9431 57.9575C37.5325 57.9341 38.1113 58.1199 38.577 58.482C38.9965 58.8308 39.2885 59.309 39.4072 59.8415C39.5259 60.3741 39.4646 60.931 39.233 61.425C38.89 62.173 38.4803 62.8885 38.009 63.563C33.5839 67.6723 27.7546 69.9331 21.716 69.882C18.067 69.825 14.474 69.182 11.568 66.618C9.2501 64.622 7.54033 62.0144 6.63397 59.093C5.56647 56.1175 5.53441 52.8689 6.54297 49.873C7.21897 47.937 7.27497 45.788 8.55997 44.06C10.653 41.481 10.367 39.408 8.07697 36.794C5.43297 33.775 6.70597 28.207 10.059 25.114C11.6065 24.1392 13.3593 23.5372 15.1792 23.3555C16.9991 23.1738 18.8363 23.4173 20.546 24.067C23.15 24.92 23.542 25.491 23.077 28.131Z" fill="#FCE15D"/>
<path d="M16.615 18.32C16.529 19.556 16.052 20.546 14.709 20.491C14.4145 20.5038 14.1207 20.4536 13.8472 20.3437C13.5737 20.2339 13.3267 20.067 13.1229 19.8541C12.919 19.6413 12.7629 19.3874 12.6649 19.1093C12.567 18.8313 12.5295 18.5357 12.555 18.242C12.523 16.702 13.442 16.202 14.764 16.17C16.237 16.136 16.466 17.216 16.615 18.32Z" fill="#F8E164"/>
<path d="M2.64502 9.932L29.057 2" stroke="#FFDE00" stroke-width="4" stroke-linecap="round" stroke-linejoin="round"/>
</svg>
