<svg id="Layer_1" data-name="Layer 1" xmlns="http://www.w3.org/2000/svg" viewBox="0 0 95.824 161.323">
  <defs>
    <style>
      .cls-1 {
        fill: #fbfcfd;
      }

      .cls-2 {
        fill: #fcfdfe;
      }

      .cls-3 {
        fill: #fcfdfd;
      }

      .cls-4 {
        fill: #fcf5e5;
      }

      .cls-5 {
        fill: #fcf6e7;
      }

      .cls-6 {
        fill: #fcfceb;
      }

      .cls-7 {
        fill: #eeaa52;
      }

      .cls-8 {
        fill: #f0a94a;
      }

      .cls-9 {
        fill: #eab76b;
      }

      .cls-10 {
        fill: #eeab51;
      }

      .cls-11 {
        fill: #eeaa4e;
      }

      .cls-12 {
        fill: #fbfbfa;
      }

      .cls-13 {
        fill: #efab48;
      }

      .cls-14 {
        fill: #f0a94b;
      }

      .cls-15 {
        fill: #f1ab39;
      }

      .cls-16 {
        fill: #fae9ca;
      }

      .cls-17 {
        fill: #faf1d7;
      }

      .cls-18 {
        fill: #f8fdf9;
      }

      .cls-19 {
        fill: none;
        stroke: #efaa4d;
        stroke-linecap: round;
        stroke-linejoin: round;
        stroke-width: 4px;
      }
    </style>
  </defs>
  <path class="cls-1" d="M88.248,222.629c-1.59,1.012-3.361.5-5.019.443-2.824-.087-5.7.626-8.475-.441Z" transform="translate(-40.114 -65.198)"/>
  <path class="cls-1" d="M49.276,219.631c-.05.568-.145,1.255-.845,1.181a1.652,1.652,0,0,1-1.653-1.68C48.069,217.009,48.5,219.189,49.276,219.631Z" transform="translate(-40.114 -65.198)"/>
  <path class="cls-1" d="M96.739,224.894c.5.06.61.487.751.848.2.52-.088.809-.572.776s-.656-.432-.636-.884C96.3,225.315,96.3,224.963,96.739,224.894Z" transform="translate(-40.114 -65.198)"/>
  <path class="cls-1" d="M56.271,222.629c-2.333.07-4.665.994-7,0C52.167,219.861,52.167,219.861,56.271,222.629Z" transform="translate(-40.114 -65.198)"/>
  <path class="cls-1" d="M62.766,218.63c1.69-.524,3.341-.872,4.5,1C65.575,220.154,63.8,221.057,62.766,218.63Z" transform="translate(-40.114 -65.198)"/>
  <path class="cls-1" d="M62.266,222.624l-3,0c.394-.253,1.026-.432,1.133-.775.217-.693.432-1.335,1.236-1.107C62.6,221.019,62.156,221.956,62.266,222.624Z" transform="translate(-40.114 -65.198)"/>
  <path class="cls-1" d="M69.051,220.919c-.8.791-1.384.929-2.164.168A1.793,1.793,0,0,1,69.051,220.919Z" transform="translate(-40.114 -65.198)"/>
  <path class="cls-1" d="M58.75,219.29c-.095.405-.219.709-.6.74-.326.027-.729-.026-.6-.461.059-.2.47-.324.744-.4C58.386,219.141,58.794,218.878,58.75,219.29Z" transform="translate(-40.114 -65.198)"/>
  <path class="cls-1" d="M91.007,181.368c.084-1.164-.711-1.987-1.093-2.971a9.9,9.9,0,0,1-.406-6.017c1.247-.829,1.6.125,2,1,1.159,2.037,1.963,4.128,1,6.492a2.884,2.884,0,0,0,.913,2.353,2.121,2.121,0,0,1-.914,3.639C92.383,184.238,93.086,182.339,91.007,181.368Z" transform="translate(-40.114 -65.198)"/>
  <path class="cls-2" d="M92.506,179.87q-.5-3.246-1-6.492c.888-.509,1.665-1.442,2.868-.751s1.133,1.854,1.136,3.016C95.52,179.392,95.258,179.779,92.506,179.87Z" transform="translate(-40.114 -65.198)"/>
  <path class="cls-1" d="M41.9,177.2c-.015.575-.266.988-.858.985s-.858-.431-.919-.965a.959.959,0,0,1,.719-1.138C41.606,175.961,41.648,176.728,41.9,177.2Z" transform="translate(-40.114 -65.198)"/>
  <path class="cls-1" d="M41.131,188.524c.413.125.752.366.728.818a.928.928,0,0,1-1.147.913c-.482-.044-.656-.421-.565-.87A.964.964,0,0,1,41.131,188.524Z" transform="translate(-40.114 -65.198)"/>
  <path class="cls-1" d="M92.505,190.855c.071-.69-.231-1.472.5-2C94.743,190,93.045,190.282,92.505,190.855Z" transform="translate(-40.114 -65.198)"/>
  <path class="cls-1" d="M91.029,181.372c-.108.662-.228,1.124-.7,1.141-.176.006-.449-.446-.534-.732a.483.483,0,0,1,.511-.641A2.331,2.331,0,0,1,91.029,181.372Z" transform="translate(-40.114 -65.198)"/>
  <path class="cls-3" d="M58.312,90.472c.655.027,1.43-.164,1.944.118,2.8,1.541,5.556.7,8.339.037a11.486,11.486,0,0,1,1.708-.149c-.48,1.29-1.5,2.209-2.77,1.885-2.38-.609-4.75-.278-7.12-.377C59.33,91.941,58.415,91.808,58.312,90.472Z" transform="translate(-40.114 -65.198)"/>
  <path class="cls-1" d="M101.4,117.3c.421-.391,1.238-.822,1.2-1.165-.326-3.166,2.621-3.49,4.2-4.974.174-.162.474-.214.385-.511a.662.662,0,0,0-.948-.5c-1.355.519-2.274-.333-3.075-1.126-.709-.7-1.173-1.644.563-1.721.55-.025,1.225.18,1.519-.533a.717.717,0,0,0-.291-.863c-.7-.566-1.2-.22-1.728.279a3.15,3.15,0,0,1-.83.347c.235-1.579.4-2.983-.861-4.168a2.719,2.719,0,0,1-.492-2.1c.09-.615.261-1.736,1.227-1.541.839.169.526,1,.358,1.671-.514,2.053,1.362,2.63,2.449,3.6.49.438.856-.315.788-.817-.309-2.268,1.038-4.9-1.453-6.705a.75.75,0,0,1-.032-1.272.973.973,0,0,1,1.535.045,10.037,10.037,0,0,1,.846,2.009c.476-.8-.27-2.037,1.2-2.267.819-.127,1.533-.821,2.411-.165a1.878,1.878,0,0,1-.632,2.018c-2.273,2.482-2.854,5.5-3,8.7a6.515,6.515,0,0,0,2.457,5.173c1.086,1.03,2.5,1.608,3.614,2.615.394.624.529,1.319-.175,1.723-3.22,1.847-6.595,3.183-10.423,2.745A1.343,1.343,0,0,1,101.4,117.3Z" transform="translate(-40.114 -65.198)"/>
  <path class="cls-4" d="M112.378,113.313c-7.466-2.461-7.621-9.915-4-15.686.609-.971,1.335-1.868,2.008-2.8l1.014-.992c.418-.883,1.489-1.376,1.5-2.5,0-.165,0-.331,0-.5a2.933,2.933,0,0,1,1.734-3.427c1.482-.717,2.968-1,4.258.427.165,0,.33.005.495.005a29.988,29.988,0,0,1,10.479,4.414,3.433,3.433,0,0,1,1.518,1.57c.164,0,.328.007.492.008,1.369,1.7,3.111,3.167,3.5,5.492,0,.166,0,.332,0,.5,1.328,3.729.161,6.958-2,9.987v0a10.4,10.4,0,0,1-4,2l-.984.019a.415.415,0,0,1-.589,0c-.132-.693.414-1.029.766-1.471a3.915,3.915,0,0,1,.831-.663c4.965-2.438,6.251-6.869,3.2-11.557-2.507-3.856-6.4-5.944-10.533-7.574-1.224-.482-2.513-.84-3.77-1.264-2.332-.785-3.6.033-3.483,2.491.093,2.021-1.363,2.681-2.531,3.666a12.223,12.223,0,0,0-4.74,9.945,5.92,5.92,0,0,0,2.6,5.1,10.716,10.716,0,0,0,3.768,1.689c.719.216,1.553.5,1.531,1.347a1.509,1.509,0,0,1-1.809,1.515C112.872,114.72,113.431,113.435,112.378,113.313Z" transform="translate(-40.114 -65.198)"/>
  <path class="cls-5" d="M112.378,113.313c1.479-.252,1.144.709,1.022,1.528-.116,1.37-1.343,1.543-2.244,2a24.481,24.481,0,0,1-7.419,2.006c-1.439.231-1.73,1.017-1.644,2.252.1,1.394,1.08,1.572,2.124,1.5a27.052,27.052,0,0,0,10.18-3.037,19.165,19.165,0,0,0,2.686-1.582,1.931,1.931,0,0,1,1.617-.416.669.669,0,0,1,.364.531c-.062.392-.389.527-.679.7l-.5.5a4.063,4.063,0,0,1-2,1.5c-.165,0-.33,0-.5.007a5.526,5.526,0,0,1-4.5,1.993l-1.5.505c-2.259,1.811-4.959,1.824-7.472,1.212-2.582-.629-2.789-5.007-.523-7.207h0c3.884.3,7.39-1,10.835-2.557C113.145,114.332,112.52,113.808,112.378,113.313Z" transform="translate(-40.114 -65.198)"/>
  <path class="cls-1" d="M101.4,117.3a18.031,18.031,0,0,0-.964,3.028c-.43,3.119,1.07,4.442,4.15,3.831,1.6-.318,3.206-.578,4.809-.864.358.589,1.059.393,1.547.676a.9.9,0,0,1,.358,1.091c-.181.747-.825.762-1.4.7-1.64-.165-3.251-.729-4.918-.463-1.257.2-3.27-.155-2.069,2.3.191.39.047.616-.394.634s-1.045-.125-.979-.526c.564-3.458-2.7-5.063-3.673-7.76a2.132,2.132,0,0,1-.064-.445c.979-.626.891.7,1.483.809a3.483,3.483,0,0,0-1.107-3.608Z" transform="translate(-40.114 -65.198)"/>
  <path class="cls-1" d="M131.377,93.824a70.622,70.622,0,0,0-12-5.984c2.528-.516,4.7,1.292,7.216,1.092.877-.069.8,1.37,1.94,1.766,1.471.512,1.919.643,1.662-1.02-.061-.394-.069-.672.311-.74a3.037,3.037,0,0,1,.933.124c-.2,1.105,1.157,1.145,1.3,1.773.166.727,2.522,2.521-.715,2.318C131.827,93.14,131.6,93.59,131.377,93.824Z" transform="translate(-40.114 -65.198)"/>
  <path class="cls-1" d="M118.885,87.835c-3.479-.912-4.569-.367-5.992,3-1.732-1.334-1.294-3.185-.618-4.638.64-1.376,4.8-2.394,5.749-1.69C119.133,85.333,118.142,86.834,118.885,87.835Z" transform="translate(-40.114 -65.198)"/>
  <path class="cls-1" d="M131.5,87.95c-2.362.588-4.1-.892-6.04-1.617-1.013-.379-1.8-.842-2.588.127-.583.721-1,.78-1.456-.065a1.243,1.243,0,0,1,.457-1.893,1.7,1.7,0,0,1,1.2-.138C125.979,85.308,129.07,85.834,131.5,87.95Z" transform="translate(-40.114 -65.198)"/>
  <path class="cls-1" d="M128.376,112.3c.755.964,1.155,2.213,2.3,2.86.437.247,1.394.2.854,1.065-.506.815-1.325.681-1.888.035-.758-.87-1.388-1.85-2.2-2.961-1.139,1.479.347,3.247-1.669,3.5-1.819.225-.851-1.386-1.389-1.993C125.087,112.971,125.93,111.359,128.376,112.3Z" transform="translate(-40.114 -65.198)"/>
  <path class="cls-1" d="M118.385,118.8l.5-.5a9.623,9.623,0,0,1,3.786-3.8c.393-.2,1.071-.8,1.208.309a4.144,4.144,0,0,0-.849,2.416c.019.944-.019,2.723-1.03,2.7C120.875,119.9,119.228,120.245,118.385,118.8Z" transform="translate(-40.114 -65.198)"/>
  <path class="cls-6" d="M123.881,114.8a4.189,4.189,0,0,0-3.114,1.945,4.38,4.38,0,0,1-1.88,1.551l-.027-.575c2.032-4.273,4.93-6.9,8.932-5.959l.6.061c-.009.159-.014.319-.015.478-1.281.457-3.21.092-3.071,2.4,0,.016-.6.068-.924.1l-.25,0Z" transform="translate(-40.114 -65.198)"/>
  <path class="cls-1" d="M109.086,126.846c1.322-.185,2.315.733,3.174-.346a.775.775,0,0,1,1.125,0c.373.52.007,1.113-.2,1.619-.158.382-.341,1.194-.978.647-.876-.751-1.757-.252-2.608-.2-.962.06-2.323.658-2.424-.72C107.064,126.38,108.629,127,109.086,126.846Z" transform="translate(-40.114 -65.198)"/>
  <path class="cls-1" d="M129.375,111.805c1.172-.986,2.3-2.057,4-2,.6,1.078-1.612,2.364.253,3.424.168.095-.446.567-.878.533C131.314,113.651,129.991,113.331,129.375,111.805Z" transform="translate(-40.114 -65.198)"/>
  <path class="cls-1" d="M135.371,99.324c-.882-2.013-3.136-3.151-3.5-5.492C135.942,94.278,136.48,95.121,135.371,99.324Z" transform="translate(-40.114 -65.198)"/>
  <path class="cls-1" d="M95.152,124.314c.763.277,1.981.372,2,1.405.024,1.217-1.242,1.4-2.19,1.508-.984.116-1.542-.485-1.517-1.5C93.472,124.7,94.107,124.3,95.152,124.314Z" transform="translate(-40.114 -65.198)"/>
  <path class="cls-1" d="M115.94,123.286c.992.033,2,.267,1.779,1.123-.38,1.489-1.992,1-3.074,1.336-.4.125-1.332-.1-.959-.612C114.267,124.342,114.583,122.883,115.94,123.286Z" transform="translate(-40.114 -65.198)"/>
  <path class="cls-1" d="M112.894,91.332c1.51,2.035-.658,1.873-1.5,2.5C109.48,91.559,112.5,92.231,112.894,91.332Z" transform="translate(-40.114 -65.198)"/>
  <path class="cls-1" d="M110.893,122.791l4.5-1.993c-.157,1.909-1.548,2.156-3.037,2.207A7.942,7.942,0,0,1,110.893,122.791Z" transform="translate(-40.114 -65.198)"/>
  <path class="cls-1" d="M123.3,127.753c-.25.572-.494,1.282-1.305,1.176a.923.923,0,0,1-.8-1.078,1.11,1.11,0,0,1,1.189-1.031C122.969,126.842,123.337,127.066,123.3,127.753Z" transform="translate(-40.114 -65.198)"/>
  <path class="cls-1" d="M118.875,121.554c.4.312,1.318.059,1.253.884-.055.688-.7.832-1.319.8a.842.842,0,0,1-.88-.958C117.93,121.661,118.2,121.359,118.875,121.554Z" transform="translate(-40.114 -65.198)"/>
  <path class="cls-1" d="M115.885,120.791a2.4,2.4,0,0,1,2-1.5C118.3,121.24,117.444,121.482,115.885,120.791Z" transform="translate(-40.114 -65.198)"/>
  <path class="cls-1" d="M102.057,112.5a1.2,1.2,0,0,1-.336-1.9c.065-.091.515-.053.648.072C103.141,111.4,102.646,111.948,102.057,112.5Z" transform="translate(-40.114 -65.198)"/>
  <path class="cls-1" d="M105.361,100.911c-.08.3-.08.753-.53.6-.2-.068-.345-.493-.366-.768-.023-.294.053-.725.518-.614C105.347,100.211,105.371,100.58,105.361,100.911Z" transform="translate(-40.114 -65.198)"/>
  <path class="cls-7" d="M109.819,110.9c-2.668-1.809-3.714-5-2.668-8.577a13.539,13.539,0,0,1,5.946-8.3,1.86,1.86,0,0,0,1.062-2.378c-.452-2.156,1.068-3.735,3.169-3.2,5.6,1.433,10.96,3.494,14.882,8.029,3.053,3.529,3.36,6.81,1.326,10.536a6.609,6.609,0,0,1-4.163,3.287c-.643-.35-.779-.8-.177-1.289.554-.455,1.22-.763,1.734-1.274.906-1.617,3.09-2.872,2.482-4.9-.87-2.892-1.905-5.879-4.717-7.668-.7-.445-1.416-.865-2.1-1.333-2.884-1.411-5.662-3.084-8.938-3.511-.4-.052-.778-.294-1.183-.039a.611.611,0,0,0-.277.405c.134.5.479.3.747.179,1-.441,2.115-.6,2.544.57.475,1.287-.438,2.206-1.551,2.74-.9.432-1.967.223-2.949.54.441,1.733,1.571,1.981,3.106,1.552a2.834,2.834,0,0,1,2.407-.03c.6.8.792,1.837,1.458,2.607.714,1.2.579,2.531.622,3.838.065,1.96-.246,3.949.422,5.863.359,1.028-.35,1.489-1,2-.89.692-1.748.919-2.549-.122-.779-1.52-2.229-.775-3.393-.989-1.123.092-2.053-.789-3.187-.619-.594.206-.712,1.288-1.574.932a1.456,1.456,0,0,1-.8-1.669c.188-1.8-.771-3.371-.961-5.1a2.106,2.106,0,0,1,1.214-2.556c1.124-.622,3.214-1.45,1.672-4.181-.009,1.666-.384,2.283-1.637,2.91-2.113,1.056-2.432,3.494-2.481,5.766a9.828,9.828,0,0,1,.4.931c-.14,1.747.854,3.184,1.313,4.768C109.955,110.713,109.887,110.8,109.819,110.9Z" transform="translate(-40.114 -65.198)"/>
  <path class="cls-8" d="M112.39,107.813c1.35-.29,2.163,1.29,3.512,1.007,1.16,1,2.824-.038,3.979.983.082.666.509,1.314,1.066.789.537-.508,1.88-.889,1.5-1.664-1.142-2.309-.283-4.673-.538-6.988-.117-1.054.085-2.148-.523-3.117-.283-.781.329-1.226.69-1.741.462-.662.878-1.627,1.848-1.391,1.023.249.746,1.333.878,2.1.483,2.814,1.406,5.625.088,8.462.537.988,4.3-.136,1.634,2.788a1.989,1.989,0,0,0,1.884-1.586c.216-.771.464-1.517,1.481-1.144.888.326,2.019.565,1.486,1.99-.448.883-2.357.3-2,1.99l-.513.508a.92.92,0,0,1-.429.225c-3.468.638-6.6,1.821-8.605,5.009a3.79,3.79,0,0,1-2.11,1.647c-1.4.591-2.37,2.117-4.146,1.871a1.347,1.347,0,0,1-.556-.455,3.2,3.2,0,0,1-.173-2.463,1.78,1.78,0,0,1,1.447-1.479c.733-.143,1.53-.243,1.578-1.217.046-.927-.68-1.218-1.389-1.478a1.888,1.888,0,0,1-.962-.726C112.951,110.483,111.476,109.489,112.39,107.813Z" transform="translate(-40.114 -65.198)"/>
  <path class="cls-7" d="M113.889,111.8a16.2,16.2,0,0,1,1.625.62,1.919,1.919,0,0,1,1.166,2.019,1.5,1.5,0,0,1-1.863,1.251c-1.071-.279-1.355.219-1.429,1.106a17.87,17.87,0,0,1-5.794,2.034,15.132,15.132,0,0,0-5.148,2.357c2.9,1.161,4.953.3,7.008-.963,1.2-.733,2.234-2.033,3.934-1.431v.5c.4.5,1.151-.044,1.53.516-3.288,2.277-7.044,3.094-10.932,3.441-1.48.132-2.627-.3-2.669-2.111-.036-1.54.173-2.691,2.128-2.943,3.519-.454,7-1.152,9.954-3.359.8-.1,1.619-.517,1.619-1.266,0-1-1.1-.686-1.744-.916-1.228-.439-2.6-.595-3.455-1.763l.1-.124C111.557,109.9,113,109.8,113.889,111.8Z" transform="translate(-40.114 -65.198)"/>
  <path class="cls-9" d="M117.4,117.306c1.8-.2,2.566-1.834,3.456-2.952,2.126-2.669,5-3.147,8-3.551l-1.067.96c-4.248.085-6.563,3.064-8.933,5.959l-1.474.579A.657.657,0,0,1,117.4,117.306Z" transform="translate(-40.114 -65.198)"/>
  <path class="cls-10" d="M117.4,117.306l-.014,1a5.031,5.031,0,0,1-2.467,1.511c-.554-.041-1.162.078-1.53-.516C115.035,119.253,116.032,117.906,117.4,117.306Z" transform="translate(-40.114 -65.198)"/>
  <path class="cls-11" d="M131.372,108.305c-.181-1.267-1.261-1.337-2.173-1.688-.033,2.6-1.1,3.377-4.018,2.929-.025-1.22,1.456-.928,1.811-1.879-.424-.638-1.138-.254-1.713-.354-1.2-.209-2.486-.008-.8-1.846,1.131-1.234.759-3.521.26-5.024-.493-1.485-.211-3.025-.938-4.6l-2.416,2.976c-1.162-.5-.991-1.535-1-2.5-.2-3.247,1.326-4.419,4.294-3.247a6.747,6.747,0,0,0,2.2.251c4.037,1.714,5.748,5.288,7.261,9.034a2.551,2.551,0,0,1-.39,2.568C132.967,106.063,132.166,107.181,131.372,108.305Z" transform="translate(-40.114 -65.198)"/>
  <path class="cls-12" d="M117.416,107.857c-3.766-.074-5.931-1.279-5.843-3.252.133-3,3.649-6.791,6.3-6.8,2.125-.006,3.471,1.885,3.448,4.844C121.293,106.473,120.214,107.911,117.416,107.857Z" transform="translate(-40.114 -65.198)"/>
  <path class="cls-13" d="M126.88,93.33a1.6,1.6,0,0,1-1.809.44c-3.5-.735-3.493-.749-4.688,2.556a30.217,30.217,0,0,0-3.1.809c-2.1.779-2.591-.931-2.814-2.13-.26-1.4,1.2-1.163,2.073-1.147a2.269,2.269,0,0,0,2.263-1.15c.309-.525.694-.981.09-1.506a.988.988,0,0,0-1.514.124c-.573.553-1.267,1.379-2.072.521-.754-.8.084-1.535.538-2.16.749-1.032,1.384-.71,2.156.151,1.051,1.171,2.7.06,3.979.856C123.55,91.675,125.241,92.46,126.88,93.33Z" transform="translate(-40.114 -65.198)"/>
  <path class="cls-14" d="M113.889,111.8c-1.032-1.468-2.6-.861-3.972-1.032-1.187-1.444-2.087-2.976-1.522-4.958-.044-.345.11-.7-.066-1.038a.87.87,0,0,1-.436.537c-.483-1.523,1.09-7.115,2.185-7.014,2.143.2,1.845-.645,1.683-2.049-.062-.537.928-1.019,1.251-.355.52,1.068,2.523,2.395.033,3.464-1.135.488-1.03,2.867-3.025,1.922a3.716,3.716,0,0,0-.057.975c.483,2.354,1.594,4.59,1.055,7.292,1.25-.268.573-1.537,1.372-1.734C111.734,109.576,114.3,110.132,113.889,111.8Z" transform="translate(-40.114 -65.198)"/>
  <path class="cls-15" d="M119.881,109.8c-1.345-.252-2.992.714-3.98-.983C117.209,109.225,118.963,107.822,119.881,109.8Z" transform="translate(-40.114 -65.198)"/>
  <path class="cls-10" d="M107.893,105.312q.267-.778.533-1.556c.36.741.758,1.447-.031,2.057Z" transform="translate(-40.114 -65.198)"/>
  <path class="cls-10" d="M113.388,118.8c-2.044.559-3.543,2.11-5.422,2.977a7.618,7.618,0,0,1-5.019.516c-.687-.152-1.026-.447-1.024-1.135,0-.5-.018-1.048.572-1.234,3.6-1.138,7.078-2.724,10.893-3.121C113.371,117.465,112.905,118.13,113.388,118.8Z" transform="translate(-40.114 -65.198)"/>
  <path class="cls-16" d="M128.359,105.308a3.262,3.262,0,0,1-2.735,1.134,22.917,22.917,0,0,0-.37-8.721,3.032,3.032,0,0,1,2.691,1.495c-.071.086-.143.173-.214.261-.344.089-.644.062-.817-.307.469,1.854-.7,4,1.008,5.63A1.69,1.69,0,0,1,128.359,105.308Z" transform="translate(-40.114 -65.198)"/>
  <path class="cls-17" d="M128.359,105.308l-.508-.031c.589-1.955,0-3.906-.024-5.86l.118-.2C130.869,102.152,130.937,103.16,128.359,105.308Z" transform="translate(-40.114 -65.198)"/>
  <path class="cls-18" d="M127.827,99.417c1.057,1.95,1.807,3.9.024,5.861-.7.03-1.392.01-1.416-.93-.039-1.484-.072-2.97-.028-4.453C126.445,98.6,127.3,99.424,127.827,99.417Z" transform="translate(-40.114 -65.198)"/>
  <line class="cls-19" x1="64.429" y1="9.932" x2="90.84" y2="2"/>
</svg>
