<svg width="34" height="59" viewBox="0 0 34 59" fill="none" xmlns="http://www.w3.org/2000/svg">
<path d="M8.70501 45.702C6.03701 43.893 4.99101 40.702 6.03701 37.125C6.85988 33.6884 8.99378 30.7097 11.983 28.825C12.4361 28.6465 12.8011 28.2975 12.9997 27.8529C13.1982 27.4083 13.2145 26.9035 13.045 26.447C12.593 24.291 14.113 22.712 16.214 23.247C21.814 24.68 27.174 26.741 31.096 31.276C34.149 34.805 34.456 38.086 32.422 41.812C31.9927 42.6177 31.4012 43.3257 30.6847 43.8915C29.9682 44.4572 29.1423 44.8683 28.259 45.099C27.616 44.749 27.48 44.299 28.082 43.81C28.636 43.355 29.302 43.047 29.816 42.536C30.722 40.919 32.906 39.664 32.298 37.636C31.428 34.744 30.393 31.757 27.581 29.968C26.881 29.523 26.165 29.103 25.481 28.635C22.597 27.224 19.819 25.551 16.543 25.124C16.143 25.072 15.765 24.83 15.36 25.085C15.2884 25.1297 15.2267 25.1888 15.1791 25.2585C15.1314 25.3282 15.0987 25.407 15.083 25.49C15.217 25.99 15.562 25.79 15.83 25.669C16.83 25.228 17.945 25.069 18.374 26.239C18.849 27.526 17.936 28.445 16.823 28.979C15.923 29.411 14.856 29.202 13.874 29.519C14.315 31.252 15.445 31.5 16.98 31.071C17.3544 30.8896 17.7642 30.7929 18.1802 30.7877C18.5962 30.7826 19.0082 30.869 19.387 31.041C19.987 31.841 20.179 32.878 20.845 33.648C21.559 34.848 21.424 36.179 21.467 37.486C21.532 39.446 21.221 41.435 21.889 43.349C22.248 44.377 21.539 44.838 20.889 45.349C19.999 46.041 19.141 46.268 18.34 45.227C17.561 43.707 16.111 44.452 14.947 44.238C13.824 44.33 12.894 43.449 11.76 43.619C11.166 43.825 11.048 44.907 10.186 44.551C9.87983 44.4087 9.63263 44.1644 9.48669 43.86C9.34076 43.5555 9.30516 43.2098 9.38601 42.882C9.57401 41.082 8.61501 39.511 8.42501 37.782C8.27382 37.2813 8.31438 36.7422 8.53878 36.2697C8.76319 35.7973 9.15537 35.4252 9.639 35.226C10.763 34.604 12.853 33.776 11.311 31.045C11.302 32.711 10.927 33.328 9.67401 33.955C7.56101 35.011 7.242 37.449 7.193 39.721C7.34226 40.0243 7.47577 40.335 7.59301 40.652C7.45301 42.399 8.447 43.836 8.906 45.42C8.841 45.515 8.77301 45.602 8.70501 45.702Z" fill="#EEAA52"/>
<path d="M11.276 42.615C12.626 42.325 13.439 43.905 14.788 43.622C15.948 44.622 17.612 43.584 18.767 44.605C18.849 45.271 19.276 45.919 19.833 45.394C20.37 44.886 21.713 44.505 21.333 43.73C20.191 41.421 21.05 39.057 20.795 36.742C20.678 35.688 20.88 34.594 20.272 33.625C19.989 32.844 20.601 32.399 20.962 31.884C21.424 31.222 21.84 30.257 22.81 30.493C23.833 30.742 23.556 31.826 23.688 32.593C24.171 35.407 25.094 38.218 23.776 41.055C24.313 42.043 28.076 40.919 25.41 43.843C25.8565 43.8286 26.2852 43.6644 26.627 43.3766C26.9688 43.0889 27.2037 42.6945 27.294 42.257C27.51 41.486 27.758 40.74 28.775 41.113C29.663 41.439 30.794 41.678 30.261 43.103C29.813 43.986 27.904 43.403 28.261 45.093L27.748 45.601C27.6277 45.713 27.4795 45.7907 27.319 45.826C23.851 46.464 20.719 47.647 18.714 50.835C18.2344 51.6224 17.4843 52.2079 16.604 52.482C15.204 53.073 14.234 54.599 12.458 54.353C12.2349 54.2545 12.0427 54.0972 11.902 53.898C11.7115 53.5194 11.5981 53.1067 11.5684 52.6839C11.5387 52.261 11.5933 51.8365 11.729 51.435C11.786 51.0684 11.9561 50.7288 12.2155 50.4637C12.475 50.1985 12.8108 50.021 13.176 49.956C13.909 49.813 14.706 49.713 14.754 48.739C14.8 47.812 14.074 47.521 13.365 47.261C12.9736 47.1306 12.6358 46.8756 12.403 46.535C11.837 45.285 10.362 44.291 11.276 42.615Z" fill="#F0A94A"/>
<path d="M12.775 46.602C13.3274 46.7794 13.8698 46.9864 14.4 47.222C14.789 47.3838 15.114 47.6692 15.3247 48.0341C15.5355 48.399 15.6202 48.8231 15.566 49.241C15.5376 49.4511 15.4649 49.6529 15.3528 49.8329C15.2407 50.0129 15.0918 50.1671 14.9157 50.2853C14.7397 50.4035 14.5406 50.4831 14.3315 50.5187C14.1225 50.5543 13.9082 50.5452 13.703 50.492C12.632 50.213 12.348 50.711 12.274 51.598C10.4745 52.6052 8.5142 53.2934 6.47998 53.632C4.63097 54.0868 2.88439 54.8864 1.33197 55.989C4.23197 57.15 6.28498 56.289 8.33998 55.026C9.53998 54.293 10.574 52.993 12.274 53.595V54.095C12.674 54.595 13.425 54.051 13.804 54.611C10.516 56.888 6.75997 57.705 2.87197 58.052C1.39197 58.184 0.244976 57.752 0.202976 55.941C0.166976 54.401 0.375974 53.25 2.33097 52.998C5.84997 52.544 9.33098 51.846 12.285 49.639C13.085 49.539 13.904 49.122 13.904 48.373C13.904 47.373 12.804 47.687 12.16 47.457C10.932 47.018 9.55997 46.862 8.70498 45.694L8.80497 45.57C10.443 44.702 11.886 44.602 12.775 46.602Z" fill="#EEAA52"/>
<path d="M16.286 52.108C18.086 51.908 18.852 50.274 19.742 49.156C21.868 46.487 24.742 46.009 27.742 45.605L26.675 46.565C22.427 46.65 20.112 49.629 17.742 52.524L16.268 53.103C16.1976 53.04 16.1416 52.9626 16.1038 52.8761C16.066 52.7895 16.0473 52.6958 16.0491 52.6014C16.0508 52.5069 16.0728 52.414 16.1137 52.3288C16.1546 52.2437 16.2134 52.1684 16.286 52.108Z" fill="#EAB76B"/>
<path d="M16.286 52.108L16.272 53.108C15.6154 53.8423 14.7576 54.3677 13.805 54.619C13.251 54.578 12.643 54.697 12.275 54.103C13.921 54.055 14.918 52.708 16.286 52.108Z" fill="#EEAB51"/>
<path d="M30.258 43.107C30.077 41.84 28.997 41.77 28.085 41.419C28.052 44.019 26.985 44.796 24.067 44.348C24.042 43.128 25.523 43.42 25.878 42.469C25.454 41.831 24.74 42.215 24.165 42.115C22.965 41.906 21.679 42.107 23.365 40.269C24.496 39.035 24.124 36.748 23.625 35.245C23.132 33.76 23.414 32.22 22.687 30.645L20.271 33.621C19.109 33.121 19.28 32.086 19.271 31.121C19.071 27.874 20.597 26.702 23.565 27.874C24.2795 28.0783 25.0228 28.1631 25.765 28.125C29.802 29.839 31.513 33.413 33.026 37.159C33.1969 37.5827 33.2509 38.0446 33.1823 38.4964C33.1137 38.9481 32.925 39.3731 32.636 39.727C31.853 40.865 31.052 41.983 30.258 43.107Z" fill="#EEAA4E"/>
<path d="M16.302 42.659C12.536 42.585 10.371 41.38 10.459 39.407C10.592 36.407 14.108 32.616 16.759 32.607C18.884 32.601 20.23 34.492 20.207 37.451C20.179 41.275 19.1 42.713 16.302 42.659Z" fill="#FBFBFA"/>
<path d="M25.766 28.132C25.5481 28.3849 25.2565 28.5633 24.9321 28.6422C24.6077 28.7211 24.2668 28.6966 23.957 28.572C20.457 27.837 20.464 27.823 19.269 31.128C18.2221 31.3427 17.1873 31.6127 16.169 31.937C14.069 32.716 13.578 31.006 13.355 29.807C13.095 28.407 14.555 28.644 15.428 28.66C15.8769 28.7157 16.3322 28.636 16.7354 28.4311C17.1386 28.2262 17.4714 27.9054 17.691 27.51C18 26.985 18.385 26.529 17.781 26.004C17.6795 25.9005 17.5565 25.8206 17.4206 25.77C17.2848 25.7193 17.1394 25.6992 16.995 25.711C16.8505 25.7229 16.7103 25.7664 16.5845 25.8384C16.4587 25.9105 16.3503 26.0093 16.267 26.128C15.694 26.681 15 27.507 14.195 26.649C13.441 25.849 14.279 25.114 14.733 24.489C15.482 23.457 16.117 23.779 16.889 24.64C17.94 25.811 19.589 24.7 20.868 25.496C22.436 26.477 24.127 27.262 25.766 28.132Z" fill="#EFAB48"/>
<path d="M12.775 46.602C11.743 45.134 10.175 45.741 8.803 45.57C7.616 44.126 6.716 42.594 7.281 40.612C7.237 40.267 7.39101 39.912 7.21501 39.574C7.18291 39.6886 7.12766 39.7953 7.05267 39.8877C6.97767 39.9801 6.88453 40.0561 6.779 40.111C6.296 38.588 7.86901 32.996 8.96401 33.097C11.107 33.297 10.809 32.452 10.647 31.048C10.585 30.511 11.575 30.029 11.898 30.693C12.418 31.761 14.421 33.088 11.931 34.157C10.796 34.645 10.901 37.024 8.906 36.079C8.84419 36.4001 8.82502 36.7279 8.849 37.054C9.332 39.408 10.443 41.644 9.904 44.346C11.154 44.078 10.477 42.809 11.276 42.612C10.62 44.378 13.186 44.934 12.775 46.602Z" fill="#F0A94B"/>
<path d="M18.767 44.602C17.422 44.35 15.775 45.316 14.787 43.619C16.095 44.027 17.849 42.624 18.767 44.602Z" fill="#F1AB39"/>
<path d="M6.77899 40.114C6.95699 39.5953 7.13466 39.0767 7.312 38.558C7.672 39.299 8.06999 40.005 7.28099 40.615L6.77899 40.114Z" fill="#EEAB51"/>
<path d="M12.274 53.602C10.23 54.161 8.73103 55.712 6.85203 56.579C5.28621 57.3161 3.51607 57.4981 1.83302 57.095C1.14602 56.943 0.807019 56.648 0.809019 55.96C0.809019 55.46 0.791026 54.912 1.38103 54.726C4.98103 53.588 8.45902 52.002 12.274 51.605C12.257 52.267 11.791 52.932 12.274 53.602Z" fill="#EEAB51"/>
<path d="M27.245 40.11C26.9109 40.5013 26.4889 40.8081 26.0136 41.0052C25.5383 41.2023 25.023 41.2841 24.51 41.244C24.9466 38.3401 24.8209 35.3794 24.14 32.523C24.6812 32.5093 25.2161 32.6407 25.6894 32.9036C26.1626 33.1665 26.5568 33.5513 26.831 34.018C26.76 34.104 26.688 34.191 26.617 34.279C26.273 34.368 25.973 34.341 25.8 33.972C26.269 35.826 25.1 37.972 26.808 39.602C26.9861 39.7405 27.1347 39.9132 27.245 40.11Z" fill="#FAE9CA"/>
<path d="M27.245 40.11L26.737 40.079C27.326 38.124 26.737 36.173 26.713 34.219L26.831 34.019C29.755 36.954 29.823 37.962 27.245 40.11Z" fill="#FAF1D7"/>
<path d="M26.713 34.219C27.77 36.169 28.52 38.119 26.737 40.08C26.037 40.11 25.345 40.09 25.321 39.15C25.282 37.666 25.249 36.18 25.293 34.697C25.331 33.402 26.186 34.226 26.713 34.219Z" fill="#F8FDF9"/>
<path d="M3.42902 9.932L29.84 2" stroke="#EFAA4D" stroke-width="4" stroke-linecap="round" stroke-linejoin="round"/>
</svg>
