<svg id="Layer_1" data-name="Layer 1" xmlns="http://www.w3.org/2000/svg" viewBox="0 0 32.66 46.484">
  <defs>
    <style>
      .cls-1 {
        fill: #fbfcfd;
      }

      .cls-2 {
        fill: #eaf7e1;
      }

      .cls-3 {
        fill: #f8faf6;
      }

      .cls-4 {
        fill: #8abe63;
      }

      .cls-5 {
        fill: #d8edc9;
      }

      .cls-6 {
        fill: #97ba79;
      }

      .cls-7 {
        fill: #8fbb6e;
      }

      .cls-8 {
        fill: #9bc07c;
      }

      .cls-9 {
        fill: #8cbb6f;
      }

      .cls-10 {
        fill: none;
        stroke: #90bc6d;
        stroke-linecap: round;
        stroke-linejoin: round;
        stroke-width: 4px;
      }
    </style>
  </defs>
  <path class="cls-1" d="M216.328,139.295a4.664,4.664,0,0,0-2.547,2.211c-.713,1.579-2.416,1.51-3.84,1.769-.884.161-1.77.413-1.757,1.383.015,1.078.971,1.166,1.858,1.131a5.526,5.526,0,0,1,2.68.388c.474.226,1.367-.1,1.352.737a1.424,1.424,0,0,1-1.336,1.284c-1.909.2-4.035-.336-5.224,1.909-.126.238-1.1-.109-.934-.256,1.06-.951-1.36-2.152.33-3.045a.951.951,0,0,0-.129-1.668c-.876-.537-.886.365-1.07.839-.966,2.492-2.805.823-4.35.758.985,1.879,3.416,1.741,4.456,3.624-1.064.423-2.048-.294-2.961.3a1.383,1.383,0,0,1-1.812-.372c-.7-1.782-2.3-3.1-2.779-4.854s-.681-3.666.931-5.433a3.289,3.289,0,0,0-.234-4.252c-1.763-1.954-.246-4.429-1.22-6.472l1.1-.467c.929.942.581,2.147.648,3.255a6.743,6.743,0,0,0,2.861,5.64c1.485.878,1.162,1.751.025,2.68-1.081.882-2.626,1.827-1.468,3.412,1.23,1.681,2.693.364,3.96-.3a20.41,20.41,0,0,1,3.094-1.584,6.292,6.292,0,0,0,2.972-1.243,4.692,4.692,0,0,1,.566-.358c1.47-.561,2.714-1.685,4.377-1.77C216.227,138.672,216.5,138.85,216.328,139.295Z" transform="translate(-187.218 -107.762)"/>
  <path class="cls-2" d="M202.393,138.269c-2.7-.883-3.13-3.259-3.518-5.555a23.542,23.542,0,0,1-.032-3.905c-.11-3,1.953-4.452,4.235-5.5,4.571-2.089,8.826-.9,11.945,3.071a4.65,4.65,0,0,1,.837,3.759c-.012,1.34,1.307,1.1,1.968,1.646,1.27.1.952,1.394,1.527,2.016a3.213,3.213,0,0,1-.009,2.491l-1.018,1.032a.4.4,0,0,1-.592-.028c-.151-.5.116-.939.207-1.406.41-2.1-.075-2.627-2.371-2.613a5.886,5.886,0,0,0-2.615,1.422,5.158,5.158,0,0,1-1.272.711c-2.381,1.01-4.561.2-6.73-.732a1.369,1.369,0,0,1-.71-1.241c.755-1.42,1.687-.494,2.5-.126,1.757.795,3.438,1.141,5.058-.371-.832-.757-2.518-.793-2.131-2.528.734-.621,1.269.117,1.89.268,1.874.382,2.546-.481,2.34-2.252a7.292,7.292,0,0,0-3.063-3.151c-.208-.1-.41-.2-.612-.311a6.31,6.31,0,0,0-7.373.545,7.178,7.178,0,0,0-2.607,7.685C200.427,135.117,202.211,136.355,202.393,138.269Z" transform="translate(-187.218 -107.762)"/>
  <path class="cls-1" d="M215.322,130.8c.641-3.978-2-5.98-4.938-7.374s-5.911-.815-8.609,1.162a6.77,6.77,0,0,0-2.932,4.22c-.485-2.428.789-4.53,3.514-5.733,2.213-.977,4.64-1.089,6.955-1.653a1.184,1.184,0,0,1,1.417.748,3.681,3.681,0,0,0,2.039,1.739c2.769,1.251,4.488,3.1,3.982,6.321,1.352.075.049-1.856,1.443-1.475a1.426,1.426,0,0,1,.839.862c.3,1.133-.786,1-1.354,1.347a2.171,2.171,0,0,0-.351.341C216.568,131.5,215.694,132.148,215.322,130.8Z" transform="translate(-187.218 -107.762)"/>
  <path class="cls-1" d="M189.1,154.245c-1.232.014-1.812-.613-1.88-1.487-.087-1.126.906-.951,1.6-.968,2.272-.055,4.62.376,6.6-1.264a1.009,1.009,0,0,1,1.366.083c.6.565.145,1.131-.188,1.522-.807.945-1.558,1.823-3.137,1.72A8.806,8.806,0,0,0,189.1,154.245Z" transform="translate(-187.218 -107.762)"/>
  <path class="cls-1" d="M204.184,117.815c.809.064,1.956-.105,1.843,1.024-.088.881-1.183.962-2.013.966-.806,0-1.591-.243-1.539-1.176C202.536,117.5,203.556,117.953,204.184,117.815Z" transform="translate(-187.218 -107.762)"/>
  <path class="cls-1" d="M199.566,124c-.686-.586-2.04-.63-1.513-1.947.2-.493.733-.87,1.2-.595C200.456,122.155,199.171,123.151,199.566,124Z" transform="translate(-187.218 -107.762)"/>
  <path class="cls-3" d="M217.788,137.271l.54.057c.451,1.792-.9,1.755-2,1.967l-.49-.5a.612.612,0,0,1-.175-.428c0-.159.019-.239.047-.24C216.232,137.433,216.73,136.675,217.788,137.271Z" transform="translate(-187.218 -107.762)"/>
  <path class="cls-1" d="M217.944,126.7c-.095-1.213.531-2.057-.159-3.113C220.13,124.66,218.762,125.5,217.944,126.7Z" transform="translate(-187.218 -107.762)"/>
  <path class="cls-1" d="M191.636,150.554a2.9,2.9,0,0,1,.791-.21c.3,0,.727.058.616.523-.087.364-.458.411-.785.369C191.95,151.2,191.582,151.18,191.636,150.554Z" transform="translate(-187.218 -107.762)"/>
  <path class="cls-3" d="M215.322,130.8c.526.733,1.312.436,2,.505l.5.484c-.73-.006-1.465.045-2.187-.032C214.983,131.688,214.824,131.322,215.322,130.8Z" transform="translate(-187.218 -107.762)"/>
  <path class="cls-1" d="M198.486,149.419c.378.187.684.369.515.746a.633.633,0,0,1-.536.289.546.546,0,0,1-.437-.716C198.079,149.586,198.352,149.507,198.486,149.419Z" transform="translate(-187.218 -107.762)"/>
  <path class="cls-3" d="M219.346,136.3l.009-2.491A1.735,1.735,0,0,1,219.346,136.3Z" transform="translate(-187.218 -107.762)"/>
  <path class="cls-4" d="M217.788,137.271l-1.961,1.023c-1.419.986-3.093,1.5-4.525,2.467l.007,0a11.712,11.712,0,0,1-2.978,1.53c-1.589.894-3.167,1.807-4.77,2.674-1.358.734-2.664.631-3.432-.793a2.632,2.632,0,0,1,.765-3.528c.631-.565,2.806-.5,1.5-2.37-1.093-1.514-2.526-2.85-2.578-4.91-.968-6.947,3.853-10.694,11.049-8.588h0a30.082,30.082,0,0,1,3.539,3.519c.424,2.629-.551,3.574-3.071,2.976-1.976-2.735-4.711-3.336-7.812-1.7,1.06.752.874,1.9.951,2.961a3.083,3.083,0,0,0,.087.669l.357.944c.1.342.476.487.586.823-.2,1.192-.188,1.214.345.9a3.218,3.218,0,0,1,1.05-.481c1.7.305,3.415.667,4.941-.571l.879-.565a15.459,15.459,0,0,0,2.615-1.415,2.033,2.033,0,0,1,2.986.533C219.405,134.792,218.836,136.082,217.788,137.271Z" transform="translate(-187.218 -107.762)"/>
  <path class="cls-5" d="M211.3,140.761a9.528,9.528,0,0,1,4.525-2.467c0,.168.007.337.011.5C214.3,139.385,213.015,140.57,211.3,140.761Z" transform="translate(-187.218 -107.762)"/>
  <path class="cls-5" d="M208.331,142.286a5.372,5.372,0,0,1,2.978-1.53A2.959,2.959,0,0,1,208.331,142.286Z" transform="translate(-187.218 -107.762)"/>
  <path class="cls-3" d="M209.843,130.282c.194,1.912,1.883,1.774,3.154,2.215-1.91,2.3-3.419,2.646-6.047,1.634-.8-.308-1.3-1.41-2.393-.939l-.2.106c-.471-.664-.207-1.42-.255-2.134-.084-1.226.107-2.472,1.6-2.529C207.244,128.576,209.232,127.833,209.843,130.282Z" transform="translate(-187.218 -107.762)"/>
  <path class="cls-6" d="M210.863,124.771c-1.15,1.043-1.906-.383-2.887-.5-4.586-.566-7.464,2.969-8.1,7.116a15.443,15.443,0,0,0-.06,1.975,7.627,7.627,0,0,1,2.783-8.516C204.97,123.009,208.013,122.983,210.863,124.771Z" transform="translate(-187.218 -107.762)"/>
  <path class="cls-7" d="M209.843,130.282a3.3,3.3,0,0,0-4.091-1.26c-2,.805-1.283,2.726-1.4,4.276-.669-.456-.487-1.159-.523-1.8-.018-.328-.015-.657-.039-.985-.074-1.015-2.588.314-1.414-1.01.545-.615,2.212-2.046,4.122-1.5,2.045.589,4.632.036,4.828,3.256Z" transform="translate(-187.218 -107.762)"/>
  <path class="cls-8" d="M211.836,134.8c-1.357,1.879-3.247,1.081-5,.993-.541-.272-1.292-.223-1.511-.987l-.416-.671C207.175,134.839,209.4,135.956,211.836,134.8Z" transform="translate(-187.218 -107.762)"/>
  <path class="cls-6" d="M214.4,128.289c-1.316-1.037-2.835-1.868-3.539-3.518A5.553,5.553,0,0,1,214.4,128.289Z" transform="translate(-187.218 -107.762)"/>
  <path class="cls-8" d="M215.33,132.822a2.85,2.85,0,0,1-2.614,1.415A3.941,3.941,0,0,1,215.33,132.822Z" transform="translate(-187.218 -107.762)"/>
  <path class="cls-9" d="M205.329,134.808l1.511.987c-.869.349-1.27,1.238-1.976,1.906C203.724,136.392,204.964,135.68,205.329,134.808Z" transform="translate(-187.218 -107.762)"/>
  <line class="cls-10" x1="10.022" y1="8.557" x2="23.228" y2="2"/>
</svg>
