<svg id="Layer_1" data-name="Layer 1" xmlns="http://www.w3.org/2000/svg" viewBox="0 0 35.195 60.656">
  <defs>
    <style>
      .cls-1 {
        fill: #9cc179;
      }

      .cls-2 {
        fill: #8abe62;
      }

      .cls-3 {
        fill: #90bc6d;
      }

      .cls-4 {
        fill: #94bc73;
      }

      .cls-5 {
        fill: #88be5f;
      }

      .cls-6 {
        fill: none;
        stroke: #90bc6d;
        stroke-linecap: round;
        stroke-miterlimit: 10;
        stroke-width: 4px;
      }
    </style>
  </defs>
  <path class="cls-1" d="M213.3,298.292a2.361,2.361,0,0,1-2.21-2.558,2.253,2.253,0,0,1,2.378-2.35,2.325,2.325,0,0,1,2.2,2.549C215.674,297.35,214.692,298.118,213.3,298.292Z" transform="translate(-192.072 -252.609)"/>
  <path class="cls-2" d="M197.817,293.717c.656-3.544,3.014-6.123,5.045-8.888.24-.771,1.537-1.187,1.107-2.027s-1.579-.683-2.493-.777c-1.588-.163-3.184-.509-4.185,1.242-.111.024-.222.047-.333.067a8.568,8.568,0,0,0-.9,3.723,2.23,2.23,0,0,1-1.943,2.251c-1.243.117-1.828-.943-1.921-2.131a10.333,10.333,0,0,1,.124-3.91l-.013.018c.684-1.491,1.016-3.142,2.032-4.484a6.081,6.081,0,0,1,7.026-2.082c3.37,1.432,6.888,1.24,10.4.864,1.62-.173,3.21-.751,4.842-.121,1.1.893-1.167,2.138.282,2.952,1.137.639,1.707-1.192,2.842-.747a1.491,1.491,0,0,1,.209.124c.45,1.482-.087,2.264-1.649,2.246a8.472,8.472,0,0,0-4.947,1.392,2.353,2.353,0,0,1-2.42-.048c.393,1.2-.526,1.661-1.284,2.092-5.6,3.18-8.15,8.282-8.983,14.383-.4,2.943,1.5,6.395,5.783,7.484a34.473,34.473,0,0,0,15.763.5,3.357,3.357,0,0,1,3.261.712c1.02.991,1.506,2.031.112,3.128-6.116,1.342-12.244,1.824-18.363.112a24.208,24.208,0,0,1-2.915-.482l.021.018a17.681,17.681,0,0,1-6.523-5.535l.016.016C196.131,301.778,196.8,297.748,197.817,293.717Z" transform="translate(-192.072 -252.609)"/>
  <path class="cls-3" d="M216.833,277.807c-1.716-.565-3.365.155-5.046.238-3.539.177-7.206,1.116-10.421-1.325a45.248,45.248,0,0,0,13.843.06,12.507,12.507,0,0,1,4.2.2,2.626,2.626,0,0,1,2.3,3.058c-.2,1.522-1.278,2.116-2.806,2.263-8.275.8-16.3,7.841-17.127,14.96-1.733,5.721.838,9.4,7.012,10.031,4.308,1.022,8.641.622,12.974.229.9-.082,1.8-.21,2.7-.3a2.153,2.153,0,0,1,2.448,1.231c.485,1.061.624,2.053-.447,2.865a.4.4,0,0,1-.635-.062c.562-2.33-1.129-2.911-2.741-3.053a7.959,7.959,0,0,0-4.135.595,7.906,7.906,0,0,1-4.651.4c-2.2-.331-4.366-.821-6.585-1.077-3.78-.436-6.222-2.7-7.658-6.115a2.956,2.956,0,0,1-.163-1.7c1.292-5.6,3.271-10.832,8.025-14.516.236-.182.62-.158.909-.288,2.165-.966,2.245-1.454.513-3.069a1.853,1.853,0,0,1,2.066.487,1.349,1.349,0,0,0,2.154-.043c1.125-1.206,2.507-1.185,3.9-1.055,1.562.146,2.323-.473,2.374-2.016C219.37,278.328,217.593,278.829,216.833,277.807Z" transform="translate(-192.072 -252.609)"/>
  <path class="cls-4" d="M225.819,311.257l.634.062c-.433.964-1.562.813-2.237,1.391-5.6.386-11.2,1.021-16.794.012L204.3,311.31a4.672,4.672,0,0,1,4.2.511,1.648,1.648,0,0,0,.911.357C214.889,312.051,220.433,313.027,225.819,311.257Z" transform="translate(-192.072 -252.609)"/>
  <path class="cls-4" d="M197.817,293.717c-.4,4.031-.885,8.061,0,12.093-1.891-2.238-1.321-4.952-1.462-7.53C196.873,296.77,196.815,295.073,197.817,293.717Z" transform="translate(-192.072 -252.609)"/>
  <path class="cls-4" d="M197.8,305.794c2.575,1.373,3.981,4.123,6.523,5.535C201.294,310.485,198.879,308.923,197.8,305.794Z" transform="translate(-192.072 -252.609)"/>
  <path class="cls-5" d="M216.833,277.807c1.241.3,3.065-.269,2.994,2-.282.141-.711.209-.822.434a1.742,1.742,0,0,1-2.993.594C214.667,279.6,216.038,278.69,216.833,277.807Z" transform="translate(-192.072 -252.609)"/>
  <line class="cls-6" x1="2.555" y1="9.932" x2="28.967" y2="2"/>
</svg>
