<svg xmlns="http://www.w3.org/2000/svg" viewBox="0 0 35.195 36.894">
  <defs>
    <style>
      .cls-1 {
        fill: #9cc179;
      }

      .cls-2 {
        fill: #8abe62;
      }

      .cls-3 {
        fill: #90bc6d;
      }

      .cls-4 {
        fill: #94bc73;
      }

      .cls-5 {
        fill: #88be5f;
      }
    </style>
  </defs>
  <g id="Layer_2" data-name="Layer 2">
    <g id="Layer_1-2" data-name="Layer 1">
      <path class="cls-1" d="M21.224,21.921a2.362,2.362,0,0,1-2.21-2.558,2.253,2.253,0,0,1,2.378-2.35,2.324,2.324,0,0,1,2.2,2.548C23.6,20.979,22.62,21.746,21.224,21.921Z"/>
      <path class="cls-2" d="M5.745,17.346C6.4,13.8,8.76,11.222,10.79,8.458c.24-.772,1.537-1.187,1.107-2.028S10.318,5.748,9.4,5.654C7.816,5.491,6.22,5.144,5.219,6.9c-.11.024-.221.046-.333.067a8.581,8.581,0,0,0-.9,3.722,2.23,2.23,0,0,1-1.942,2.252C.8,13.054.218,11.994.126,10.805A10.308,10.308,0,0,1,.249,6.9l-.013.018C.921,5.422,1.252,3.771,2.268,2.43A6.079,6.079,0,0,1,9.294.348c3.37,1.432,6.888,1.24,10.4.864,1.62-.173,3.211-.751,4.842-.121,1.1.892-1.166,2.138.282,2.952,1.138.639,1.707-1.192,2.842-.748a1.491,1.491,0,0,1,.209.124c.45,1.483-.087,2.265-1.649,2.247a8.465,8.465,0,0,0-4.947,1.392,2.352,2.352,0,0,1-2.419-.048c.392,1.2-.526,1.661-1.285,2.092-5.6,3.18-8.15,8.282-8.983,14.383-.4,2.943,1.5,6.4,5.783,7.484a34.459,34.459,0,0,0,15.763.5,3.364,3.364,0,0,1,3.262.712c1.02.992,1.5,2.032.111,3.128-6.116,1.342-12.243,1.824-18.363.113a24.045,24.045,0,0,1-2.915-.483l.021.019a17.688,17.688,0,0,1-6.522-5.535l.016.016C4.06,25.407,4.723,21.376,5.745,17.346Z"/>
      <path class="cls-3" d="M24.761,1.436c-1.716-.565-3.365.154-5.046.238C16.176,1.85,12.51,2.79,9.294.348a45.248,45.248,0,0,0,13.843.06,12.533,12.533,0,0,1,4.2.2,2.627,2.627,0,0,1,2.3,3.059c-.2,1.521-1.278,2.115-2.806,2.262-8.275.8-16.3,7.842-17.127,14.96-1.733,5.721.838,9.4,7.012,10.031,4.308,1.022,8.641.623,12.974.229.9-.081,1.8-.21,2.7-.3a2.15,2.15,0,0,1,2.447,1.231c.485,1.06.624,2.053-.447,2.865a.4.4,0,0,1-.634-.063c.562-2.33-1.13-2.91-2.742-3.053a7.97,7.97,0,0,0-4.135.6,7.906,7.906,0,0,1-4.651.4c-2.2-.331-4.365-.822-6.585-1.078-3.78-.435-6.222-2.7-7.658-6.115a2.952,2.952,0,0,1-.163-1.7c1.292-5.6,3.271-10.832,8.026-14.517.235-.182.619-.158.908-.287,2.165-.967,2.245-1.454.514-3.07a1.855,1.855,0,0,1,2.065.487A1.35,1.35,0,0,0,21.482,6.5c1.125-1.207,2.506-1.185,3.9-1.055,1.562.145,2.323-.473,2.374-2.016C27.3,1.957,25.522,2.457,24.761,1.436Z"/>
      <path class="cls-4" d="M33.748,34.885l.634.062c-.434.964-1.562.814-2.238,1.392-5.6.386-11.195,1.021-16.793.012l-3.126-1.412a4.671,4.671,0,0,1,4.2.511,1.656,1.656,0,0,0,.911.357C22.817,35.679,28.361,36.655,33.748,34.885Z"/>
      <path class="cls-4" d="M5.745,17.346c-.394,4.03-.885,8.061,0,12.093-1.891-2.238-1.321-4.953-1.461-7.53C4.8,20.4,4.743,18.7,5.745,17.346Z"/>
      <path class="cls-4" d="M5.724,29.423C8.3,30.8,9.7,33.546,12.246,34.958,9.222,34.114,6.807,32.552,5.724,29.423Z"/>
      <path class="cls-5" d="M24.761,1.436c1.241.3,3.065-.27,2.994,2-.282.141-.711.209-.822.434a1.741,1.741,0,0,1-2.992.593C22.6,3.224,23.966,2.318,24.761,1.436Z"/>
    </g>
  </g>
</svg>
