<svg width="41" height="63" viewBox="0 0 41 63" fill="none" xmlns="http://www.w3.org/2000/svg">
<path d="M6.12601 54.865C7.86601 57.085 10.475 57.001 12.869 57.215C15.406 57.442 17.978 57.283 20.535 57.293C23.0967 57.0624 25.6407 56.6659 28.151 56.106C29.363 56.947 31.533 56.06 32.014 58.238C31.9315 58.8684 31.6261 59.4483 31.153 59.873V59.864C30.2864 60.1251 29.4437 60.4597 28.634 60.864L28.654 60.856C25.8712 61.8341 22.9567 62.3866 20.009 62.495C15.489 62.616 10.94 62.822 6.52601 61.46C3.83501 61.086 2.40401 59.224 1.37601 56.973C0.536008 55.133 1.03901 53.241 2.39801 52.662C3.92101 52.009 5.10301 52.709 6.12601 54.865Z" fill="#8ABD63"/>
<path d="M31.138 30.869C30.949 28.697 31.901 26.325 30.016 24.449C32.109 23.749 32.261 25.397 32.296 26.612C32.389 29.834 32.78 33.035 32.871 36.248C33.002 40.87 32.953 45.499 32.882 50.124C32.853 52.011 32.848 53.957 31.355 55.45C31.0844 55.6432 30.7539 55.7338 30.4227 55.7056C30.0914 55.6774 29.781 55.5322 29.547 55.296C31.728 54.115 31.411 51.945 31.482 50.042C31.719 43.648 31.441 37.257 31.138 30.869Z" fill="#A2C48F"/>
<path d="M29.547 55.296L31.113 55.324C30.748 56.796 29.745 56.714 28.624 56.345C26.0059 57.1411 23.2663 57.4622 20.535 57.293L29.547 55.296Z" fill="#94BD77"/>
<path d="M20.067 32.897L20.654 34.371C20.5138 34.4603 20.3508 34.5073 20.1846 34.5062C20.0184 34.5052 19.856 34.4561 19.717 34.365C17.499 32.888 15.332 32.576 13.19 34.52C12.946 34.741 12.559 34.646 12.239 34.52C11.685 33.139 13.08 33.025 13.639 32.368C14.6682 31.9075 15.7971 31.7145 16.9209 31.807C18.0447 31.8995 19.1269 32.2744 20.067 32.897Z" fill="#92BD71"/>
<path d="M28.624 56.345C29.5337 56.2478 30.397 55.8937 31.113 55.324C31.7935 53.7236 32.1402 52.0011 32.132 50.262C32.163 42.388 32.132 34.518 31.644 26.655C31.576 25.543 31.638 24.391 30.017 24.448C29.369 23.7887 28.7213 23.1293 28.074 22.47C27.5172 21.6662 27.0349 20.8134 26.633 19.922C26.319 18.77 26.365 17.757 27.418 17.1C27.8447 16.8352 28.3568 16.7443 28.8486 16.8461C29.3404 16.9479 29.7744 17.2346 30.061 17.647C30.2451 17.9171 30.4793 18.1493 30.751 18.331C32.8124 20.6945 35.407 22.5332 38.32 23.695C41.239 24.846 41.62 26.001 40.07 28.737C39.989 28.751 39.908 28.772 39.826 28.78C36.077 29.146 36.078 29.146 36.139 33.03C36.247 39.888 36.714 46.747 36.104 53.606C36.004 54.755 36.104 55.944 35.189 56.858C34.175 57.772 33.324 59.08 31.622 58.335C31.589 57.445 30.905 57.485 30.287 57.263C29.716 57.057 28.68 57.51 28.624 56.345Z" fill="#89BE64"/>
<path d="M28.579 61.308C25.289 61.679 22.042 62.314 18.72 62.555C14.4983 62.8826 10.2519 62.4611 6.17701 61.31C6.14301 61.1587 6.11601 61.0067 6.09601 60.854C10.6315 61.6802 15.2424 62.0195 19.85 61.866C22.838 61.83 25.623 60.317 28.65 60.852C28.6444 61.0063 28.6206 61.1593 28.579 61.308Z" fill="#94BD77"/>
<path d="M31.622 58.333C32.985 58.261 33.963 57.261 35.188 56.855C34.543 58.796 32.867 59.355 31.153 59.871C31.3083 59.3597 31.4647 58.847 31.622 58.333Z" fill="#94BD77"/>
<path d="M28.634 60.86C28.9218 60.4783 29.309 60.1831 29.7533 60.0068C30.1976 59.8304 30.6818 59.7796 31.153 59.86C30.8224 60.1881 30.4288 60.4458 29.9958 60.6177C29.5629 60.7896 29.0997 60.872 28.634 60.86Z" fill="#94BD77"/>
<path d="M30.751 18.333C30.398 18.133 30.029 17.96 29.694 17.733C28.977 17.25 28.25 16.851 27.462 17.551C26.674 18.251 26.779 19.066 27.056 20.02C27.308 20.89 28.263 21.445 28.074 22.471C27.2665 22.0314 26.6612 21.2953 26.386 20.418C25.861 18.866 25.794 17.337 27.515 16.604C29.093 15.933 30.219 16.727 30.751 18.333Z" fill="#9EC182"/>
<path d="M11.186 38.847C11.159 37.283 11.021 35.696 12.098 34.355C12.342 34.315 12.693 34.365 12.817 34.221C15.501 31.097 18.08 32.501 20.655 34.371C20.688 34.4169 20.7081 34.4707 20.7134 34.5269C20.7187 34.5832 20.7089 34.6398 20.685 34.691C20.938 35.312 21.908 35.48 21.741 36.365C19.861 37.444 20.929 38.425 21.847 39.41C22.096 40.456 21.192 40.831 20.672 41.43L20.696 41.416C19.36 42.5 18.135 43.7139 17.039 45.04C16.294 45.817 15.439 46.317 14.43 45.775C14.2026 45.6711 13.999 45.5214 13.832 45.3353C13.665 45.1492 13.5382 44.9307 13.4593 44.6934C13.3805 44.4561 13.3515 44.2051 13.3739 43.9561C13.3964 43.7071 13.47 43.4653 13.59 43.246C13.714 41.274 11.41 40.627 11.186 38.847Z" fill="#8CBD63"/>
<path d="M13.586 43.246C13.52 43.7038 13.6131 44.1705 13.8497 44.5679C14.0863 44.9654 14.4521 45.2697 14.886 45.43C15.843 45.754 16.427 44.901 17.094 44.23C18.166 43.16 18.888 41.568 20.694 41.41C19.846 43.146 18.289 44.275 17.031 45.657C16.195 46.575 15.157 47.095 14.003 46.222C13.7568 46.073 13.547 45.871 13.3886 45.6308C13.2302 45.3905 13.1273 45.118 13.0874 44.8331C13.0475 44.5481 13.0715 44.2578 13.1577 43.9833C13.244 43.7088 13.3903 43.4569 13.586 43.246Z" fill="#92BD71"/>
<path d="M21.633 36.361C21.317 35.805 21.0007 35.249 20.684 34.693C21.221 34.877 21.765 35.046 22.293 35.252C24.176 35.989 24.698 37.56 23.393 39.091C22.632 39.984 21.946 41.081 20.674 41.429C20.837 40.667 21.72 40.238 21.633 39.36C21.9039 38.9067 22.0469 38.3885 22.0469 37.8605C22.0469 37.3324 21.9039 36.8143 21.633 36.361Z" fill="#92BD71"/>
<path d="M17.018 38.857C15.735 39.046 14.859 38.535 14.735 37.257C14.65 36.371 15.177 35.533 16.172 35.733C17.39 35.977 19.001 36.083 19.051 37.828C19.092 39.255 17.799 38.712 17.018 38.857Z" fill="#92BD71"/>
<path d="M21.633 36.361C22.887 37.361 23.333 38.361 21.633 39.361C21.3685 39.3641 21.1066 39.3089 20.8659 39.1992C20.6252 39.0896 20.4116 38.9283 20.2403 38.7268C20.069 38.5252 19.9442 38.2884 19.8749 38.0331C19.8055 37.7779 19.7933 37.5105 19.839 37.25C19.869 35.807 20.995 36.577 21.633 36.361Z" fill="#88BF5C"/>
<path d="M18.523 37.464C17.41 38.364 16.6 38.589 15.81 37.791C15.731 37.7231 15.6686 37.6381 15.6275 37.5424C15.5864 37.4466 15.5677 37.3428 15.5729 37.2388C15.5781 37.1347 15.6071 37.0333 15.6575 36.9422C15.708 36.851 15.7786 36.7726 15.864 36.713C16.93 36.007 17.422 37.148 18.523 37.464Z" fill="#E4FCDB"/>
<path d="M4.76697 9.932L31.179 2" stroke="#8ABE62" stroke-width="4" stroke-linecap="round" stroke-linejoin="round"/>
</svg>
