<svg id="Layer_1" data-name="Layer 1" xmlns="http://www.w3.org/2000/svg" viewBox="0 0 92.131 210.154">
  <defs>
    <style>
      .cls-1 {
        fill: #fbfcfd;
      }

      .cls-2 {
        fill: #fcfdfe;
      }

      .cls-3 {
        fill: #fbfdfd;
      }

      .cls-4 {
        fill: #edf9e5;
      }

      .cls-5 {
        fill: #edf9e6;
      }

      .cls-6 {
        fill: #eefae7;
      }

      .cls-7 {
        fill: #8abd63;
      }

      .cls-8 {
        fill: #a2c48f;
      }

      .cls-9 {
        fill: #e3f0d5;
      }

      .cls-10 {
        fill: #94bd77;
      }

      .cls-11 {
        fill: #92bd71;
      }

      .cls-12 {
        fill: #dff3d2;
      }

      .cls-13 {
        fill: #89be64;
      }

      .cls-14 {
        fill: #9ec182;
      }

      .cls-15 {
        fill: #8cbd63;
      }

      .cls-16 {
        fill: #88bf5c;
      }

      .cls-17 {
        fill: #e4fcdb;
      }

      .cls-18 {
        fill: none;
        stroke: #8abe62;
        stroke-linecap: round;
        stroke-linejoin: round;
        stroke-width: 4px;
      }
    </style>
  </defs>
  <path class="cls-1" d="M88.248,222.629c-1.59,1.012-3.361.5-5.019.443-2.824-.087-5.7.626-8.475-.441Z" transform="translate(-40.114 -16.367)"/>
  <path class="cls-1" d="M49.276,219.631c-.05.568-.145,1.255-.845,1.181a1.652,1.652,0,0,1-1.653-1.68C48.069,217.009,48.5,219.189,49.276,219.631Z" transform="translate(-40.114 -16.367)"/>
  <path class="cls-1" d="M96.739,224.894c.5.06.61.487.751.848.2.52-.088.809-.572.776s-.656-.432-.636-.884C96.3,225.315,96.3,224.963,96.739,224.894Z" transform="translate(-40.114 -16.367)"/>
  <path class="cls-1" d="M56.271,222.629c-2.333.07-4.665.994-7,0C52.167,219.861,52.167,219.861,56.271,222.629Z" transform="translate(-40.114 -16.367)"/>
  <path class="cls-1" d="M62.766,218.63c1.69-.524,3.341-.872,4.5,1C65.575,220.154,63.8,221.057,62.766,218.63Z" transform="translate(-40.114 -16.367)"/>
  <path class="cls-1" d="M62.266,222.624l-3,0c.394-.253,1.026-.432,1.133-.775.217-.693.432-1.335,1.236-1.107C62.6,221.019,62.156,221.956,62.266,222.624Z" transform="translate(-40.114 -16.367)"/>
  <path class="cls-1" d="M69.051,220.919c-.8.791-1.384.929-2.164.168A1.793,1.793,0,0,1,69.051,220.919Z" transform="translate(-40.114 -16.367)"/>
  <path class="cls-1" d="M58.75,219.29c-.095.405-.219.709-.6.74-.326.027-.729-.026-.6-.461.059-.2.47-.324.744-.4C58.386,219.141,58.794,218.878,58.75,219.29Z" transform="translate(-40.114 -16.367)"/>
  <path class="cls-1" d="M91.007,181.368c.084-1.164-.711-1.987-1.093-2.971a9.9,9.9,0,0,1-.406-6.017c1.247-.829,1.6.125,2,1,1.159,2.037,1.963,4.128,1,6.492a2.884,2.884,0,0,0,.913,2.353,2.121,2.121,0,0,1-.914,3.639C92.383,184.238,93.086,182.339,91.007,181.368Z" transform="translate(-40.114 -16.367)"/>
  <path class="cls-2" d="M92.506,179.87q-.5-3.246-1-6.492c.888-.509,1.665-1.442,2.868-.751s1.133,1.854,1.136,3.016C95.52,179.392,95.258,179.779,92.506,179.87Z" transform="translate(-40.114 -16.367)"/>
  <path class="cls-1" d="M41.9,177.2c-.015.575-.266.988-.858.985s-.858-.431-.919-.965a.959.959,0,0,1,.719-1.138C41.606,175.961,41.648,176.728,41.9,177.2Z" transform="translate(-40.114 -16.367)"/>
  <path class="cls-1" d="M41.131,188.524c.413.125.752.366.728.818a.928.928,0,0,1-1.147.913c-.482-.044-.656-.421-.565-.87A.964.964,0,0,1,41.131,188.524Z" transform="translate(-40.114 -16.367)"/>
  <path class="cls-1" d="M92.505,190.855c.071-.69-.231-1.472.5-2C94.743,190,93.045,190.282,92.505,190.855Z" transform="translate(-40.114 -16.367)"/>
  <path class="cls-1" d="M91.029,181.372c-.108.662-.228,1.124-.7,1.141-.176.006-.449-.446-.534-.732a.483.483,0,0,1,.511-.641A2.331,2.331,0,0,1,91.029,181.372Z" transform="translate(-40.114 -16.367)"/>
  <path class="cls-1" d="M86.757,79.2c-2.412-.511-2.858-3.386-5.185-4.21-1.065-.378.893-1.356.557-2.29-1.845.568-1.906.578-1.56,2.571.149.857.142,1.6-.761,1.782-1.152.238-1.417-.8-1.46-1.575a3.385,3.385,0,0,1,1.514-3.183c1.072-.736,2.377-1.14,2.224-3.12-.107-1.386,4.372-2.115,5.727-.84,4.068,3.83,8.716,5.529,14.324,4.286.1-.477-.326-.341-.537-.447a1.486,1.486,0,0,1-.685-.727c4.4.81,7.755-2.181,11.724-3.131V62.085c-.845,1.038.126,2.47-1.174,3.4-.5-1.668-.071-3.244-.585-4.751-.61-1.79.237-4.091,1.559-5.843a3.047,3.047,0,0,0,.285-1.664c.03-1.993.01-3.987.009-5.98l.448-.1a1.623,1.623,0,0,1,.544.72,111.192,111.192,0,0,1,.626,18.895c-.068,1.917-.123,4.075-2.2,5.263-3.045,1.321-6.374,1.418-9.546,2.2a36.248,36.248,0,0,1-10.584-.28,6.381,6.381,0,0,1-3.872-2c-1.183-2.638-2.156-3.324-3.6-2.529-1.4.769-1.538,3.228-.26,5.092.508.74,1.308,1.266,1.6,2.164-.332.969.828.994,1.037,1.624A.724.724,0,0,1,86.757,79.2Z" transform="translate(-40.114 -16.367)"/>
  <path class="cls-3" d="M86.757,79.2v-1l.325-.262a70.479,70.479,0,0,0,14.765,1.117c2.659-.075,5.246-.779,7.913-.687.792.028,1.3-.674,1.972-.98,1-.595,1.958-1.342,3.247-.992.74.835.14,2.512,1.755,2.8-.7,2.837,1.441,1.808,2.686,1.959.8.1,2.069-1.276,2.261.636.181,1.809-1.342,1.571-2.248,1.351-3.59-.874-7.275-.1-10.887-.824a20.286,20.286,0,0,0-5.941.11,61.262,61.262,0,0,1-12.992-.4C88.041,81.858,87.423,80.434,86.757,79.2Z" transform="translate(-40.114 -16.367)"/>
  <path class="cls-3" d="M116.234,85.188c.332,0,.666-.016,1,0,.793.047,2.031-.231,2,.868-.029,1.271-1.314.588-1.983.591-9.9.052-19.794.041-29.69.022-.618,0-1.3.257-1.922-.3.639-1.572,2.141-1.448,3.152-1.1a6.308,6.308,0,0,0,4.488-.037,8.581,8.581,0,0,1,2.625-.045c-.845.945-1.947.053-2.814,1,2.666,0,5.135-.074,7.6.029,1.381.058,1.233-.656,1.056-1.527a54.528,54.528,0,0,0,9.262-.466,4.929,4.929,0,0,1,2.816.74C114.577,85.283,115.334,86.214,116.234,85.188Z" transform="translate(-40.114 -16.367)"/>
  <path class="cls-1" d="M111.737,47.238c1.467-3.665-.565-5.659-3.713-7.208-.784.1.8,1.7-.5,1.461-.885-.163-.833-.992-.451-1.811.67-1.439-1.048-2.561-.6-4.26a27.187,27.187,0,0,0,.249-3.283c-1.214-.079-1.811.737-2.489,1.381-.574.545-1.268,1.074-1.933.377a2.494,2.494,0,0,1-.135-3.2c.456-.743,1.2-1.268,2.084-.595,1.626,1.234,3.233,1.8,5.255.756a2.411,2.411,0,0,1,2.612.216c1.183,1.214,2.19,1.1,3.319-.428.384,2.059-.847,3.542-.2,5.107-1.261.081-1.454-1.135-2.146-1.75-1.044-.928-2.174-2.076-3.652-1.088-1.371.918-1.61,2.356-1.065,3.959.569,1.671,1.931,2.638,3.121,3.75,2.069,1.933,2.449,3.78,1.244,6.616l0,0Z" transform="translate(-40.114 -16.367)"/>
  <path class="cls-1" d="M98.745,63.714c-.822.627-1.876.918-2.411,1.888-1.715-1.881-3.079-3.689-2.618-6.265.062-.35-.138-1.021-.376-1.109-3.432-1.263-1.591-4.236-1.989-6.4-.308-1.675,3.836-5.117,5.819-4.98,2.126.146,4.388-.216,6.263,1.352.836.7,1.813,1.19,1.312,2.525-1.346.8-1.845-.807-2.846-.991a7.3,7.3,0,0,0-5.836-.493C93.7,50.289,92.7,52.45,93.331,55.171c.8,1.853,2.147,3.488,1.728,5.777-.164.9.719,1.609,1.655,1.951C97.4,63.149,98.224,63.055,98.745,63.714Z" transform="translate(-40.114 -16.367)"/>
  <path class="cls-4" d="M115.235,76.7c-1.156-.129-2.035.571-3,1.006a1.842,1.842,0,0,1-1.267.258.7.7,0,0,1-.4-.483.789.789,0,0,1,.305-.554c.661-.367,1.409-.548,2.051-.96a6.642,6.642,0,0,1,.587-.317c1.6-.7,3.148-1.455,3.582-3.392.338-4.945,1.25-9.853.6-14.835a67.315,67.315,0,0,1-.174-9.431c.033-3.411.838-3.95,4.344-3.163a.952.952,0,0,1,.516.617c-.535,1.234-1.841.771-2.726,1.233-1.2,1.239-.644,2.662-.422,4.049l.015,1c.958,1.831.617,3.663.008,5.5v5.493c.971,4.229,1.289,8.4-1.289,12.242C117.329,75.9,116.641,76.9,115.235,76.7Z" transform="translate(-40.114 -16.367)"/>
  <path class="cls-5" d="M122.229,45.735l-.045-.631c.264-3.4.275-3.425-2.988-4.958a18.864,18.864,0,0,1-6.787-5.248c-.68-1.019-1.484-2.021-2.792-1.118-1.17.808-.743,2.041-.365,3.164a4.064,4.064,0,0,0,1.266,1.493c.809.8,1.654,1.569,2.432,2.407a6.153,6.153,0,0,1,.3,6.392l-.515,0a6.982,6.982,0,0,0-3.385-7.736,4.768,4.768,0,0,1-1.965-3.865,3.556,3.556,0,0,1,2.106-3.649c1.6-.671,2.868.437,3.97,1.406a13.876,13.876,0,0,1,1.772,2.357l.5.489c.825.021,1.347.637,1.991,1.015l0,0a2.6,2.6,0,0,0,2.214,1.239,4.427,4.427,0,0,1,3.282,1.763,1.031,1.031,0,0,0,.5.992C124.864,43.794,124.535,44.78,122.229,45.735Z" transform="translate(-40.114 -16.367)"/>
  <path class="cls-6" d="M102.181,49.264c1.2-.123,1.315,1.665,2.564,1.464l0,0c2.757.784,2.946,1.088,2.488,3.994-.894.369-1.08,1.268-1.494,2-1.368,3.293-4.294,5.03-7,6.992h0c-3.733-.055-4.4-.78-4.22-4.563.077-1.609-1.887-2.3-1.772-3.925a.664.664,0,0,1,.676-.088c1.16,1.331,2.85,2.345,2.7,4.469-.133.864-.608,1.832.424,2.441,1.106.653,1.847-.175,2.576-.826a20.908,20.908,0,0,0,3.122-3.468,4.144,4.144,0,0,1,.514-.477c.189-.154.4-.283.577-.449,3.01-2.821,2.945-3.4-.583-5.31a2.006,2.006,0,0,1-.41-.565A2.173,2.173,0,0,1,102.181,49.264Z" transform="translate(-40.114 -16.367)"/>
  <path class="cls-1" d="M115.235,76.7c2.7-2.01,4.451-4.433,4.036-8.071a51.57,51.57,0,0,1-.025-5.912c1.063.123.96.924.988,1.669a9.538,9.538,0,0,0,1.093,4.227c.48.9.427.937-.765,1.148-.63.112-.293.625-.387.936-.787,2.612-1.175,5.4-3.785,7.079-.621.4.59.842.343,1.419C114.771,79.242,114.318,78.383,115.235,76.7Z" transform="translate(-40.114 -16.367)"/>
  <path class="cls-1" d="M128.139,38.783c-1.235,2.5.4,4.018,1.388,5.877-1.977-.643-2.039-.631-2.283-1.8a2.122,2.122,0,0,0-1.006-1.563,1.541,1.541,0,0,1-.467-2.534c.2-.236.382-.487.572-.731-.966-.511-1.348-1.033-.014-1.557a2.493,2.493,0,0,1,3.09.918c.639.889.655,2.18,2.3,2.113.714-.029.564.926.331,1.425-.337.724-.611.008-.929-.045C129.828,40.668,129.063,39.793,128.139,38.783Z" transform="translate(-40.114 -16.367)"/>
  <path class="cls-1" d="M105,70.392c-3.01,1.257-5.439-.86-8.128-.8-.652.015-.7-.864-.8-1.4-.132-.69.5-1.32.927-1.249,1.27.214,3.087-.854,3.663,1.238.269.977.938.942,1.693,1.074A4.439,4.439,0,0,1,105,70.392Z" transform="translate(-40.114 -16.367)"/>
  <path class="cls-1" d="M122.229,45.735c2.083-.968,1.4-2.857,1.5-4.488.666-1,1.332-.5,2,0,.755,2.515-1.178,3.822-2.577,5.191-.922.9-1.93,1.544-1.443,3.438-1.264-.947-.859-2.778-2.472-2.637a.689.689,0,0,1-.009-.995C120.1,45.354,121.234,45.94,122.229,45.735Z" transform="translate(-40.114 -16.367)"/>
  <path class="cls-3" d="M80.37,82.738c-1.269.388-1.944-.229-2-1.255s.753-1.581,1.751-1.754a.781.781,0,0,1,.489.029c1.4.856,4.168-.211,4.253,1.82C84.907,82.554,81.95,82.617,80.37,82.738Z" transform="translate(-40.114 -16.367)"/>
  <path class="cls-1" d="M98.746,63.714c2.12-2.542,5.13-4.195,7-6.992a14.584,14.584,0,0,0-.979,4.613c-.021.3-.157,1.814-.959,1.243-1.859-1.322-2.751-.126-3.872.953C99.7,63.758,99.149,63.661,98.746,63.714Z" transform="translate(-40.114 -16.367)"/>
  <path class="cls-1" d="M111.617,47.066c.772,2.461-.206,4.733.026,7.061-.313-2.133-3.895-2.315-2.86-5.3C110.263,49.41,111.294,48.841,111.617,47.066Z" transform="translate(-40.114 -16.367)"/>
  <path class="cls-1" d="M106,39.333c.468,1.516-.465,2.665-.125,3.9.112.409-.372.884-.956.952-.828.1-1.224-.425-1.45-1.081-.27-.785-.519-1.642.275-2.278C104.371,40.328,105.084,39.933,106,39.333Z" transform="translate(-40.114 -16.367)"/>
  <path class="cls-1" d="M90.139,67.939c-.047-1.366,1.453-2.336,1.357-3.826-.024-.371.7-.433,1.007-.1.437.476.876,1.009.4,1.745-.561.862-1.885,1.387-.921,2.9.339.532-.849.731-1.274.738C89.267,69.419,90.873,68.407,90.139,67.939Z" transform="translate(-40.114 -16.367)"/>
  <path class="cls-3" d="M78.764,86.186c4.168-.858,4.168-.858,5.9-.021-2.1,1.207-4.484-.178-6.4,1.02A1.032,1.032,0,0,1,78.764,86.186Z" transform="translate(-40.114 -16.367)"/>
  <path class="cls-1" d="M119.246,57.225q0-2.748-.008-5.5c.51-.021.8-1.032,1.406-.405C121.1,51.793,119.887,56.618,119.246,57.225Z" transform="translate(-40.114 -16.367)"/>
  <path class="cls-1" d="M123.225,40.255c-1.713-1.219-4.313-.814-5.5-3,.955.383,1.737.976,2.994.645C122.427,37.449,122.811,39,123.225,40.255Z" transform="translate(-40.114 -16.367)"/>
  <path class="cls-1" d="M120.675,74.076c-.217,1.553,1.966,2.807.36,4.842C120.3,77.175,119.471,75.752,120.675,74.076Z" transform="translate(-40.114 -16.367)"/>
  <path class="cls-1" d="M80.279,70.732c-.752-.641-1.8-.911-1.6-2.01.09-.5.762-.6,1.244-.371C81.124,68.916,80.489,69.774,80.279,70.732Z" transform="translate(-40.114 -16.367)"/>
  <path class="cls-1" d="M107.235,54.726c.409-2.1-.683-3.27-2.488-3.994C107.692,50.824,108.32,51.832,107.235,54.726Z" transform="translate(-40.114 -16.367)"/>
  <path class="cls-1" d="M104.914,65.466a3.471,3.471,0,0,1,2.81-3.04C107.176,63.831,106.242,64.474,104.914,65.466Z" transform="translate(-40.114 -16.367)"/>
  <path class="cls-1" d="M111.474,27.169a.674.674,0,0,1-.636-.844.857.857,0,0,1,.761-.828c.537-.028.6.428.595.858A.737.737,0,0,1,111.474,27.169Z" transform="translate(-40.114 -16.367)"/>
  <path class="cls-1" d="M90.545,56.967c.245.823.435,1.5-.175,1.992-.307.25-.672-.042-.818-.331C89.131,57.8,89.755,57.454,90.545,56.967Z" transform="translate(-40.114 -16.367)"/>
  <path class="cls-5" d="M119.225,46.243l.009.995q-.006,1.746-.01,3.491A4.559,4.559,0,0,1,119.225,46.243Z" transform="translate(-40.114 -16.367)"/>
  <path class="cls-1" d="M107.433,55.806c.283,0,.671.054.609.47-.036.244-.339.48-.577.639-.052.035-.4-.237-.493-.426C106.8,56.127,106.982,55.881,107.433,55.806Z" transform="translate(-40.114 -16.367)"/>
  <path class="cls-1" d="M117.731,37.255a2.7,2.7,0,0,1-1.992-1.015C117.062,35.288,117.156,36.742,117.731,37.255Z" transform="translate(-40.114 -16.367)"/>
  <path class="cls-1" d="M125.773,46.379a3.551,3.551,0,0,1-.83.543c-.093.028-.289-.292-.438-.453a3.322,3.322,0,0,1,.671-.55C125.256,45.88,125.484,46.148,125.773,46.379Z" transform="translate(-40.114 -16.367)"/>
  <path class="cls-1" d="M91.809,49.14c-.2-.235-.418-.378-.436-.543-.021-.192.086-.529.222-.582.367-.14.579.131.569.471C92.158,48.671,91.974,48.85,91.809,49.14Z" transform="translate(-40.114 -16.367)"/>
  <path class="cls-1" d="M93.459,70.408a1.322,1.322,0,0,1-.513.2c-.366-.006-.573-.256-.383-.595.076-.135.4-.2.6-.178C93.387,69.86,93.6,70.017,93.459,70.408Z" transform="translate(-40.114 -16.367)"/>
  <path class="cls-1" d="M111.693,67.111l-.462.382a1.739,1.739,0,0,1-.262-.543c-.011-.105.172-.293.3-.336C111.619,66.5,111.662,66.76,111.693,67.111Z" transform="translate(-40.114 -16.367)"/>
  <path class="cls-1" d="M89.9,52.408c.223.171.479.266.54.433a.435.435,0,0,1-.457.612c-.16,0-.416-.268-.443-.443C89.517,52.851,89.744,52.653,89.9,52.408Z" transform="translate(-40.114 -16.367)"/>
  <path class="cls-7" d="M88.24,71.232c1.74,2.22,4.349,2.136,6.743,2.35,2.537.227,5.109.068,7.666.078a59.492,59.492,0,0,0,7.616-1.187c1.212.841,3.382-.046,3.863,2.132a2.661,2.661,0,0,1-.861,1.635v-.009a15.917,15.917,0,0,0-2.519,1l.02-.008a29.322,29.322,0,0,1-8.645,1.639c-4.52.121-9.069.327-13.483-1.035-2.691-.374-4.122-2.236-5.15-4.487-.84-1.84-.337-3.732,1.022-4.311C86.035,68.376,87.217,69.076,88.24,71.232Z" transform="translate(-40.114 -16.367)"/>
  <path class="cls-8" d="M113.252,47.236c-.189-2.172.763-4.544-1.122-6.42,2.093-.7,2.245.948,2.28,2.163.093,3.222.484,6.423.575,9.636.131,4.622.082,9.251.011,13.876-.029,1.887-.034,3.833-1.527,5.326a1.4,1.4,0,0,1-1.808-.154c2.181-1.181,1.864-3.351,1.935-5.254C113.833,60.015,113.555,53.624,113.252,47.236Z" transform="translate(-40.114 -16.367)"/>
  <path class="cls-9" d="M88.24,71.232c-.951-1.248-1.915-2.92-3.745-1.725-1.894,1.237-1.2,3.065-.294,4.642a5.866,5.866,0,0,0,4.009,3.072.4.4,0,0,1,.171.382c-.026.143-.059.214-.1.214a3.158,3.158,0,0,1-1.377.1,2.079,2.079,0,0,1-1.141-.719c-1.3-1.641-3.035-3.018-3.025-5.416.007-1.948.921-3.282,2.817-3.341A2.42,2.42,0,0,1,88.24,71.232Z" transform="translate(-40.114 -16.367)"/>
  <path class="cls-10" d="M111.661,71.663l1.566.028c-.365,1.472-1.368,1.39-2.489,1.021a22.933,22.933,0,0,1-8.089.948Z" transform="translate(-40.114 -16.367)"/>
  <path class="cls-3" d="M85.765,77.193a1.051,1.051,0,0,1,.994.5c.174.112.232.223.174.335s-.116.167-.174.167h0C86.242,78.043,85.347,78.267,85.765,77.193Z" transform="translate(-40.114 -16.367)"/>
  <path class="cls-1" d="M86.759,78.2v-.5l1.533-.018c1.87-.5,3.463.725,5.273.826a53.969,53.969,0,0,0,13.987-.752c1-.207,2.084-.628,3.141-.076l1.54.031c-.981,1.149-2.25,1.262-3.7,1.411-3.532.363-7.055.54-10.6.623A36.433,36.433,0,0,1,86.759,78.2Z" transform="translate(-40.114 -16.367)"/>
  <path class="cls-11" d="M102.181,49.264l.587,1.474a.863.863,0,0,1-.937-.006c-2.218-1.477-4.385-1.789-6.527.155-.244.221-.631.126-.951,0-.554-1.381.841-1.495,1.4-2.152A6.692,6.692,0,0,1,102.181,49.264Z" transform="translate(-40.114 -16.367)"/>
  <path class="cls-12" d="M95.753,48.739,94.21,50.722a7.881,7.881,0,0,1-.911,4.492l-.546.012A5.1,5.1,0,0,1,95.753,48.739Z" transform="translate(-40.114 -16.367)"/>
  <path class="cls-13" d="M110.738,72.712a4.82,4.82,0,0,0,2.489-1.021,12.783,12.783,0,0,0,1.019-5.062c.031-7.874,0-15.744-.488-23.607-.068-1.112-.006-2.264-1.627-2.207q-.972-.989-1.943-1.978a16.091,16.091,0,0,1-1.441-2.548c-.314-1.152-.268-2.165.785-2.822a1.96,1.96,0,0,1,2.643.547,2.552,2.552,0,0,0,.69.684,19.755,19.755,0,0,0,7.569,5.364c2.919,1.151,3.3,2.306,1.75,5.042-.081.014-.162.035-.244.043-3.749.366-3.748.366-3.687,4.25.108,6.858.575,13.717-.035,20.576-.1,1.149,0,2.338-.915,3.252-1.014.914-1.865,2.222-3.567,1.477-.033-.89-.717-.85-1.335-1.072C111.83,73.424,110.794,73.877,110.738,72.712Z" transform="translate(-40.114 -16.367)"/>
  <path class="cls-10" d="M110.693,77.675c-3.29.371-6.537,1.006-9.859,1.247a35.918,35.918,0,0,1-12.543-1.245q-.051-.227-.081-.456a64.72,64.72,0,0,0,13.754,1.012c2.988-.036,5.773-1.549,8.8-1.014A1.957,1.957,0,0,1,110.693,77.675Z" transform="translate(-40.114 -16.367)"/>
  <path class="cls-10" d="M113.736,74.7c1.363-.072,2.341-1.072,3.566-1.478-.645,1.941-2.321,2.5-4.035,3.016Q113.5,75.471,113.736,74.7Z" transform="translate(-40.114 -16.367)"/>
  <path class="cls-10" d="M110.748,77.227a2.606,2.606,0,0,1,2.519-1A3.45,3.45,0,0,1,110.748,77.227Z" transform="translate(-40.114 -16.367)"/>
  <path class="cls-14" d="M112.865,34.7c-.353-.2-.722-.373-1.057-.6-.717-.483-1.444-.882-2.232-.182s-.683,1.515-.406,2.469c.252.87,1.207,1.425,1.018,2.451a3.546,3.546,0,0,1-1.688-2.053c-.525-1.552-.592-3.081,1.129-3.814C111.207,32.3,112.333,33.094,112.865,34.7Z" transform="translate(-40.114 -16.367)"/>
  <path class="cls-15" d="M93.3,55.214c-.027-1.564-.165-3.151.912-4.492.244-.04.595.01.719-.134,2.684-3.124,5.263-1.72,7.838.15a.318.318,0,0,1,.03.32c.253.621,1.223.789,1.056,1.674-1.88,1.079-.812,2.06.106,3.045.249,1.046-.655,1.421-1.175,2.02l.024-.014a25.988,25.988,0,0,0-3.657,3.624c-.745.777-1.6,1.277-2.609.735a1.82,1.82,0,0,1-.84-2.529C95.828,57.641,93.524,56.994,93.3,55.214Z" transform="translate(-40.114 -16.367)"/>
  <path class="cls-11" d="M95.7,59.613a2.021,2.021,0,0,0,1.3,2.184c.957.324,1.541-.529,2.208-1.2,1.072-1.07,1.794-2.662,3.6-2.82-.848,1.736-2.405,2.865-3.663,4.247-.836.918-1.874,1.438-3.028.565A1.938,1.938,0,0,1,95.7,59.613Z" transform="translate(-40.114 -16.367)"/>
  <path class="cls-11" d="M103.747,52.728q-.474-.834-.949-1.668c.537.184,1.081.353,1.609.559,1.883.737,2.405,2.308,1.1,3.839-.761.893-1.447,1.99-2.719,2.338.163-.762,1.046-1.191.959-2.069A2.923,2.923,0,0,0,103.747,52.728Z" transform="translate(-40.114 -16.367)"/>
  <path class="cls-11" d="M99.132,55.224c-1.283.189-2.159-.322-2.283-1.6-.085-.886.442-1.724,1.437-1.524,1.218.244,2.829.35,2.879,2.095C101.206,55.622,99.913,55.079,99.132,55.224Z" transform="translate(-40.114 -16.367)"/>
  <path class="cls-16" d="M103.747,52.728c1.254,1,1.7,2,0,3a1.8,1.8,0,0,1-1.794-2.111C101.983,52.174,103.109,52.944,103.747,52.728Z" transform="translate(-40.114 -16.367)"/>
  <path class="cls-17" d="M100.637,53.831c-1.113.9-1.923,1.125-2.713.327a.683.683,0,0,1,.054-1.078C99.044,52.374,99.536,53.515,100.637,53.831Z" transform="translate(-40.114 -16.367)"/>
  <line class="cls-18" x1="46.767" y1="9.932" x2="73.179" y2="2"/>
</svg>
