<svg id="Layer_1" data-name="Layer 1" xmlns="http://www.w3.org/2000/svg" viewBox="0 0 43.583 65.341">
  <defs>
    <style>
      .cls-1 {
        fill: #fcfdfd;
      }

      .cls-2 {
        fill: #f8fdf4;
      }

      .cls-3 {
        fill: #f5fcf1;
      }

      .cls-4 {
        fill: #fcfdfe;
      }

      .cls-5 {
        fill: #fbfcfd;
      }

      .cls-6 {
        fill: #ebf7e1;
      }

      .cls-7 {
        fill: #8bbd62;
      }

      .cls-8 {
        fill: #97bf79;
      }

      .cls-9 {
        fill: #94be76;
      }

      .cls-10 {
        fill: #ebf8e5;
      }

      .cls-11 {
        fill: #97bf7d;
      }

      .cls-12 {
        fill: #93be6e;
      }

      .cls-13 {
        fill: #9dc285;
      }

      .cls-14 {
        fill: none;
        stroke: #8abe62;
        stroke-linecap: round;
        stroke-linejoin: round;
        stroke-width: 4px;
      }
    </style>
  </defs>
  <path class="cls-1" d="M221.575,247.757c.449,1,1.524,1.234,2.283,1.853.513.42,1.274.679,1.1,1.473-.184.861-1.019,1.1-1.756,1.12-2.16.07-4.323.061-6.485.039-1.031-.01-2.01-.033-2.482,1.15-.265.664-.756.572-1.409.552-3.681-.114-7.618-.921-10.977.107-3.3,1.009-5.567-1.707-8.541-.883-1.311.363-2.76.236-4.035.981-1.769,1.034-3.75.713-5.606.464-1.336-.179-1.814-1.428-1.481-2.715a1.644,1.644,0,0,1,2.2-1.346c1.941.353,3.86.45,5.731,1.365,2.231,1.093,3.663-.62,4.976-2.162.821-.852,1.89-.625,2.9-.671,3.058.113,5.974,1.642,9,1.333,3.126-.319,6.274-.289,9.4-.77a6.976,6.976,0,0,0,4.393-1.935A.737.737,0,0,1,221.575,247.757Z" transform="translate(-181.999 -189.523)"/>
  <path class="cls-2" d="M214.581,213.3c.923,1.761.337,3.66.5,5.491-.719,1.208-2.026,1.24-3.177,1.58-1.542.456-3.248.45-4.533,1.621a28.007,28.007,0,0,1-2.746,1.091,1.351,1.351,0,0,1-1.082-.219,1.552,1.552,0,0,1,.178-1.455c1.795-1.934,4.35-2.229,6.651-3.075.406-.092.824-.095,1.236-.147,2.5-.318,2.862-1.239,1.347-3.392-.21-.113-.413-.233-.62-.349a14.6,14.6,0,0,0-7.354-.162,30.339,30.339,0,0,1-10.542-.483,6.662,6.662,0,0,0-7.1,2.167,5.543,5.543,0,0,1-.409.606c-1.807,1.973-1.688,4.519-1.973,6.919a1.931,1.931,0,0,0,1.263,1.94,1.416,1.416,0,0,0,2-.836,4.623,4.623,0,0,0,.223-1.206c.626-4.827,2.574-6.744,6.9-5.315.527.174,1.141.066,1.688.271,1.159,1.611.988,2.028-1.265,3.082-.727-.342-.465-1.879-1.9-1.448a4.845,4.845,0,0,0-3.349,3.026c-.416,1.063.006,2.355-.911,3.275a1.512,1.512,0,0,1-1.5,1c-3.146,1.151-4.82.112-4.974-3.1a5.829,5.829,0,0,1,.471-2.892,9.551,9.551,0,0,1,.506-3.5c.026-1.1-.028-2.228,1-3,.336-1.724,2.025-1.432,3.1-2a15.452,15.452,0,0,1,5.4-1.5c1.75-.938,3.3-1.05,4.925.493,1.532,1.455,3.547,1.557,5.566,1.007q1.8-.393,3.6-.786c1.735-.381,3.424-.485,4.894.785C213.2,213.163,213.979,212.881,214.581,213.3Z" transform="translate(-181.999 -189.523)"/>
  <path class="cls-3" d="M221.077,247.757a3.277,3.277,0,0,1-3.107,2.416,111.393,111.393,0,0,1-12,.985c-2.626,0-5.25-.905-7.875-1.4-2.384.093-4.239-1.083-6-2.5-1.79-2.067-4.724-3.482-3.995-6.989l.5-.508a.836.836,0,0,1,.673-.2,1.373,1.373,0,0,1,.806.868,12.007,12.007,0,0,0,9.776,7.97,45.57,45.57,0,0,0,17.434-.057,2,2,0,0,0,1.851-2.453c-.306-1.392-1.515-1.575-2.787-1.2a5.165,5.165,0,0,1-.8.173c-4.447.07-8.858,1.1-13.347.133A18.446,18.446,0,0,1,196,242.615a5.222,5.222,0,0,1-2.561-4.566c-.016-2.981-.144-5.994,2.147-8.383a1.217,1.217,0,0,1,.773-.088c.9,1.153-.093,2.126-.36,3.133a9.882,9.882,0,0,0,.149,6.421,4.353,4.353,0,0,0,2.267,2.449c.6.219,1.182.485,1.782.705,2.706,1.175,5.567.693,8.373.788,1.891-.068,3.812.221,5.645-.5,1.416-.645,2.816-1.537,4.364-.313a5.473,5.473,0,0,1,1.5,1.5l.5.5A3.35,3.35,0,0,1,221.077,247.757Z" transform="translate(-181.999 -189.523)"/>
  <path class="cls-4" d="M204.589,222.79a2.888,2.888,0,0,1,2.5-1c.9-.852,2.164-.728,3.2-1.211.737-.343,1.54-.929,2.3-.29.879.743.331,1.662,0,2.5a3.9,3.9,0,0,0,.441,1.125c1.379,1.673,1.205,3.394-.67,4.677-1.625,1.111-3.22.955-4.178-.882-.6-1.147-1.192-1.042-1.876-.337a3.135,3.135,0,0,1-2.709.91,10.432,10.432,0,0,1-.44-3.588A1.776,1.776,0,0,1,204.589,222.79Z" transform="translate(-181.999 -189.523)"/>
  <path class="cls-4" d="M214.581,243.26c-1.932.949-3.995.319-5.991.5-.836-1.157-2.03-.189-3.02-.506-1.261-.4-2.739-.606-1.481-2.482,1.356-.844,2.913-.328,4.376-1.006-1.039,0-2.079.012-3.117-.007-.4-.007-.957.033-.973-.5a1.583,1.583,0,0,1,.557-1.008,2.32,2.32,0,0,1,2.584-.356c2.446,1.27,5.028.76,7.564.876.547,1.023,1.8,1.161,2.5,2,.6,1.377-.474,1.329-1.193,1.2C215.234,241.77,214.784,242.276,214.581,243.26Z" transform="translate(-181.999 -189.523)"/>
  <path class="cls-4" d="M204.089,212.8c-2.287.341-4.623,1.815-6.531-1.173-.629-.984-2.607-.193-3.96-.327-.345-2.366.857-3.059,3.028-3.022,2.661.046,5.332.242,7.9-1,1.15-.56,1.317,1,1.722,1.636.523.824-.428.709-.926.915-2.07.855-4.143,1.5-6.456.6A5.081,5.081,0,0,0,204.089,212.8Z" transform="translate(-181.999 -189.523)"/>
  <path class="cls-5" d="M183.6,221.294q0,.741,0,1.482c0,4.135.361,4.494,4.5,4.509-2.226,2.173-1.876,5.322-2.854,7.963-.508,1.373-.817,2.528-2.16,3.332a1.5,1.5,0,0,1-.266-2.023c2.01-3.016,1.551-5.794.2-9.05C182.343,225.878,181.652,223.185,183.6,221.294Z" transform="translate(-181.999 -189.523)"/>
  <path class="cls-5" d="M204.089,240.767c-.576,1.565.5,1.92,1.615,1.958a39.106,39.106,0,0,0,4.067-.257c.211,1.037-1.024.654-1.181,1.287-3.019-.15-6.134.566-9-1-.247-1.152-1.671-2.135-.5-3.49v-.5c.048-2.324,2.085-3.912,2.3-6.187.027-.277.481-.434.81-.208a1.283,1.283,0,0,1,.385,1.9,10.411,10.411,0,0,0-.5,4,5.39,5.39,0,0,0-.579,2.049c.04.809.443.961,1.078.448Z" transform="translate(-181.999 -189.523)"/>
  <path class="cls-5" d="M189.6,226.286c-.219-2.7.229-5.093,2.858-6.591a3.556,3.556,0,0,1,2.874-.292c.949.3-.013,1.309.285,1.952.169.685-.3,1.019-.745,1.366a3.572,3.572,0,0,0-2.077,2.26c-.735.767-.709,2.258-2.193,2.313A1.727,1.727,0,0,0,189.6,226.286Z" transform="translate(-181.999 -189.523)"/>
  <path class="cls-4" d="M188.928,206.318c1.122.113,2.686-.408,2.55,1.657-.087,1.322-.595,2.717-2.012,2.577-1.3-.129-3.242-.25-3.294-2.3C186.127,206.478,187.4,206.125,188.928,206.318Z" transform="translate(-181.999 -189.523)"/>
  <path class="cls-5" d="M198.1,242.258c-2.774-1.953-4.141-6.254-2.694-9.31a28.3,28.3,0,0,1,1.189-3.172c-.388-.484-.249-.841.266-1.106a.79.79,0,0,1,.561.349c.223,1.145,1.782,1.812,1.177,3.259a9.089,9.089,0,0,1-.015.977c-.066.547-.049,1.282-.874,1.139-.563-.1-.651-.7-.517-1.195a1.479,1.479,0,0,0-.4-1.642c-.281,1.715-1.385,3.1-.194,4.716a11.2,11.2,0,0,1,0,2.5.911.911,0,0,0,1,1,.66.66,0,0,1,.888-.053C197.061,240.365,199.517,241.606,198.1,242.258Z" transform="translate(-181.999 -189.523)"/>
  <path class="cls-5" d="M204.589,222.79c-1.1.8-.917,2.015-.872,3.092a4.821,4.821,0,0,1-.127,2.4,3.438,3.438,0,0,1-1.545-1.126c-1.484-2.45-1.941-.783-2.452.627-.632.83-1.274,1.637-2.495,1l0,0c.742-3.118,3.614-5.771,6.491-6Z" transform="translate(-181.999 -189.523)"/>
  <path class="cls-4" d="M216.579,196.326c1.273-.1,2.421-.052,1.229-1.955-.777-1.241,1.6-3.663,3.268-3.538.771,2.137-.936,3.678-1.5,5.45C219.278,197.206,217.621,197.131,216.579,196.326Z" transform="translate(-181.999 -189.523)"/>
  <path class="cls-5" d="M188.1,240.268c-.138,1.94,1.219,3.025,2.348,4.294a17.123,17.123,0,0,1,1.647,2.695l-2.5.5c.262-1.141-.689-1.805-1.19-2.537A4.7,4.7,0,0,1,188.1,240.268Z" transform="translate(-181.999 -189.523)"/>
  <path class="cls-4" d="M202.59,234.275a1.965,1.965,0,0,0-1-1.944c.679,2.974-1.667,4.331-2.5,6.438-1.069-1.059.049-1.971.263-2.906.195-.854.8-1.6.744-2.555-.046-.752.006-1.521.832-1.875a1.292,1.292,0,0,1,1.524.494C203.123,232.667,203.446,233.441,202.59,234.275Z" transform="translate(-181.999 -189.523)"/>
  <path class="cls-5" d="M212.582,222.79c-.055-2.869-.091-2.935-2.7-1.48-.94.523-1.923.009-2.791.481.632-1.671,2.247-1.379,3.523-1.751,1.485-.433,2.98-.831,4.471-1.245C214.169,220.078,214.932,222.406,212.582,222.79Z" transform="translate(-181.999 -189.523)"/>
  <path class="cls-4" d="M209.707,209.173a6.7,6.7,0,0,1,4-.864c.733.038,1.347.176,1.321,1.089a1.226,1.226,0,0,1-1.191,1.343A4.73,4.73,0,0,1,209.707,209.173Z" transform="translate(-181.999 -189.523)"/>
  <path class="cls-6" d="M190.6,227.294c.9-.657.87-2.026,1.943-2.554l.255.29a3.287,3.287,0,0,1-.455,2.236,26.509,26.509,0,0,0-2.57,10.162,3.28,3.28,0,0,1-.595,2.312l-.573.02c0-.163-.008-.326-.013-.489-.788-1.406-.437-2.924-.432-4.4.45-.631.009-1.445.421-2.087l.012-.019c.716-.716.022-1.717.5-2.48v0c.384-.639.462-1.429.993-1.994Z" transform="translate(-181.999 -189.523)"/>
  <path class="cls-4" d="M183.106,213.3c-1-1.275-1.828-2.659-.127-3.889a1.623,1.623,0,0,1,2.219.428c.6,1.209-.4,2.088-1.093,2.962A1.161,1.161,0,0,1,183.106,213.3Z" transform="translate(-181.999 -189.523)"/>
  <path class="cls-4" d="M197.1,228.785l2.495-1c1.425,1.226,1.376,1.135-.132,1.939-.936.5.136,1.928-.867,2.555C198.554,230.917,196.5,230.418,197.1,228.785Z" transform="translate(-181.999 -189.523)"/>
  <path class="cls-5" d="M217.578,240.767c-1.18-.232-2.673-.073-2.5-2,1.713.2,3.563-.531,5.155.707C219.769,240.871,218.16,239.74,217.578,240.767Z" transform="translate(-181.999 -189.523)"/>
  <path class="cls-4" d="M224.573,193.829l1-.5c0,.738-.024,1.477,0,2.214A1.285,1.285,0,0,1,224.544,197c-.463.115-.751-.22-1.027-.523-.636-.7-.126-1.171.322-1.674C224.109,194.5,224.33,194.155,224.573,193.829Z" transform="translate(-181.999 -189.523)"/>
  <path class="cls-5" d="M224.057,244.755c.219-.58-.405-1.772.717-1.676,1.009.087.791,1.257.784,2.042-.007.685.185,1.819-.772,1.719C223.745,246.732,224.184,245.534,224.057,244.755Z" transform="translate(-181.999 -189.523)"/>
  <path class="cls-4" d="M202.59,240.767c-.04.593-.191,1.226-.849,1.284-.823.072-.7-.786-.825-1.244a1.921,1.921,0,0,1,1.175-2.537A2.131,2.131,0,0,1,202.59,240.767Z" transform="translate(-181.999 -189.523)"/>
  <path class="cls-5" d="M192.1,247.257c.49.039,1.286-.1,1.421.142,1.03,1.821,3.027,1.635,4.574,2.355h-3C193.211,249.985,192.958,248.257,192.1,247.257Z" transform="translate(-181.999 -189.523)"/>
  <path class="cls-5" d="M214.581,243.26a6.431,6.431,0,0,0-.219-1.17c-.146-.389-.905-.686-.282-1.153a.871.871,0,0,1,1.25.239c.891,1.041,1.73.994,2.248-.409,1.014.046,1.007.772,1,1.5C217.145,242.193,215.725,242.174,214.581,243.26Z" transform="translate(-181.999 -189.523)"/>
  <path class="cls-5" d="M183.106,213.3a1.031,1.031,0,0,1,1-.5c-.046.854.088,1.618,1,2-.767.855-.1,2.187-1,3l-.818-.844C184.705,215.663,183.4,214.508,183.106,213.3Z" transform="translate(-181.999 -189.523)"/>
  <path class="cls-4" d="M198.1,242.258c-.2-.465.695-1.12-.257-1.46-1.946-.695.049-.4.151-.574.034-.059.118-.089.18-.132l-.575-.325c.36-.585.95-.481,1.5-.5-.591,1.272,1.411,2.173.5,3.49Z" transform="translate(-181.999 -189.523)"/>
  <path class="cls-1" d="M190.624,249.57l-2.66-.189C189.3,247.417,189.3,247.417,190.624,249.57Z" transform="translate(-181.999 -189.523)"/>
  <path class="cls-5" d="M188.585,232.78c-.177.5.56.991.024,1.5-.7,1.436.155,3.049-.509,4.489C187.366,236.7,187.062,234.666,188.585,232.78Z" transform="translate(-181.999 -189.523)"/>
  <path class="cls-5" d="M221.077,247.757a9.346,9.346,0,0,0-.5-3.494l1.876.3c-1.071.918-.855,2.081-.876,3.2Z" transform="translate(-181.999 -189.523)"/>
  <path class="cls-3" d="M188.1,238.769c.228-1.49-.509-3.089.509-4.489q-.006,2.495-.013,4.991C188.431,239.1,188.265,238.937,188.1,238.769Z" transform="translate(-181.999 -189.523)"/>
  <path class="cls-4" d="M196.6,238.769a2.058,2.058,0,0,1,0-2.5A1.678,1.678,0,0,1,196.6,238.769Z" transform="translate(-181.999 -189.523)"/>
  <path class="cls-5" d="M220.076,243.762c-.636-.362-1.48-.516-1.5-1.5Q220.242,242.1,220.076,243.762Z" transform="translate(-181.999 -189.523)"/>
  <path class="cls-5" d="M182.958,245.741c.509-.2.6.089.591.312-.019.306-.058.737-.256.876-.341.24-.621-.068-.607-.425A2.424,2.424,0,0,1,182.958,245.741Z" transform="translate(-181.999 -189.523)"/>
  <path class="cls-5" d="M189.1,230.281c.115.884.562,1.835-.5,2.48C188.724,231.926,188.271,230.974,189.1,230.281Z" transform="translate(-181.999 -189.523)"/>
  <path class="cls-5" d="M185.286,239.833c-.216.322-.265.782-.709.516a.735.735,0,0,1-.284-.59.488.488,0,0,1,.709-.4C185.145,239.415,185.207,239.692,185.286,239.833Z" transform="translate(-181.999 -189.523)"/>
  <path class="cls-5" d="M190.093,228.285a2.679,2.679,0,0,1-.993,1.994A1.76,1.76,0,0,1,190.093,228.285Z" transform="translate(-181.999 -189.523)"/>
  <path class="cls-5" d="M214.581,213.3c-.69-.072-1.473.225-2-.5A1.624,1.624,0,0,1,214.581,213.3Z" transform="translate(-181.999 -189.523)"/>
  <path class="cls-7" d="M189.182,239.74c-.161-4.571.362-8.99,2.874-12.969a4.437,4.437,0,0,0,1.141-2.666,6.67,6.67,0,0,1,1.511-1.772l.911-.978c.576-.789,2.413-.833,1.485-2.51-1.305-.475-2.692-.613-4.019-1.068-1.783-.613-2.812.7-3.437,2.1a6.956,6.956,0,0,0-.81,3.6,1.945,1.945,0,0,1-.984,2.116c-2.662.18-3.218-.412-3.062-2.981a13.969,13.969,0,0,1,1.74-6.361l0,.015c2.542-3.342,5.965-3.224,9.612-2.559a24.731,24.731,0,0,0,10.014-.091c2.343-.017,4.722-.409,6.967.643l0-.016c.25.363.011.948.144,1.112.592.729,1.571,1.221.588,2.38a2.982,2.982,0,0,1-2.653.812.848.848,0,0,0-.628.29c-2.165.98-4.637,1.255-6.532,2.852a60.2,60.2,0,0,0-5.5,4.114,14.717,14.717,0,0,0-4.732,9.005c-.205,1.526-.584,3.11-.125,4.564.969,3.067,3.784,4.177,6.465,4.832a35.339,35.339,0,0,0,15.908,0l-.025.019c1.333-.405,2.523-.361,2.919,1.263.362,1.488-1.057,3.27-2.771,3.491a49.843,49.843,0,0,1-16.711-.173C194.044,248.053,190.807,244.81,189.182,239.74Z" transform="translate(-181.999 -189.523)"/>
  <path class="cls-8" d="M206.14,213.861a20.569,20.569,0,0,1-9.269.284c-3.851-.6-7.291-.579-10.336,2.119a6.112,6.112,0,0,1,6.826-3.29,44.045,44.045,0,0,0,11.647.8A.8.8,0,0,1,206.14,213.861Z" transform="translate(-181.999 -189.523)"/>
  <path class="cls-9" d="M188.08,225.261c.905-1.477.357-3.233.935-4.808a5.124,5.124,0,0,1,1.146-2.131c1.063-.948,2.094-2.366,3.807-.693.786.767,2.253.354,3.136,1.216a25.2,25.2,0,0,1-2.686-.23c-3.363-.642-4.4.059-5.146,3.4-.241,1.087.284,2.346-.712,3.264C188.391,225.5,188.231,225.488,188.08,225.261Z" transform="translate(-181.999 -189.523)"/>
  <path class="cls-8" d="M188.08,225.261c.16.013.32.019.48.019-.5,1.185-1.519,1.181-2.488.92a2.225,2.225,0,0,1-1.715-2.183c.142-2.727-.042-5.6,2.176-7.768-.469,1.815-1.065,3.608-1.376,5.45C184.656,224.667,185.2,225.24,188.08,225.261Z" transform="translate(-181.999 -189.523)"/>
  <path class="cls-10" d="M198.653,225.313c1.746-1.288,3.182-3.038,5.4-3.626q-.233.55-.466,1.1c-3.009,1.084-4.746,3.544-6.491,6a1.052,1.052,0,0,0-.5.994l-.592-.03C195.546,227.468,197.616,226.7,198.653,225.313Z" transform="translate(-181.999 -189.523)"/>
  <path class="cls-11" d="M210.583,218.835c.3-.508.834-.42,1.3-.56,1.345-.4,3.223-.622,1.183-2.634-.222-.22.032-.921.065-1.4,1.573.624,1.694,1.928,1.218,3.206C213.686,219.229,212.055,218.942,210.583,218.835Z" transform="translate(-181.999 -189.523)"/>
  <path class="cls-11" d="M206.14,213.861l-1.132-.089c2.752-.6,5.506-1.23,8.12.485A27.512,27.512,0,0,0,206.14,213.861Z" transform="translate(-181.999 -189.523)"/>
  <path class="cls-12" d="M198.653,225.313c-.62,1.635-2.559,2.483-2.655,4.433a12.847,12.847,0,0,0-1.942,8.54c.237,3.112,3.473,5.258,7.893,6,4.742.791,9.413-.082,14.115-.075a1.411,1.411,0,0,1-1.257.688c-5.679.494-11.309.961-16.888-1.105-2.253-.834-3.413-2.6-5.05-3.972-.1-.085-.237-.242-.22-.341.865-4.939,1.339-10.026,5.071-13.913C197.911,225.365,198.337,225.391,198.653,225.313Z" transform="translate(-181.999 -189.523)"/>
  <path class="cls-12" d="M199.476,248.806c3.87.577,7.77.356,11.659.479a31.275,31.275,0,0,0,4.92-.6c1.641-.2,2.312-1.659,2.392-3.075.093-1.642-1.416-1.222-2.407-1.383,1.6-.927,2.981-.577,3.7,1.048.644,1.444.236,3.079-1.4,3.44C212.081,250.094,205.772,250.674,199.476,248.806Z" transform="translate(-181.999 -189.523)"/>
  <path class="cls-6" d="M194.708,222.333l-1.145,1.906c-.208.318-.334.746-.859.637l-.157-.135C192.472,223.225,193.489,222.688,194.708,222.333Z" transform="translate(-181.999 -189.523)"/>
  <path class="cls-13" d="M192.7,224.876l.859-.637a2.782,2.782,0,0,1-1.507,2.532Z" transform="translate(-181.999 -189.523)"/>
  <line class="cls-14" x1="5.423" y1="9.932" x2="31.835" y2="2"/>
</svg>
