<svg width="37" height="61" viewBox="0 0 37 61" fill="none" xmlns="http://www.w3.org/2000/svg">
<path d="M5.18303 50.217C5.02203 45.646 5.54502 41.227 8.05702 37.248C8.72522 36.5122 9.12703 35.5734 9.19803 34.582C9.59389 33.9073 10.1053 33.3075 10.709 32.81L11.62 31.832C12.196 31.043 14.033 30.999 13.105 29.322C11.8 28.847 10.413 28.709 9.08603 28.254C7.30303 27.641 6.27402 28.954 5.64902 30.354C5.05985 31.4592 4.78 32.703 4.83902 33.954C4.92594 34.3657 4.87703 34.7944 4.69961 35.176C4.5222 35.5575 4.22585 35.8712 3.85502 36.07C1.19302 36.25 0.637028 35.658 0.793028 33.089C0.857044 30.8602 1.45366 28.6791 2.53302 26.728V26.743C5.07502 23.401 8.49802 23.519 12.145 24.184C15.4543 24.8369 18.8622 24.8059 22.159 24.093C24.502 24.076 26.881 23.684 29.126 24.736V24.72C29.376 25.083 29.137 25.668 29.27 25.832C29.862 26.561 30.841 27.053 29.858 28.212C29.5147 28.5522 29.0939 28.8039 28.6317 28.9453C28.1696 29.0868 27.6799 29.1138 27.205 29.024C27.0858 29.0255 26.9683 29.0521 26.8601 29.1021C26.7519 29.152 26.6554 29.2243 26.577 29.314C24.412 30.294 21.94 30.569 20.045 32.166C18.1349 33.4315 16.2986 34.8051 14.545 36.28C11.9475 38.6238 10.2698 41.8163 9.81302 45.285C9.60802 46.811 9.22902 48.395 9.68802 49.849C10.657 52.916 13.472 54.026 16.153 54.681C21.3868 55.89 26.8273 55.89 32.061 54.681L32.036 54.7C33.369 54.295 34.559 54.339 34.955 55.963C35.317 57.451 33.898 59.233 32.184 59.454C26.6436 60.3372 20.9939 60.2788 15.473 59.281C10.045 58.53 6.80803 55.287 5.18303 50.217Z" fill="#8BBD62"/>
<path d="M22.141 24.338C19.1132 25.137 15.943 25.2341 12.872 24.622C9.02101 24.022 5.58101 24.043 2.53601 26.741C3.13788 25.5048 4.13902 24.5076 5.37764 23.9106C6.61626 23.3136 8.02 23.1517 9.362 23.451C13.1916 24.2333 17.1084 24.5023 21.009 24.251C21.0889 24.182 21.1816 24.1296 21.2819 24.0966C21.3821 24.0636 21.4879 24.0508 21.5931 24.0589C21.6983 24.067 21.8009 24.0958 21.8949 24.1437C21.989 24.1916 22.0726 24.2576 22.141 24.338Z" fill="#97BF79"/>
<path d="M4.08099 35.738C4.98599 34.261 4.43799 32.505 5.01599 30.93C5.2224 30.1384 5.61535 29.4077 6.16199 28.799C7.22499 27.851 8.25599 26.433 9.96899 28.106C10.755 28.873 12.222 28.46 13.105 29.322C12.2062 29.2933 11.3096 29.2165 10.419 29.092C7.05599 28.45 6.019 29.151 5.27299 32.492C5.03199 33.579 5.55699 34.838 4.56099 35.756C4.39199 35.977 4.23199 35.965 4.08099 35.738Z" fill="#94BE76"/>
<path d="M4.08098 35.738C4.24098 35.751 4.40098 35.757 4.56098 35.757C4.06098 36.942 3.04199 36.938 2.07299 36.677C1.58201 36.5614 1.14488 36.2824 0.833273 35.8858C0.521667 35.4891 0.354073 34.9984 0.357977 34.494C0.499977 31.767 0.315987 28.894 2.53399 26.726C2.06499 28.541 1.46898 30.334 1.15798 32.176C0.65698 35.144 1.20098 35.717 4.08098 35.738Z" fill="#97BF79"/>
<path d="M26.584 29.312C26.884 28.804 27.418 28.892 27.884 28.752C29.229 28.352 31.107 28.13 29.067 26.118C28.845 25.898 29.099 25.197 29.132 24.718C30.705 25.342 30.826 26.646 30.35 27.924C29.687 29.706 28.056 29.419 26.584 29.312Z" fill="#97BF7D"/>
<path d="M22.141 24.338L21.009 24.249C23.761 23.649 26.515 23.019 29.129 24.734C26.826 24.305 24.4777 24.172 22.141 24.338Z" fill="#97BF7D"/>
<path d="M14.654 35.79C14.034 37.425 12.095 38.273 11.999 40.223C10.3714 42.7543 9.68409 45.7767 10.057 48.763C10.294 51.875 13.53 54.021 17.95 54.763C22.692 55.554 27.363 54.681 32.065 54.688C31.936 54.9045 31.7514 55.0825 31.5303 55.2034C31.3093 55.3244 31.0599 55.384 30.808 55.376C25.129 55.87 19.499 56.337 13.92 54.271C11.667 53.437 10.507 51.671 8.87 50.299C8.77 50.214 8.633 50.057 8.65 49.958C9.515 45.019 9.989 39.932 13.721 36.045C13.912 35.842 14.338 35.868 14.654 35.79Z" fill="#93BE6E"/>
<path d="M15.477 59.283C19.347 59.86 23.247 59.639 27.136 59.762C28.7893 59.6925 30.4344 59.4918 32.056 59.162C33.697 58.962 34.368 57.503 34.448 56.087C34.541 54.445 33.032 54.865 32.041 54.704C33.641 53.777 35.022 54.127 35.741 55.752C36.385 57.196 35.977 58.831 34.341 59.192C28.082 60.571 21.773 61.151 15.477 59.283Z" fill="#93BE6E"/>
<path d="M8.70097 35.353L9.55998 34.716C9.57104 35.2368 9.43565 35.7503 9.16922 36.1979C8.90279 36.6455 8.51604 37.0094 8.05298 37.248L8.70097 35.353Z" fill="#9DC285"/>
<path d="M3.42297 9.932L29.835 2" stroke="#8ABE62" stroke-width="4" stroke-linecap="round" stroke-linejoin="round"/>
</svg>
