<svg id="Layer_1" data-name="Layer 1" xmlns="http://www.w3.org/2000/svg" viewBox="0 0 43.375 68.608">
  <defs>
    <style>
      .cls-1 {
        fill: #aa7c8e;
      }

      .cls-2 {
        fill: #fcfdfe;
      }

      .cls-3 {
        fill: #fbfcfd;
      }

      .cls-4 {
        fill: #aa8695;
      }

      .cls-5 {
        fill: none;
        stroke: #aa7c8e;
        stroke-linecap: round;
        stroke-linejoin: round;
        stroke-width: 4px;
      }
    </style>
  </defs>
  <path class="cls-1" d="M54.886,217.054a4.757,4.757,0,0,0-1.928,1.557,4.814,4.814,0,0,1-.9,1.432,18.606,18.606,0,0,0-4.419,11.28c.119,2.867,1.632,4.655,4.341,5.648,4.705,1.725,9.51.692,14.271.734,1.313.012,2.648-.1,3.973-.144,1.611-.057,2.819.533,3.158,2.174a3.1,3.1,0,0,1-2.106,3.771,14.733,14.733,0,0,1-5.56,1.1c-4.2-.121-8.446.648-12.61-.437a4.416,4.416,0,0,1-.808-.2c-2.956-.885-5.893-2.021-7.876-4.412-2.613-3.15-3.877-6.823-2.415-10.979l-.022.031c.64-5.142,2.433-9.751,6.218-13.438,1.147-1.117.735-1.605-.667-1.848-2.9-.5-3.95.143-4.682,2.98-.187.723-.235,1.473-.421,2.194a2.682,2.682,0,0,1-2.016,2.276,2.326,2.326,0,0,1-2.911-1.253l.028.009c-1.345-1.247-.858-2.956-.576-4.248.7-3.2,1.556-6.531,5.017-8.052,2.325-1.022,4.831-.543,7.095-.01,3.852.907,7.584.435,11.354-.1a15.36,15.36,0,0,1,4.943.238,2.575,2.575,0,0,1,2.446,2.68c-.059,1.631-.473,3.207-2.443,3.574a17.616,17.616,0,0,0-3.386.792C59.412,214.737,57.427,216.644,54.886,217.054Z" transform="translate(-33.492 -181.937)"/>
  <path class="cls-2" d="M51.944,219.585l1.014-.974c2.072.571,3.133,4.325,1.507,6.033-1.723,1.811-.6,4.514-2.308,6.3-.355.37.333.945,1.049.954,2.624.035,5.248.133,7.872.162a23.107,23.107,0,0,1,7.978,1.59c.65.246,1.764.508,1.581,1.328-.24,1.076-1.541.749-2.13.525-3.686-1.4-7.5-.84-11.267-.925-.717-.017-1.6-.311-2.114.387-1.029,1.392-2.088.752-2.954,0a3.451,3.451,0,0,0-2.726-.9c-.37-.474-.646-1.047-1.3-1.228.492-3.884,1.072-7.747,3.021-11.234C51.529,220.959,52.073,220.409,51.944,219.585Z" transform="translate(-33.492 -181.937)"/>
  <path class="cls-3" d="M48.447,233.067c1.222-.556.961.371,1,1,.37,1.391.964,2.381,2.72,2.083,1.313-.222,1.847,1.69,3.274,1.409.175-.49,1.381.053,1-1h2.5c.094.742-.149,1.154-.714,1.069,2.232-.2,4.718-.42,7.209-.569a2.9,2.9,0,0,1,2.591-.241,5.347,5.347,0,0,0,3.387,0c3.922-1.1,4.216-.928,5.013,2.738a8.318,8.318,0,0,0-3.333,3.746c-.43,1.023-1.211,2.045-2.662,1.248h-1.8c-1.073.934,1.32,1.7-.011,2.268a2.612,2.612,0,0,1-3.357-.551,3.623,3.623,0,0,0-3.328-1.217,1.979,1.979,0,0,1-2.5,0h-.5c-1.205.841-2.965-.537-4,1-1.118.547-2.059.034-3-.5,1.058-.462.337-1.383.534-2.067a54.715,54.715,0,0,0,16.1.021c.735-.124,1.476-.24,2.194-.436a2.54,2.54,0,0,0,2.075-3.164c-.3-1.619-1.478-2.145-2.976-1.9a62.282,62.282,0,0,1-12.156.64,18.382,18.382,0,0,1-6.311-1.236c-3.47-1.391-4.721-3.409-4.49-7.132a12.352,12.352,0,0,1,1.991-6.306,8.88,8.88,0,0,1-.211,5.878C48.3,230.916,47.633,231.925,48.447,233.067Z" transform="translate(-33.492 -181.937)"/>
  <path class="cls-3" d="M37.5,219.524c3.014,1.659,4.161,1.084,4.558-2.287.553-4.684,3.412-6.216,7.648-4.106,1.353.674.255,1.183-.166,1.581a22.838,22.838,0,0,0-5.761,8.279c-.716,1.829-1.208,3.745-1.8,5.622a14.137,14.137,0,0,1,.255-3.7c.811-2.909.433-3.68-2.424-3.447C37.9,221.624,37.851,220.659,37.5,219.524Z" transform="translate(-33.492 -181.937)"/>
  <path class="cls-2" d="M52.478,243.483c.18.735,1.595.44,1.325,1.441-.26.967-1.2.509-1.859.626-.383-1.7-2.422-1.4-2.809-1.185-4.317,2.394-9.02,2.025-13.648,2.274-.76.041-1.709.31-1.739-.688-.029-.982,1.02-.885,1.749-.892,2.079-.02,4.159,0,6.238-.012.5,0,1.4.038,1.43-.089.443-2.08,2.465-2.029,3.783-2.9,1.981-.02,3.579,1.417,5.544,1.458Z" transform="translate(-33.492 -181.937)"/>
  <path class="cls-3" d="M52.492,243.514c-2.089.427-3.737-.818-5.544-1.458-3.69-.026-4.281-3.067-5.162-5.589-.427-1.22-.811-.562-1.333-.4-.59-1.995.3-3.725.982-5.493.1-.688-.238-1.5.569-1.988-.438,6.074,1.2,11.037,7.3,13.6Q50.9,242.852,52.492,243.514Z" transform="translate(-33.492 -181.937)"/>
  <path class="cls-2" d="M70.429,244.552c2.147-.039,2.508-2.016,3.265-3.32a2.829,2.829,0,0,1,2.73-1.674c-.273.829.865,2.774-1.564,1.95-.173-.059-.616.679-.934,1.046a7.707,7.707,0,0,1,1.5,1.5c1.688,1.009,1.034,2.307.221,3.361-1.032,1.336-1.887.233-2.61-.526C72.226,246.036,70.964,245.7,70.429,244.552Z" transform="translate(-33.492 -181.937)"/>
  <path class="cls-2" d="M41.435,230.57c.329,1.948-.547,3.681-.982,5.493-.073.868.718,1.306,1,2-.38.286-.5.827-1,1-.617-.14-2.55,1.191-1.245-1.1.511-.9-.143-1.605-.336-2.371-.386-1.528-.874-3.027.082-4.519.951.97,1.536.48,2-.5Z" transform="translate(-33.492 -181.937)"/>
  <path class="cls-2" d="M65.433,237.062c-2.267,1.7-4.893.7-7.384,1.053-.2-.868.856-.915.889-1.553a14.535,14.535,0,0,1,5.092-.5C64.754,236.064,65.339,236.2,65.433,237.062Z" transform="translate(-33.492 -181.937)"/>
  <path class="cls-2" d="M76.867,231.2c-.2,1.044-1.033,1.287-1.856,1.312a1.741,1.741,0,0,1-1.976-1.774c-.016-.926.79-1.151,1.611-1.162A2.129,2.129,0,0,1,76.867,231.2Z" transform="translate(-33.492 -181.937)"/>
  <path class="cls-2" d="M73.922,219.139c-.011,1.263-.454,1.985-1.62,1.885a1.311,1.311,0,0,1-1.188-1.6,1.943,1.943,0,0,1,1.864-1.713C74.194,217.631,73.77,218.688,73.922,219.139Z" transform="translate(-33.492 -181.937)"/>
  <path class="cls-3" d="M35.828,220.226c1.29.2.96,1.56,1.745,2.024-1.13.33-.337,2.3-1.359,2.129-1.385-.232-.619-1.949-1.14-2.92C34.785,220.92,35.339,220.428,35.828,220.226Z" transform="translate(-33.492 -181.937)"/>
  <path class="cls-3" d="M34.23,219.573c-1.41-1.79-.441-3.458-.016-5.36C36.7,216.149,33.926,217.883,34.23,219.573Z" transform="translate(-33.492 -181.937)"/>
  <path class="cls-3" d="M51.44,199.6c1.281-1.054,4.646-.956,5.152.487a3.211,3.211,0,0,1-1.636,3.535l-.129-.125c.067-2.277-.7-3.834-3.3-3.8Z" transform="translate(-33.492 -181.937)"/>
  <path class="cls-3" d="M70.429,212.594l-1-.5c0-.082,0-.164,0-.244a3.063,3.063,0,0,1,1.072-2.523c.125-.084.827.327.915.615A2.06,2.06,0,0,1,70.429,212.594Z" transform="translate(-33.492 -181.937)"/>
  <path class="cls-2" d="M54.941,246.05c.638-3.112,2.614-.867,4-1C57.948,246.752,56.293,245.793,54.941,246.05Z" transform="translate(-33.492 -181.937)"/>
  <path class="cls-3" d="M40.837,227.209c-.712-.161-1.4-.275-1.347-1.192.036-.621.225-1.224.935-1.224.872,0,1,.725,1.008,1.41C41.438,226.649,41.609,227.275,40.837,227.209Z" transform="translate(-33.492 -181.937)"/>
  <path class="cls-3" d="M40.953,230.57l-.106,2.133c-1.186-.074-1.817-.552-1.893-1.633A3.365,3.365,0,0,1,40.953,230.57Z" transform="translate(-33.492 -181.937)"/>
  <path class="cls-2" d="M36.714,248.375c1.28-1.227,2.024-1.578,3.129-.954C39.129,248.305,38.3,248.363,36.714,248.375Z" transform="translate(-33.492 -181.937)"/>
  <path class="cls-2" d="M59.438,245.052h2.5c-.041.456.128,1.165-.4,1.243A2.03,2.03,0,0,1,59.438,245.052Z" transform="translate(-33.492 -181.937)"/>
  <path class="cls-3" d="M49.234,199.346c.038.432-.13.665-.513.7s-.858.1-1.014-.383.214-.773.612-.865A.808.808,0,0,1,49.234,199.346Z" transform="translate(-33.492 -181.937)"/>
  <path class="cls-2" d="M56.44,236.562c.556,1.224-.371.961-1,1-.1-.419-.628-.832-.167-1.259C55.705,235.9,56.124,236.14,56.44,236.562Z" transform="translate(-33.492 -181.937)"/>
  <path class="cls-3" d="M34.4,231.294a.681.681,0,0,1,.521.8c-.018.311-.07.748-.518.5-.213-.117-.314-.541-.346-.838C34.044,231.609,34.3,231.43,34.4,231.294Z" transform="translate(-33.492 -181.937)"/>
  <path class="cls-3" d="M69.742,207.291c.127.171.409.393.467.663.1.454-.269.57-.6.415-.232-.109-.725,0-.641-.509C69.024,207.518,69.2,207.264,69.742,207.291Z" transform="translate(-33.492 -181.937)"/>
  <path class="cls-3" d="M68.074,204.8c.443-.028.615.122.472.4a1.457,1.457,0,0,1-.574.666c-.238.11-.47-.154-.366-.417A2.9,2.9,0,0,1,68.074,204.8Z" transform="translate(-33.492 -181.937)"/>
  <path class="cls-3" d="M40.453,239.059a.912.912,0,0,1,1-1C41.3,238.57,41.8,239.74,40.453,239.059Z" transform="translate(-33.492 -181.937)"/>
  <path class="cls-3" d="M75.425,244.052c-.638-.361-1.481-.517-1.5-1.5A1.406,1.406,0,0,1,75.425,244.052Z" transform="translate(-33.492 -181.937)"/>
  <path class="cls-2" d="M40.908,250.251c-.535.291-1.032.47-1.482.025C39.945,249.856,40.45,250.14,40.908,250.251Z" transform="translate(-33.492 -181.937)"/>
  <path class="cls-2" d="M62.115,248.444a5.979,5.979,0,0,1-.958.065c-.287-.026-.411-.272-.134-.429a2.017,2.017,0,0,1,.892-.156C61.963,247.922,62.022,248.192,62.115,248.444Z" transform="translate(-33.492 -181.937)"/>
  <path class="cls-3" d="M56.186,206.418a1.7,1.7,0,0,1,1.8-.111C57.517,206.784,57.015,206.6,56.186,206.418Z" transform="translate(-33.492 -181.937)"/>
  <path class="cls-3" d="M39.572,205.685c-.319-.53-.472-.708-.442-.747a1.967,1.967,0,0,1,.633-.643c.262-.116.423.093.291.39S39.77,205.277,39.572,205.685Z" transform="translate(-33.492 -181.937)"/>
  <path class="cls-2" d="M48.447,233.067a1.429,1.429,0,0,1-.67-2.062c1.414-2.213.535-4.728,1.125-7.031a7.407,7.407,0,0,1,3.042-4.389c1.656.335.643,1.27.283,1.788A10.742,10.742,0,0,0,49.89,226.8C49.8,229.032,48.382,230.865,48.447,233.067Z" transform="translate(-33.492 -181.937)"/>
  <path class="cls-4" d="M51.531,199.7c1.069-.438,2.073-.809,3.095.236,1.155,1.182.692,2.345.2,3.561-1.14.489-2.282,1.055-3.348-.151C50.39,202.11,51.035,200.906,51.531,199.7Z" transform="translate(-33.492 -181.937)"/>
  <path class="cls-3" d="M75.39,245.8c-.135.433-.422.471-.717.209-.346-.306-1.026-.4-.933-1,.084-.546.621-.437,1.008-.364C75.393,244.764,75.4,245.286,75.39,245.8Z" transform="translate(-33.492 -181.937)"/>
  <line class="cls-5" x1="6.417" y1="9.932" x2="32.829" y2="2"/>
</svg>
