<svg width="37" height="63" viewBox="0 0 37 63" fill="none" xmlns="http://www.w3.org/2000/svg">
<path d="M18.394 35.117C17.625 35.4565 16.9598 35.9938 16.466 36.674C16.2528 37.2007 15.9481 37.6855 15.566 38.106C12.8759 41.2677 11.3204 45.2383 11.147 49.386C11.266 52.253 12.779 54.041 15.488 55.034C20.193 56.759 24.998 55.726 29.759 55.768C31.072 55.78 32.407 55.668 33.732 55.624C35.343 55.567 36.551 56.157 36.89 57.798C37.0984 58.577 36.995 59.4066 36.6018 60.1106C36.2086 60.8147 35.5566 61.3378 34.784 61.569C33.0193 62.2921 31.1311 62.6656 29.224 62.669C25.024 62.548 20.778 63.317 16.614 62.232C16.339 62.1909 16.0684 62.124 15.806 62.032C12.85 61.147 9.91299 60.011 7.92999 57.62C5.31699 54.47 4.05299 50.797 5.51499 46.641L5.49299 46.672C6.13299 41.53 7.92599 36.921 11.711 33.234C12.858 32.117 12.446 31.629 11.044 31.386C8.14399 30.886 7.09399 31.529 6.36199 34.366C6.17499 35.089 6.12699 35.839 5.94099 36.56C5.87479 37.0988 5.64663 37.6049 5.28667 38.0113C4.9267 38.4177 4.45189 38.7052 3.92499 38.836C3.37125 39.0338 2.76316 39.0145 2.22307 38.782C1.68298 38.5495 1.25098 38.1211 1.01399 37.583L1.04199 37.592C-0.303011 36.345 0.183989 34.636 0.465989 33.344C1.16599 30.144 2.02199 26.813 5.48299 25.292C7.80799 24.27 10.314 24.749 12.578 25.282C16.43 26.189 20.162 25.717 23.932 25.182C25.5817 24.9936 27.251 25.074 28.875 25.42C29.5539 25.4534 30.192 25.754 30.6502 26.256C31.1084 26.7581 31.3495 27.4209 31.321 28.1C31.262 29.731 30.848 31.307 28.878 31.674C27.726 31.8257 26.5918 32.091 25.492 32.466C22.92 32.8 20.935 34.707 18.394 35.117Z" fill="#AA7C8E"/>
<path d="M15.039 17.763C16.108 17.325 17.112 16.954 18.134 17.999C19.289 19.181 18.826 20.344 18.334 21.56C17.194 22.049 16.052 22.615 14.986 21.409C13.898 20.173 14.543 18.969 15.039 17.763Z" fill="#AA8695"/>
<path d="M3.41699 9.932L29.829 2" stroke="#AA7C8E" stroke-width="4" stroke-linecap="round" stroke-linejoin="round"/>
</svg>
