<svg id="Layer_1" data-name="Layer 1" xmlns="http://www.w3.org/2000/svg" viewBox="0 0 73.908 169.252">
  <defs>
    <style>
      .cls-1 {
        fill: #fbfcfd;
      }

      .cls-2 {
        fill: #fcfdfe;
      }

      .cls-3 {
        fill: #df9a9f;
      }

      .cls-4 {
        fill: #ea9292;
      }

      .cls-5 {
        fill: #ef928f;
      }

      .cls-6 {
        fill: none;
        stroke: #eb9394;
        stroke-linecap: round;
        stroke-linejoin: round;
        stroke-width: 4px;
      }
    </style>
  </defs>
  <path class="cls-1" d="M88.248,222.629c-1.59,1.012-3.361.5-5.019.443-2.824-.087-5.7.626-8.475-.441Z" transform="translate(-40.114 -57.269)"/>
  <path class="cls-1" d="M49.276,219.631c-.05.568-.145,1.255-.845,1.181a1.652,1.652,0,0,1-1.653-1.68C48.069,217.009,48.5,219.189,49.276,219.631Z" transform="translate(-40.114 -57.269)"/>
  <path class="cls-1" d="M96.739,224.894c.5.06.61.487.751.848.2.52-.088.809-.572.776s-.656-.432-.636-.884C96.3,225.315,96.3,224.963,96.739,224.894Z" transform="translate(-40.114 -57.269)"/>
  <path class="cls-1" d="M56.271,222.629c-2.333.07-4.665.994-7,0C52.167,219.861,52.167,219.861,56.271,222.629Z" transform="translate(-40.114 -57.269)"/>
  <path class="cls-1" d="M62.766,218.63c1.69-.524,3.341-.872,4.5,1C65.575,220.154,63.8,221.057,62.766,218.63Z" transform="translate(-40.114 -57.269)"/>
  <path class="cls-1" d="M62.266,222.624l-3,0c.394-.253,1.026-.432,1.133-.775.217-.693.432-1.335,1.236-1.107C62.6,221.019,62.156,221.956,62.266,222.624Z" transform="translate(-40.114 -57.269)"/>
  <path class="cls-1" d="M69.051,220.919c-.8.791-1.384.929-2.164.168A1.793,1.793,0,0,1,69.051,220.919Z" transform="translate(-40.114 -57.269)"/>
  <path class="cls-1" d="M58.75,219.29c-.095.405-.219.709-.6.74-.326.027-.729-.026-.6-.461.059-.2.47-.324.744-.4C58.386,219.141,58.794,218.878,58.75,219.29Z" transform="translate(-40.114 -57.269)"/>
  <path class="cls-1" d="M91.007,181.368c.084-1.164-.711-1.987-1.093-2.971a9.9,9.9,0,0,1-.406-6.017c1.247-.829,1.6.125,2,1,1.159,2.037,1.963,4.128,1,6.492a2.884,2.884,0,0,0,.913,2.353,2.121,2.121,0,0,1-.914,3.639C92.383,184.238,93.086,182.339,91.007,181.368Z" transform="translate(-40.114 -57.269)"/>
  <path class="cls-2" d="M92.506,179.87q-.5-3.246-1-6.492c.888-.509,1.665-1.442,2.868-.751s1.133,1.854,1.136,3.016C95.52,179.392,95.258,179.779,92.506,179.87Z" transform="translate(-40.114 -57.269)"/>
  <path class="cls-1" d="M41.9,177.2c-.015.575-.266.988-.858.985s-.858-.431-.919-.965a.959.959,0,0,1,.719-1.138C41.606,175.961,41.648,176.728,41.9,177.2Z" transform="translate(-40.114 -57.269)"/>
  <path class="cls-1" d="M41.131,188.524c.413.125.752.366.728.818a.928.928,0,0,1-1.147.913c-.482-.044-.656-.421-.565-.87A.964.964,0,0,1,41.131,188.524Z" transform="translate(-40.114 -57.269)"/>
  <path class="cls-1" d="M92.505,190.855c.071-.69-.231-1.472.5-2C94.743,190,93.045,190.282,92.505,190.855Z" transform="translate(-40.114 -57.269)"/>
  <path class="cls-1" d="M91.029,181.372c-.108.662-.228,1.124-.7,1.141-.176.006-.449-.446-.534-.732a.483.483,0,0,1,.511-.641A2.331,2.331,0,0,1,91.029,181.372Z" transform="translate(-40.114 -57.269)"/>
  <path class="cls-1" d="M71.074,114.772c.013-2.05-.045-4.1.063-6.15.095-1.8,1.881-1.523,3.151-2.226-1.431-.085-2.195-.834-1.617-1.931.722-1.37,1.4-.3,1.983.369.339.383.76.242,1.137.054,1.122-.558,1.644.1,2.605.686,1.675,1.022,1.144,1.534.367,2.626-.457.644,1.566,2.539,2.538,2.367.561-.1,1.489-.485,1.5.133.035,1.407,1.551,2.411,1.207,3.545-.283.93-1.526.534-1.848-.415-.925-2.72-1.865-.694-2.351.088-.816,1.311-.771,3.017-1.66,4.366-.231.35.071.786.372,1.106.729.774,5.985,1.365,7.1.791.045-.327-.2-.368-.424-.465-.889-.379-2.023-.51-2.085-1.811a1.011,1.011,0,0,1,.668-.97c1.225-.521,1.449.8,2.175,1.18a23.849,23.849,0,0,0,8.1,2.2c.44.061.849.136.906-.459a.887.887,0,0,0-.77-1.082c-.735-.138-1.729-.233-1.4-1.26.318-.987,1.275-.886,2.112-.522.418.183.774.754,1.287.195a1.045,1.045,0,0,0,.074-1.382c-1.119-1.508-.46-3.151-.622-4.652-.226-2.1.336-4.219-.227-6.216a9.988,9.988,0,0,1,.054-5.13c.512-2.24,1.155-4.535-.372-6.7a1.224,1.224,0,0,1-.062-.975c.938-2.57,1.44-5.031.094-7.736-.51-1.024,1.034-2.253.942-3.717-.16-2.562-.036-5.118-.853-7.627a10.3,10.3,0,0,1,.106-4.913c.1-.626.009-1.264.833-1.127.7.117.8.681.591,1.361-.179.578-.637,1.165-.072,2.05,1-1.825,2.153-1.356,3.421-.386,1.047.8,2.21,1.447,3.315,2.172.221.146.933.215.566.479-1.234.889.9,2.963-1.294,3.445-.136.03-.2.777-.155,1.176.2,1.851.452,3.7.686,5.559,1.341-.2,1.052-2.775,2.231-2.045,1.087.674-.436,2.156-.547,3.3-.222,2.279-1.681,4.3-1.361,6.647.159,1.162-.247,2.658,1.816,2.915,1.022.128.9,2.942-.2,3.037-2.773.239-1.2,2.18-1.978,3.859.761-.6,1.068-1.04,1.34-1.019.6.045.467.615.325.969a5.268,5.268,0,0,0,.024,3.646c.163.541.331,1.6-1,.753-.6-.382-.329.493-.332.729-.039,2.5-.119,5,.012,7.485a11.5,11.5,0,0,0,1.375,4.4c.853,1.646.359,1.966-.457,3.3-1.009,1.652-2.667,3.2-2.573,5.573.087,2.161-2.209,3.5-4.461,3.35-2.935-.2-5.894-.049-9.23-.049l1.44.852a35.265,35.265,0,0,1-9.908-.427c-1.433-.189-2.713-.33-3.916.645a1.749,1.749,0,0,1-1.888.3c-.866-.455-2.294.01-2.619-1.111-.331-1.14.864-1.663,1.664-2.2.654-.435,1.06-.744.373-1.514a1.443,1.443,0,0,0-2.145-.371c-1.211.788-2.432,1.858-4.156.318,1.262-.626,2.744-.826,3.233-2.145.462-1.243-.321-2.4-.6-3.582a5.534,5.534,0,0,1,.224-2.679c.206-.849.445-1.815-.367-2.569a5.529,5.529,0,0,1-.386-.9c-.18-.754-.21-1.687.676-1.815,1.033-.15.523.93.754,1.442a6.587,6.587,0,0,0,.5.8c.8.812.554,1.859.649,2.833.448,4.611,2.551,8.179,7.076,9.622,5.862,1.871,11.745,1.875,17.46-.877A10.061,10.061,0,0,0,102.267,117c.263-9.636-.553-19.26-.594-28.9-.015-3.621-.217-7.29-.339-10.937a14.757,14.757,0,0,0-.1-2.489c-.25-1.223-.836-2.34-2.232-2.264-1.463.079-1.812,1.291-1.773,2.55.256,8.127.39,16.256.841,24.378.337,6.063.248,12.142.031,18.207-.1,2.692-2.013,4.33-4.408,5.226a21,21,0,0,1-12.52.571c-4.089-.989-5.894-3.862-5.188-8.031a15.7,15.7,0,0,1,.912-3.364,1.872,1.872,0,0,0-1.183-2.791c-1.306-.468-1.928.338-2.486,1.419C72.509,111.973,72.9,113.949,71.074,114.772Z" transform="translate(-40.114 -57.269)"/>
  <path class="cls-1" d="M68.209,119.2c-2.407-1.924-4.392-3.5-3.669-6.521.13-.54-.047-1.228.763-1.321a1.021,1.021,0,0,1,1.122.782C67.018,114.356,67.553,116.583,68.209,119.2Z" transform="translate(-40.114 -57.269)"/>
  <path class="cls-1" d="M103.947,68.714c.013.829-.292,1.55-.885,1.371a4.413,4.413,0,0,1-2.823-2.774c-.222-.6.531-.939,1.138-.969C103.155,66.253,103.1,68.031,103.947,68.714Z" transform="translate(-40.114 -57.269)"/>
  <path class="cls-1" d="M113.982,130.178c-.063.529-.074,1.381-.823,1.151a2.561,2.561,0,0,1-2.056-2.437c0-.646.453-1.16,1.117-.978C113.3,128.21,114.228,128.762,113.982,130.178Z" transform="translate(-40.114 -57.269)"/>
  <path class="cls-1" d="M108.042,125.216c.854.1,1.994-.279,2.239.932.168.828-.663,1.183-1.3,1.007-.99-.275-2.581.1-2.74-1.3C106.138,124.946,107.394,125.366,108.042,125.216Z" transform="translate(-40.114 -57.269)"/>
  <path class="cls-1" d="M64.258,127.779c.708.066,1.4.434,1.426,1.117.04.858-.73,1.219-1.522,1.288a.885.885,0,0,1-1.077-1.02A1.3,1.3,0,0,1,64.258,127.779Z" transform="translate(-40.114 -57.269)"/>
  <path class="cls-1" d="M68.192,110.934c-1.01-2.037-1.01-2.037-.223-3.4C68.822,108.471,68.613,109.446,68.192,110.934Z" transform="translate(-40.114 -57.269)"/>
  <path class="cls-1" d="M105.864,62.392a1.039,1.039,0,0,1-1.093.842.9.9,0,0,1-.883-.991c.027-.582.618-.743,1.085-.768C105.547,61.443,105.845,61.838,105.864,62.392Z" transform="translate(-40.114 -57.269)"/>
  <path class="cls-1" d="M82.188,116.172a2.676,2.676,0,0,1-.814.255,1.015,1.015,0,0,1-1.018-.857.563.563,0,0,1,.538-.668C81.48,114.821,81.741,115.222,82.188,116.172Z" transform="translate(-40.114 -57.269)"/>
  <path class="cls-1" d="M64.52,124.1c-.017.522-.07,1.048-.771,1.006a.663.663,0,0,1-.48-.42,1.156,1.156,0,0,1,.682-1.209C64.307,123.346,64.478,123.748,64.52,124.1Z" transform="translate(-40.114 -57.269)"/>
  <path class="cls-1" d="M96.356,130.368c.607.176.812.526.772.948s-.44.4-.748.364c-.434-.046-.847-.206-.6-.753C95.888,130.678,96.2,130.516,96.356,130.368Z" transform="translate(-40.114 -57.269)"/>
  <path class="cls-1" d="M69.573,115.217c-.193.757.316,1.632-.757,2.506C68.447,116.545,68.5,115.788,69.573,115.217Z" transform="translate(-40.114 -57.269)"/>
  <path class="cls-1" d="M63.846,105.021c.385.182.623.418.5.765a.6.6,0,0,1-.523.264c-.316-.066-.6-.3-.444-.675C63.451,105.21,63.705,105.122,63.846,105.021Z" transform="translate(-40.114 -57.269)"/>
  <path class="cls-1" d="M68.1,114.647c-.2-.235-.418-.378-.436-.543-.021-.192.086-.529.222-.582.367-.14.579.131.569.471C68.451,114.177,68.268,114.356,68.1,114.647Z" transform="translate(-40.114 -57.269)"/>
  <path class="cls-3" d="M71.074,114.772c.524-1.56,1.041-3.123,1.576-4.68.6-1.739,1.876-2.417,3.514-1.713a2.609,2.609,0,0,1,1.5,3.668c-2.722,7.793-.4,10.988,7.956,11.209a19.843,19.843,0,0,0,7.836-1.081,5.684,5.684,0,0,0,4.086-5.853c.234-10.474-.5-20.928-.657-31.394-.048-3.138-.253-6.3-.377-9.444-.076-1.925.185-3.6,2.4-3.979,1.741-.3,2.968,1.4,3.038,4.018.209,7.8.394,15.607.6,23.41.14,5.394.373,10.787.422,16.182.069,7.552-3.052,11.457-10.388,13.356a25.476,25.476,0,0,1-13.757-.45,10.894,10.894,0,0,1-7.721-10.51c-.011-.914-.012-1.828-.016-2.742Z" transform="translate(-40.114 -57.269)"/>
  <path class="cls-4" d="M101.525,93.762c.745.662.475,1.549.477,2.349q.032,10.609.012,21.22c-.014,5.3-5.141,10.355-10.5,10.394a20.319,20.319,0,0,0-3.446.357,16.3,16.3,0,0,1-12.931-3.223c-3.537-2.647-4.151-10.976-1.542-14.728a1.866,1.866,0,0,1,2.162-.811,1.485,1.485,0,0,1,1.136,1.924c-.58,1.776-.312,3.768-1.573,5.39-.714.919,1.559,5.362,3.206,6.049a19.409,19.409,0,0,0,17.24-.841c1.69-.892,2.255-2.578,2.256-4.423.006-9.154.106-18.31-.05-27.461-.085-4.956-.6-9.905-.953-14.855-.123-1.739.644-2.4,2.355-2.331,1.14.043,1.474.45,1.7,1.585a45.51,45.51,0,0,1,.436,8.436c-1.033,6.743-.219,13.516-.535,20.668C101.312,99.966,100.439,96.829,101.525,93.762Z" transform="translate(-40.114 -57.269)"/>
  <path class="cls-5" d="M101.525,93.762v10.583c-.828-.106-.978-.516-.967-.925.172-6.678-.6-13.383.537-20.033.036-.216.272-.4.414-.595Q101.517,88.278,101.525,93.762Z" transform="translate(-40.114 -57.269)"/>
  <line class="cls-6" x1="37.08" y1="9.932" x2="63.492" y2="2"/>
</svg>
