<svg width="36" height="72" viewBox="0 0 36 72" fill="none" xmlns="http://www.w3.org/2000/svg">
<path d="M0.960022 57.503C1.48402 55.943 2.00103 54.38 2.53603 52.823C3.13603 51.084 4.41203 50.406 6.05003 51.11C6.40739 51.2285 6.73488 51.4229 7.01001 51.6799C7.28514 51.9369 7.50138 52.2504 7.64389 52.5989C7.7864 52.9474 7.8518 53.3226 7.83559 53.6987C7.81939 54.0749 7.72197 54.4431 7.55003 54.778C4.82803 62.571 7.15003 65.766 15.506 65.987C18.1641 66.1562 20.829 65.7886 23.342 64.906C24.5893 64.544 25.675 63.7658 26.4184 62.7009C27.1618 61.636 27.5181 60.3486 27.428 59.053C27.662 48.579 26.928 38.125 26.771 27.659C26.723 24.521 26.518 21.359 26.394 18.215C26.318 16.29 26.579 14.615 28.794 14.236C30.535 13.936 31.762 15.636 31.832 18.254C32.041 26.054 32.226 33.861 32.432 41.664C32.572 47.058 32.805 52.451 32.854 57.846C32.923 65.398 29.802 69.303 22.466 71.202C17.9259 72.3171 13.1665 72.1614 8.70902 70.752C6.46051 70.0675 4.49368 68.6742 3.10214 66.78C1.7106 64.8858 0.968989 62.5923 0.988022 60.242C0.977022 59.328 0.976023 58.414 0.972023 57.5L0.960022 57.503Z" fill="#DF9A9F"/>
<path d="M31.411 36.493C32.156 37.155 31.886 38.042 31.888 38.842C31.9093 45.9147 31.9133 52.988 31.9 60.062C31.886 65.362 26.759 70.417 21.4 70.456C20.2432 70.4767 19.0904 70.5961 17.954 70.813C15.6932 71.2171 13.3725 71.1388 11.1441 70.5834C8.9156 70.028 6.82967 69.0079 5.02298 67.59C1.48598 64.943 0.87198 56.614 3.48098 52.862C3.69804 52.5038 4.02931 52.229 4.42147 52.0819C4.81363 51.9348 5.24388 51.9239 5.64298 52.051C5.8509 52.0901 6.04805 52.1732 6.22125 52.2947C6.39445 52.4161 6.5397 52.5732 6.64726 52.7554C6.75482 52.9376 6.82222 53.1406 6.84494 53.351C6.86766 53.5613 6.84516 53.7741 6.77898 53.975C6.19898 55.751 6.46698 57.743 5.20598 59.365C4.49198 60.284 6.76498 64.727 8.41198 65.414C11.1558 66.6132 14.1398 67.1613 17.1306 67.0154C20.1214 66.8695 23.038 66.0336 25.652 64.573C27.342 63.681 27.907 61.995 27.908 60.15C27.914 50.996 28.014 41.84 27.858 32.689C27.773 27.733 27.258 22.784 26.905 17.834C26.782 16.095 27.549 15.434 29.26 15.503C30.4 15.546 30.734 15.953 30.96 17.088C31.3665 19.8804 31.5125 22.7046 31.396 25.524C30.363 32.267 31.177 39.04 30.861 46.192C31.198 42.697 30.325 39.56 31.411 36.493Z" fill="#EA9292"/>
<path d="M31.411 36.493V47.076C30.583 46.97 30.433 46.56 30.444 46.151C30.616 39.473 29.844 32.768 30.981 26.118C31.017 25.902 31.253 25.718 31.395 25.523C31.4003 29.1803 31.4057 32.837 31.411 36.493Z" fill="#EF928F"/>
<path d="M7.08002 9.932L33.492 2" stroke="#EB9394" stroke-width="4" stroke-linecap="round" stroke-linejoin="round"/>
</svg>
