<svg id="Layer_1" data-name="Layer 1" xmlns="http://www.w3.org/2000/svg" viewBox="0 0 72.995 146.497">
  <defs>
    <style>
      .cls-1 {
        fill: #fbfcfd;
      }

      .cls-2 {
        fill: #fcfdfe;
      }

      .cls-3 {
        fill: #fcfdfd;
      }

      .cls-4 {
        fill: #aa7c8e;
      }

      .cls-5 {
        fill: none;
        stroke: #aa7c8e;
        stroke-linecap: round;
        stroke-linejoin: round;
        stroke-width: 4px;
      }
    </style>
  </defs>
  <path class="cls-1" d="M88.248,222.629c-1.59,1.012-3.361.5-5.019.443-2.824-.087-5.7.626-8.475-.441Z" transform="translate(-40.114 -80.024)"/>
  <path class="cls-1" d="M49.276,219.631c-.05.568-.145,1.255-.845,1.181a1.652,1.652,0,0,1-1.653-1.68C48.069,217.009,48.5,219.189,49.276,219.631Z" transform="translate(-40.114 -80.024)"/>
  <path class="cls-1" d="M96.739,224.894c.5.06.61.487.751.848.2.52-.088.809-.572.776s-.656-.432-.636-.884C96.3,225.315,96.3,224.963,96.739,224.894Z" transform="translate(-40.114 -80.024)"/>
  <path class="cls-1" d="M56.271,222.629c-2.333.07-4.665.994-7,0C52.167,219.861,52.167,219.861,56.271,222.629Z" transform="translate(-40.114 -80.024)"/>
  <path class="cls-1" d="M62.766,218.63c1.69-.524,3.341-.872,4.5,1C65.575,220.154,63.8,221.057,62.766,218.63Z" transform="translate(-40.114 -80.024)"/>
  <path class="cls-1" d="M62.266,222.624l-3,0c.394-.253,1.026-.432,1.133-.775.217-.693.432-1.335,1.236-1.107C62.6,221.019,62.156,221.956,62.266,222.624Z" transform="translate(-40.114 -80.024)"/>
  <path class="cls-1" d="M69.051,220.919c-.8.791-1.384.929-2.164.168A1.793,1.793,0,0,1,69.051,220.919Z" transform="translate(-40.114 -80.024)"/>
  <path class="cls-1" d="M58.75,219.29c-.095.405-.219.709-.6.74-.326.027-.729-.026-.6-.461.059-.2.47-.324.744-.4C58.386,219.141,58.794,218.878,58.75,219.29Z" transform="translate(-40.114 -80.024)"/>
  <path class="cls-1" d="M91.007,181.368c.084-1.164-.711-1.987-1.093-2.971a9.9,9.9,0,0,1-.406-6.017c1.247-.829,1.6.125,2,1,1.159,2.037,1.963,4.128,1,6.492a2.884,2.884,0,0,0,.913,2.353,2.121,2.121,0,0,1-.914,3.639C92.383,184.238,93.086,182.339,91.007,181.368Z" transform="translate(-40.114 -80.024)"/>
  <path class="cls-2" d="M92.506,179.87q-.5-3.246-1-6.492c.888-.509,1.665-1.442,2.868-.751s1.133,1.854,1.136,3.016C95.52,179.392,95.258,179.779,92.506,179.87Z" transform="translate(-40.114 -80.024)"/>
  <path class="cls-1" d="M41.9,177.2c-.015.575-.266.988-.858.985s-.858-.431-.919-.965a.959.959,0,0,1,.719-1.138C41.606,175.961,41.648,176.728,41.9,177.2Z" transform="translate(-40.114 -80.024)"/>
  <path class="cls-1" d="M41.131,188.524c.413.125.752.366.728.818a.928.928,0,0,1-1.147.913c-.482-.044-.656-.421-.565-.87A.964.964,0,0,1,41.131,188.524Z" transform="translate(-40.114 -80.024)"/>
  <path class="cls-1" d="M92.505,190.855c.071-.69-.231-1.472.5-2C94.743,190,93.045,190.282,92.505,190.855Z" transform="translate(-40.114 -80.024)"/>
  <path class="cls-1" d="M91.029,181.372c-.108.662-.228,1.124-.7,1.141-.176.006-.449-.446-.534-.732a.483.483,0,0,1,.511-.641A2.331,2.331,0,0,1,91.029,181.372Z" transform="translate(-40.114 -80.024)"/>
  <path class="cls-3" d="M58.312,90.472c.655.027,1.43-.164,1.944.118,2.8,1.541,5.556.7,8.339.037a11.486,11.486,0,0,1,1.708-.149c-.48,1.29-1.5,2.209-2.77,1.885-2.38-.609-4.75-.278-7.12-.377C59.33,91.941,58.415,91.808,58.312,90.472Z" transform="translate(-40.114 -80.024)"/>
  <path class="cls-4" d="M81.359,106.7c-.675-.672-.256-1.307.067-1.945,1.889-2.686,2.574-2.809,4.762-.531A73.928,73.928,0,0,1,98.96,122.387c1,2,1.675,4.209,2.571,6.1.78-9.279.575-18.72.589-28.156a4.477,4.477,0,0,0-.805-2.99,3.42,3.42,0,0,1,.646-4.878c1.6-.934,3.555-.137,4.583,2.023A20.65,20.65,0,0,0,109.964,99c2.444,2.815,1.987,4.743-1.405,6.155a1.23,1.23,0,0,0-.9,1.275c-.19,7.364.2,14.737-.314,22.095-.144,2.042.02,4.155-1.039,6.047l.021-.026a8.752,8.752,0,0,1-4.5,5.509l.011-.017c-4.2,4.008-9.29,5.439-14.96,5.157-2.068-.1-2.633-1.568-2.536-3.281a2.487,2.487,0,0,1,2.989-2.552c2.677.267,4.961-1.116,7.436-1.667,1.835-.408,2.663-1.875,2.027-3.82-1.123-3.435-2.137-6.906-3.406-10.293l.006,0a3.555,3.555,0,0,1-.86-.887,153.126,153.126,0,0,0-10.483-14.43A6.162,6.162,0,0,1,81.359,106.7Z" transform="translate(-40.114 -80.024)"/>
  <path class="cls-1" d="M106.305,134.575c1.369-9.17,1.072-18.406,1.064-27.628,0-1.366-.009-2.235,1.833-2.432,1.962-.21,2.534-2.747,1.032-4.315a23.966,23.966,0,0,1-4.528-6.215,2.331,2.331,0,0,0-3.338-1.247,2.242,2.242,0,0,0-1.027,3.378c1.258,2.065,1.1,4.3,1.086,6.525q-.05,12.729-.163,25.457c-.009.868.268,1.834-.434,2.593-.563-.05-.7-.5-.776-.855-1.915-8.754-7.311-15.551-12.593-22.412-.659-.856-1.314-1.718-2.024-2.53-2.042-2.338-2.747-2.347-5.012-.137-.189-1.647,1.937-1.973,1.826-3.759,2.777,2.158,4.647,4.863,7.314,6.711.548-.173.648-.7.748-1.134.309-1.36.858-1.45,1.794-.477.57.591,1.263,1.06,1.853,1.634.476.462,1.026,1.062.26,1.641-.444.336-1.051,1.029-1.7.3-.294-.328-.343-1.1-.935-.362a2.279,2.279,0,0,0-.553,1.341c.015.586.392.487,1,.433,2.143-.192.995,1.616,1.345,2.536,1.968,2.5,3.246,5.418,4.913,8.1.781,1.256.33,2.788,1.358,3.99.941-1.244-.807-3.21,1.106-4.223.32-.17-.269-.516-.695-.629-2.783-.74-2.721-3.209-3.152-5.349-.092-.46-.09-1.05.539-1.235a.837.837,0,0,1,1.079.758c.206,1.472,1.309,2.372,2.335,3.834,0-6.729,0-13.128,0-19.527,0-1.05-.665-1.208-1.491-1.2,0-1-.016-2,0-2.992.049-2.661,1.344-3.792,3.936-3.435.323.045.661.32.945.261.948-.2,2.108-1.045,2.042.971,0,.143.845.314,1.889.678-3.11.462-1.13,1.867-.978,2.713.246,1.37.879-.186,1.463-.115,1.2.144.067-.793.334-1.177.449-.647.633-1.734,1.6-1.631a1.588,1.588,0,0,1,1.234,1.678c.006,1.625.977,3.319-.743,4.808-.913.791.391,1.941.074,3.273-.519,2.18-1.58,2.347-3.188,2.474a7.37,7.37,0,0,0-1.1.283c2.983.975,2.983.975,4.565.037-.441,2.3-.4,2.652-3.073,2.946-1.782.2-1.5.988-1.5,2.008-.006,5.485-.079,10.971.036,16.454.042,2.019-.679,3.916-.583,5.919A1.332,1.332,0,0,1,106.305,134.575Z" transform="translate(-40.114 -80.024)"/>
  <path class="cls-1" d="M81.359,106.7c4.4,5.354,8.926,10.612,12.032,16.885-.786,1.783-.268,3.6.108,5.318a5.472,5.472,0,0,1,.1,3.341c-.107.268-.629.165-.867-.105-.87-.987-1.789-1.938-1.406-3.47.255-1.021.27-2.1.556-3.114.551-1.953-.86-2.674-2.153-2.944-1.544-.323-1.274-.978-.9-1.958.07-.186-.1-.46-.185-.821-1.125.214-.812,1.861-2.229,1.9.96-1.3-.211-2.974,1.239-4.228.34-.294.122-1.616-.676-2.375-.9-.857-1.759-1.769-3.03-1.321-1.341.472-2.252-.026-1.95-1.183a5.035,5.035,0,0,0-.963-5.03C80.931,107.483,81.241,107.009,81.359,106.7Z" transform="translate(-40.114 -80.024)"/>
  <path class="cls-1" d="M101.824,140.058a44.768,44.768,0,0,0,4.5-5.509c-.295,1.259.333,2.673-1.06,3.77-.838.661.75,1.2.729,2.36C104.642,139.2,103.194,140.24,101.824,140.058Z" transform="translate(-40.114 -80.024)"/>
  <path class="cls-1" d="M100.366,98.141a10.823,10.823,0,0,1,.392,1.9.822.822,0,0,1-.943.9c-1.752-.33-1.366-2.226-2.212-3.276-.641-.794.328-1.406,1.264-1.521A2.358,2.358,0,0,0,100.366,98.141Z" transform="translate(-40.114 -80.024)"/>
  <path class="cls-1" d="M97.555,95.076c-.817-.027-.793-.886-.845-1.448a1.124,1.124,0,0,1,1.4-1.276c.586.1,1.3.341,1.009,1.34C98.89,94.475,98.61,95.045,97.555,95.076Z" transform="translate(-40.114 -80.024)"/>
  <path class="cls-1" d="M84.6,136.894a3.323,3.323,0,0,1,3.469.83.417.417,0,0,1-.262.723A4.838,4.838,0,0,1,84.6,136.894Z" transform="translate(-40.114 -80.024)"/>
  <path class="cls-1" d="M90.72,105.125c-.392-.605-1.715-.124-1.544-1.2.031-.2.515-.467.778-.454C91.092,103.53,90.731,104.415,90.72,105.125Z" transform="translate(-40.114 -80.024)"/>
  <path class="cls-1" d="M96.372,112.728c-.172-.86-1.055-1.409-.617-2.537C96.611,110.948,97.236,111.572,96.372,112.728Z" transform="translate(-40.114 -80.024)"/>
  <path class="cls-1" d="M102.823,88.758c.839.318,1.084.769.9,1.39a.671.671,0,0,1-.532.218A1.568,1.568,0,0,1,102.823,88.758Z" transform="translate(-40.114 -80.024)"/>
  <path class="cls-1" d="M98.867,96.144v-1.5c.292-.065.7-.392.858-.023C100.057,95.41,99.478,95.815,98.867,96.144Z" transform="translate(-40.114 -80.024)"/>
  <path class="cls-1" d="M103.493,87.212c.343.012.588.1.467.387a.811.811,0,0,1-.5.383.3.3,0,0,1-.372-.4C103.142,87.409,103.384,87.3,103.493,87.212Z" transform="translate(-40.114 -80.024)"/>
  <path class="cls-1" d="M96.2,105.916a1.785,1.785,0,0,1-.261-.508c-.045-.242.082-.494.371-.373a.8.8,0,0,1,.382.5C96.76,105.807,96.571,105.953,96.2,105.916Z" transform="translate(-40.114 -80.024)"/>
  <path class="cls-1" d="M96.369,112.622a1.759,1.759,0,0,1-2,1A2.74,2.74,0,0,1,96.369,112.622Z" transform="translate(-40.114 -80.024)"/>
  <line class="cls-5" x1="39.355" y1="9.932" x2="65.766" y2="2"/>
</svg>
