<svg id="Layer_1" data-name="Layer 1" xmlns="http://www.w3.org/2000/svg" viewBox="0 0 73.908 144.473">
  <defs>
    <style>
      .cls-1 {
        fill: #fbfcfd;
      }

      .cls-2 {
        fill: #fcfdfe;
      }

      .cls-3 {
        fill: #ab7c8e;
      }

      .cls-4 {
        fill: #f5eff3;
      }

      .cls-5 {
        fill: none;
        stroke: #aa7c8e;
        stroke-linecap: round;
        stroke-linejoin: round;
        stroke-width: 4px;
      }
    </style>
  </defs>
  <path class="cls-1" d="M88.248,222.629c-1.59,1.012-3.361.5-5.019.443-2.824-.087-5.7.626-8.475-.441Z" transform="translate(-40.114 -82.047)"/>
  <path class="cls-1" d="M49.276,219.631c-.05.568-.145,1.255-.845,1.181a1.652,1.652,0,0,1-1.653-1.68C48.069,217.009,48.5,219.189,49.276,219.631Z" transform="translate(-40.114 -82.047)"/>
  <path class="cls-1" d="M96.739,224.894c.5.06.61.487.751.848.2.52-.088.809-.572.776s-.656-.432-.636-.884C96.3,225.315,96.3,224.963,96.739,224.894Z" transform="translate(-40.114 -82.047)"/>
  <path class="cls-1" d="M56.271,222.629c-2.333.07-4.665.994-7,0C52.167,219.861,52.167,219.861,56.271,222.629Z" transform="translate(-40.114 -82.047)"/>
  <path class="cls-1" d="M62.766,218.63c1.69-.524,3.341-.872,4.5,1C65.575,220.154,63.8,221.057,62.766,218.63Z" transform="translate(-40.114 -82.047)"/>
  <path class="cls-1" d="M62.266,222.624l-3,0c.394-.253,1.026-.432,1.133-.775.217-.693.432-1.335,1.236-1.107C62.6,221.019,62.156,221.956,62.266,222.624Z" transform="translate(-40.114 -82.047)"/>
  <path class="cls-1" d="M69.051,220.919c-.8.791-1.384.929-2.164.168A1.793,1.793,0,0,1,69.051,220.919Z" transform="translate(-40.114 -82.047)"/>
  <path class="cls-1" d="M58.75,219.29c-.095.405-.219.709-.6.74-.326.027-.729-.026-.6-.461.059-.2.47-.324.744-.4C58.386,219.141,58.794,218.878,58.75,219.29Z" transform="translate(-40.114 -82.047)"/>
  <path class="cls-1" d="M91.007,181.368c.084-1.164-.711-1.987-1.093-2.971a9.9,9.9,0,0,1-.406-6.017c1.247-.829,1.6.125,2,1,1.159,2.037,1.963,4.128,1,6.492a2.884,2.884,0,0,0,.913,2.353,2.121,2.121,0,0,1-.914,3.639C92.383,184.238,93.086,182.339,91.007,181.368Z" transform="translate(-40.114 -82.047)"/>
  <path class="cls-2" d="M92.506,179.87q-.5-3.246-1-6.492c.888-.509,1.665-1.442,2.868-.751s1.133,1.854,1.136,3.016C95.52,179.392,95.258,179.779,92.506,179.87Z" transform="translate(-40.114 -82.047)"/>
  <path class="cls-1" d="M41.9,177.2c-.015.575-.266.988-.858.985s-.858-.431-.919-.965a.959.959,0,0,1,.719-1.138C41.606,175.961,41.648,176.728,41.9,177.2Z" transform="translate(-40.114 -82.047)"/>
  <path class="cls-1" d="M41.131,188.524c.413.125.752.366.728.818a.928.928,0,0,1-1.147.913c-.482-.044-.656-.421-.565-.87A.964.964,0,0,1,41.131,188.524Z" transform="translate(-40.114 -82.047)"/>
  <path class="cls-1" d="M92.505,190.855c.071-.69-.231-1.472.5-2C94.743,190,93.045,190.282,92.505,190.855Z" transform="translate(-40.114 -82.047)"/>
  <path class="cls-1" d="M91.029,181.372c-.108.662-.228,1.124-.7,1.141-.176.006-.449-.446-.534-.732a.483.483,0,0,1,.511-.641A2.331,2.331,0,0,1,91.029,181.372Z" transform="translate(-40.114 -82.047)"/>
  <path class="cls-1" d="M113.982,130.178c-.063.529-.074,1.381-.823,1.151a2.561,2.561,0,0,1-2.056-2.437c0-.646.453-1.16,1.117-.978C113.3,128.21,114.228,128.762,113.982,130.178Z" transform="translate(-40.114 -82.047)"/>
  <path class="cls-1" d="M64.258,127.779c.708.066,1.4.434,1.426,1.117.04.858-.73,1.219-1.522,1.288a.885.885,0,0,1-1.077-1.02A1.3,1.3,0,0,1,64.258,127.779Z" transform="translate(-40.114 -82.047)"/>
  <path class="cls-1" d="M96.356,130.368c.607.176.812.526.772.948s-.44.4-.748.364c-.434-.046-.847-.206-.6-.753C95.888,130.678,96.2,130.516,96.356,130.368Z" transform="translate(-40.114 -82.047)"/>
  <path class="cls-1" d="M79.832,133.75c.293,1.664-1.457,1.2-2.036,1.953l0,0c-3.228.381-6.426,1.38-9.955.87.624-1.186,1.5-.615,1.971-1.016a1.974,1.974,0,0,0,.767-1.184c.016-.628-.639-.166-.958-.323-.577-.283-1.416-.2-1.686-.9a2.51,2.51,0,0,1,.383-2.369.629.629,0,0,1,.835-.3c1.044.432.2,1.524,1.017,2.506.744-2.935,3.238-3.6,5.865-4.822-2.178-.641-3.641,1.357-5.379.261,1.2-1.578,2.525-2.587,4.787-2.073.7.158,1.914.47,2.549-.252.845-.963,2.793-1.964.362-3.311.744-.841,1.129.173,2.006-.035-1.587-1.555-1.461-3.186.374-4.043,1.437-.67.655,1.338,1.743,1.88a9.948,9.948,0,0,1,3-4.7c-1.147-.638-1.371,1.078-2.189.258a2.03,2.03,0,0,1-.526-2.256,9.318,9.318,0,0,0,.508-2.415c.087-1.427,1.245-.977,1.5-.588,2.133,3.291,3.292-.69,3.32-.9.445-3.3,3.495-4.369,5.287-6.46.61-.711,1.482-1.081.612-2.193a.913.913,0,0,1,.382-1.461c.935-.387,1.8.236,2.641.452.821.21-.08,1.267-.11,1.3-1.324,1.392-.346,1.547.832,1.687,5.885.7,7.912,7.154,6.6,11.835-.329,1.177.322,2.721-1.379,3.346.693.787,1.973-.106,2.145,1.11.094.669-.444,1.07-.944,1.345a1.573,1.573,0,0,1-2.206-.445c-.253-.336-.623-.886-.93-.679-3.082,2.082-6.079-.31-9.112-.111-.89.059-1.966-.068-.534,1.089-1.232.662-.914,3.007-3.035,2.764-.3-.035-.669.446-1,.688l-.237-.276c.073-1.934,1.348-3.331,2.245-4.881.56-.969,1.6-.665,2.5-.576,2.3.228,4.571.723,6.911.024,2.893-.865,4.317-2.543,4.385-5.569a8.528,8.528,0,0,0-3.7-7.25c-2.237-1.692-4.426-1.463-6.5.519-3.267,3.116-4.853,7.311-6.962,11.144a91.4,91.4,0,0,1-5.686,9.064,11.625,11.625,0,0,1-5.979,4.661c-1.2.379-2.242,1.031-1.831,2.485.44,1.556,1.769,1.534,3.069,1.33,1.4-.22,2.491-1.368,3.973-1.367Q79.673,133.659,79.832,133.75Z" transform="translate(-40.114 -82.047)"/>
  <path class="cls-1" d="M85.813,126.749c-1.352,1.985.349,3.861.282,5.835-.043,1.259-.19,1.558-1.352,1.644a29.585,29.585,0,0,1-4.911-.478l-.068-.073a1.011,1.011,0,0,1,.271-1.134c2.032-1.785,3.242-4.322,5.457-5.935C85.6,126.654,85.706,126.7,85.813,126.749Z" transform="translate(-40.114 -82.047)"/>
  <path class="cls-1" d="M108.268,111.589c-.093,1.128-.6,1.883-1.581,2.024a1.117,1.117,0,0,1-1.206-1.435c.176-.842.036-2.218,1.383-2.212C107.731,109.969,108.135,110.843,108.268,111.589Z" transform="translate(-40.114 -82.047)"/>
  <path class="cls-1" d="M112.742,137.576c.041,1.246-1.028.834-1.6,1.055-.878.336-1.085-.281-1.18-1.028-.122-.964.63-1.176,1.2-1.221A1.377,1.377,0,0,1,112.742,137.576Z" transform="translate(-40.114 -82.047)"/>
  <path class="cls-1" d="M77.8,135.7h4.153l-.047.754c-1.385-.029-2.862,1.244-4.109-.751Z" transform="translate(-40.114 -82.047)"/>
  <path class="cls-1" d="M87.331,124.262c-.145,1.018-.5,2.053.777,3.255l-2.3-.768-.087-.082c-.405-1.39-.018-2.29,1.532-2.469Z" transform="translate(-40.114 -82.047)"/>
  <path class="cls-1" d="M89.8,125.34a1.772,1.772,0,0,1,1.116-1.831Z" transform="translate(-40.114 -82.047)"/>
  <path class="cls-1" d="M87.291,128.781c-.381.108-.624.262-.761.195-.166-.08-.243-.346-.358-.532.147-.058.321-.195.434-.156A3.335,3.335,0,0,1,87.291,128.781Z" transform="translate(-40.114 -82.047)"/>
  <path class="cls-3" d="M87.258,124.2a4.633,4.633,0,0,0-1.531,2.47l-5.963,7.009c-1.638.783-3.122,1.918-5.036,2.062-1.635.123-2.878-.4-3.138-2.105a2.438,2.438,0,0,1,2.177-3.045c2.425-.479,4.087-2.063,5.579-3.93,4.3-5.372,6.9-11.746,10.487-17.537.219-.353.405-.727.636-1.073,2.358-3.534,4.427-4.622,7.323-3.863,2.922.766,5.573,4.068,5.912,7.363.5,4.83-1.3,7.153-6.137,7.85a11.762,11.762,0,0,1-2.724.149C89.543,119.061,89.544,119.041,87.258,124.2Z" transform="translate(-40.114 -82.047)"/>
  <path class="cls-4" d="M95.563,114.259c-.667-.437-2.242.77-2.4-1.008-.1-1.16,2.568-4.145,3.386-3.938,1.6.405,2.168,1.737,2.295,3.2C98.97,113.928,98.272,114.27,95.563,114.259Z" transform="translate(-40.114 -82.047)"/>
  <line class="cls-5" x1="36.452" y1="9.932" x2="62.864" y2="2"/>
</svg>
