<svg width="34" height="54" viewBox="0 0 34 54" fill="none" xmlns="http://www.w3.org/2000/svg">
<path d="M16.144 42.153C15.382 42.7908 14.8452 43.6568 14.613 44.623L8.65 51.632C7.012 52.415 5.528 53.55 3.614 53.694C1.979 53.817 0.735998 53.294 0.475998 51.589C0.3861 51.2435 0.373204 50.8824 0.43821 50.5313C0.503215 50.1802 0.644539 49.8477 0.852196 49.5573C1.05985 49.2668 1.32877 49.0255 1.63995 48.8504C1.95112 48.6753 2.29695 48.5707 2.653 48.544C5.078 48.065 6.74 46.481 8.232 44.614C12.532 39.242 15.132 32.868 18.719 27.077C18.938 26.724 19.124 26.35 19.355 26.004C21.713 22.47 23.782 21.382 26.678 22.141C29.6 22.907 32.251 26.209 32.59 29.504C33.09 34.334 31.29 36.657 26.453 37.354C25.5539 37.5092 24.6397 37.5592 23.729 37.503C18.429 37.014 18.43 36.994 16.144 42.153Z" fill="#AB7C8E"/>
<path d="M24.449 32.212C23.782 31.775 22.207 32.982 22.049 31.204C21.949 30.044 24.617 27.059 25.435 27.266C27.035 27.671 27.603 29.003 27.73 30.466C27.856 31.881 27.158 32.223 24.449 32.212Z" fill="#F5EFF3"/>
<path d="M5.45203 9.932L31.864 2" stroke="#AA7C8E" stroke-width="4" stroke-linecap="round" stroke-linejoin="round"/>
</svg>
