<svg id="Layer_1" data-name="Layer 1" xmlns="http://www.w3.org/2000/svg" viewBox="0 0 57.441 195.205">
  <defs>
    <style>
      .cls-1 {
        fill: #fbfcfd;
      }

      .cls-2 {
        fill: #fcfdfe;
      }

      .cls-3 {
        fill: #fcfdfd;
      }

      .cls-4 {
        fill: #fcf6e5;
      }

      .cls-5 {
        fill: #fcf7ea;
      }

      .cls-6 {
        fill: #fdfbf3;
      }

      .cls-7 {
        fill: #e9ba75;
      }

      .cls-8 {
        fill: #ecab54;
      }

      .cls-9 {
        fill: #efae59;
      }

      .cls-10 {
        fill: #f2aa46;
      }

      .cls-11 {
        fill: #f0aa4c;
      }

      .cls-12 {
        fill: #eeaa4e;
      }

      .cls-13 {
        fill: #f0aa4a;
      }

      .cls-14 {
        fill: none;
        stroke: #efaa4d;
        stroke-linecap: round;
        stroke-linejoin: round;
        stroke-width: 4px;
      }
    </style>
  </defs>
  <path class="cls-1" d="M88.248,222.629c-1.59,1.012-3.361.5-5.019.443-2.824-.087-5.7.626-8.475-.441Z" transform="translate(-40.114 -31.316)"/>
  <path class="cls-1" d="M49.276,219.631c-.05.568-.145,1.255-.845,1.181a1.652,1.652,0,0,1-1.653-1.68C48.069,217.009,48.5,219.189,49.276,219.631Z" transform="translate(-40.114 -31.316)"/>
  <path class="cls-1" d="M96.739,224.894c.5.06.61.487.751.848.2.52-.088.809-.572.776s-.656-.432-.636-.884C96.3,225.315,96.3,224.963,96.739,224.894Z" transform="translate(-40.114 -31.316)"/>
  <path class="cls-1" d="M56.271,222.629c-2.333.07-4.665.994-7,0C52.167,219.861,52.167,219.861,56.271,222.629Z" transform="translate(-40.114 -31.316)"/>
  <path class="cls-1" d="M62.766,218.63c1.69-.524,3.341-.872,4.5,1C65.575,220.154,63.8,221.057,62.766,218.63Z" transform="translate(-40.114 -31.316)"/>
  <path class="cls-1" d="M62.266,222.624l-3,0c.394-.253,1.026-.432,1.133-.775.217-.693.432-1.335,1.236-1.107C62.6,221.019,62.156,221.956,62.266,222.624Z" transform="translate(-40.114 -31.316)"/>
  <path class="cls-1" d="M69.051,220.919c-.8.791-1.384.929-2.164.168A1.793,1.793,0,0,1,69.051,220.919Z" transform="translate(-40.114 -31.316)"/>
  <path class="cls-1" d="M58.75,219.29c-.095.405-.219.709-.6.74-.326.027-.729-.026-.6-.461.059-.2.47-.324.744-.4C58.386,219.141,58.794,218.878,58.75,219.29Z" transform="translate(-40.114 -31.316)"/>
  <path class="cls-1" d="M91.007,181.368c.084-1.164-.711-1.987-1.093-2.971a9.9,9.9,0,0,1-.406-6.017c1.247-.829,1.6.125,2,1,1.159,2.037,1.963,4.128,1,6.492a2.884,2.884,0,0,0,.913,2.353,2.121,2.121,0,0,1-.914,3.639C92.383,184.238,93.086,182.339,91.007,181.368Z" transform="translate(-40.114 -31.316)"/>
  <path class="cls-2" d="M92.506,179.87q-.5-3.246-1-6.492c.888-.509,1.665-1.442,2.868-.751s1.133,1.854,1.136,3.016C95.52,179.392,95.258,179.779,92.506,179.87Z" transform="translate(-40.114 -31.316)"/>
  <path class="cls-1" d="M41.9,177.2c-.015.575-.266.988-.858.985s-.858-.431-.919-.965a.959.959,0,0,1,.719-1.138C41.606,175.961,41.648,176.728,41.9,177.2Z" transform="translate(-40.114 -31.316)"/>
  <path class="cls-1" d="M41.131,188.524c.413.125.752.366.728.818a.928.928,0,0,1-1.147.913c-.482-.044-.656-.421-.565-.87A.964.964,0,0,1,41.131,188.524Z" transform="translate(-40.114 -31.316)"/>
  <path class="cls-1" d="M92.505,190.855c.071-.69-.231-1.472.5-2C94.743,190,93.045,190.282,92.505,190.855Z" transform="translate(-40.114 -31.316)"/>
  <path class="cls-1" d="M91.029,181.372c-.108.662-.228,1.124-.7,1.141-.176.006-.449-.446-.534-.732a.483.483,0,0,1,.511-.641A2.331,2.331,0,0,1,91.029,181.372Z" transform="translate(-40.114 -31.316)"/>
  <path class="cls-3" d="M88.788,97.964c-1.195.238-2.773-1.517-3.674.833-.14.363-2.741.752-2.8-.713-.053-1.381-.741-1.092-1.346-1.249a1.133,1.133,0,0,0-1.5,1.182c.012,1.109-.64.94-1.284.941-9.014,0-18.027.045-27.04-.034-1.571-.014-4.35,1.033-3.38-2.575a.445.445,0,0,0-.626-.505c-2,.729-3.87-.371-5.815-.376.518-1.147,1.676-1.654,2.5-2.5,2.713,0,5.439.172,8.135-.039,4.311-.339,8.406,1.513,12.746.992,1.773-.213,3.57.26,5.215-.956,1.283-.949,2.905-.427,4.379-.483a37.183,37.183,0,0,0,4.654-.273A4.677,4.677,0,0,1,75.8,88.477c1.576-2.066,1.7-2.1,2.8-.8.014.313-.064.917,0,.9,2.032-.411,2.411,1.695,3.7,2.39h2c1.32-.523,1.691.185,1.726,1.326-1.132,1.366-2.915-.147-4.122.953,1.447.344,3.08-.408,4.394.717a3.363,3.363,0,0,1,2-.5,1.542,1.542,0,0,1,1.5.5,1.031,1.031,0,0,1-.5,1c-.383.481-.947.595-2,.88a5.112,5.112,0,0,1,1.854.427c.485.327.987.682.78,1.355C89.736,98.226,89.3,98.3,88.788,97.964Z" transform="translate(-40.114 -31.316)"/>
  <path class="cls-1" d="M58.812,67.505c-.259,1.268.8,3.1-1.5,3.5-1.011,0-.449-.556-.242-1.274-.925,1.5-.494,2.868-.634,4.149-.121,1.109.28,2.325-.69,3.257a.952.952,0,0,1-.736-.14c-1.458-1.83-.743-3.9-.669-5.9.089-2.381,1.292-4.567,1.171-6.973-.1-.772.593-1.344.552-2.115.207-.249-.295-.409-.188-.144.169.415-.249.629-.566.825-1.957-.554-3.732-.577-4.893,1.511a.835.835,0,0,1-1.1.317c-.394-.644-2.105-1.089-1.376-1.565,1.4-.914-.013-4.029,2.872-3.431a4.118,4.118,0,0,0,3.961-.082,2.317,2.317,0,0,1,2.534.082,1.716,1.716,0,0,0,1-1c.654-.626,1.371-.2,1.95-.159-1.656-.525-1.656-.525-1.95-2.837.928-1.414.052-3.028.5-4.494a5.9,5.9,0,0,1,1.5-1.5c1.462-1.612,2.352.01,3.053.765.914.983,1.674.235,2.5.218,1.35-.028.344-1.184.875-1.818.9.749.9,2.266,2.237,2.621.4.108.347.855-.073,1-1.447.51-1.025,1.688-1.094,2.7.453.419,1.723.3,1,1.5a.743.743,0,0,0-.248,1.023c.182.424.438.975-.16,1.2-.552.213-.65-.585-1.091-.73a2.544,2.544,0,0,1-2.5,0h-.5c-.583.959-1.669.659-2.5,1-1.346.639-3.119.424-4,2,.415.445,1.381.523,1,1.5.173,1-.808,2,0,3C58.7,66.173,57.508,66.839,58.812,67.505Z" transform="translate(-40.114 -31.316)"/>
  <path class="cls-2" d="M69.3,78.49c-.673-.314-1.282-1.007-.94-1.552,1.042-1.664-1.462-4.284,1.676-5.475.821-.311.02-2.3.866-3.446s.272-2.143-.7-3.241c-1.517-1.711.182-7.623,2.3-8.525a2.4,2.4,0,0,1,2.791.268c.309.466.013.84-.182,1.231a14.705,14.705,0,0,1-.931,1.368c-.128.182-.268.354-.409.526-.578,1.778-.384,3.728-1.283,5.43-.1.308.405.18.082.1-.084-.022-.037-.091.008-.246.2-.7.523-1.205,1.38-.97.2.16.45.351.452.573.038,4.157,1.274,8.331-.14,12.472a5.411,5.411,0,0,0-1,3.027c-.232.7-.461,1.4-1.306,1.591C70.78,80.832,70.747,79.061,69.3,78.49Z" transform="translate(-40.114 -31.316)"/>
  <path class="cls-4" d="M49.322,64.511c.3-.276.7-.5.883-.837,1.262-2.4,2.982-2.628,5.1-1.154a1.048,1.048,0,0,1,.5.992c1.4,2.623-.872,4.858-.8,7.4.061,2.029-.529,4.078.3,6.079.9.651.952,1.741,1.375,2.64.179.3.357.606.524.918a2.14,2.14,0,0,1,.256,1.813.663.663,0,0,1-.714.231c-2.449-1.447-2.788-3.967-3.045-6.4a32.359,32.359,0,0,1,.052-7.134c.179-1.657,1.567-3.235.327-4.987-.179-.149-.348-.3-.521-.458-1.479-.742-2.095.347-2.371,1.365-1.716,6.335-2.052,12.605,1.312,18.594a7.776,7.776,0,0,0,1.3,1.737c4.515,5.586,16.6,6.184,21.649-.134.448-.562.873-1.253,1.738-1.307a1.1,1.1,0,0,1,.491.559,1.954,1.954,0,0,1-.667,2.415c-1.583.965-2.669,2.609-4.494,3.219-.535.3-1.229-.063-1.724.41-.166,0-.332,0-.5,0a14.294,14.294,0,0,1-11.991-.006c-1.387.277-2-1-2.992-1.5a1.739,1.739,0,0,1-1-1c-.355-.65-1.585-.413-1.515-1.494-.42-.385-1.045-.493-1.369-1.009a12.131,12.131,0,0,1-2.611-5.487l-.027-3.48a17.428,17.428,0,0,1,.024-9v-.5c-.615-.989.035-1.723.5-2.495Z" transform="translate(-40.114 -31.316)"/>
  <path class="cls-5" d="M57.3,82.532l.028-.557a.728.728,0,0,1,.6-.088c.583.226,1.1.6,1.684.817a12.623,12.623,0,0,0,2.742.772,5.641,5.641,0,0,1,.632.151,8.152,8.152,0,0,0,3.847.084c.2-.079.408-.145.613-.215,1.133-.439,2.016-1.3,3.095-1.829.4-.2.794-.471,1.267-.19q.5-.745,1-1.489c.5-.942.061-2.2.994-3A17.5,17.5,0,0,0,74,69.722c-.318-1.852.444-3.817-.206-5.708-.738-1.666-1.259-3.332,0-5h0c3.487-2.329,5.906-1.135,6.232,3.084a1.472,1.472,0,0,0,.261.911l.013,1.5c.9,3.268,2.387,6.45,1.487,9.987h0c-.755.454-.585,1.372-1,2-.892.879-.338,2-.5,3q.26.166.173.333c-.058.111-.116.166-.175.166,0,.166,0,.332,0,.5-.369,1.064-1.163,1.916-1.5,3h0c-.308.588-.564,1.252-1.45,1.024l-.046-.519a2.4,2.4,0,0,1,.14-2.16c2.673-6.151,1.851-12.519,1.074-18.85-.148-1.21-.21-3.363-2.19-2.958s-1.394,2.366-1.1,3.763a29.734,29.734,0,0,1-.3,15.008,8.808,8.808,0,0,1-6.842,6.533,14.286,14.286,0,0,1-8.81-.6C58.27,84.3,57.188,83.949,57.3,82.532Z" transform="translate(-40.114 -31.316)"/>
  <path class="cls-1" d="M48.823,79.985l2.994,5.5c-.685,1.852-2.005,3.325-3,4.993-1.534-1.05-2.412-2.171-.353-3.57,1.143-.776,1-1.637.084-2.417C46.615,82.835,47.248,81.4,48.823,79.985Z" transform="translate(-40.114 -31.316)"/>
  <path class="cls-2" d="M55.814,76.992c.035-2.9-.3-5.839.966-8.59,1.178.633-.031,1.807.533,2.6-.18,2.355,1.71,4.562.5,6.991-.458.887-1.025.746-1.638.175C55.976,77.8,55.5,77.518,55.814,76.992Z" transform="translate(-40.114 -31.316)"/>
  <path class="cls-1" d="M77.344,84.508l1.45-1.024c1.179,1.46.775,3.4,1.5,4.993-.755.186-1.638.888-2-.5-.127-.6-.3-1.238-.974-.435a1.972,1.972,0,0,1-1.524.934c-.912.087-.288,1.709-1.5,1.5a1.52,1.52,0,0,1-2,0c1.265-1.01,2.478-2.1,3.813-3A2.5,2.5,0,0,0,77.344,84.508Z" transform="translate(-40.114 -31.316)"/>
  <path class="cls-1" d="M62.808,83.983l-.5-.005c-.423-.384-1.111-.481-1.26-1.164.026-.482.02-1,.759-.828,1-1.22,2-.518,3,0a4.161,4.161,0,0,1,1.935-1.079c.734-.195,1.589-1.049,2.232-.1.616.91-.1,1.721-.674,2.438a4.964,4.964,0,0,1-.995.737v0A8.97,8.97,0,0,1,62.808,83.983Z" transform="translate(-40.114 -31.316)"/>
  <path class="cls-2" d="M67.305,83.983c.526-.964,1.473-1.737,1.435-3.14-1.392.378-2.542,1.228-3.933,1.143.393-2.336,2.424-2.049,4-2.5,2.339-.505,2.3.891,1.994,2.494C69.644,82.668,68.868,84.012,67.305,83.983Z" transform="translate(-40.114 -31.316)"/>
  <path class="cls-3" d="M58.312,90.472c.655.027,1.43-.164,1.944.118,2.8,1.541,5.556.7,8.339.037a11.486,11.486,0,0,1,1.708-.149c-.48,1.29-1.5,2.209-2.77,1.885-2.38-.609-4.75-.278-7.12-.377C59.33,91.941,58.415,91.808,58.312,90.472Z" transform="translate(-40.114 -31.316)"/>
  <path class="cls-3" d="M48.82,90.474c.078-2.216,1.521-3.615,3-4.993a1.693,1.693,0,0,1,.986,1c-1.408.616-1.3,2.078-1.657,3.219-.11.353,1.135,1.066.2,1.57A1.721,1.721,0,0,1,48.82,90.474Z" transform="translate(-40.114 -31.316)"/>
  <path class="cls-1" d="M81.794,74.5a11.018,11.018,0,0,0-1.163-6.363c-.629-1.114-.26-2.409-.324-3.624,1.328.945,1.471,3.029,3.336,3.484.091.022.148.656.108.669-3.216,1.073-.336,4.052-1.781,5.659C81.915,74.382,81.852,74.437,81.794,74.5Z" transform="translate(-40.114 -31.316)"/>
  <path class="cls-1" d="M48.82,67.505l-.024,9c-.335.027-.87,1.264-.969-.13-.178-2.507.3-5.036-.391-7.54C47.2,67.98,47.991,67.575,48.82,67.505Z" transform="translate(-40.114 -31.316)"/>
  <path class="cls-2" d="M61.81,81.986a1.03,1.03,0,0,0-.5,1,1.919,1.919,0,0,1-2,0,1.523,1.523,0,0,1-1.5-1l.07-.237c.063-.3-.154-.453-.323-.638a1.716,1.716,0,0,1-.418-.754,1.892,1.892,0,0,1,1.173-1.367C59.567,79.884,61.043,80.521,61.81,81.986Z" transform="translate(-40.114 -31.316)"/>
  <path class="cls-1" d="M80.3,79.988l0-.5A3.463,3.463,0,0,0,82.66,76.9a9.416,9.416,0,0,1,1.863,1.28,1.546,1.546,0,0,1,.061,1.867,1.1,1.1,0,0,1-1.746.106C81.977,79.31,81.146,79.9,80.3,79.988Z" transform="translate(-40.114 -31.316)"/>
  <path class="cls-6" d="M80.294,63.011c-.111-.12-.287-.224-.322-.364-1.1-4.41-1.764-4.8-6.171-3.631l1-1.5a2.714,2.714,0,0,1,3-.5h0a6.625,6.625,0,0,1,2,1.5C79.908,60.021,80.54,61.467,80.294,63.011Z" transform="translate(-40.114 -31.316)"/>
  <path class="cls-2" d="M86.29,92.971l-.5-.5a1.4,1.4,0,0,0-1.5-1.5,2.4,2.4,0,0,1,1.489-1.226c.924-.392,1.87-.488,2.332.581a1.437,1.437,0,0,1-1.008,2.136A3.809,3.809,0,0,0,86.29,92.971Z" transform="translate(-40.114 -31.316)"/>
  <path class="cls-2" d="M57.313,59.515a12.32,12.32,0,0,0-3.1.648c-1.067.507-2.535.941-3.393-.648,1.421-.433,2.951-.34,4.322-1.108C56.206,57.809,57.027,58.283,57.313,59.515Z" transform="translate(-40.114 -31.316)"/>
  <path class="cls-2" d="M60.311,49.529a1.406,1.406,0,0,1-1.5,1.5,2.816,2.816,0,0,0-.243-.426c-.605-.737-1.224-1.563-.135-2.284C59.789,47.419,59.637,49.182,60.311,49.529Z" transform="translate(-40.114 -31.316)"/>
  <path class="cls-3" d="M54.318,87.975l1,1c-1.082.37.446,2.18-1.207,2.205-.551.008-.876-.46-1.086-.893C52.372,88.934,53.815,88.708,54.318,87.975Z" transform="translate(-40.114 -31.316)"/>
  <path class="cls-2" d="M78.3,87.978c.525.73,1.308.429,2,.5a4.461,4.461,0,0,1,2,2.5,2.327,2.327,0,0,1-1.912-1.32c-.367-.563-.8-.844-1.387-.379-.377.3-.721.853-1.183.306C77.243,88.908,77.809,88.419,78.3,87.978Z" transform="translate(-40.114 -31.316)"/>
  <path class="cls-1" d="M70.8,81.983c-.322-1.105-.335-2.457-1.994-2.494l.5-1c2.2-.15,2.145,1.59,2.5,2.987Z" transform="translate(-40.114 -31.316)"/>
  <path class="cls-1" d="M79.749,51.355c-.134.485-.3.972-.946.821a1.1,1.1,0,0,1-.923-1.425c.124-.595.594-.725,1.106-.658C79.734,50.191,79.8,50.75,79.749,51.355Z" transform="translate(-40.114 -31.316)"/>
  <path class="cls-1" d="M58.312,78.99c.081.774-.692.979-1,1.5a.3.3,0,0,1-.5,0l-.5-.5a1.96,1.96,0,0,1,0-2,1.325,1.325,0,0,0,1.5,0A1.031,1.031,0,0,1,58.312,78.99Z" transform="translate(-40.114 -31.316)"/>
  <path class="cls-2" d="M58.312,55.521c.838.779.216,2.615,2.309,2.552-.936.673-1.652.337-2.309.444C57.169,57.518,58.335,56.519,58.312,55.521Z" transform="translate(-40.114 -31.316)"/>
  <path class="cls-2" d="M61.81,59.016c.511-1.136,1.711-.551,2.5-1C64.026,59.727,63.231,60.155,61.81,59.016Z" transform="translate(-40.114 -31.316)"/>
  <path class="cls-2" d="M64.807,58.017c.833-.082,1.665-.7,2.5,0C66.472,59.9,65.64,59.064,64.807,58.017Z" transform="translate(-40.114 -31.316)"/>
  <path class="cls-2" d="M58.812,67.505c-.661-.127-1.756.349-1.795-.622-.017-.434,1.16-.916,1.795-1.376Z" transform="translate(-40.114 -31.316)"/>
  <path class="cls-3" d="M72.3,89.973l2,0c-.876,2.205-2.42-.269-3.5.5C71.162,89.9,71.749,89.991,72.3,89.973Z" transform="translate(-40.114 -31.316)"/>
  <path class="cls-1" d="M79.8,58.517a2.362,2.362,0,0,1-2-1.5C78.867,56.98,79.949,56.925,79.8,58.517Z" transform="translate(-40.114 -31.316)"/>
  <path class="cls-1" d="M78.8,83.484c-.117-1.308.738-2.13,1.5-3C80.419,81.8,79.564,82.619,78.8,83.484Z" transform="translate(-40.114 -31.316)"/>
  <path class="cls-1" d="M80.792,76.493c.486-.589-1.016-2.175,1-2A2.724,2.724,0,0,1,80.792,76.493Z" transform="translate(-40.114 -31.316)"/>
  <path class="cls-1" d="M77.8,57.019c-1.056-.177-2,.335-3,.5l.5-1C76.14,56.641,77.1,56.186,77.8,57.019Z" transform="translate(-40.114 -31.316)"/>
  <path class="cls-2" d="M58.812,62.511l-1-1.5C58.845,61.047,59.847,61.1,58.812,62.511Z" transform="translate(-40.114 -31.316)"/>
  <path class="cls-1" d="M49.322,64.51l-.5,2.495C47.909,65.957,48.246,65.159,49.322,64.51Z" transform="translate(-40.114 -31.316)"/>
  <path class="cls-2" d="M68.8,56.519c.081-.775-.694-.98-1-1.5C68.837,55.055,69.839,55.109,68.8,56.519Z" transform="translate(-40.114 -31.316)"/>
  <path class="cls-7" d="M64.893,53.809c-.408,1.4-.806,2.643-2.33,2.711a2.322,2.322,0,0,1-2.5-2.507,2.278,2.278,0,0,1,2.3-2.451C63.828,51.556,64.373,52.756,64.893,53.809Z" transform="translate(-40.114 -31.316)"/>
  <path class="cls-2" d="M55.811,63.512a1.048,1.048,0,0,1-.5-.992c.23-.518.459-1.036.762-1.72C56.463,61.867,57.306,62.789,55.811,63.512Z" transform="translate(-40.114 -31.316)"/>
  <path class="cls-6" d="M56.316,77.991l0,2c-.738-.864-.654-2-1-3l.5,0Z" transform="translate(-40.114 -31.316)"/>
  <path class="cls-6" d="M73.8,59.017c-.936,1.665.07,3.331,0,5-.944.3-.886,1.233-1.194,2C72.144,63.472,72.753,59.989,73.8,59.017Z" transform="translate(-40.114 -31.316)"/>
  <path class="cls-6" d="M71.209,61.024c.755.848.642,1.414.22,1.982-.158.012-.391.079-.423.025C70.638,62.418,70.783,61.841,71.209,61.024Z" transform="translate(-40.114 -31.316)"/>
  <path class="cls-6" d="M73.794,76.989c-.337,1-.253,2.135-.994,3C72.892,78.909,72.421,77.644,73.794,76.989Z" transform="translate(-40.114 -31.316)"/>
  <path class="cls-8" d="M57.3,82.532c3.277,3.189,7.261,2.882,11.192,1.985,3.165-.722,4.99-3.019,5.868-6.161a29.945,29.945,0,0,0,.277-14.065,17.5,17.5,0,0,1-.33-3.211,1.9,1.9,0,0,1,1.8-2.029,1.95,1.95,0,0,1,2.374,1.341,18.829,18.829,0,0,1,.808,3.129c.96,6.975,1.425,13.914-1.991,20.468C71.527,92.717,58.452,91.5,53.659,86.16a5.907,5.907,0,0,1-.422-.607c.093-.086.186-.171.279-.258,1.482-.206,2.417.913,3.545,1.517a19.927,19.927,0,0,0,6.812,1.981c3.582.491,6.584-.98,9.348-3.073a4.627,4.627,0,0,1,.828-.709c1.646-1.439,1.646-1.439,1.21-4.764a11.193,11.193,0,0,1-6.939,6.4c-2.372.711-5.2.063-7.806-.45-1.92-.377-3.48-1.855-5.563-1.679a.848.848,0,0,1-.866-.76c.043-2.028-1.234-1.305-2.258-1.141a2.628,2.628,0,0,1-1.079-2.238c1.077-2.519,1.011-5.185,1.02-7.844a5.445,5.445,0,0,0-1.329-3.39A8.343,8.343,0,0,1,50.63,65.5c.458-2.175,1.408-2.649,3.73-2.031h0c1.014,1.715.167,3.431,0,5.147.12,3.273-.542,6.577.425,9.82C55.262,80.034,55.805,81.567,57.3,82.532Z" transform="translate(-40.114 -31.316)"/>
  <path class="cls-9" d="M54.36,63.468c-3.026.136-3.5.611-3.54,3.6-.012.812,0,1.624,0,2.435.02.124.04.248.062.372.148,2.108-.966,4.2-.048,6.319.278,1.425.953,2.85.012,4.276l.985,2.018a1.122,1.122,0,0,1,.763,1.044.873.873,0,0,1-.335.572c-3.152-4.291-3.11-9.227-2.748-14.18a23.6,23.6,0,0,1,1.071-5.315C51.273,62.417,52.609,62.092,54.36,63.468Z" transform="translate(-40.114 -31.316)"/>
  <path class="cls-9" d="M54.36,68.614q0-2.574,0-5.147C56.268,65.181,54.792,66.9,54.36,68.614Z" transform="translate(-40.114 -31.316)"/>
  <path class="cls-8" d="M52.259,84.1l.065-.622c1.259.177,1.455.908,1.026,1.965l-.113.106A2.026,2.026,0,0,1,52.259,84.1Z" transform="translate(-40.114 -31.316)"/>
  <path class="cls-6" d="M56.811,80.49l.5,0,.5.5a.677.677,0,0,1,0,1H57.81c-.162,0-.323,0-.484-.011Q57.068,81.233,56.811,80.49Z" transform="translate(-40.114 -31.316)"/>
  <path class="cls-6" d="M62.808,83.983l4.5,0A4.577,4.577,0,0,1,62.808,83.983Z" transform="translate(-40.114 -31.316)"/>
  <path class="cls-6" d="M59.311,82.986l2,0,1,.994A4.7,4.7,0,0,1,59.311,82.986Z" transform="translate(-40.114 -31.316)"/>
  <path class="cls-1" d="M57.816,81.986l0-1c.381.115,1.068-.266,1.082.4C58.908,81.925,58.267,81.931,57.816,81.986Z" transform="translate(-40.114 -31.316)"/>
  <path class="cls-10" d="M62.24,52.145c.989.356,1.547.93,1.532,1.849-.017,1-.527,1.846-1.583,1.8a1.434,1.434,0,0,1-1.282-1.564A2.373,2.373,0,0,1,62.24,52.145Z" transform="translate(-40.114 -31.316)"/>
  <path class="cls-11" d="M53.35,85.447a3,3,0,0,0-1.026-1.965q-.246-.5-.494-.994c.74-1.082,1.94-1.081,3.065-1.319.625.8-.384,1.129-.478,1.708-.086.528.2,1.369.462,1.2,2.431-1.552,3.7,1.187,5.623,1.567,2.212.437,4.411.059,6.609.584,1.666.4,3.283-1.139,4.46-2.188,1.647-1.468,3.61-3.047,3.331-6.033,2.077,3.147,1.746,6.035-.6,7.47-.484-.213-.26-1.249-.654-1.051-.868.437-.317,1.06.153,1.55-3.837,3.242-7.88,4.336-13.011,2.829C58.045,88,55.88,86.429,53.35,85.447Z" transform="translate(-40.114 -31.316)"/>
  <path class="cls-12" d="M78.131,80.148a13.4,13.4,0,0,1-1.88-6.782c.159-3.545.395-7.144-1.238-10.512a2.216,2.216,0,0,1,.158-2.373c.652-.859,1.541-1.38,2.023.011,1.832,5.289,3.191,10.632,1.331,16.258A16.493,16.493,0,0,0,78.131,80.148Z" transform="translate(-40.114 -31.316)"/>
  <path class="cls-13" d="M50.846,80.47l-.527-4.476c-.72-2.232.354-4.326.5-6.491h0c1.341.093,1.414,1.021,1.522,2.086a24.236,24.236,0,0,1-.485,7.728C51.72,79.937,51.578,80.429,50.846,80.47Z" transform="translate(-40.114 -31.316)"/>
  <path class="cls-12" d="M73.8,85.98c-.683-.071-1.819.125-1.543-.9.159-.592.87-1.785,1.716-1.627,1.381.257.179,1.336.328,2.03Z" transform="translate(-40.114 -31.316)"/>
  <path class="cls-8" d="M50.819,69.5l-.5,6.491C49.166,73.728,50.1,71.624,50.819,69.5Z" transform="translate(-40.114 -31.316)"/>
  <line class="cls-14" x1="12.326" y1="9.932" x2="38.738" y2="2"/>
</svg>
