<svg width="32" height="60" viewBox="0 0 32 60" fill="none" xmlns="http://www.w3.org/2000/svg">
<path d="M15.779 22.493C15.371 23.893 14.973 25.136 13.449 25.204C13.1132 25.231 12.7756 25.1846 12.4596 25.068C12.1435 24.9515 11.8566 24.7676 11.6188 24.5291C11.3809 24.2905 11.1978 24.0031 11.0822 23.6868C10.9665 23.3704 10.921 23.0327 10.949 22.697C10.9249 22.3818 10.9668 22.065 11.0718 21.7668C11.1769 21.4686 11.3429 21.1956 11.5592 20.965C11.7756 20.7345 12.0375 20.5515 12.3284 20.4277C12.6194 20.3039 12.9328 20.242 13.249 20.246C14.714 20.24 15.259 21.44 15.779 22.493Z" fill="#E9BA75"/>
<path d="M8.18598 51.216C11.463 54.405 15.447 54.098 19.378 53.201C22.543 52.479 24.368 50.182 25.246 47.04C26.4539 42.4402 26.5488 37.6188 25.523 32.975C25.3143 31.9171 25.2038 30.8422 25.193 29.764C25.1755 29.5121 25.2085 29.2592 25.2899 29.0201C25.3713 28.781 25.4995 28.5606 25.6671 28.3717C25.8347 28.1828 26.0383 28.0292 26.2659 27.9198C26.4936 27.8105 26.7408 27.7477 26.993 27.735C27.4854 27.604 28.0096 27.671 28.4533 27.9216C28.897 28.1722 29.225 28.5866 29.367 29.076C29.7255 30.0939 29.9958 31.1408 30.175 32.205C31.135 39.18 31.6 46.119 28.184 52.673C22.413 61.401 9.33798 60.184 4.54498 54.844C4.39178 54.6507 4.25084 54.4479 4.12298 54.237C4.21598 54.151 4.30898 54.066 4.40198 53.979C5.88398 53.773 6.81898 54.892 7.94698 55.496C10.0809 56.5585 12.3881 57.2294 14.759 57.477C18.341 57.968 21.343 56.497 24.107 54.404C24.3541 54.1359 24.632 53.8979 24.935 53.695C26.581 52.256 26.581 52.256 26.145 48.931C25.5243 50.4388 24.5818 51.7928 23.3832 52.8983C22.1846 54.0038 20.759 54.834 19.206 55.331C16.834 56.042 14.006 55.394 11.4 54.881C9.47998 54.504 7.91998 53.026 5.83698 53.202C5.62345 53.2077 5.41564 53.1326 5.25508 52.9917C5.09453 52.8508 4.99307 52.6545 4.97098 52.442C5.01398 50.414 3.73698 51.137 2.71298 51.301C2.3625 51.0459 2.08057 50.708 1.89231 50.3176C1.70405 49.9271 1.6153 49.4961 1.63398 49.063C2.71098 46.544 2.64498 43.878 2.65398 41.219C2.61313 39.97 2.14388 38.773 1.32498 37.829C1.11883 36.6148 1.18406 35.37 1.51598 34.184C1.97398 32.009 2.92398 31.535 5.24598 32.153C6.25998 33.868 5.41298 35.584 5.24598 37.3C5.36598 40.573 4.70398 43.877 5.67098 47.12C6.14798 48.718 6.69098 50.251 8.18598 51.216Z" fill="#ECAB54"/>
<path d="M5.24599 32.152C2.21999 32.288 1.74599 32.763 1.70599 35.752C1.69399 36.564 1.70599 37.376 1.70599 38.187C1.72599 38.311 1.74599 38.435 1.76799 38.559C1.91599 40.667 0.801992 42.759 1.71999 44.878C1.99799 46.303 2.67299 47.728 1.73199 49.154L2.71699 51.172C2.93634 51.246 3.12741 51.3861 3.26401 51.573C3.40061 51.7599 3.47606 51.9845 3.47999 52.216C3.44787 52.4433 3.32752 52.6488 3.14499 52.788C-0.00700903 48.497 0.0349938 43.561 0.396994 38.608C0.548622 36.8011 0.907992 35.0176 1.46799 33.293C2.15899 31.101 3.49499 30.776 5.24599 32.152Z" fill="#EFAE59"/>
<path d="M5.24597 37.298C5.24597 35.582 5.24597 33.8663 5.24597 32.151C7.15397 33.865 5.67797 35.584 5.24597 37.298Z" fill="#EFAE59"/>
<path d="M3.14502 52.784L3.21002 52.162C4.46902 52.339 4.66502 53.07 4.23602 54.127L4.12302 54.233C3.86217 54.0798 3.63893 53.8701 3.46969 53.6194C3.30046 53.3687 3.18952 53.0832 3.14502 52.784Z" fill="#ECAB54"/>
<path d="M13.126 20.829C14.115 21.185 14.673 21.759 14.658 22.678C14.641 23.678 14.131 24.524 13.075 24.478C12.698 24.4396 12.3516 24.2535 12.1113 23.9605C11.8711 23.6674 11.7567 23.2912 11.793 22.914C11.8018 22.4775 11.931 22.0518 12.1662 21.684C12.4014 21.3161 12.7335 21.0203 13.126 20.829Z" fill="#F2AA46"/>
<path d="M4.236 54.131C4.15741 53.369 3.79033 52.666 3.21 52.166C3.046 51.8327 2.88134 51.5013 2.716 51.172C3.456 50.09 4.656 50.091 5.781 49.853C6.406 50.653 5.397 50.982 5.303 51.561C5.217 52.089 5.503 52.93 5.765 52.761C8.196 51.209 9.465 53.948 11.388 54.328C13.6 54.765 15.799 54.387 17.997 54.912C19.663 55.312 21.28 53.773 22.457 52.724C24.104 51.256 26.067 49.677 25.788 46.691C27.865 49.838 27.534 52.726 25.188 54.161C24.704 53.948 24.928 52.912 24.534 53.11C23.666 53.547 24.217 54.17 24.687 54.66C20.85 57.902 16.807 58.996 11.676 57.489C8.931 56.684 6.766 55.113 4.236 54.131Z" fill="#F0AA4C"/>
<path d="M29.017 48.832C27.7973 46.7792 27.1482 44.4378 27.137 42.05C27.296 38.505 27.532 34.906 25.899 31.538C25.6971 31.1683 25.6047 30.7488 25.6327 30.3285C25.6607 29.9082 25.8079 29.5046 26.057 29.165C26.709 28.306 27.598 27.785 28.08 29.176C29.912 34.465 31.271 39.808 29.411 45.434C29.1623 46.5499 29.0302 47.6887 29.017 48.832Z" fill="#EEAA4E"/>
<path d="M1.73199 49.154L1.20499 44.678C0.484989 42.446 1.55899 40.352 1.70499 38.187C3.04599 38.28 3.11899 39.208 3.22699 40.273C3.48053 42.8583 3.31677 45.4676 2.74199 48.001C2.60599 48.621 2.46399 49.113 1.73199 49.154Z" fill="#F0AA4A"/>
<path d="M24.686 54.664C24.003 54.593 22.867 54.789 23.143 53.764C23.302 53.172 24.013 51.979 24.859 52.137C26.24 52.394 25.038 53.473 25.187 54.167L24.686 54.664Z" fill="#EEAA4E"/>
<path d="M1.705 38.184L1.205 44.675C0.0519977 42.412 0.985998 40.308 1.705 38.184Z" fill="#ECAB54"/>
<path d="M3.32599 9.932L29.738 2" stroke="#EFAA4D" stroke-width="4" stroke-linecap="round" stroke-linejoin="round"/>
</svg>
