<svg width="33" height="61" viewBox="0 0 33 61" fill="none" xmlns="http://www.w3.org/2000/svg">
<path d="M5.12699 47.571C5.07999 51.432 7.43699 53.735 10.581 55.132C12.2759 55.9103 14.1147 56.3261 15.9795 56.353C17.8444 56.3798 19.6943 56.0171 21.411 55.288C24.382 54.057 27.398 47.767 26.543 44.717C25.997 42.773 24.409 43.464 23.234 43.649C21.9656 44.015 20.6184 44.006 19.355 43.623C18.3576 43.2771 17.4495 42.7141 16.696 41.9747C15.9425 41.2353 15.3625 40.3379 14.9979 39.3472C14.6332 38.3566 14.493 37.2973 14.5872 36.2459C14.6815 35.1944 15.0079 34.177 15.543 33.267C16.033 32.329 16.661 31.462 17.227 30.562C19.618 29.269 22.027 28.198 24.652 29.994C26.652 31.414 28.544 33.369 29.046 35.494C29.867 38.972 30.774 42.526 30.472 46.273C30.241 49.133 29.877 51.8 28.219 54.184C28.66 54.651 28.263 55.066 28.138 55.498C26.7314 57.2522 25.0369 58.7545 23.127 59.941C18.391 61.261 13.727 61.513 9.03199 59.567C7.34903 58.9537 5.81768 57.9856 4.54189 56.7282C3.26611 55.4709 2.27574 53.9538 1.63799 52.28C-1.09301 44.711 0.0739908 37.463 4.36699 30.71C5.11299 29.537 6.05099 28.549 7.58399 29.764C8.90999 30.815 8.74498 31.848 7.89198 33.202C5.5506 37.0283 4.41761 41.4718 4.64099 45.952C4.60472 46.2408 4.62922 46.534 4.71292 46.8128C4.79661 47.0917 4.93765 47.3499 5.12699 47.571Z" fill="#FCE15C"/>
<path d="M27.5 55.5C28.5629 52.742 29.9681 48.5423 30.259 45.601C30.404 42.641 28.836 40.114 28.849 37.396C28.865 33.915 25.891 32.53 24.649 29.996C25.9326 30.6942 27.0534 31.6569 27.9376 32.8202C28.8217 33.9836 29.449 35.3213 29.778 36.745C30.89 40.832 30.772 44.905 30.624 49.024C30.6528 50.0127 29.7314 52.3055 29.3139 53.2022C29 54.5 28.5 55 27.5 55.5Z" fill="#F6E36F"/>
<path d="M19.707 23.771C19.7167 24.0683 19.6625 24.3643 19.548 24.6388C19.4336 24.9134 19.2615 25.1602 19.0435 25.3626C18.8255 25.565 18.5665 25.7182 18.2842 25.812C18.0019 25.9057 17.7027 25.9378 17.407 25.906C16.107 25.925 15.683 24.866 15.6 23.665C15.538 23.3776 15.5439 23.0797 15.6171 22.7949C15.6902 22.5101 15.8287 22.2463 16.0215 22.0243C16.2143 21.8023 16.4561 21.6282 16.7278 21.5158C16.9995 21.4035 17.2937 21.356 17.587 21.377C18.998 21.314 19.697 22.128 19.707 23.771Z" fill="#F7E069"/>
<path d="M24.106 38.482C23.584 40.811 21.875 39.665 20.739 39.444C20.0428 39.3581 19.3989 39.0301 18.9203 38.5172C18.4416 38.0044 18.1587 37.3395 18.121 36.639C17.985 35.211 18.61 34.623 19.845 34.125C22.615 33.007 25 34.253 25.439 37.18C25.598 38.243 24.93 38.433 24.111 38.485C23.864 38.073 23.862 37.558 23.556 37.169C23.3355 36.8184 23.1575 36.4427 23.026 36.05C22.626 35.215 22.017 34.689 21.089 35.143C20.8797 35.2258 20.6906 35.3525 20.5345 35.5145C20.3783 35.6765 20.2586 35.8701 20.1836 36.0823C20.1085 36.2945 20.0798 36.5203 20.0994 36.7445C20.119 36.9686 20.1863 37.186 20.297 37.382C20.4387 37.5366 20.589 37.6831 20.747 37.821C21.719 38.798 23.119 37.607 24.106 38.482Z" fill="#F7E175"/>
<path d="M18.439 23.244C18.3643 23.4814 18.205 23.6832 17.9913 23.8109C17.7777 23.9386 17.5246 23.9835 17.28 23.937C17.1979 23.9298 17.1182 23.9053 17.0462 23.8651C16.9742 23.825 16.9115 23.77 16.8622 23.7039C16.8129 23.6379 16.7781 23.5621 16.7602 23.4816C16.7422 23.4011 16.7415 23.3178 16.758 23.237C16.849 22.593 17.358 22.554 17.878 22.597C17.9592 22.597 18.0395 22.6145 18.1133 22.6483C18.1872 22.682 18.2529 22.7312 18.3061 22.7925C18.3593 22.8539 18.3987 22.9259 18.4216 23.0038C18.4445 23.0817 18.4505 23.1636 18.439 23.244Z" fill="#FDE151"/>
<path d="M26.312 23.196C25.993 23.973 26.412 25.327 25.1 25.296C24.6385 25.2675 24.2045 25.0667 23.884 24.7333C23.5636 24.3999 23.3802 23.9583 23.37 23.496C23.37 22.591 24.181 22.101 25.099 22.071C25.825 22.052 26.429 22.265 26.312 23.196Z" fill="#FAE05D"/>
<path d="M20.126 38.045C18.452 36.695 19.476 35.381 20.543 34.637C21.957 33.65 23.218 34.191 23.643 36.026C23.298 36.366 22.811 36.965 22.467 36.743C20.761 35.649 20.749 37.354 20.126 38.045Z" fill="#FDFCE6"/>
<path d="M20.126 38.045C20.209 36.699 19.856 34.851 22.268 36.345C22.553 36.52 23.175 36.145 23.64 36.031L24.13 37.044C23.254 39.21 21.644 38.437 20.13 38.044L20.126 38.045Z" fill="#F9FDF6"/>
<path d="M20.128 38.038C21.473 37.748 23.136 38.731 24.128 37.038C24.99 37.531 24.187 38.003 24.109 38.485C22.757 38.537 21.292 39.63 20.128 38.038Z" fill="#FDFCE6"/>
<path d="M4.44501 9.932L30.857 2" stroke="#FFDE00" stroke-width="4" stroke-linecap="round" stroke-linejoin="round"/>
</svg>
