<svg id="Layer_1" data-name="Layer 1" xmlns="http://www.w3.org/2000/svg" viewBox="0 0 84.456 128.192">
  <defs>
    <style>
      .cls-1 {
        fill: #fbfcfd;
      }

      .cls-2 {
        fill: #fcfdfe;
      }

      .cls-3 {
        fill: #fcf8c7;
      }

      .cls-4 {
        fill: #fdf5d5;
      }

      .cls-5 {
        fill: #fbfef1;
      }

      .cls-6 {
        fill: #fdfdef;
      }

      .cls-7 {
        fill: #fcf6d5;
      }

      .cls-8 {
        fill: #fef8d2;
      }

      .cls-9 {
        fill: #fbf6ca;
      }

      .cls-10 {
        fill: #fce15c;
      }

      .cls-11 {
        fill: #f6e36f;
      }

      .cls-12 {
        fill: #f7e069;
      }

      .cls-13 {
        fill: #f5e68f;
      }

      .cls-14 {
        fill: #f7e175;
      }

      .cls-15 {
        fill: #fde151;
      }

      .cls-16 {
        fill: #fae05d;
      }

      .cls-17 {
        fill: #fdfce6;
      }

      .cls-18 {
        fill: #f9fdf6;
      }

      .cls-19 {
        fill: none;
        stroke: #ffde00;
        stroke-linecap: round;
        stroke-linejoin: round;
        stroke-width: 4px;
      }
    </style>
  </defs>
  <path class="cls-1" d="M88.248,222.629c-1.59,1.012-3.361.5-5.019.443-2.824-.087-5.7.626-8.475-.441Z" transform="translate(-40.114 -98.329)"/>
  <path class="cls-1" d="M49.276,219.631c-.05.568-.145,1.255-.845,1.181a1.652,1.652,0,0,1-1.653-1.68C48.069,217.009,48.5,219.189,49.276,219.631Z" transform="translate(-40.114 -98.329)"/>
  <path class="cls-1" d="M96.739,224.894c.5.06.61.487.751.848.2.52-.088.809-.572.776s-.656-.432-.636-.884C96.3,225.315,96.3,224.963,96.739,224.894Z" transform="translate(-40.114 -98.329)"/>
  <path class="cls-1" d="M56.271,222.629c-2.333.07-4.665.994-7,0C52.167,219.861,52.167,219.861,56.271,222.629Z" transform="translate(-40.114 -98.329)"/>
  <path class="cls-1" d="M62.766,218.63c1.69-.524,3.341-.872,4.5,1C65.575,220.154,63.8,221.057,62.766,218.63Z" transform="translate(-40.114 -98.329)"/>
  <path class="cls-1" d="M62.266,222.624l-3,0c.394-.253,1.026-.432,1.133-.775.217-.693.432-1.335,1.236-1.107C62.6,221.019,62.156,221.956,62.266,222.624Z" transform="translate(-40.114 -98.329)"/>
  <path class="cls-1" d="M69.051,220.919c-.8.791-1.384.929-2.164.168A1.793,1.793,0,0,1,69.051,220.919Z" transform="translate(-40.114 -98.329)"/>
  <path class="cls-1" d="M58.75,219.29c-.095.405-.219.709-.6.74-.326.027-.729-.026-.6-.461.059-.2.47-.324.744-.4C58.386,219.141,58.794,218.878,58.75,219.29Z" transform="translate(-40.114 -98.329)"/>
  <path class="cls-1" d="M91.007,181.368c.084-1.164-.711-1.987-1.093-2.971a9.9,9.9,0,0,1-.406-6.017c1.247-.829,1.6.125,2,1,1.159,2.037,1.963,4.128,1,6.492a2.884,2.884,0,0,0,.913,2.353,2.121,2.121,0,0,1-.914,3.639C92.383,184.238,93.086,182.339,91.007,181.368Z" transform="translate(-40.114 -98.329)"/>
  <path class="cls-2" d="M92.506,179.87q-.5-3.246-1-6.492c.888-.509,1.665-1.442,2.868-.751s1.133,1.854,1.136,3.016C95.52,179.392,95.258,179.779,92.506,179.87Z" transform="translate(-40.114 -98.329)"/>
  <path class="cls-1" d="M94.022,169.681c-.268.62.513,1.97-.735,1.862-1.1-.1-.826-1.454-.739-2.283.069-.65-.689-1.957.632-1.865C94.375,167.479,93.889,168.809,94.022,169.681Z" transform="translate(-40.114 -98.329)"/>
  <path class="cls-1" d="M41.9,177.2c-.015.575-.266.988-.858.985s-.858-.431-.919-.965a.959.959,0,0,1,.719-1.138C41.606,175.961,41.648,176.728,41.9,177.2Z" transform="translate(-40.114 -98.329)"/>
  <path class="cls-1" d="M41.131,188.524c.413.125.752.366.728.818a.928.928,0,0,1-1.147.913c-.482-.044-.656-.421-.565-.87A.964.964,0,0,1,41.131,188.524Z" transform="translate(-40.114 -98.329)"/>
  <path class="cls-1" d="M92.505,190.855c.071-.69-.231-1.472.5-2C94.743,190,93.045,190.282,92.505,190.855Z" transform="translate(-40.114 -98.329)"/>
  <path class="cls-1" d="M91.029,181.372c-.108.662-.228,1.124-.7,1.141-.176.006-.449-.446-.534-.732a.483.483,0,0,1,.511-.641A2.331,2.331,0,0,1,91.029,181.372Z" transform="translate(-40.114 -98.329)"/>
  <path class="cls-1" d="M110.756,124.872c.075,1.1-1.082.784-1.9,1.7a8.091,8.091,0,0,1,6.032.243c1.906.905,1.712-1.9,3.389-2.131-.854,2.422.023,5.016-1.523,7.18-1.488.226-1.858-1.1-2.578-1.895-2.97-3.3-6.81-3.526-10.17-.572a8.49,8.49,0,0,0-2.412,6.338c.469,4.988,3.848,7.386,8.98,6.579,1.865-.294,2.759.389,2.562,2.251-.189,1.786-.179,3.62-1.243,5.264-2.5,3.871-4.361,4.723-9.691,4.5-4.672-.2-7.989-2.385-9.607-6.924-.753-2.113-.364-4.273-.49-6.411a20.674,20.674,0,0,1,2.812-9.12c1.52-2.888,1.219-3.746-2.066-4.44a1.767,1.767,0,0,1-1.07-.558c2.648-1.288,4.909.116,7.3.8,1.217-2.287,2.831-4.726,2.19-7.8,1.348.155,1.18,1.293,1.129,2.077-.131,2.008.932,2.366,2.585,2.241.824-.062,1.632-.164,2.447-.294C108.662,123.7,109.92,123.617,110.756,124.872Z" transform="translate(-40.114 -98.329)"/>
  <path class="cls-3" d="M91.777,126.872c1.819.062,3.914-.616,4.624,2.083a2.651,2.651,0,0,1-.381,2.481,18.888,18.888,0,0,0-3.261,9.415c-.553,1.58-.062,3.223-.289,4.822-1.775.326-1.266-1.165-1.3-1.876a23.493,23.493,0,0,1,2.706-11.752c.186-.371.428-.713.6-1.092.38-.837.457-1.652-.464-2.165-.833-.462-1.41.1-1.922.677a7.512,7.512,0,0,0-1.124,1.643c-2.412,4.881-3.617,9.988-2.6,15.431,1.394,7.489,6.315,11.72,13.963,12.091a16.643,16.643,0,0,0,5.2-.429,3.348,3.348,0,0,1,2.666-.047.488.488,0,0,1,.085.7q-.007.232-.018.465c-1.085.288-2.12.728-3.166,1.1-2.957,1.042-5.936.475-8.82-.6l0,0a17.755,17.755,0,0,1-4-1.5l0,0a10.572,10.572,0,0,1-6.5-7.484h0c-.689-.693-.638-1.679-1-2.5h0c-.638-.6-.4-1.3-.358-2.05a26.833,26.833,0,0,0-.119-6.848c-.413-2.11.749-3.778,1.473-5.574l0,0a6.491,6.491,0,0,1,1.5-3v0c.233-1.707.655-3.3,2.505-3.988Z" transform="translate(-40.114 -98.329)"/>
  <path class="cls-1" d="M98.27,159.811c4.044,1,8.013.216,11.986-.5-.279.631-1.054.318-1.7,1.014,1.35,0,2.45-.007,3.549,0,.61.005,1.327.135,1.366.8.05.865-.8.725-1.307.664-3.313-.4-6.612.389-10.041-.572-1.549-.434-4.808-1.344-6.348,1.466-.029.053-.152.078-.231.078-4.152,0-8.3,0-12.456-.032-.486,0-.7-.4-.727-.849-.037-.583.246-1.027.831-1.01,4.12.12,8.2-1.239,12.363-.267C96.366,160.8,97.919,161.867,98.27,159.811Z" transform="translate(-40.114 -98.329)"/>
  <path class="cls-1" d="M87.779,133.856c-1.181,4.765-1.1,9.618-1,14.472l-3,4.79c-.862-1.29-.433-4.423.706-5.476a6.5,6.5,0,0,0,.747-8.342,3.475,3.475,0,0,1-.459-2.107c-.072-.871.868-2.213-1.147-2.157-.481.013-.4-.853-.334-1.309a22.914,22.914,0,0,0,.008-4.9c-.044-.584-.375-1.508.5-1.7a1.389,1.389,0,0,1,1.636,1.2c.2,1.8,1.523,3.293,1.337,5.179C86.637,134.931,87.268,134.238,87.779,133.856Z" transform="translate(-40.114 -98.329)"/>
  <path class="cls-1" d="M87.776,150.831a23.317,23.317,0,0,0,6.5,7.485c-1.341-.391-2.193,1.548-3.7.714-.713-.4-1.51-.537-1.93-1.382-.341-.684-.883-.946-1.574-.278-2.194,2.12-2.2,2.111-3.709-.826,2,.355,3.043-.4,2.916-2.416C86.2,152.765,88.454,152.463,87.776,150.831Z" transform="translate(-40.114 -98.329)"/>
  <path class="cls-4" d="M103.731,128.844a7.354,7.354,0,0,1,11.212,1.021c.551.723.913,1.592,1.807,2l.983,1c.69,1.088-.168,2.4.515,3.492q.006.5.013,1a15.4,15.4,0,0,1-.007,12.478c-.008.164-.01.328-.007.493-.946,1.435-.839,3.459-2.512,4.488-.16,0-.319.013-.479.027a1.158,1.158,0,0,1-.391-.931,6.026,6.026,0,0,1,.452-2.034c2.306-2.637,1.8-5.908,1.923-8.99A24.464,24.464,0,0,0,116,134.11a9.945,9.945,0,0,0-4.314-5.216c-2.5-1.666-4.886-.3-7.3.269A1.02,1.02,0,0,1,103.731,128.844Z" transform="translate(-40.114 -98.329)"/>
  <path class="cls-5" d="M110.756,124.872c-2.017-1.06-4.044-.031-6.052.051-2.282.093-3.239-.681-2.966-2.982.083-.7.227-1.507-.474-2.069a9.1,9.1,0,0,1-.927-1.685c-.154-.5-.294-1.282.337-1.513.714-.26.957.422,1.058,1,.261,1.481,1.009,1.465,2.031.7l3.495,1c.9.636,1.138,1.866,2.162,2.39.407,1.047,1.553,1.775,1.337,3.089Z" transform="translate(-40.114 -98.329)"/>
  <path class="cls-1" d="M118.254,149.832c.419-4.16.89-8.319.006-12.478,2.966,1.479,1.818,4.214,1.976,6.537.073,1.074-.316,2.3.08,3.209C121.357,149.484,120.28,149.934,118.254,149.832Z" transform="translate(-40.114 -98.329)"/>
  <path class="cls-1" d="M115.735,154.813a14.106,14.106,0,0,1,2.512-4.488,5.491,5.491,0,0,0,1.489,5.136c.923.944,1.2,2.555.283,3.306-1.081.884-2.107.146-2.578-1.343A11.37,11.37,0,0,0,115.735,154.813Z" transform="translate(-40.114 -98.329)"/>
  <path class="cls-1" d="M107.1,164.888h5.774c.114.622-.084.937-.456.86a37.512,37.512,0,0,0-8.413-.409c-1.148.024-.639-.614-.543-1.048.268-1.214.651-2.33,2.306-1.962.884.2,1.779.359,2.676.48.66.089,1.556.049,1.52.884-.041.972-1.035.459-1.6.634C108.15,164.391,107.955,164.5,107.1,164.888Z" transform="translate(-40.114 -98.329)"/>
  <path class="cls-1" d="M84.881,165.094c5.15-.4,10.334.263,15.271-1.65.488-.189,1.276-.369,1.377.488a1.2,1.2,0,0,1-.937,1.3,11.321,11.321,0,0,1-2.91.543C93.4,165.635,89.143,165.036,84.881,165.094Z" transform="translate(-40.114 -98.329)"/>
  <path class="cls-1" d="M120.913,119.408a2.028,2.028,0,0,1,1.815,2.046c.055,1.271-.51,2.518-1.685,2.641-1.434.15-1.357-1.453-1.555-2.409A1.927,1.927,0,0,1,120.913,119.408Z" transform="translate(-40.114 -98.329)"/>
  <path class="cls-1" d="M119.163,134.916a2.083,2.083,0,0,0-.653-1.981,1.433,1.433,0,0,1,.328-2.117c.331-.281.654-1.05,1.141-.532a1.951,1.951,0,0,1,.507,2.05,2.792,2.792,0,0,0,.18,2.381c.221.462.8,1.044.048,1.492a1.841,1.841,0,0,1-1.2.071C118.56,136.075,119.049,135.433,119.163,134.916Z" transform="translate(-40.114 -98.329)"/>
  <path class="cls-6" d="M116.252,121.871c.221,1.858-.572,2.718-2.461,2.5l-.252-.228c-.485-1.289.484-2.669-.255-3.941a1.566,1.566,0,0,1-.032-1.328,4.1,4.1,0,0,1,2.5.5C116.339,120.122,115.638,121.128,116.252,121.871Z" transform="translate(-40.114 -98.329)"/>
  <path class="cls-1" d="M109.248,121.866c-1.845.114-1.614-1.431-1.99-2.49.706-3.462,2.318-.5,3.512-.5C110.91,120.205,109.933,120.961,109.248,121.866Z" transform="translate(-40.114 -98.329)"/>
  <path class="cls-1" d="M91.778,126.869a18.216,18.216,0,0,0-2.505,3.988c-.5-.905-2.058-1.24-1.341-2.808C88.806,126.136,90.456,127.116,91.778,126.869Z" transform="translate(-40.114 -98.329)"/>
  <path class="cls-1" d="M114.745,156.308c.708.722,1.545,1.484.6,2.517-.757.828-1.626.528-2.453-.071a4.593,4.593,0,0,0-1.139-.432C112.028,156.576,113.109,156.031,114.745,156.308Z" transform="translate(-40.114 -98.329)"/>
  <path class="cls-7" d="M109.248,121.866c-.248-1.38,1-2,1.522-2.985l.992-.026a1.247,1.247,0,0,1,1.5.013l-.005.008q.243.513.484,1.025c-1.052.614-2.961.049-3.135,1.787-.2,2.043,2,1.769,3.055,2.632l.135.053c-.9.873-2.018.347-3.034.482C110.238,123.867,108.99,123.246,109.248,121.866Z" transform="translate(-40.114 -98.329)"/>
  <path class="cls-1" d="M120.918,151.026c1.093.8,2.626.974,2.23,2.79-.11.5-.555,1.041-1.023.789C120.8,153.893,120.6,152.649,120.918,151.026Z" transform="translate(-40.114 -98.329)"/>
  <path class="cls-1" d="M122.754,143.193c-.09.537.195,1.389-.589,1.393a1.409,1.409,0,0,1-1.335-1.493,1.392,1.392,0,0,1,1.327-1.5C123.064,141.657,122.621,142.626,122.754,143.193Z" transform="translate(-40.114 -98.329)"/>
  <path class="cls-8" d="M114.745,156.308a6.536,6.536,0,0,0-2.99,2.014l-1.481.527-.033-.575a13.031,13.031,0,0,1,5.011-4.442c0,.336,0,.672,0,1.007Q115,155.574,114.745,156.308Z" transform="translate(-40.114 -98.329)"/>
  <path class="cls-1" d="M79.3,161.473c-.776.047-.918-.426-.97-.927-.068-.645.127-1.142.889-1.176.437-.02.851.083.945.568C80.317,160.722,79.722,161.083,79.3,161.473Z" transform="translate(-40.114 -98.329)"/>
  <path class="cls-1" d="M103.763,118.376c-.779,0-1.534-.045-1.453-1.134.025-.341.19-.719.567-.634C103.837,116.825,103.731,117.651,103.763,118.376Z" transform="translate(-40.114 -98.329)"/>
  <path class="cls-1" d="M94.273,158.312c1.514.02,2.724.847,4,1.5C96.766,159.775,95.252,159.754,94.273,158.312Z" transform="translate(-40.114 -98.329)"/>
  <path class="cls-1" d="M123.62,147.879a2.378,2.378,0,0,1,.495,2.471C123.315,149.5,123.315,149.5,123.62,147.879Z" transform="translate(-40.114 -98.329)"/>
  <path class="cls-1" d="M113.257,118.868l-1.5-.013c1.421-.906-.585-1.28-.252-2.17C112.488,117.131,113.4,117.525,113.257,118.868Z" transform="translate(-40.114 -98.329)"/>
  <path class="cls-1" d="M89.273,130.859q-.748,1.5-1.5,3A2.627,2.627,0,0,1,89.273,130.859Z" transform="translate(-40.114 -98.329)"/>
  <path class="cls-1" d="M123.593,138.206c-.14-.384-.285-.587-.269-.777a.907.907,0,0,1,.755-.869c.482-.081.588.29.409.62A6.663,6.663,0,0,1,123.593,138.206Z" transform="translate(-40.114 -98.329)"/>
  <path class="cls-1" d="M82.705,137.044c-.013.357-.154.659-.541.63a.561.561,0,0,1-.557-.636.757.757,0,0,1,.464-.474C82.434,136.45,82.67,136.65,82.705,137.044Z" transform="translate(-40.114 -98.329)"/>
  <path class="cls-1" d="M118.248,136.355c-.943-1.05-.3-2.334-.515-3.492l.517-.008Q118.249,134.606,118.248,136.355Z" transform="translate(-40.114 -98.329)"/>
  <path class="cls-1" d="M119.118,127.414c.215-.109.405-.282.6-.291.432-.02.5.329.405.634-.048.157-.3.252-.465.375Z" transform="translate(-40.114 -98.329)"/>
  <path class="cls-1" d="M123.786,129.958c.17.284.354.457.364.639.019.339-.18.621-.553.5-.134-.043-.251-.383-.235-.577C123.376,130.355,123.589,130.205,123.786,129.958Z" transform="translate(-40.114 -98.329)"/>
  <path class="cls-1" d="M86.78,148.329a5.275,5.275,0,0,1,1,2.5C86.609,150.329,86.78,149.295,86.78,148.329Z" transform="translate(-40.114 -98.329)"/>
  <path class="cls-1" d="M116.252,121.871c-.832-.7-.379-1.656-.5-2.5C116.586,120.072,116.13,121.029,116.252,121.871Z" transform="translate(-40.114 -98.329)"/>
  <path class="cls-1" d="M118.108,123.136c-.131-.258-.308-.445-.276-.583.04-.178.25-.316.386-.471.126.148.368.313.35.44C118.542,122.706,118.326,122.863,118.108,123.136Z" transform="translate(-40.114 -98.329)"/>
  <path class="cls-9" d="M103.731,128.844l.61.049c.487,1.062-.38,1.709-.8,2.463-1.411,2.538-1.647,5.174.024,7.552,1.539,2.189,3.835,2.92,6.608,2.468,3.469-.567,4.626.788,3.955,4.234-1.22,6.272-3.375,8.586-9.17,9.583-3.463.595-9.953-.849-12.323-5.382-.653-1.25-1.47-2.484-.394-3.909.278-1.673-.483-3.453.518-5.052.187,2.442-.181,4.839.828,7.314,2,4.911,7.128,6.03,11.317,5.459,5.1-.7,7.742-4.137,7.762-9.388,0-.981-.291-1.9-1.636-1.385-3.8,1.461-6.88-.28-9.026-2.932C99.606,136.952,100.7,132.075,103.731,128.844Z" transform="translate(-40.114 -98.329)"/>
  <path class="cls-10" d="M92.241,145.9c-.047,3.861,2.31,6.164,5.454,7.561a13.4,13.4,0,0,0,10.83.156c2.971-1.231,5.987-7.521,5.132-10.571-.546-1.944-2.134-1.253-3.309-1.068a6.837,6.837,0,0,1-3.879-.026,7.134,7.134,0,0,1-3.812-10.356c.49-.938,1.118-1.805,1.684-2.705,2.391-1.293,4.8-2.364,7.425-.568,2,1.42,3.892,3.375,4.394,5.5.821,3.478,1.728,7.032,1.426,10.779-.231,2.86-.595,5.527-2.253,7.911.441.467.044.882-.081,1.314a19.847,19.847,0,0,1-5.011,4.443c-4.736,1.32-9.4,1.572-14.095-.374a12.488,12.488,0,0,1-7.394-7.287c-2.731-7.569-1.564-14.817,2.729-21.57.746-1.173,1.684-2.161,3.217-.946,1.326,1.051,1.161,2.084.308,3.438a22.3,22.3,0,0,0-3.251,12.75A2.089,2.089,0,0,0,92.241,145.9Z" transform="translate(-40.114 -98.329)"/>
  <path class="cls-11" d="M115.333,152.518a32.882,32.882,0,0,0,2.04-8.588c.145-2.96-1.423-5.487-1.41-8.205.016-3.481-2.958-4.866-4.2-7.4a10.331,10.331,0,0,1,5.129,6.749c1.112,4.087.994,8.16.846,12.279A6.354,6.354,0,0,1,115.333,152.518Z" transform="translate(-40.114 -98.329)"/>
  <path class="cls-12" d="M106.821,122.1a2.079,2.079,0,0,1-2.3,2.135c-1.3.019-1.724-1.04-1.807-2.241a1.894,1.894,0,0,1,1.987-2.288C106.112,119.643,106.811,120.457,106.821,122.1Z" transform="translate(-40.114 -98.329)"/>
  <path class="cls-13" d="M113.656,124.32a4.073,4.073,0,0,0-.5.019,2.907,2.907,0,0,1-3.119-1.545,1.769,1.769,0,0,1,.323-2.268,2.79,2.79,0,0,1,3.372-.625C114.82,121.394,113.848,122.85,113.656,124.32Z" transform="translate(-40.114 -98.329)"/>
  <path class="cls-14" d="M111.22,136.811c-.522,2.329-2.231,1.183-3.367.962a2.988,2.988,0,0,1-2.618-2.805c-.136-1.428.489-2.016,1.724-2.514,2.77-1.118,5.155.128,5.594,3.055.159,1.063-.509,1.253-1.328,1.305-.247-.412-.249-.927-.555-1.316a5.209,5.209,0,0,1-.53-1.119c-.4-.835-1.009-1.361-1.937-.907a1.575,1.575,0,0,0-.792,2.239,5.644,5.644,0,0,0,.45.439C108.833,137.127,110.233,135.936,111.22,136.811Z" transform="translate(-40.114 -98.329)"/>
  <path class="cls-15" d="M105.553,121.573a1.016,1.016,0,0,1-1.159.693.585.585,0,0,1-.522-.7c.091-.644.6-.683,1.12-.64A.567.567,0,0,1,105.553,121.573Z" transform="translate(-40.114 -98.329)"/>
  <path class="cls-16" d="M113.426,121.525c-.319.777.1,2.131-1.212,2.1a1.844,1.844,0,0,1-1.73-1.8c0-.905.811-1.395,1.729-1.425C112.939,120.381,113.543,120.594,113.426,121.525Z" transform="translate(-40.114 -98.329)"/>
  <path class="cls-17" d="M107.24,136.374c-1.674-1.35-.65-2.664.417-3.408,1.414-.987,2.675-.446,3.1,1.389-.345.34-.832.939-1.176.717C107.875,133.978,107.863,135.683,107.24,136.374Z" transform="translate(-40.114 -98.329)"/>
  <path class="cls-18" d="M107.24,136.374c.083-1.346-.27-3.194,2.142-1.7.285.175.907-.2,1.372-.314l.49,1.013c-.876,2.166-2.486,1.393-4,1Z" transform="translate(-40.114 -98.329)"/>
  <path class="cls-17" d="M107.242,136.367c1.345-.29,3.008.693,4-1,.862.493.059.965-.019,1.447l0,0C109.871,136.866,108.406,137.959,107.242,136.367Z" transform="translate(-40.114 -98.329)"/>
  <line class="cls-19" x1="51.445" y1="9.932" x2="77.857" y2="2"/>
</svg>
