<svg width="21" height="56" viewBox="0 0 21 56" fill="none" xmlns="http://www.w3.org/2000/svg">
<path d="M18.5 43.5V44C18.0686 44.8837 18.5324 44.1732 18 45L17.5 45.5L17 46.5C16.8564 46.6319 16.6849 46.9383 16.5 47C16.3151 47.0617 16.124 46.2623 15.93 46.243C15.3702 46.0791 14.8662 45.7645 14.4733 45.3334C14.0803 44.9024 13.8135 44.3715 13.702 43.799C13.918 42.504 15.243 41.69 15.236 40.299C15.279 39.574 15.236 38.849 15.269 38.126C15.5725 37.0837 15.5945 35.9796 15.333 34.926C14.6673 31.6611 12.7429 28.7896 9.97598 26.933L9.98498 26.94C9.03198 25.814 6.76998 25.266 8.26998 23.057C8.61483 22.7611 9.02842 22.5564 9.47288 22.4617C9.91734 22.367 10.3785 22.3853 10.814 22.515C12.3638 23.2679 13.7014 24.3952 14.706 25.795C14.65 26.756 14.782 27.548 16.068 27.295C16.275 27.986 16.918 28.371 17.249 28.976C17.791 30.048 17.321 31.552 18.661 32.288C19.272 32.914 18.994 33.735 19.15 34.463C19.2382 36.2605 19.6548 39.707 19.5 41.5C19.4798 42.072 18.8128 43.0207 18.5 43.5Z" fill="#FBE15F"/>
<path d="M13.999 43.884C14.73 44.484 15.012 45.535 15.999 45.884C16.1295 46.0072 16.2202 46.1667 16.2594 46.3418C16.2986 46.517 16.2845 46.6999 16.219 46.867C14.2956 49.1908 12.0309 51.2095 9.50201 52.854L8.58401 53.418C6.36901 53.831 4.50401 55.818 1.98901 54.886C0.30401 52.874 0.511009 51.194 2.81701 50.6C6.47402 49.574 9.79264 47.5944 12.433 44.864C12.882 44.419 13.234 43.819 13.999 43.884Z" fill="#FBE160"/>
<path d="M8.497 23.409C7.197 25.342 9.804 25.628 9.985 26.938C9.24265 26.8061 8.57014 26.4179 8.08475 25.8409C7.59937 25.264 7.3319 24.535 7.329 23.781C7.244 22.315 9.136 21.231 10.575 21.715C11.44 22.006 11.98 22.906 12.967 22.945H12.973C14.494 24.921 16.665 26.395 17.55 28.861L17.29 29.082L16.99 28.911C16.6863 28.7973 16.4257 28.5916 16.2445 28.3228C16.0633 28.0539 15.9705 27.7351 15.979 27.411C15.6209 27.3145 15.2948 27.1248 15.0338 26.8613C14.7728 26.5979 14.5862 26.27 14.493 25.911L10.987 22.911C10.04 22.475 9.16 22.397 8.497 23.409Z" fill="#F7DF77"/>
<path d="M18.496 33.898C18.6489 33.6772 18.7296 33.4144 18.7271 33.1458C18.7246 32.8772 18.639 32.6159 18.482 32.398C16.972 31.583 17.056 30.303 17.468 28.927L17.55 28.857C19.5241 31.7712 20.3737 35.3028 19.941 38.796C19.841 39.804 19.855 41.021 18.541 41.457L18.496 39.887C19.0053 37.9231 19.0053 35.8618 18.496 33.898Z" fill="#F7DF77"/>
<path d="M9.97601 26.931C11.5118 27.6609 12.8307 28.7788 13.8024 30.1742C14.7741 31.5696 15.3651 33.1944 15.517 34.888C15.866 35.862 15.866 36.927 15.517 37.901L15.492 40.387C15.4577 40.4268 15.4146 40.4581 15.366 40.4782C15.3175 40.4984 15.2648 40.5069 15.2124 40.503C15.16 40.4991 15.1092 40.4829 15.0642 40.4558C15.0191 40.4288 14.981 40.3915 14.953 40.347C15.977 34.881 13.779 30.609 9.97601 26.931Z" fill="#F7DF77"/>
<path d="M9.50098 52.852L15.987 46.873C16.0582 46.9306 16.1155 47.0035 16.1548 47.0863C16.194 47.1691 16.2141 47.2596 16.2137 47.3512C16.2132 47.4428 16.1921 47.5331 16.152 47.6155C16.1119 47.6978 16.0538 47.7701 15.982 47.827C13.894 49.596 12.489 52.243 9.50098 52.852Z" fill="#FBE16D"/>
<path d="M1.98798 54.884C4.42398 55.462 6.21597 53.152 8.58297 53.416C6.54097 54.606 4.56698 56.104 1.98798 54.884Z" fill="#FBE16D"/>
<path d="M14.953 40.347L15.492 40.387C16.117 42.031 14.585 42.756 13.999 43.887C13.5942 44.3712 13.0457 44.7138 12.433 44.865C12.7449 43.9366 13.245 43.0824 13.902 42.356C14.612 41.881 14.658 41.056 14.969 40.363L14.953 40.347Z" fill="#F8E36E"/>
<path d="M17.038 44.956C17.0285 44.4378 17.1576 43.9266 17.412 43.4751C17.6665 43.0236 18.0369 42.6483 18.485 42.388C18.539 43.546 18.33 44.556 17.038 44.956Z" fill="#F7DF77"/>
<path d="M15.982 47.827L15.988 46.873C15.988 46.543 15.994 46.212 15.998 45.882H16.998C16.9884 46.2623 16.8918 46.6352 16.7157 46.9724C16.5396 47.3095 16.2886 47.6019 15.982 47.827Z" fill="#F7DF77"/>
<path d="M14.969 40.36C15.043 41.254 14.946 42.06 13.903 42.353C14.0304 41.5898 14.4049 40.8896 14.969 40.36Z" fill="#F7DF77"/>
<path d="M18.496 33.898C19.689 35.898 19.315 37.898 18.496 39.891V33.898Z" fill="#FBE163"/>
<path d="M14.497 25.913C14.9917 26.4117 15.487 26.9117 15.983 27.413C15.7454 27.4718 15.5116 27.5453 15.283 27.633C14.783 27.853 14.747 29.176 13.84 28.348C13.234 27.796 13.96 27.337 14.217 26.855C14.3429 26.5516 14.4368 26.2359 14.497 25.913Z" fill="#FBE163"/>
<path d="M17.468 28.931C17.3846 29.5483 17.4317 30.1763 17.6064 30.7742C17.781 31.3721 18.0794 31.9267 18.482 32.402C15.81 32.164 17.482 30.076 16.995 28.91C17.153 28.907 17.3109 28.914 17.468 28.931Z" fill="#FBE163"/>
<path d="M8.49701 23.409C9.05601 21.872 9.98701 22.209 10.991 22.909C10.1278 22.8089 9.25497 22.9839 8.49701 23.409Z" fill="#FBE163"/>
<path d="M15.517 37.901C15.517 36.897 15.517 35.893 15.517 34.889C15.8698 35.3116 16.063 35.8446 16.063 36.395C16.063 36.9455 15.8698 37.4784 15.517 37.901Z" fill="#F8E36E"/>
<path d="M5.13397 9.476L18.34 2.92" stroke="#FFDE00" stroke-width="4" stroke-linecap="round" stroke-linejoin="round"/>
</svg>
