<svg id="Layer_1" data-name="Layer 1" xmlns="http://www.w3.org/2000/svg" viewBox="0 0 28.664 62.677">
  <defs>
    <style>
      .cls-1 {
        fill: #fdf4d7;
      }

      .cls-2 {
        fill: #fbfcfd;
      }

      .cls-3 {
        fill: #fbe15f;
      }

      .cls-4 {
        fill: #fbe160;
      }

      .cls-5 {
        fill: #f7df77;
      }

      .cls-6 {
        fill: #fbe16d;
      }

      .cls-7 {
        fill: #f8e36e;
      }

      .cls-8 {
        fill: #fbe163;
      }

      .cls-9 {
        fill: none;
        stroke: #ffde00;
        stroke-linecap: round;
        stroke-linejoin: round;
        stroke-width: 4px;
      }
    </style>
  </defs>
  <path class="cls-1" d="M52.976,212.536c-4.166,1.142-5.5.053-5.5-4.48.012-.162.017-.324.014-.485a8.279,8.279,0,0,1,2.5-1.509c1.807.424,2.94-1.158,4.488-1.5.691-1.491,2.433-1.513,3.488-2.494.013-.162.02-.325.021-.488a31.633,31.633,0,0,1,2.346-4.049c2.024-3.539.858-6.567-1.146-9.595-1.327-2-3.484-3.249-4.709-5.326L54,181.581a1.051,1.051,0,0,1-.037-1.488c.01-.166.015-.332.016-.5,1.663-3.212,4.488-3.428,6.489-.5l-.028.527c-.683.537-1.258.085-1.814-.236-1.066-.616-2.047-.745-2.79.44-.672,1.071-.1,1.877.659,2.616a6.832,6.832,0,0,0,1.012.722,5.187,5.187,0,0,1,.587.436c3.772,3.43,5.841,7.517,4.919,12.754a3.761,3.761,0,0,1-.185.7c-.334.735-.714,1.451-1.052,2.187-.483.9-1.049,1.759-1.606,2.62a18.107,18.107,0,0,1-8.733,5.655c-2.344.653-2.579,1.375-1.581,3.5,2.252,1.007,3.949-.443,5.777-1.294a7.819,7.819,0,0,1,1.223-.649c2.662-.8,4.091-3.182,6.123-4.784a3.187,3.187,0,0,0,.949-1.943,2.848,2.848,0,0,1,.361-.906,3.871,3.871,0,0,0,1.149-2.632,3.13,3.13,0,0,1,.364-1c1.734-3.017,1.16-6.053.109-9.1a24.408,24.408,0,0,0-1.22-2.721,22.6,22.6,0,0,0-3.368-4.478c-.52-.474-1.119-1-.877-1.878,1.463-.043,1.869,1.527,3.012,1.971a5.972,5.972,0,0,1,3.506,5.488l.017.5a10.03,10.03,0,0,1,.983,2v0c.653,1.1-.169,2.406.5,3.5v1.482c-.621,1.834.149,3.866-.92,5.676a5.355,5.355,0,0,1-2.038,2.325l-.04.986c-.879,1.583-1.618,3.287-3.49,4l-.508.486c-1.933,1.708-3.8,3.517-6.487,4.012C54.289,212.115,53.514,211.831,52.976,212.536Z" transform="translate(-47.475 -151.681)"/>
  <path class="cls-2" d="M54.478,182.606a19.3,19.3,0,0,1,6.639,7.441c1.691,3.353.711,6.2-.946,9.014-.545.928-.815,2.245-2.184,2.515-3.015-.82-4.631-2.6-4.747-6.166.677,2.533,1.536,1.837,2.576,1.34.987-.471,2.383,0,3.075-1.236.416-.743.729-1.553.952.086.065.481.5.261.716.026a.729.729,0,0,0-.173-1.249c-2.106-.814-2.067-2.732-2.074-4.375-.008-1.761-1.54-2.189-2.229-3.318-1.247-2.043-1.273-2.028-2.8-1.9C52.913,183.636,54.67,183.642,54.478,182.606Z" transform="translate(-47.475 -151.681)"/>
  <path class="cls-2" d="M60.47,179.1c-3.112-2.143-4.3-2.053-6.489.5.093-.475.024-1.2.307-1.385,1.589-1.021,1.338-2.221.224-3.66,1.207-.243,2.078.826,3.145-.117.738-.652,1.591.224,1.91,1.225.15.469.534,1.014,1.079.738,1.333-.674-.33-.816-.251-.961.766-1.4,1.365.186,2.078.164-.377.46,2.36.394.178,1.287C61.77,177.248,61.188,178.34,60.47,179.1Z" transform="translate(-47.475 -151.681)"/>
  <path class="cls-2" d="M71.148,184.48c.63.752,1.168,1.149,1.1,1.353-.675,2.109-.2,4.336-.65,6.393a22.569,22.569,0,0,0-.652,3.024c-.07.867-.057,2.186-1.221,1.987-1.092-.186-.772-1.455-.626-2.346a7.244,7.244,0,0,0,.331-1.436c-.084-1.5,1.842-2.942.114-4.466C70.614,187.862,70.881,186.4,71.148,184.48Z" transform="translate(-47.475 -151.681)"/>
  <path class="cls-2" d="M65.506,202.566c1.845-2.349,2.21-5.246,2.958-8,0,2.782.8,5.511.536,8.317a2.04,2.04,0,0,0,.463,1.341c.568.683,1.162,1.4.214,2.054-1.107.759-1.211-.686-1.818-1.063C66.81,204.563,67,202.818,65.506,202.566Z" transform="translate(-47.475 -151.681)"/>
  <path class="cls-2" d="M54.981,212.055l6.487-4.012c.157.836-1.892,1.677,0,2.509-.483.99-.91,2.074-2.3.971-.671-.532-1.222-.625-1.753.319C56.794,212.96,55.863,212.729,54.981,212.055Z" transform="translate(-47.475 -151.681)"/>
  <path class="cls-2" d="M53.781,186.858c.174.189.564.419.556.635-.047,1.352,2.143,2.424.5,3.951-.4.377-.708.966-1.378.879-.386-.051-.457-.431-.46-.763-.008-1.23-.011-2.46.013-3.689A1.077,1.077,0,0,1,53.781,186.858Z" transform="translate(-47.475 -151.681)"/>
  <path class="cls-2" d="M66.966,187.084c-1.04-1.911-1.8-4-3.506-5.488a3.264,3.264,0,0,1,3.476,2.564,3.2,3.2,0,0,0,.572,1.047c.312.384,1.523-.543,1.22.833C68.506,187.046,67.523,186.689,66.966,187.084Z" transform="translate(-47.475 -151.681)"/>
  <path class="cls-2" d="M72.934,201.181c.116,1.34-.17,2.4-1.4,2.433-.964.025-.475-1.017-.546-1.582-.132-1.057.008-2.185,1.328-2.219C73.32,199.787,72.739,200.863,72.934,201.181Z" transform="translate(-47.475 -151.681)"/>
  <path class="cls-2" d="M57.966,202.064a10.328,10.328,0,0,1-3.488,2.494c-.714-.956-1.6-1.851-1.02-3.411C54.84,201.86,56.167,203.459,57.966,202.064Z" transform="translate(-47.475 -151.681)"/>
  <path class="cls-2" d="M56.542,192.869a.848.848,0,0,1,.829,1.179c-.181.651-.272,1.474-1.387,1.326-.849-.113-1.059-.458-1.01-1.26C55.039,193.058,55.864,193.1,56.542,192.869Z" transform="translate(-47.475 -151.681)"/>
  <path class="cls-2" d="M61.976,207.557l3.49-4C65.331,205.783,64.728,207.605,61.976,207.557Z" transform="translate(-47.475 -151.681)"/>
  <path class="cls-2" d="M62.489,213.594c-1.218.629-2.182,1.346-3.277,0A2.7,2.7,0,0,1,62.489,213.594Z" transform="translate(-47.475 -151.681)"/>
  <path class="cls-2" d="M75.221,151.681c.453.025.93.228.918.656a1.224,1.224,0,0,1-1.13,1.13.765.765,0,0,1-.872-.708C74.07,152.051,74.573,151.756,75.221,151.681Z" transform="translate(-47.475 -151.681)"/>
  <path class="cls-2" d="M73.908,176.006c-.608.041-.885-.275-.9-.849-.011-.53.148-.973.78-.96a.918.918,0,0,1,.987.844C74.833,175.621,74.41,175.871,73.908,176.006Z" transform="translate(-47.475 -151.681)"/>
  <path class="cls-2" d="M61.34,210.582c.527-1.086,1.087-1.564,2.02-1.243a.652.652,0,0,1,.266.579C63.14,210.84,62.229,210.453,61.34,210.582Z" transform="translate(-47.475 -151.681)"/>
  <path class="cls-2" d="M63.24,174.156c.544.093.969.282.885.762-.1.586-.665.608-1.16.68-.433.063-.541-.056-.488-.491C62.545,174.551,62.745,174.189,63.24,174.156Z" transform="translate(-47.475 -151.681)"/>
  <path class="cls-2" d="M67.94,177.552a1.954,1.954,0,0,1-2.451.147A1.749,1.749,0,0,1,67.94,177.552Z" transform="translate(-47.475 -151.681)"/>
  <path class="cls-2" d="M74.823,205.588c-.14.469-.371.817-.846.738-.541-.089-.476-.571-.456-.962.018-.359.242-.65.6-.587A.822.822,0,0,1,74.823,205.588Z" transform="translate(-47.475 -151.681)"/>
  <path class="cls-2" d="M68.464,193.083c-.908-1.062-.313-2.337-.5-3.5C68.931,190.635,68.275,191.919,68.464,193.083Z" transform="translate(-47.475 -151.681)"/>
  <path class="cls-2" d="M49.99,206.062a4.912,4.912,0,0,1-2.5,1.508A2.346,2.346,0,0,1,49.99,206.062Z" transform="translate(-47.475 -151.681)"/>
  <path class="cls-2" d="M53.965,180.093,54,181.581c-.513-.057-.994-.171-.927-.843C53.126,180.216,53.562,180.163,53.965,180.093Z" transform="translate(-47.475 -151.681)"/>
  <path class="cls-2" d="M67.966,189.583a2.74,2.74,0,0,1-.984-2A1.754,1.754,0,0,1,67.966,189.583Z" transform="translate(-47.475 -151.681)"/>
  <path class="cls-3" d="M66.016,198.143l-.056.926a24.994,24.994,0,0,1-1.447,2.568l-.035.929a1.384,1.384,0,0,1-1.073.358,3.18,3.18,0,0,1-2.228-2.444c.216-1.295,1.541-2.109,1.534-3.5.043-.725,0-1.45.033-2.173a6.148,6.148,0,0,0,.064-3.2,12.675,12.675,0,0,0-5.357-7.993l.009.007c-.953-1.126-3.215-1.674-1.715-3.883a2.716,2.716,0,0,1,2.544-.542,10.365,10.365,0,0,1,3.892,3.28c-.056.961.076,1.753,1.362,1.5.207.691.85,1.076,1.181,1.681.542,1.072.072,2.576,1.412,3.312.611.626.333,1.447.489,2.175a39.93,39.93,0,0,1-.1,5.392A3.144,3.144,0,0,1,66.016,198.143Z" transform="translate(-47.475 -151.681)"/>
  <path class="cls-4" d="M61.474,200.565c.731.6,1.013,1.651,2,2a.9.9,0,0,1,.22.983,29.827,29.827,0,0,1-6.717,5.987l-.918.564c-2.215.413-4.08,2.4-6.595,1.468-1.685-2.012-1.478-3.692.828-4.286a21.43,21.43,0,0,0,9.616-5.736C60.357,201.1,60.709,200.5,61.474,200.565Z" transform="translate(-47.475 -151.681)"/>
  <path class="cls-5" d="M55.972,180.09c-1.3,1.933,1.307,2.219,1.488,3.529a3.219,3.219,0,0,1-2.656-3.157c-.085-1.466,1.807-2.55,3.246-2.066.865.291,1.405,1.191,2.392,1.23h.006c1.521,1.976,3.692,3.45,4.577,5.916l-.26.221-.3-.171a1.558,1.558,0,0,1-1.011-1.5,2.1,2.1,0,0,1-1.486-1.5l-3.506-3C57.515,179.156,56.635,179.078,55.972,180.09Z" transform="translate(-47.475 -151.681)"/>
  <path class="cls-5" d="M65.971,190.579a1.3,1.3,0,0,0-.014-1.5c-1.51-.815-1.426-2.095-1.014-3.471l.082-.07a14.535,14.535,0,0,1,2.391,9.939c-.1,1.008-.086,2.225-1.4,2.661l-.045-1.57A11.929,11.929,0,0,0,65.971,190.579Z" transform="translate(-47.475 -151.681)"/>
  <path class="cls-5" d="M57.451,183.612a9.777,9.777,0,0,1,5.541,7.957,4.466,4.466,0,0,1,0,3.013l-.025,2.486a.336.336,0,0,1-.539-.04C63.452,191.562,61.254,187.29,57.451,183.612Z" transform="translate(-47.475 -151.681)"/>
  <path class="cls-6" d="M56.976,209.533l6.486-5.979a.611.611,0,0,1-.005.954C61.369,206.277,59.964,208.924,56.976,209.533Z" transform="translate(-47.475 -151.681)"/>
  <path class="cls-6" d="M49.463,211.565c2.436.578,4.228-1.732,6.595-1.468C54.016,211.287,52.042,212.785,49.463,211.565Z" transform="translate(-47.475 -151.681)"/>
  <path class="cls-7" d="M62.428,197.028l.539.04c.625,1.644-.907,2.369-1.493,3.5a2.968,2.968,0,0,1-1.566.978,7.123,7.123,0,0,1,1.469-2.509c.71-.475.756-1.3,1.067-1.993Z" transform="translate(-47.475 -151.681)"/>
  <path class="cls-5" d="M64.513,201.637a2.908,2.908,0,0,1,1.447-2.568C66.014,200.227,65.805,201.237,64.513,201.637Z" transform="translate(-47.475 -151.681)"/>
  <path class="cls-5" d="M63.457,204.508l.006-.954c0-.33.006-.661.01-.991l1,0A2.491,2.491,0,0,1,63.457,204.508Z" transform="translate(-47.475 -151.681)"/>
  <path class="cls-5" d="M62.444,197.041c.074.894-.023,1.7-1.066,1.993A3.531,3.531,0,0,1,62.444,197.041Z" transform="translate(-47.475 -151.681)"/>
  <path class="cls-8" d="M65.971,190.579c1.193,2,.819,4,0,5.993Z" transform="translate(-47.475 -151.681)"/>
  <path class="cls-8" d="M61.972,182.594q.742.748,1.486,1.5a5.927,5.927,0,0,0-.7.22c-.5.22-.536,1.543-1.443.715-.606-.552.12-1.011.377-1.493A4.716,4.716,0,0,0,61.972,182.594Z" transform="translate(-47.475 -151.681)"/>
  <path class="cls-8" d="M64.943,185.612a4.448,4.448,0,0,0,1.014,3.471c-2.672-.238-1-2.326-1.487-3.492A3.735,3.735,0,0,1,64.943,185.612Z" transform="translate(-47.475 -151.681)"/>
  <path class="cls-8" d="M55.972,180.09c.559-1.537,1.49-1.2,2.494-.5A4.127,4.127,0,0,0,55.972,180.09Z" transform="translate(-47.475 -151.681)"/>
  <path class="cls-7" d="M62.992,194.582q0-1.506,0-3.012A2.35,2.35,0,0,1,62.992,194.582Z" transform="translate(-47.475 -151.681)"/>
  <line class="cls-9" x1="5.134" y1="14.476" x2="18.34" y2="7.92"/>
</svg>
