<svg width="46" height="50" viewBox="0 0 46 50" fill="none" xmlns="http://www.w3.org/2000/svg">
<path d="M5.79701 39.685C6.40592 40.9775 7.23303 42.1554 8.24201 43.167C9.63046 44.3271 11.3277 45.056 13.125 45.264C14.9223 45.4721 16.7413 45.1502 18.358 44.338C19.871 43.479 21.752 43.059 22.058 40.613C22.328 38.473 23.84 40.754 24.736 40.337C25.0909 40.3021 25.4468 40.3935 25.741 40.595C25.731 43.201 24.263 45.014 22.449 46.642C17.861 50.225 12.738 50.435 7.73401 48.164C6.14625 47.4279 4.76496 46.3108 3.71297 44.9122C2.66098 43.5135 1.97088 41.8766 1.70401 40.147C1.08833 36.4793 1.10456 32.7332 1.75201 29.071C1.78892 28.4882 1.97075 27.9238 2.28101 27.429C2.87101 26.647 3.48801 25.683 4.68101 26.139C5.15091 26.3277 5.53797 26.678 5.77246 27.1269C6.00695 27.5757 6.07346 28.0935 5.96001 28.587C5.8175 29.3196 5.62165 30.0409 5.37401 30.745C4.62501 33.766 4.32101 36.769 5.79701 39.685Z" fill="#FBE15F"/>
<path d="M5.79699 39.685C2.96699 37.261 4.34998 34.244 4.67498 31.401C4.83334 30.6705 5.09284 29.9657 5.44598 29.307C5.94098 28.143 5.81398 26.885 4.61298 26.607C3.41198 26.329 2.51298 27.407 2.28398 28.607C1.35517 32.8326 1.4106 37.2152 2.44598 41.416C2.83323 43.0681 3.6755 44.5788 4.87735 45.7768C6.07921 46.9747 7.59259 47.8121 9.24599 48.194C10.393 48.6115 11.5613 48.968 12.746 49.262C16.592 49.705 19.623 47.947 22.712 46.184C22.8673 46.2967 22.9217 46.4133 22.875 46.534C22.828 46.656 22.775 46.718 22.73 46.718C21.72 48.518 19.763 49.076 18.106 49.374C9.42498 50.935 2.21499 48.462 0.782985 37.711C0.487765 34.7301 0.67824 31.7209 1.34698 28.801C1.42699 27.881 1.79313 27.0092 2.39399 26.308C2.66273 25.9906 3.01558 25.7553 3.41199 25.6294C3.8084 25.5034 4.2323 25.4919 4.63499 25.596C5.04463 25.682 5.41442 25.9008 5.68693 26.2185C5.95944 26.5362 6.11941 26.935 6.14199 27.353C6.27844 28.0061 6.28422 28.6797 6.15898 29.335C5.19798 32.766 5.56298 36.224 5.79699 39.685Z" fill="#FAE068"/>
<path d="M36.721 29.206C37.1668 29.7959 37.6616 30.3472 38.2 30.854C38.4952 31.0928 38.8643 31.2217 39.244 31.2186C39.6238 31.2155 39.9906 31.0806 40.282 30.837C40.5717 30.6698 40.7949 30.4078 40.9139 30.0952C41.0328 29.7826 41.0403 29.4385 40.935 29.121C40.588 27.854 40.677 26.513 40.035 25.272C39.276 23.8 39.618 22.352 41.26 21.815C41.6042 21.655 41.981 21.5775 42.3604 21.5887C42.7398 21.5999 43.1114 21.6994 43.4456 21.8794C43.7798 22.0594 44.0673 22.3149 44.2855 22.6256C44.5036 22.9363 44.6462 23.2935 44.702 23.669C45.5129 25.9364 45.8578 28.3441 45.716 30.748C45.427 33.136 44.365 35.305 42.027 35.9C39.751 36.478 37.084 37.221 35.139 34.781C35.219 34.696 35.299 34.611 35.379 34.524C36.341 34.189 37.142 34.824 38.024 34.971C38.8198 35.1474 39.6462 35.1304 40.4341 34.9216C41.222 34.7128 41.9484 34.3182 42.5524 33.7708C43.1563 33.2234 43.6203 32.5393 43.9054 31.7757C44.1905 31.0121 44.2884 30.1912 44.191 29.382C43.9458 27.9964 43.7709 26.5993 43.667 25.196C43.673 24.112 43.024 23.626 41.688 23.758C43.519 24.707 44.452 25.726 42.645 27.405C41.995 28.005 42.821 28.58 43.106 29.134C44.188 31.243 43.711 31.974 41.336 32.386C39.536 32.699 37.881 32.804 36.464 31.414C36.1628 31.1618 35.9559 30.8151 35.8769 30.4304C35.7979 30.0456 35.8515 29.6454 36.029 29.295C36.067 29.2417 36.1157 29.1968 36.1719 29.1632C36.2281 29.1296 36.2906 29.1079 36.3556 29.0996C36.4205 29.0912 36.4865 29.0964 36.5494 29.1147C36.6122 29.133 36.6707 29.1641 36.721 29.206Z" fill="#FBE06A"/>
<path d="M24.716 40.698C23.331 42.727 23.508 40.206 22.866 40.061C22.7279 40.1292 22.6003 40.2167 22.487 40.321C21.65 41.33 23.012 43.233 22.475 43.221C19.748 43.172 18.201 46.106 15.439 45.706C13.375 45.406 11.145 46.315 9.249 44.735C8.712 44.288 8.228 43.916 8.242 43.165C9.85078 44.0148 11.6155 44.5289 13.429 44.676C19.116 44.858 22.467 41.751 22.722 35.991C22.8514 33.4194 22.6137 30.8425 22.016 28.338C21.5053 26.8254 21.5705 25.1776 22.199 23.71C22.2561 23.6703 22.3211 23.6433 22.3895 23.6308C22.4579 23.6183 22.5282 23.6206 22.5957 23.6376C22.6632 23.6545 22.7262 23.6857 22.7806 23.7291C22.835 23.7725 22.8794 23.827 22.911 23.889C23.8492 29.1319 24.4938 34.4232 24.842 39.738C24.8819 40.0635 24.8386 40.3938 24.716 40.698Z" fill="#FAE068"/>
<path d="M22.73 46.72L22.712 46.186C24.0025 44.5306 25.0132 42.675 25.704 40.693C25.5814 40.5637 25.4906 40.4077 25.4385 40.2373C25.3865 40.0669 25.3746 39.8867 25.404 39.711C25.979 38.422 25.616 36.811 26.769 35.711C28.927 34.897 31.212 34.49 33.342 33.556C34.209 33.176 35.202 33.288 35.231 34.673L35.143 34.773C32.557 34.618 30.556 36.818 27.888 36.546C27.281 36.483 27.334 37.591 27.179 38.22C26.392 41.417 25.69 44.663 22.73 46.72Z" fill="#FBE06A"/>
<path d="M36.721 29.206C36.5576 29.2052 36.3944 29.1958 36.232 29.178C35.414 28.513 35.674 27.265 34.832 26.615C33.37 25.688 33.126 26.862 32.885 27.81C32.6711 29.1083 32.137 30.3329 31.331 31.373C30.8302 31.7038 30.2735 31.941 29.688 32.073C29.1991 32.1585 28.6967 32.1227 28.2249 31.9688C27.7531 31.8148 27.3263 31.5474 26.982 31.19C26.348 30.565 26.214 29.925 26.937 29.267L27.29 29.147C27.4233 29.1846 27.5594 29.2113 27.697 29.227L27.721 29.207C29.714 30.857 30.211 30.707 30.606 28.296C30.7 27.726 30.7 27.138 31.227 26.75C32.253 25.87 32.627 23.721 34.509 24.493C36.488 25.303 36.966 27.171 36.721 29.206Z" fill="#F5E98E"/>
<path d="M22.729 23.753L22.198 23.707C23.69 21.695 25.198 21.707 26.231 23.831C26.9899 25.4982 27.3537 27.3181 27.294 29.149L27.157 29.249C26.744 29.333 26.528 29.089 26.357 28.773C26.2686 28.5671 26.2015 28.3526 26.157 28.133C26.0222 27.0587 25.7184 26.0125 25.257 25.033C24.842 23.754 23.611 24.095 22.729 23.753Z" fill="#F5E98E"/>
<path d="M22.729 23.753C24.137 22.828 25.1 23.242 25.705 24.739C26.163 25.339 25.868 26.05 25.968 26.703C24.757 31.013 26.047 35.371 25.72 39.703C25.72 40.034 25.709 40.366 25.704 40.697H24.716C23.9552 39.4257 23.5978 37.9536 23.691 36.475C23.761 33.627 23.999 30.743 22.706 28.039C22.4112 27.3624 22.2609 26.6316 22.2649 25.8936C22.2689 25.1555 22.4269 24.4264 22.729 23.753Z" fill="#FBE258"/>
<path d="M26.709 28.715L27.157 29.245C27.03 29.745 26.434 30.271 27.209 30.745C27.817 31.645 28.401 32.617 29.709 31.696C30.067 31.134 30.654 31.227 31.192 31.179C31.4038 31.2367 31.5868 31.3708 31.7055 31.5555C31.8243 31.7402 31.8704 31.9623 31.835 32.179C31.7609 32.3151 31.6777 32.4461 31.586 32.571C31.578 32.582 31.724 32.661 31.786 32.614C31.8734 32.5286 31.941 32.425 31.984 32.3107C32.0271 32.1963 32.0444 32.0738 32.035 31.952C32.0818 31.6763 32.2335 31.4294 32.4583 31.2631C32.6831 31.0968 32.9636 31.024 33.241 31.06C34.367 31.816 35.541 31.412 36.714 31.21C38.458 32.81 40.563 31.701 42.445 31.756C43.631 31.791 43.315 30.296 42.659 29.446C41.831 28.374 39.89 27.308 42.842 26.446C43.253 26.326 43.228 25.732 43.103 25.336C43.0508 25.2338 42.9769 25.1442 42.8866 25.0734C42.7963 25.0026 42.6917 24.9523 42.58 24.926C40.917 24.554 40.915 24.564 41.465 22.626C43.565 22.774 44.499 23.787 44.258 25.975C44.2678 26.8814 44.4224 27.7804 44.716 28.638C45.0247 29.618 45.0303 30.6684 44.732 31.6515C44.4336 32.6347 43.8453 33.5049 43.044 34.148C42.182 34.9934 41.071 35.5394 39.875 35.7052C38.6791 35.871 37.4615 35.648 36.402 35.069C36.0225 34.9097 35.6313 34.7796 35.232 34.68C34.868 34.07 34.441 33.58 33.648 34.004C31.4535 35.062 29.1199 35.8027 26.717 36.204C25.841 36.704 25.499 36.142 25.374 35.442C25.1297 33.2607 25.2524 31.0538 25.737 28.913C25.816 28.409 26.316 28.481 26.709 28.715Z" fill="#FAE35E"/>
<path d="M36.706 31.212C35.539 32.54 34.373 33.017 33.206 31.212C33.675 29.462 32.943 27.231 35.217 26.205C36.541 26.862 36.11 28.115 36.23 29.18C36.1545 29.8917 36.3223 30.6079 36.706 31.212Z" fill="#FCE063"/>
<path d="M26.709 28.715C25.461 30.739 25.463 35.034 26.709 36.204C26.284 37.342 26.804 38.749 25.715 39.704C25.097 35.375 23.701 31.048 25.708 26.718C26.27 27.064 26.266 27.783 26.697 28.218L26.709 28.715Z" fill="#FBE066"/>
<path d="M35.216 26.203C34.848 26.5875 34.5672 27.0469 34.3929 27.5498C34.2186 28.0526 34.1549 28.5872 34.206 29.117C34.392 30.07 33.782 30.629 33.206 31.21C32.9781 31.2965 32.7711 31.4303 32.5987 31.6027C32.4263 31.7751 32.2925 31.9821 32.206 32.21C32.1357 32.2682 32.0473 32.3001 31.956 32.3001C31.8647 32.3001 31.7763 32.2682 31.706 32.21L31.184 31.181C31.576 29.781 32.119 28.45 32.428 27.011C32.75 25.53 33.66 24.278 35.216 26.203Z" fill="#FBE259"/>
<path d="M29.705 31.695C28.134 33.314 27.531 32.395 27.205 30.744C28.003 31.16 28.666 31.921 29.705 31.695Z" fill="#FBE066"/>
<path d="M26.702 28.211C26.3988 28.0991 26.1393 27.8931 25.9614 27.6233C25.7834 27.3535 25.6964 27.0338 25.713 26.711C25.713 26.053 25.7104 25.395 25.705 24.737C26.3291 25.7906 26.6724 26.9868 26.702 28.211Z" fill="#FAE068"/>
<path d="M24.728 25.88C24.58 26.44 25.041 27.41 24.087 27.439C23.299 27.464 23.221 26.607 23.232 25.939C23.243 25.271 23.301 24.464 24.144 24.496C24.955 24.524 24.608 25.365 24.728 25.88Z" fill="#FBE066"/>
<path d="M31.71 32.208H32.21C32.939 33.58 31.63 33.342 31.05 33.608C30.971 33.6362 30.8865 33.6452 30.8034 33.6344C30.7203 33.6236 30.641 33.5932 30.5719 33.5458C30.5028 33.4984 30.4459 33.4352 30.4059 33.3615C30.366 33.2879 30.3441 33.2058 30.342 33.122C30.261 32.044 31.105 32.292 31.71 32.208Z" fill="#FCE063"/>
<path d="M14.003 10.736L40.415 2.803" stroke="#FFDE00" stroke-width="4" stroke-linecap="round" stroke-linejoin="round"/>
</svg>
