<svg id="Layer_1" data-name="Layer 1" xmlns="http://www.w3.org/2000/svg" viewBox="0 0 53.713 65.019">
  <defs>
    <style>
      .cls-1 {
        fill: #fbfcfd;
      }

      .cls-2 {
        fill: #fcfbe7;
      }

      .cls-3 {
        fill: #fcfdfc;
      }

      .cls-4 {
        fill: #fbe15f;
      }

      .cls-5 {
        fill: #fae068;
      }

      .cls-6 {
        fill: #fbe06a;
      }

      .cls-7 {
        fill: #f5e98e;
      }

      .cls-8 {
        fill: #fcfdfe;
      }

      .cls-9 {
        fill: #fbe258;
      }

      .cls-10 {
        fill: #fae35e;
      }

      .cls-11 {
        fill: #fce063;
      }

      .cls-12 {
        fill: #fbe066;
      }

      .cls-13 {
        fill: #fbe259;
      }

      .cls-14 {
        fill: none;
        stroke: #ffde00;
        stroke-linecap: round;
        stroke-linejoin: round;
        stroke-width: 4px;
      }
    </style>
  </defs>
  <path class="cls-1" d="M75.221,151.681c.453.025.93.228.918.656a1.224,1.224,0,0,1-1.13,1.13.765.765,0,0,1-.872-.708C74.07,152.051,74.573,151.756,75.221,151.681Z" transform="translate(-40.084 -146.262)"/>
  <path class="cls-1" d="M81.519,146.334c1.331,0,2.665-.045,3.992.032a1.353,1.353,0,0,1,.932.685c.218.451-.282.671-.584.949a3.365,3.365,0,0,1-2.535.8c-1.664-.044-3.33.006-4.994-.03-1.024-.021-1.9-.552-1.942-1.563-.051-1.344,1.162-.845,1.886-.9,1.077-.075,2.163-.019,3.245-.019Z" transform="translate(-40.084 -146.262)"/>
  <path class="cls-1" d="M55.588,149.547H68.206c-4.2,1.146-8.4.663-12.59.7Z" transform="translate(-40.084 -146.262)"/>
  <path class="cls-2" d="M51.312,206.948a4.072,4.072,0,0,0-2.495-.5c-.693-.463-1.3-1.049-2-1.494-1.337-.037-1.613-1.4-2.5-2a12.232,12.232,0,0,1-2.389-3.172c-.3-.574-.926-1.041-.611-1.82l-.508-1c-.136-.811.114-1.628-.041-2.44a21.557,21.557,0,0,1,.522-5.032l.012-2.017c-.722-1.911-.964-3.777.519-5.479l1.5-1a5.426,5.426,0,0,1,.6-.476c3.307-.448,4.826,1.095,4.886,4.963-2.12,3.37-1.853,7.028-.81,10.546.947,3.192,3.98,3.573,6.813,3.926,2.368-.783,4.829-1.392,6.494-3.484a9.218,9.218,0,0,1,1-2l.487-2a7.193,7.193,0,0,1,0-3.986,5.076,5.076,0,0,0-.493-3,5.733,5.733,0,0,1,0-5.99l1-1.008c.529-1.1,1.214-1.808,2.5-.994a5.282,5.282,0,0,1,2,2c2.461,1.391,1.674,3.546,1.324,5.6a.908.908,0,0,1-.6.44c-1.388-1.23-.786-3.134-1.54-4.582-.382-.735-.672-1.589-1.672-1.656-.914-.061-1.3.58-1.546,1.348a7.134,7.134,0,0,0,0,3.933,27.1,27.1,0,0,1,.7,7.412c-.348,8.38-7.7,12.295-15.087,8.019a7.27,7.27,0,0,1-3.02-4.167,23.36,23.36,0,0,1,.089-9.606,6.185,6.185,0,0,0,.148-1.728c-.039-.88-.233-1.7-1.3-1.813a1.7,1.7,0,0,0-1.748,1.118c-2.851,5.337-.824,15.331,3.636,19.407,3.048,2.786,13.391,3.06,16.23-.619,2.647-2.087,3.506-5.112,4.163-8.183.375-1.753,1.289-2.62,3.035-2.573a5.926,5.926,0,0,0,3.015-.94,3.058,3.058,0,0,1,2.625-.234c3.364,2.269,8.666,1.581,9.622-2.534a13.715,13.715,0,0,0-.975-8.5c-.433-1.046-1.42-1.082-2.344-.777a1.491,1.491,0,0,0-.947,2.017,21.258,21.258,0,0,1,.833,3.116c.168,1.509.5,3.131-1.38,3.784-1.738.6-2.815-.442-3.6-1.863a19.527,19.527,0,0,1-.386-2.408c-.531-2.019-1.952-2.467-3.489-1.127-.366.32-.661.737-1.222.721a1.124,1.124,0,0,1-.485-.912,2.3,2.3,0,0,1,.123-.712,5,5,0,0,1,1.309-1.725,2.669,2.669,0,0,1,1.057-.317,4.484,4.484,0,0,1,1.846.212,4.777,4.777,0,0,1,.974.54c1.857.921,1.545,2.838,2.024,4.391.248.39.439.985.958.917.677-.09.344-.726.376-1.151a16.32,16.32,0,0,1-1.2-3.241c-.312-2.353,1.269-4.19,4.185-4.873a3.45,3.45,0,0,1,2.246,1.276l.5.5c2.607,2.583,1.6,5.853,1.567,8.886a8.2,8.2,0,0,1-.569,3.094c-1.088,1.24-2.632,2.023-3.493,3.49-2.392,1.866-4.8.415-7.2.046-.9-.35-1.8-.832-2.726-.047-1.361.6-3.029.268-4.211,1.4a2.981,2.981,0,0,0-.243,1.222,9.443,9.443,0,0,1-.1,1.344,3.742,3.742,0,0,1-.187.674,18.274,18.274,0,0,1-4.813,6.356,2.769,2.769,0,0,0-2,1c-.654,1.689-2.356.942-3.5,1.5A23.988,23.988,0,0,1,51.312,206.948Z" transform="translate(-40.084 -146.262)"/>
  <path class="cls-1" d="M68.785,185.492c-.136-2.035.6-4.213-.981-6.012.145-.194.452-.434.411-.573-.988-3.391,2.562-3.479,3.85-5.2.258-.344,1.249-.194,1.9-.174.626.02,1.21.338,1.125,1.035s-.637.679-1.3.7c-2.1.057-3.259,1.353-3.888,3.381,1.328-2.085,2.606-1.416,3.9-.164.631.341,1.018.763.5,1.489l-1,.011c-.855.381-2.292-.605-2.564,1.084,1.259-.975,1.289-.967,1.564.416,0,.166-.006.332-.012.5a10.421,10.421,0,0,0-.765,2.828c-.2,1.984-1.088,2.266-2.562.984C68.9,185.7,68.842,185.594,68.785,185.492Z" transform="translate(-40.084 -146.262)"/>
  <path class="cls-1" d="M43.818,180.98l-.5.007A7.885,7.885,0,0,0,43.286,179c-.22-.82,1.048-1.8-.194-2.414-1.046-.519-1.451.81-2.451,1.128-.212-2.032,1.248-2.376,2.508-2.659.98-.22,1.968-.612,2.386,1.28.309,1.4,2.488,2.076,3.181,3.706.16.378.706.4,1-.082s.3-1.619,1.21-.914a1.443,1.443,0,0,1,.008,2.219c-1.37.982-.757,1.565.8,2.223l-2.416.491c-1.351-.838-1.256-3-3.269-3.352A2.307,2.307,0,0,0,43.818,180.98Z" transform="translate(-40.084 -146.262)"/>
  <path class="cls-3" d="M87.277,189.968c-.138-4.01.62-8.094-1-11.98l1,0a19.621,19.621,0,0,1,2.5,3,27.751,27.751,0,0,1,3,5.992q.25-.362.5,0c1.649,1.827-1.171,2.537-1,3.995-1.355-.335-1.662-2.5-3.5-2a1.032,1.032,0,0,0-.5-1c-.4-1.012-.508-1.948.669-2.542,1.239-.861.058-1.476-.276-2.582-.489,1.193-.119,2.178-.507,3-.336.67.111,1.481-.386,2.12C87.71,188.662,88.017,189.447,87.277,189.968Z" transform="translate(-40.084 -146.262)"/>
  <path class="cls-1" d="M88.781,188.971c2.869-2.314,2.427,1.165,3.5,2a6.372,6.372,0,0,0-.2,1.45c.072.857.677,1.858-.412,2.4-1.022.51-1.335-.6-1.926-1.1a3.666,3.666,0,0,1-.994-4.016A2.445,2.445,0,0,0,88.781,188.971Z" transform="translate(-40.084 -146.262)"/>
  <path class="cls-1" d="M61.305,196.462c-.726,2.383-2.8,3.5-6.494,3.484,0-.3.087-.823-.007-.857-.721-.262-1.75-.125-1.31-1.474.4-1.214,1.287-.662,2.019-.651a1.7,1.7,0,0,0,1.794-1C58.778,195.018,59.931,196.618,61.305,196.462Z" transform="translate(-40.084 -146.262)"/>
  <path class="cls-3" d="M78.789,184.975c-1.024-1.338.13-3.643-1.994-4.493,2.277-.907,2.028-2.653,1.494-4.494-.172-.577-.836-1.121-.082-1.808,1.049.446,1.234,1.688,2.081,2.307.8-.121,1.4-.8,2.227-.832.595-.022,1.372-.231,1.27.838-4.26,1.7-4.6,2.785-2.515,7.989-1.382,1.518-1.271-.551-1.919-.8A1.7,1.7,0,0,1,78.789,184.975Z" transform="translate(-40.084 -146.262)"/>
  <path class="cls-3" d="M54.6,208.962c2.075-.938,4.04,1.89,6.427.6.354-.192.74.293.673.787-.075.549-.468,1.085-.966.895-2.928-1.123-5.852-.66-8.79-.144-.794.139-1.033-.36-1.082-1a.936.936,0,0,1,1.007-1.128C52.7,208.945,53.531,208.962,54.6,208.962Z" transform="translate(-40.084 -146.262)"/>
  <path class="cls-1" d="M83.785,176.493c-1.163-1.517-2.333,1.208-3.5-.006,1.527-.5-.827-2.908,1.361-2.917,1.2,0,2.407.473,3.624-.047a1.458,1.458,0,0,1,.741.011c.626.1,1.2.384,1.055,1.1s-.7.819-1.372.569a4.491,4.491,0,0,0-1.7-.285c.841.742,2.14,1.1,1.785,2.573A2.792,2.792,0,0,1,83.785,176.493Z" transform="translate(-40.084 -146.262)"/>
  <path class="cls-3" d="M64.3,204.449l4.494-6.5c.585,1.427.938,2.826-.5,4-2.064.885-.054,1.91.191,2.382.793,1.526,1.256-.422,1.979-.514.328,2.309-.364,2.651-3.169,1.628-.8-.933-2.015-.615-3-1Z" transform="translate(-40.084 -146.262)"/>
  <path class="cls-1" d="M65.8,177.482c-1.051-.212-1.712.554-2.5.994-.737-.563-1.988-.94-1.416-2.175a4.373,4.373,0,0,1,3.454-2.294c.248.78-.569.843-.65,1.3.8.473,1.472-.2,2.4-.076C66.931,176.17,65.274,176.307,65.8,177.482Z" transform="translate(-40.084 -146.262)"/>
  <path class="cls-1" d="M68.3,201.953q.247-2,.5-4c0-.165,0-.329,0-.493.519-.628.8-1.725,2-1,.432.948-1.976,3.154,1.5,2.889-1.3.6-1.742,1.7-2.371,2.686C69.446,202.784,68.785,203.051,68.3,201.953Z" transform="translate(-40.084 -146.262)"/>
  <path class="cls-1" d="M89.781,180.981a3.411,3.411,0,0,1-2.5-3c.594-2.2,2.483.126,3.394-.968C90.653,178.4,91.43,179.965,89.781,180.981Z" transform="translate(-40.084 -146.262)"/>
  <path class="cls-1" d="M78.289,175.988c1.83,3.056,1.448,4.2-1.494,4.494l-.506-.5c-.69-1.144-.18-2.086.5-3Z" transform="translate(-40.084 -146.262)"/>
  <path class="cls-1" d="M41.821,181.987c-.691,1.777-.461,3.642-.518,5.479a3.049,3.049,0,0,1-.973-3.7,3.6,3.6,0,0,0,.238-2.867c-.323-.693.108-1.279.629-1.717a.71.71,0,0,1,.685-.015c.615.512-.056,1.049-.038,1.586C41.858,181.162,41.831,181.575,41.821,181.987Z" transform="translate(-40.084 -146.262)"/>
  <path class="cls-1" d="M73.792,192.964c.834-1.047,1.667-1.095,2.5,0,.551.57,1.045,1.154.5,2-1.332.575-2.664.925-4,0A8.958,8.958,0,0,1,73.792,192.964Z" transform="translate(-40.084 -146.262)"/>
  <path class="cls-3" d="M42.319,199.456c.587,1.21,1.9,2.005,2,3.5h-.5c-.587.1-.983-.381-1.5-.5-.648.075-1.146,1.4-1.8.508-.691-.94.033-1.821.8-2.506C41.63,200.1,41.809,199.613,42.319,199.456Z" transform="translate(-40.084 -146.262)"/>
  <path class="cls-3" d="M76.791,194.963l-.5-2a2.591,2.591,0,0,1,.484.019c2.312.521,4.578,1.7,7.009.474-.794.53-1.586,1.063-2.381,1.59-.759.5-1.527.673-2.126-.192C78.363,193.536,77.58,194.017,76.791,194.963Z" transform="translate(-40.084 -146.262)"/>
  <path class="cls-3" d="M43.818,180.98a3.09,3.09,0,0,1,4.634.969,13.38,13.38,0,0,1,.861,2.028c-.018.55.089,1.142-.505,1.5a15.29,15.29,0,0,0-1.649-3.68A2.855,2.855,0,0,0,43.818,180.98Z" transform="translate(-40.084 -146.262)"/>
  <path class="cls-3" d="M76.791,176.987c.176,1.057-.335,2-.5,3l-2-.013q-.249-.745-.5-1.489C74.886,178.171,75.16,176.223,76.791,176.987Z" transform="translate(-40.084 -146.262)"/>
  <path class="cls-1" d="M86.762,194.19c.03.777-.275,1.252-1.118,1.252-.706,0-1.418-.083-1.223-1.03.146-.713.461-1.43,1.422-1.39C86.6,193.054,86.768,193.557,86.762,194.19Z" transform="translate(-40.084 -146.262)"/>
  <path class="cls-3" d="M41.29,189.483v5.48a.644.644,0,0,1-.971,0C39.669,192.964,40.652,191.254,41.29,189.483Z" transform="translate(-40.084 -146.262)"/>
  <path class="cls-1" d="M48.629,188.663a3.122,3.122,0,0,1,.393,3.438c-.108.269-.6.162-.814-.133C47.364,190.81,48.15,189.854,48.629,188.663Z" transform="translate(-40.084 -146.262)"/>
  <path class="cls-1" d="M48.808,195.317a1.212,1.212,0,0,1,1.567.485c.46.573,1.507.886.994,1.946-.1.2-.336.523-.463.5-.885-.142-.849-1.065-1.267-1.615C49.358,196.267,49.14,195.851,48.808,195.317Z" transform="translate(-40.084 -146.262)"/>
  <path class="cls-1" d="M64.3,204.451c1.3-.575,2.578-1.075,3,1C66.109,205.69,64.807,206.266,64.3,204.451Z" transform="translate(-40.084 -146.262)"/>
  <path class="cls-3" d="M73.792,192.964a1.754,1.754,0,0,1-1,2,1.714,1.714,0,0,0-1-1c-.873.857-1.8,1.414-2.968.5C70.213,193.075,72.261,193.874,73.792,192.964Z" transform="translate(-40.084 -146.262)"/>
  <path class="cls-1" d="M68.827,194.464c1.047.175,1.977-.342,2.968-.5l-.5,1.5c-.774.442-1.51,1.071-2.488.5Z" transform="translate(-40.084 -146.262)"/>
  <path class="cls-3" d="M51.312,206.948h7.493A11.829,11.829,0,0,1,51.312,206.948Z" transform="translate(-40.084 -146.262)"/>
  <path class="cls-1" d="M57.383,195.837H53.245C55.019,194.594,56.2,194.745,57.383,195.837Z" transform="translate(-40.084 -146.262)"/>
  <path class="cls-1" d="M62.3,179.484a9.068,9.068,0,0,0,0,5.99A4.733,4.733,0,0,1,62.3,179.484Z" transform="translate(-40.084 -146.262)"/>
  <path class="cls-1" d="M48.733,176.666c-.454-.25-1.237-.071-1.307-.853-.06-.67.446-.858.964-.7s1.218.279,1.231.985C49.629,176.508,49.248,176.791,48.733,176.666Z" transform="translate(-40.084 -146.262)"/>
  <path class="cls-1" d="M42.319,199.456a.913.913,0,0,1-1,1c-.382-.831-1.735-1.662,0-2.5Z" transform="translate(-40.084 -146.262)"/>
  <path class="cls-3" d="M68.807,195.961l2.488-.5a1.031,1.031,0,0,1-.5,1c-.869-.073-1.307.717-2,1Q68.8,196.711,68.807,195.961Z" transform="translate(-40.084 -146.262)"/>
  <path class="cls-1" d="M87.782,187.972q0-1.248,0-2.5c.886-.715,1.723-1.233,2,.5-1.592-.151-1.538.929-1.5,2Z" transform="translate(-40.084 -146.262)"/>
  <path class="cls-3" d="M58.805,206.947c1.027-.824,2.6-.364,3.5-1.5C61.909,207.745,60.074,206.687,58.805,206.947Z" transform="translate(-40.084 -146.262)"/>
  <path class="cls-1" d="M42.319,202.453c.715-.481,1.089.063,1.5.5-.041.325-.076.771-.459.75C42.64,203.662,42.633,202.9,42.319,202.453Z" transform="translate(-40.084 -146.262)"/>
  <path class="cls-1" d="M62.793,188.476v3.986A3.778,3.778,0,0,1,62.793,188.476Z" transform="translate(-40.084 -146.262)"/>
  <path class="cls-1" d="M40.32,194.963h.972a3.016,3.016,0,0,1-.483,1.992C40.091,196.427,40.39,195.65,40.32,194.963Z" transform="translate(-40.084 -146.262)"/>
  <path class="cls-3" d="M46.816,204.952a2.379,2.379,0,0,1,2,1.494A2.352,2.352,0,0,1,46.816,204.952Z" transform="translate(-40.084 -146.262)"/>
  <path class="cls-3" d="M44.736,205.458c-.275.182-.439.375-.618.391-.329.03-.646-.126-.534-.521.039-.139.366-.276.556-.27C44.31,205.064,44.472,205.27,44.736,205.458Z" transform="translate(-40.084 -146.262)"/>
  <path class="cls-1" d="M42.414,204.278a4.382,4.382,0,0,1,.341.88c.034.209-.081.582-.392.252a2.365,2.365,0,0,1-.375-.892A2.761,2.761,0,0,1,42.414,204.278Z" transform="translate(-40.084 -146.262)"/>
  <path class="cls-1" d="M62.306,194.465a2.79,2.79,0,0,1-1,2C61.257,195.605,61.391,194.839,62.306,194.465Z" transform="translate(-40.084 -146.262)"/>
  <path class="cls-4" d="M46.881,195.947a12.435,12.435,0,0,0,2.445,3.482A9.28,9.28,0,0,0,59.442,200.6c1.513-.859,3.394-1.279,3.7-3.725.27-2.14,1.782.141,2.678-.276a1.516,1.516,0,0,1,1.005.258c-.01,2.606-1.478,4.419-3.292,6.047-4.588,3.583-9.711,3.793-14.715,1.522a10.622,10.622,0,0,1-6.03-8.017,32.611,32.611,0,0,1,.048-11.076,3.508,3.508,0,0,1,.529-1.642c.59-.782,1.207-1.746,2.4-1.29a2.125,2.125,0,0,1,1.279,2.448,15.322,15.322,0,0,1-.586,2.158C45.709,190.028,45.405,193.031,46.881,195.947Z" transform="translate(-40.084 -146.262)"/>
  <path class="cls-5" d="M46.881,195.947c-2.83-2.424-1.447-5.441-1.122-8.284a8.035,8.035,0,0,1,.771-2.094c.495-1.164.368-2.422-.833-2.7s-2.1.8-2.329,2a28.214,28.214,0,0,0,.162,12.809,9.084,9.084,0,0,0,6.8,6.778,34.616,34.616,0,0,0,3.5,1.068c3.846.443,6.877-1.315,9.966-3.078q.233.169.163.35c-.047.122-.1.184-.145.184-1.01,1.8-2.967,2.358-4.624,2.656-8.681,1.561-15.891-.912-17.323-11.663a27.688,27.688,0,0,1,.564-8.91,4.42,4.42,0,0,1,1.047-2.493,2.211,2.211,0,0,1,2.241-.712,1.9,1.9,0,0,1,1.507,1.757,5.053,5.053,0,0,1,.017,1.982C46.282,189.028,46.647,192.486,46.881,195.947Z" transform="translate(-40.084 -146.262)"/>
  <path class="cls-6" d="M77.805,185.468a13.169,13.169,0,0,0,1.479,1.648,1.639,1.639,0,0,0,2.082-.017,1.453,1.453,0,0,0,.653-1.716c-.347-1.267-.258-2.608-.9-3.849-.759-1.472-.417-2.92,1.225-3.457a2.44,2.44,0,0,1,3.442,1.854A17.891,17.891,0,0,1,86.8,187.01c-.289,2.388-1.351,4.557-3.689,5.152-2.276.578-4.943,1.321-6.888-1.119.08-.085.16-.17.24-.257.962-.335,1.763.3,2.645.447a5.1,5.1,0,0,0,6.167-5.589,41.725,41.725,0,0,1-.524-4.186c.006-1.084-.643-1.57-1.979-1.438,1.831.949,2.764,1.968.957,3.647-.65.6.176,1.175.461,1.729,1.082,2.109.605,2.84-1.77,3.252-1.8.313-3.455.418-4.872-.972a1.739,1.739,0,0,1-.435-2.119A.476.476,0,0,1,77.805,185.468Z" transform="translate(-40.084 -146.262)"/>
  <path class="cls-5" d="M65.8,196.96c-1.385,2.029-1.208-.492-1.85-.637a1.618,1.618,0,0,0-.379.26c-.837,1.009.525,2.912-.012,2.9-2.727-.049-4.274,2.885-7.036,2.485-2.064-.3-4.294.609-6.19-.971-.537-.447-1.021-.819-1.007-1.57a13.429,13.429,0,0,0,5.187,1.511c5.687.182,9.038-2.925,9.293-8.685A27.1,27.1,0,0,0,63.1,184.6a6.486,6.486,0,0,1,.183-4.628.487.487,0,0,1,.712.179A143.075,143.075,0,0,1,65.926,196,1.937,1.937,0,0,1,65.8,196.96Z" transform="translate(-40.084 -146.262)"/>
  <path class="cls-6" d="M63.814,202.982l-.018-.534a19.227,19.227,0,0,0,2.992-5.493,1.152,1.152,0,0,1-.3-.982c.575-1.289.212-2.9,1.365-4,2.158-.814,4.443-1.221,6.573-2.155.867-.38,1.86-.268,1.889,1.117l-.088.1c-2.586-.155-4.587,2.045-7.255,1.773-.607-.063-.554,1.045-.709,1.674C67.476,197.679,66.774,200.925,63.814,202.982Z" transform="translate(-40.084 -146.262)"/>
  <path class="cls-7" d="M77.805,185.468a4.7,4.7,0,0,1-.489-.028c-.818-.665-.558-1.913-1.4-2.563-1.462-.927-1.706.247-1.947,1.195a7.918,7.918,0,0,1-1.554,3.563,4.958,4.958,0,0,1-1.643.7,3.032,3.032,0,0,1-2.706-.883c-.634-.625-.768-1.265-.045-1.923l.353-.12a2.569,2.569,0,0,0,.407.08l.024-.02c1.993,1.65,2.49,1.5,2.885-.911.094-.57.094-1.158.621-1.546,1.026-.88,1.4-3.029,3.282-2.257C77.572,181.565,78.05,183.433,77.805,185.468Z" transform="translate(-40.084 -146.262)"/>
  <path class="cls-7" d="M63.813,180.015l-.531-.046c1.492-2.012,3-2,4.033.124a11.9,11.9,0,0,1,1.063,5.318l-.137.1c-.413.084-.629-.16-.8-.476a3.267,3.267,0,0,1-.2-.64,10.276,10.276,0,0,0-.9-3.1C65.926,180.016,64.695,180.357,63.813,180.015Z" transform="translate(-40.084 -146.262)"/>
  <path class="cls-3" d="M72.315,183.014a20.135,20.135,0,0,1-.085,2.228,1.881,1.881,0,0,1-1.6,1.681,1.39,1.39,0,0,1-1.825-1.452c1.075.243,2.7,1.57,2.094-1.246-.183-.85.779-1.569,1.383-2.242C72.3,182.327,72.305,182.67,72.315,183.014Z" transform="translate(-40.084 -146.262)"/>
  <path class="cls-1" d="M78.789,184.975c.064-.859-.2-1.776.395-2.589,1.353.105.227,2.593,2.086,2.1-.1.724.362,1.725-.837,1.927C79.363,186.588,79.174,185.643,78.789,184.975Z" transform="translate(-40.084 -146.262)"/>
  <path class="cls-3" d="M72.3,181.485c-.307-1.046-.671-1.221-.987-.022-.189.713-.557,1.426-1.265,1.011-.544-.319-.325-1.2.057-1.794.828-1.278,1.84-1.8,3.195-.695A1.529,1.529,0,0,1,72.3,181.485Z" transform="translate(-40.084 -146.262)"/>
  <path class="cls-8" d="M89.781,185.973c-.407-1.2-1.289-.5-2-.5v-3.563C89.021,183.1,91.319,183.705,89.781,185.973Z" transform="translate(-40.084 -146.262)"/>
  <path class="cls-9" d="M63.813,180.015c1.408-.925,2.371-.511,2.976.986.458.6.163,1.311.263,1.964-1.211,4.31.079,8.668-.248,13,0,.331-.011.663-.016.994l-.988,0a7.325,7.325,0,0,1-1.025-4.222c.07-2.848.308-5.732-.985-8.436A5.3,5.3,0,0,1,63.813,180.015Z" transform="translate(-40.084 -146.262)"/>
  <path class="cls-10" d="M67.793,184.977l.448.53c-.127.5-.723,1.026.052,1.5.608.9,1.192,1.872,2.5.951.358-.562.945-.469,1.483-.517a.888.888,0,0,1,.643,1,3.449,3.449,0,0,1-.249.392c-.008.011.138.09.2.043a.835.835,0,0,0,.249-.662,1.082,1.082,0,0,1,1.206-.892c1.126.756,2.3.352,3.473.15,1.744,1.6,3.849.491,5.731.546,1.186.035.87-1.46.214-2.31-.828-1.072-2.769-2.138.183-3,.411-.12.386-.714.261-1.11a.791.791,0,0,0-.523-.41c-1.663-.372-1.665-.362-1.115-2.3,2.1.148,3.034,1.161,2.793,3.349A8.506,8.506,0,0,0,85.8,184.9a5.1,5.1,0,0,1-1.672,5.51,5.63,5.63,0,0,1-6.642.921,8.065,8.065,0,0,0-1.17-.389c-.364-.61-.791-1.1-1.584-.676a25.713,25.713,0,0,1-6.931,2.2c-.876.5-1.218-.062-1.343-.762a19.662,19.662,0,0,1,.363-6.529C66.9,184.671,67.4,184.743,67.793,184.977Z" transform="translate(-40.084 -146.262)"/>
  <path class="cls-11" d="M77.79,187.474c-1.167,1.328-2.333,1.805-3.5,0,.469-1.75-.263-3.981,2.011-5.007,1.324.657.893,1.91,1.013,2.975A3.167,3.167,0,0,0,77.79,187.474Z" transform="translate(-40.084 -146.262)"/>
  <path class="cls-12" d="M67.793,184.977c-1.248,2.024-1.246,6.319,0,7.489-.425,1.138.095,2.545-.994,3.5-.618-4.329-2.014-8.656-.007-12.986.562.346.558,1.065.989,1.5Z" transform="translate(-40.084 -146.262)"/>
  <path class="cls-13" d="M76.3,182.465a3.7,3.7,0,0,0-1.01,2.914c.186.953-.424,1.512-1,2.093a1.723,1.723,0,0,0-1,1,.392.392,0,0,1-.5,0l-.522-1.029c.392-1.4.935-2.731,1.244-4.17C73.834,181.792,74.744,180.54,76.3,182.465Z" transform="translate(-40.084 -146.262)"/>
  <path class="cls-12" d="M70.789,187.957c-1.571,1.619-2.174.7-2.5-.951C69.087,187.422,69.75,188.183,70.789,187.957Z" transform="translate(-40.084 -146.262)"/>
  <path class="cls-5" d="M67.786,184.473a1.516,1.516,0,0,1-.989-1.5q0-.987-.008-1.974A7.156,7.156,0,0,1,67.786,184.473Z" transform="translate(-40.084 -146.262)"/>
  <path class="cls-12" d="M65.812,182.142c-.148.56.313,1.53-.641,1.559-.788.025-.866-.832-.855-1.5s.069-1.475.912-1.443C66.039,180.786,65.692,181.627,65.812,182.142Z" transform="translate(-40.084 -146.262)"/>
  <path class="cls-11" d="M72.794,188.47h.5c.729,1.372-.58,1.134-1.16,1.4a.53.53,0,0,1-.708-.486C71.345,188.306,72.189,188.554,72.794,188.47Z" transform="translate(-40.084 -146.262)"/>
  <line class="cls-14" x1="15.003" y1="20.736" x2="41.415" y2="12.803"/>
</svg>
