<svg id="Layer_1" data-name="Layer 1" xmlns="http://www.w3.org/2000/svg" viewBox="0 0 54.569 88.022">
  <defs>
    <style>
      .cls-1 {
        fill: #fbfcfd;
      }

      .cls-2 {
        fill: #fcfdfc;
      }

      .cls-3 {
        fill: #f2faed;
      }

      .cls-4 {
        fill: #f3faee;
      }

      .cls-5 {
        fill: #8abd64;
      }

      .cls-6 {
        fill: #94bc71;
      }

      .cls-7 {
        fill: #98bf76;
      }

      .cls-8 {
        fill: #96c076;
      }

      .cls-9 {
        fill: #99bf78;
      }

      .cls-10 {
        fill: #eaf7e2;
      }

      .cls-11 {
        fill: #e9f7e2;
      }

      .cls-12 {
        fill: #87c05b;
      }

      .cls-13 {
        fill: #90bd6e;
      }

      .cls-14 {
        fill: none;
        stroke: #8abe62;
        stroke-linecap: round;
        stroke-linejoin: round;
        stroke-width: 4px;
      }
    </style>
  </defs>
  <path class="cls-1" d="M75.221,151.681c.453.025.93.228.918.656a1.224,1.224,0,0,1-1.13,1.13.765.765,0,0,1-.872-.708C74.07,152.051,74.573,151.756,75.221,151.681Z" transform="translate(-37.899 -146.262)"/>
  <path class="cls-1" d="M81.519,146.334c1.331,0,2.665-.045,3.992.032a1.353,1.353,0,0,1,.932.685c.218.451-.282.671-.584.949a3.365,3.365,0,0,1-2.535.8c-1.664-.044-3.33.006-4.994-.03-1.024-.021-1.9-.552-1.942-1.563-.051-1.344,1.162-.845,1.886-.9,1.077-.075,2.163-.019,3.245-.019Z" transform="translate(-37.899 -146.262)"/>
  <path class="cls-1" d="M55.588,149.547H68.206c-4.2,1.146-8.4.663-12.59.7Z" transform="translate(-37.899 -146.262)"/>
  <path class="cls-2" d="M54.6,208.962c2.075-.938,4.04,1.89,6.427.6.354-.192.74.293.673.787-.075.549-.468,1.085-.966.895-2.928-1.123-5.852-.66-8.79-.144-.794.139-1.033-.36-1.082-1a.936.936,0,0,1,1.007-1.128C52.7,208.945,53.531,208.962,54.6,208.962Z" transform="translate(-37.899 -146.262)"/>
  <path class="cls-1" d="M64.3,204.451c1.3-.575,2.578-1.075,3,1C66.109,205.69,64.807,206.266,64.3,204.451Z" transform="translate(-37.899 -146.262)"/>
  <path class="cls-2" d="M51.312,206.948h7.493A11.829,11.829,0,0,1,51.312,206.948Z" transform="translate(-37.899 -146.262)"/>
  <path class="cls-2" d="M58.805,206.947c1.027-.824,2.6-.364,3.5-1.5C61.909,207.745,60.074,206.687,58.805,206.947Z" transform="translate(-37.899 -146.262)"/>
  <path class="cls-1" d="M42.319,202.453c.715-.481,1.089.063,1.5.5-.041.325-.076.771-.459.75C42.64,203.662,42.633,202.9,42.319,202.453Z" transform="translate(-37.899 -146.262)"/>
  <path class="cls-2" d="M46.816,204.952a2.379,2.379,0,0,1,2,1.494A2.352,2.352,0,0,1,46.816,204.952Z" transform="translate(-37.899 -146.262)"/>
  <path class="cls-2" d="M44.736,205.458c-.275.182-.439.375-.618.391-.329.03-.646-.126-.534-.521.039-.139.366-.276.556-.27C44.31,205.064,44.472,205.27,44.736,205.458Z" transform="translate(-37.899 -146.262)"/>
  <path class="cls-1" d="M42.414,204.278a4.382,4.382,0,0,1,.341.88c.034.209-.081.582-.392.252a2.365,2.365,0,0,1-.375-.892A2.761,2.761,0,0,1,42.414,204.278Z" transform="translate(-37.899 -146.262)"/>
  <path class="cls-1" d="M58.5,222.23c-.481-1.358-1.748-.787-2.8-1.048,1.524-.541.769-3.917,3.562-2.569.293.142.691-.208.657-.563-.108-1.108.065-2.7-1.025-3.035-1.5-.464-.783-1.012-.342-1.506a6.093,6.093,0,0,0,1.438-4.459c-.818,1.068-1.8,2.179-2.639.91-.746-1.136-2.192-2.41-.666-4.2,1.09-1.277,3.067-1.383,3.733-3.11.215-.559,1.359-.931.729-1.587-.723-.751-1.307.189-1.831.657a15.032,15.032,0,0,0-1.062,1.177c-.286-.63-.529-1.206-.807-1.766-.381-.77-.731-2.144-.1-2.2.892-.081,2.043-.793,3.011.285a4.959,4.959,0,0,0,3.007,1.613c-2.392-2.243-.784-4.979-1.787-7.286-.361-.83.375-1.36,1.334-1.19.452.08.833.914,1.272.4.767-.893,2.559.234,2.8-1.512.224-1.64-.908-1.879-2.117-2.141a.762.762,0,0,1-.569-1.148,1.237,1.237,0,0,1,1.92-.448c.954,1.053,1.345.545,1.874-.293.692-1.1,1.943-.688,2.895-1.052,1.77-.674,1.348.838,1.789,1.522a2.352,2.352,0,0,0,1.844,1.117c1.94.2,1.693,1.939,2.156,3.173a2.042,2.042,0,0,1,3.107,1.185c.64,1.833,1.921,3.833-.176,5.613-1.016.862-.043,1.2.438,1.249,2.58.286,4.064,2.068,5.673,4.016l1.82-2.109c.689,1.243,0,1.827-.612,2.518-.882,1-2.57,1.9-.079,3.235,1.151.616-.992,1.552-.45,2.565q-.168.056-.336.114c-1.614-.342-1.531-1.914-2.165-2.968a12.054,12.054,0,0,1-1.151-2.686c-.707-2.169-1.37-2.432-3.637-1.6-1.187,1.774-.045,3.455.216,5.158.35,2.282-.079,2.97-2.215,3.3-1.388-.654-1.669-1.941-1.838-3.271-.2-1.6-.839-3.085-2.579-3.109-1.676-.023-2.406,1.329-2.783,2.946-.722,3.1-1.427,3.548-3.864,2.872-1.231-1.411-1-3.273-1.517-4.906-.321-1.016-.474-2.324-1.9-2.193-1.4.129-1.424,1.407-1.5,2.488a20.192,20.192,0,0,0,.6,4.909c.629,3.738.622,7.412-1.792,10.662a2,2,0,0,1-1.129.405C58.757,222.322,58.628,222.276,58.5,222.23Z" transform="translate(-37.899 -146.262)"/>
  <path class="cls-3" d="M38.518,213.246q0-.747,0-1.5c.751-.9-.486-2.134.5-3l0-.5c.607-2.056,1.253-4.074,4-3.992h.494c.656,1.147,2.224,1.533,2.5,3,.455,2.442-1.292,4.569-1,6.988-.247,1.877.575,3.566.973,5.324a2.852,2.852,0,0,1,.135,1.656c-.578.319-1.008.012-1.431-.331-1.727-2.628-1.47-5.51-1.054-8.407a19.426,19.426,0,0,0,.549-3.678,1.582,1.582,0,0,0-1.249-1.645,1.46,1.46,0,0,0-1.623.859c-3.4,5.3-.8,16.932,4.479,20.045a13.261,13.261,0,0,0,17.135-3.451,14.693,14.693,0,0,0,2.321-5.971,2.514,2.514,0,0,1,2.477-2.3,7.738,7.738,0,0,0,3.714-1.264c1.177-.774,2.2-.7,2.7.851-.533,1.1-1.939.461-2.6,1.31a7.063,7.063,0,0,1-4.044.993c-1.383.309-1.157,1.56-1.463,2.5a2.231,2.231,0,0,1,.462,2l-.5.5a7.534,7.534,0,0,1-1.494,2l-.007,1a8.372,8.372,0,0,1-3.494,3c-.166,0-.333,0-.5.01-.693,1.114-1.961,1.07-3,1.488l-1,.009c-.548,1.03-1.527,1.123-2.536,1.195a15.74,15.74,0,0,1-9.455-2.2h0c-4.454-2.093-5.3-6.248-5.991-10.486l-.008-2.994A2.128,2.128,0,0,1,38.518,213.246Z" transform="translate(-37.899 -146.262)"/>
  <path class="cls-1" d="M46.015,221.236c-.557-2.3-1.948-4.478-1-6.992.579,1.743,1.477,3.565,1.562,5.241.111,2.168,3.36,1.282,2.187,3.752,1.416-.471.29-1.49,1.157-1.761.113.041.325.05.387.151.815,1.33,3.843,2.23,5.145,1.43a4.885,4.885,0,0,1,3.048-.827l.005.006c.209.689-.218,1.09-.679,1.463-2.907,2.356-8.484,2.1-11.125-.5C46.151,222.66,45.684,222.086,46.015,221.236Z" transform="translate(-37.899 -146.262)"/>
  <path class="cls-1" d="M86.485,210.249l1.931.547-2.216,1.16c2.19,2.165,2.062,4.335-.292,6.094a6.93,6.93,0,0,1-.792.483c-1.261-1.971-3.241.284-4.63-.793,1.6-1.6,3.565-2.915,4.274-5.226a3.417,3.417,0,0,1,1.722-2.263Z" transform="translate(-37.899 -146.262)"/>
  <path class="cls-1" d="M44.516,229.725c3.116.554,6.092,1.916,9.376,1.524a6.329,6.329,0,0,0,2.615-.517c.171,1.161-.627,1.576-1.484,1.992-1.619.786-3.565.316-5.138,1.425-.4.285-1.711.183-.56-.938.723-.7-.109-.97-.385-.88C46.434,233.148,45.952,230.64,44.516,229.725Z" transform="translate(-37.899 -146.262)"/>
  <path class="cls-4" d="M86.482,210.251c-.433,1.024-.792,2.088-1.316,3.063-1.064,1.978-2.2,3.923-4.68,4.426h0a3.627,3.627,0,0,1-3,.5h-.5a1.949,1.949,0,0,1-2-.986l-.5-.008a2.676,2.676,0,0,1-3-.5c.679-1.1,1.71-.547,2.622-.556.957-.575,1.931-.071,2.887-.012,4.392.272,6.611-1.7,6.828-6.1.047-.966-.173-2,.6-2.813C85.3,208.133,84.96,209.83,86.482,210.251Z" transform="translate(-37.899 -146.262)"/>
  <path class="cls-1" d="M83.391,199.838c-1.021-1.294-1.033-2.779-1.232-4.1a2.5,2.5,0,0,1,1.12-2.058c.87-.43,1.321.8,1.781,1.315a2.2,2.2,0,0,1,.451,2.658A17.484,17.484,0,0,1,83.391,199.838Z" transform="translate(-37.899 -146.262)"/>
  <path class="cls-1" d="M61,229.225a8.36,8.36,0,0,1,3.494-3c2.091.16,1.678,1.753,1.8,3.078.066.7-.276.479-.7.531A11.758,11.758,0,0,1,61,229.225Z" transform="translate(-37.899 -146.262)"/>
  <path class="cls-1" d="M71.494,216.743a8.754,8.754,0,0,1,3,.5c-1.16,1.464-3.165,1.25-4.6,2.329-.828.623-1.479-1.03-2.4-1.337Z" transform="translate(-37.899 -146.262)"/>
  <path class="cls-1" d="M66.64,166.146H56.864l-.017-.486h9.782Z" transform="translate(-37.899 -146.262)"/>
  <path class="cls-1" d="M65.522,164.111a16.644,16.644,0,0,1-8.064-.652h8.033Z" transform="translate(-37.899 -146.262)"/>
  <path class="cls-1" d="M89.74,164.477c.055.776.649,1.743-.674,1.718-.791-.015-1.074-.614-.866-1.423s-.193-2.177.943-2.17C90.22,162.608,89.936,163.785,89.74,164.477Z" transform="translate(-37.899 -146.262)"/>
  <path class="cls-1" d="M55.258,219.8c-.957.67-1.722,1.262-2.545,1.757a1.014,1.014,0,0,1-1.352-.11c-.4-.544.107-.9.524-1.13C52.877,219.768,53.779,218.6,55.258,219.8Z" transform="translate(-37.899 -146.262)"/>
  <path class="cls-1" d="M87.978,196.479c.642,1.17.938,2.315-.171,2.939-.619.348-2.239.31-1-1.335C87.168,197.6,87.518,197.109,87.978,196.479Z" transform="translate(-37.899 -146.262)"/>
  <path class="cls-1" d="M82.808,188.216c-.059.591-.394,1.01-.935.864-.643-.174-1.576-.068-1.748-.991-.12-.647.445-.77.954-.787C81.827,187.277,82.559,187.312,82.808,188.216Z" transform="translate(-37.899 -146.262)"/>
  <path class="cls-1" d="M91.83,166.186c-.349-.913-1.054-1.526-.456-2.369a.636.636,0,0,1,.612-.084C92.689,164.408,92.612,165.14,91.83,166.186Z" transform="translate(-37.899 -146.262)"/>
  <path class="cls-1" d="M77.489,218.24a5.224,5.224,0,0,1,3-.5C79.62,218.7,78.817,220.036,77.489,218.24Z" transform="translate(-37.899 -146.262)"/>
  <path class="cls-1" d="M74.991,217.254l2,.986C75.235,220.117,75.2,218.5,74.991,217.254Z" transform="translate(-37.899 -146.262)"/>
  <path class="cls-1" d="M64.5,225.232a2.374,2.374,0,0,1,1.494-2C65.872,224.176,66.234,225.483,64.5,225.232Z" transform="translate(-37.899 -146.262)"/>
  <path class="cls-1" d="M57.5,230.723l3-1.488C60.085,230.9,58.716,230.656,57.5,230.723Z" transform="translate(-37.899 -146.262)"/>
  <path class="cls-1" d="M66.494,222.733a3.124,3.124,0,0,1-.463-2C67.388,221.124,67.191,221.871,66.494,222.733Z" transform="translate(-37.899 -146.262)"/>
  <path class="cls-1" d="M77.106,187.441c.328.1.606.291.565.653a.544.544,0,0,1-.693.481.7.7,0,0,1-.395-.493A.523.523,0,0,1,77.106,187.441Z" transform="translate(-37.899 -146.262)"/>
  <path class="cls-1" d="M88.021,217.34c.17.284.355.457.365.639.018.339-.181.621-.553.5-.135-.043-.251-.384-.236-.578C87.61,217.738,87.823,217.588,88.021,217.34Z" transform="translate(-37.899 -146.262)"/>
  <path class="cls-1" d="M51.293,219.725c-.645.476-.861.729-1.127.805s-.414-.191-.275-.426a1.6,1.6,0,0,1,.6-.622C50.628,219.412,50.9,219.594,51.293,219.725Z" transform="translate(-37.899 -146.262)"/>
  <path class="cls-5" d="M63.518,224.772c-2.648,4.58-7.963,6.56-14.344,5.344-5.163-.984-8.944-5.237-9.57-11.02a26.835,26.835,0,0,1,.5-9.883c.423-1.584.715-3.564,3.083-2.985,2.221.544,1.941,2.324,1.566,4.035-.771,3.514-1.224,7.024.292,10.477,3.817,5.357,10.343,5.818,14.538,1.026,2.013-3.2,2.2-6.7,1.551-10.279a25.127,25.127,0,0,1-.709-5.9c.078-1.393.671-2.522,2.1-2.689s2.172.724,2.6,2.121c.587,1.9.349,3.969,1.323,5.763,1.609,1.128,2.395.435,3.144-1.15.583-1.233-.174-2.9,1.315-3.781,2.615-.878,3.084-.637,3.788,2.008a7.52,7.52,0,0,0,1.587,3.277c1.1,1.19,2.484.181,3.7.487.818.871.176,1.635-.234,2.476a4.335,4.335,0,0,0,2.064-3.415c.218-1.248.5-2.6,2.053-3.006,1.086,3.167-.415,5.676-2.368,7.813-1.494,1.636-5.2,1.4-7.651-.252-.941-.633-1.647-.7-2.415,0a5.424,5.424,0,0,1-4.129,1.355c-.958-.056-1.379.235-1.545,1.129A46.84,46.84,0,0,1,63.518,224.772Z" transform="translate(-37.899 -146.262)"/>
  <path class="cls-6" d="M63.518,224.772c.012-2.871,1.922-5.244,2.119-8.083.053-.751.762-.634,1.386-.526.9.155,1.976.36,2.632-.311,2.078-2.126,3.924-1.271,6.1-.066a4.462,4.462,0,0,0,6.286-2.006c.833-1.838,2.9-3.574,1.447-6.022-1.464-.679-.945-2.279-1.567-3.347-.607-1.069-1.3-.924-2.035-.143-.423.513-.4,1.406-1.283,1.527a2.713,2.713,0,0,1,.519-3.484c2.589-.762,3.486-.312,4.314,2.14.319.943.667,1.875,1,2.812,0,.412-.013.823,0,1.234.278,7.173-3.5,9.986-10.323,7.691-.219-.247-.436-.5-.66-.739-.508-.55-1.162-.517-1.478.036-1.384,2.421-5.612-.244-6.225,3.587A10.767,10.767,0,0,1,63.518,224.772Z" transform="translate(-37.899 -146.262)"/>
  <path class="cls-7" d="M79.086,195.617c-.019,1.51-.561,2.511-2.1,2.621a2.032,2.032,0,0,1-2.323-2.266,2.361,2.361,0,0,1,2.151-2.6C78.345,193.266,78.963,194.309,79.086,195.617Z" transform="translate(-37.899 -146.262)"/>
  <path class="cls-8" d="M72.521,189.66a2.1,2.1,0,0,1-2.158,2.457,2.169,2.169,0,0,1-2.271-2.382c.006-1.336.626-2.423,2.193-2.427C71.814,187.3,72.45,188.241,72.521,189.66Z" transform="translate(-37.899 -146.262)"/>
  <path class="cls-9" d="M68.5,196.884c-.316,1.384-.857,2.522-2.434,2.4a2.086,2.086,0,0,1-2.074-2.34,2.35,2.35,0,0,1,2.249-2.533C67.637,194.407,68.356,195.541,68.5,196.884Z" transform="translate(-37.899 -146.262)"/>
  <path class="cls-10" d="M70.99,206.254c-.995,1.122-.372,2.659-1.039,3.9-.926,1.723-1.941,1.958-3.506.623,2.351.727,2.768-1.1,2.913-2.566.225-2.279,1.392-3.817,3.453-3.779,2.149.039,3.188,1.826,3.182,4.013a5.028,5.028,0,0,0,1.065,2.727l-.249.271a.919.919,0,0,1-.99-.262,11.443,11.443,0,0,1-1.312-3.434C74.035,205.263,73.4,205,70.99,206.254Z" transform="translate(-37.899 -146.262)"/>
  <path class="cls-11" d="M59.58,221.766c-1.554,3.517-4.756,3.511-7.807,3.411-3.03-.1-5.705-1.119-6.731-4.437l.973.5c2.058,3.882,8.944,4.88,12.49,1Z" transform="translate(-37.899 -146.262)"/>
  <path class="cls-10" d="M79.12,202.311c-.362,1.146-1.2,2.271-.165,3.483.108.082.216.163.326.243a5.86,5.86,0,0,1,.923,3.783c-.08,1.949-1.521,2.572-3.276,1.515l.129-.161c1.854.186,2.11-.937,1.841-2.352-.214-1.131-.736-2.218-.836-3.35S77.417,202.9,79.12,202.311Z" transform="translate(-37.899 -146.262)"/>
  <path class="cls-12" d="M82.479,203.773q.5,1.992,1.007,3.984c-.453,1.434-1.247,2.7-1.286,4.341-.037,1.568-1.963,2.729-4.075,2.876.587-1.166,2.229-1.669,1.866-3.22-.126-1.065.3-2.125.029-3.189a4.9,4.9,0,0,1,.527-1.56c.467-1.268-.533-.448-.867-.585-.379-.066-.471-.449-.729-.646l0,.02c.138-.692-.2-1.509.536-2.044A3.164,3.164,0,0,1,82.479,203.773Z" transform="translate(-37.899 -146.262)"/>
  <path class="cls-13" d="M70.99,206.254c1.882-1.67,3.446-1.222,4.005,1.115.3,1.265.692,2.51,1.042,3.764q.381.338-.046.615a5.156,5.156,0,0,1-1.873-3.559C74.05,205.7,72.874,205.536,70.99,206.254Z" transform="translate(-37.899 -146.262)"/>
  <path class="cls-6" d="M75.991,211.748c.015-.2.031-.409.046-.614.3.066.595.133.892.2,1.977.895,2.878.148,2.707-1.9a34.82,34.82,0,0,0-.685-3.659l.551.456c1.022.337.7,1.329.987,2.024-.029,1.186.194,2.408-.5,3.5A4.03,4.03,0,0,1,75.991,211.748Z" transform="translate(-37.899 -146.262)"/>
  <path class="cls-13" d="M82.479,203.773l-2.988-.023C80.5,202.636,81.492,202.608,82.479,203.773Z" transform="translate(-37.899 -146.262)"/>
  <path class="cls-13" d="M80.489,208.254,79.5,206.23c.721-.157.967-1.123,1.8-1.084C81.9,206.425,81.1,207.314,80.489,208.254Z" transform="translate(-37.899 -146.262)"/>
  <line class="cls-14" x1="15.931" y1="33.776" x2="42.343" y2="25.843"/>
</svg>
