<svg width="46" height="62" viewBox="0 0 46 62" fill="none" xmlns="http://www.w3.org/2000/svg">
<path d="M24.619 55.51C21.971 60.09 16.656 62.07 10.275 60.854C5.11201 59.87 1.33101 55.617 0.705014 49.834C0.257581 46.5371 0.42713 43.1858 1.20501 39.951C1.62801 38.367 1.92001 36.387 4.28801 36.966C6.50901 37.51 6.22901 39.29 5.85401 41.001C5.08301 44.515 4.63001 48.025 6.14601 51.478C9.96301 56.835 16.489 57.296 20.684 52.504C22.697 49.304 22.884 45.804 22.235 42.225C21.7661 40.2933 21.5281 38.3128 21.526 36.325C21.604 34.932 22.197 33.803 23.626 33.636C25.055 33.469 25.798 34.36 26.226 35.757C26.813 37.657 26.575 39.726 27.549 41.52C29.158 42.648 29.944 41.955 30.693 40.37C31.276 39.137 30.519 37.47 32.008 36.589C34.623 35.711 35.092 35.952 35.796 38.597C36.0486 39.8028 36.5936 40.9282 37.383 41.874C38.483 43.064 39.867 42.055 41.083 42.361C41.901 43.232 41.259 43.996 40.849 44.837C41.4414 44.4747 41.9381 43.9754 42.2973 43.3811C42.6565 42.7868 42.8676 42.1149 42.913 41.422C43.131 40.174 43.413 38.822 44.966 38.416C46.052 41.583 44.551 44.092 42.598 46.229C41.104 47.865 37.398 47.629 34.947 45.977C34.006 45.344 33.3 45.277 32.532 45.977C31.9744 46.4753 31.3197 46.8529 30.6091 47.0861C29.8986 47.3193 29.1475 47.403 28.403 47.332C27.445 47.276 27.024 47.567 26.858 48.461C26.2986 50.866 25.55 53.223 24.619 55.51V55.51Z" fill="#8ABD64"/>
<path d="M24.619 55.51C24.631 52.639 26.541 50.266 26.738 47.427C26.791 46.676 27.5 46.793 28.124 46.901C29.024 47.056 30.1 47.261 30.756 46.59C32.834 44.464 34.68 45.319 36.856 46.524C37.394 46.8344 37.9909 47.029 38.6084 47.0954C39.2259 47.1619 39.8505 47.0987 40.4422 46.9098C41.0339 46.721 41.5797 46.4107 42.0446 45.9989C42.5095 45.587 42.8833 45.0826 43.142 44.518C43.975 42.68 46.042 40.944 44.589 38.496C43.125 37.817 43.644 36.217 43.022 35.149C42.415 34.08 41.722 34.225 40.987 35.006C40.564 35.519 40.587 36.412 39.704 36.533C39.3618 35.9855 39.2261 35.3339 39.3212 34.6953C39.4163 34.0567 39.7361 33.473 40.223 33.049C42.812 32.287 43.709 32.737 44.537 35.189C44.856 36.132 45.204 37.064 45.537 38.001C45.537 38.413 45.524 38.824 45.537 39.235C45.815 46.408 42.037 49.221 35.214 46.926C34.995 46.679 34.778 46.426 34.554 46.187C34.046 45.637 33.392 45.67 33.076 46.223C31.692 48.644 27.464 45.979 26.851 49.81C26.6742 51.8859 25.8988 53.866 24.619 55.51Z" fill="#94BC71"/>
<path d="M40.187 26.355C40.168 27.865 39.626 28.866 38.087 28.976C37.776 29.0236 37.4582 28.9983 37.1586 28.9022C36.8591 28.806 36.5859 28.6416 36.3607 28.422C36.1355 28.2023 35.9644 27.9333 35.8608 27.6362C35.7573 27.3391 35.7241 27.0221 35.764 26.71C35.7311 26.3974 35.7609 26.0814 35.8517 25.7806C35.9425 25.4797 36.0925 25.1999 36.2929 24.9578C36.4932 24.7156 36.7399 24.5159 37.0184 24.3703C37.297 24.2247 37.6018 24.1362 37.915 24.11C39.446 24.004 40.064 25.047 40.187 26.355Z" fill="#98BF76"/>
<path d="M33.622 20.398C33.6756 20.7071 33.6593 21.0242 33.5743 21.3261C33.4893 21.628 33.3377 21.907 33.1307 22.1427C32.9238 22.3784 32.6666 22.5647 32.3782 22.6879C32.0898 22.8112 31.7774 22.8683 31.464 22.855C31.1519 22.8713 30.8399 22.8199 30.5495 22.7043C30.2591 22.5888 29.9971 22.4119 29.7814 22.1856C29.5657 21.9594 29.4015 21.6893 29.2999 21.3937C29.1984 21.0981 29.1619 20.784 29.193 20.473C29.199 19.137 29.819 18.05 31.386 18.046C32.915 18.038 33.551 18.979 33.622 20.398Z" fill="#96C076"/>
<path d="M29.601 27.622C29.285 29.006 28.744 30.144 27.167 30.022C26.8713 30.0225 26.5789 29.9601 26.3092 29.839C26.0394 29.718 25.7985 29.5409 25.6024 29.3196C25.4063 29.0984 25.2594 28.8379 25.1716 28.5556C25.0838 28.2733 25.057 27.9755 25.093 27.682C25.0681 27.3667 25.1071 27.0496 25.2077 26.7497C25.3083 26.4499 25.4684 26.1734 25.6784 25.9369C25.8884 25.7004 26.144 25.5087 26.4298 25.3733C26.7157 25.2379 27.0259 25.1616 27.342 25.149C28.738 25.145 29.457 26.279 29.601 27.622Z" fill="#99BF78"/>
<path d="M43.58 34.511C43.9133 35.839 44.249 37.167 44.587 38.495C44.134 39.929 43.34 41.195 43.301 42.836C43.264 44.404 41.338 45.565 39.226 45.712C39.813 44.546 41.455 44.043 41.092 42.492C40.966 41.427 41.392 40.367 41.121 39.303C41.2074 38.757 41.3856 38.2295 41.648 37.743C42.115 36.475 41.115 37.295 40.781 37.158C40.402 37.092 40.31 36.709 40.052 36.512V36.532C40.19 35.84 39.852 35.023 40.588 34.488C41.0499 34.2447 41.5649 34.1195 42.0869 34.1235C42.609 34.1275 43.1219 34.2606 43.58 34.511Z" fill="#87C05B"/>
<path d="M32.091 36.992C33.973 35.322 35.537 35.77 36.096 38.107C36.396 39.372 36.788 40.617 37.138 41.871C37.392 42.0963 37.3767 42.3013 37.092 42.486C36.5573 42.0485 36.1159 41.508 35.7942 40.8966C35.4724 40.2853 35.2768 39.6155 35.219 38.927C35.151 36.438 33.975 36.274 32.091 36.992Z" fill="#90BD6E"/>
<path d="M37.092 42.486C37.107 42.286 37.123 42.077 37.138 41.872C37.438 41.938 37.733 42.005 38.03 42.072C40.007 42.967 40.908 42.22 40.737 40.172C40.5741 38.941 40.3454 37.7196 40.052 36.513L40.603 36.969C41.625 37.306 41.303 38.298 41.59 38.993C41.561 40.179 41.784 41.401 41.09 42.493C40.4806 42.8397 39.7912 43.0215 39.09 43.0202C38.3889 43.019 37.7002 42.8349 37.092 42.486Z" fill="#94BC71"/>
<path d="M43.58 34.511L40.592 34.488C41.601 33.374 42.593 33.346 43.58 34.511Z" fill="#90BD6E"/>
<path d="M41.59 38.992L40.601 36.968C41.322 36.811 41.568 35.845 42.401 35.884C43.001 37.163 42.201 38.052 41.59 38.992Z" fill="#90BD6E"/>
<path d="M14.931 10.776L41.343 2.843" stroke="#8ABE62" stroke-width="4" stroke-linecap="round" stroke-linejoin="round"/>
</svg>
