<svg id="Layer_1" data-name="Layer 1" xmlns="http://www.w3.org/2000/svg" viewBox="0 0 61.84 88.022">
  <defs>
    <style>
      .cls-1 {
        fill: #fbfcfd;
      }

      .cls-2 {
        fill: #fcfdfe;
      }

      .cls-3 {
        fill: #ea9292;
      }

      .cls-4 {
        fill: #e39b9e;
      }

      .cls-5 {
        fill: #e19a9a;
      }

      .cls-6 {
        fill: #fbe4dd;
      }

      .cls-7 {
        fill: #e6999c;
      }

      .cls-8 {
        fill: #fbf8f8;
      }

      .cls-9 {
        fill: none;
        stroke: #eb9394;
        stroke-linecap: round;
        stroke-linejoin: round;
        stroke-width: 4px;
      }
    </style>
  </defs>
  <path class="cls-1" d="M75.221,151.681c.453.025.93.228.918.656a1.224,1.224,0,0,1-1.13,1.13.765.765,0,0,1-.872-.708C74.07,152.051,74.573,151.756,75.221,151.681Z" transform="translate(-33.765 -146.262)"/>
  <path class="cls-1" d="M81.519,146.334c1.331,0,2.665-.045,3.992.032a1.353,1.353,0,0,1,.932.685c.218.451-.282.671-.584.949a3.365,3.365,0,0,1-2.535.8c-1.664-.044-3.33.006-4.994-.03-1.024-.021-1.9-.552-1.942-1.563-.051-1.344,1.162-.845,1.886-.9,1.077-.075,2.163-.019,3.245-.019Z" transform="translate(-33.765 -146.262)"/>
  <path class="cls-1" d="M55.588,149.547H68.206c-4.2,1.146-8.4.663-12.59.7Z" transform="translate(-33.765 -146.262)"/>
  <path class="cls-1" d="M44.516,229.725c3.116.554,6.092,1.916,9.376,1.524a6.329,6.329,0,0,0,2.615-.517c.171,1.161-.627,1.576-1.484,1.992-1.619.786-3.565.316-5.138,1.425-.4.285-1.711.183-.56-.938.723-.7-.109-.97-.385-.88C46.434,233.148,45.952,230.64,44.516,229.725Z" transform="translate(-33.765 -146.262)"/>
  <path class="cls-1" d="M61,229.225a8.36,8.36,0,0,1,3.494-3c2.091.16,1.678,1.753,1.8,3.078.066.7-.276.479-.7.531A11.758,11.758,0,0,1,61,229.225Z" transform="translate(-33.765 -146.262)"/>
  <path class="cls-1" d="M66.64,166.146H56.864l-.017-.486h9.782Z" transform="translate(-33.765 -146.262)"/>
  <path class="cls-1" d="M65.522,164.111a16.644,16.644,0,0,1-8.064-.652h8.033Z" transform="translate(-33.765 -146.262)"/>
  <path class="cls-1" d="M89.74,164.477c.055.776.649,1.743-.674,1.718-.791-.015-1.074-.614-.866-1.423s-.193-2.177.943-2.17C90.22,162.608,89.936,163.785,89.74,164.477Z" transform="translate(-33.765 -146.262)"/>
  <path class="cls-1" d="M91.83,166.186c-.349-.913-1.054-1.526-.456-2.369a.636.636,0,0,1,.612-.084C92.689,164.408,92.612,165.14,91.83,166.186Z" transform="translate(-33.765 -146.262)"/>
  <path class="cls-1" d="M57.5,230.723l3-1.488C60.085,230.9,58.716,230.656,57.5,230.723Z" transform="translate(-33.765 -146.262)"/>
  <path class="cls-1" d="M47,201.141c1.08.145.794.6.479,1.359-.345.829-1.762,2.4.865,2.2.095-.007.2.42.337.619,1.547,2.231,1.719,2.26,3.225-.034.754-1.148,2.594-1.508,2.353-3.432-.062-.494.773-.833,1.41-.556.844.367.49.88.1,1.371a.553.553,0,0,0-.133.209c-.207,1.1-2,1.449-1.379,2.912.046.107.461.157.649.087a4.613,4.613,0,0,0,2.934-3.1c.569-2.96,1.625-5.869,1.2-9.024-.282-2.118-.243-4.248-1.284-6.216a1.5,1.5,0,0,1,.914-2.374,4.6,4.6,0,0,0,1.443-.905c1.14-1.043,2.1-2.648,3.493-.131.519.936,1.954.7,2.965,1.017.665.21,1.782.242,1.554,1.159a1.479,1.479,0,0,1-2,.929c-.332-.138-.732-.483-1.074.03,1.585,1.521,4.1.865,5.393-1.4.216-.378-.056-1.284-.261-2.231-.089-.412.507-.973.792-1.466l2.138,1.857c.677-1.281.355-2.387-.47-3.809a3.728,3.728,0,0,0,3.667-.421c.874,1.278-.9,1.212-.557,2.063a.837.837,0,0,0,1.417-.305c.491-1.886,1.534-1.763,3.173-1.5,1.7.276,3.534-.379,5.286-.265,1.122.073,3.954-1.544,2.773,2.1a2.208,2.208,0,0,0,2.673,2c1.366-.417,1.339.421,1.384,1.305.086,1.708-.648,3.808,2.113,4.228.4.06.41.69.278,1.1a.717.717,0,0,1-1.181.4,1.551,1.551,0,0,0-2.357.067c-1.064.986-.294,1.652-.019,2.581a4.153,4.153,0,0,1-1.624,4.609c-.347.291-.219,1.227-.2,1.862.059,1.752-.773,1.77-2.01,1.1a1.645,1.645,0,0,1-.794-1.642c-.277.515-.225,1.377-1.2,1.143-1.166.263-2.332,1.487-3.5,0-1.832.905-3.664-.875-5.5,0a5.763,5.763,0,0,1-3.561-.22c-3.132-1.059-3.952-.5-4.433,2.716-1.123-.107-1.858-1.075-2.925-1.318a.678.678,0,0,1-.137-.669c.35-.694,1.179-.945,1.535-1.6.953-1.761,2.38-2.074,4.209-1.62.87.216,1.819.046,2.714.256,3.831.646,7.587.574,11.117-1.287,2.768-1.459,4.709-5.259,4.212-8.113a7.673,7.673,0,0,0-6.945-6.7c-2.4-.222-4.523.874-6.505,2.064a14.239,14.239,0,0,0-3.265,2.658,27.562,27.562,0,0,1-2.778,2.444c-1.241.83-2.194,2.33-4.046,1.75-1.3-.517-1.691-1.731-2.192-2.867-.359-.815-.893-1.469-1.9-1.172a1.739,1.739,0,0,0-1.251,1.928c.106,1.652.413,3.283.63,4.923a18.076,18.076,0,0,1-1.087,10,9.043,9.043,0,0,1-14.224,2.841c-.853-1.662-2.367-3.089-1.907-5.23C44.731,200.313,45.917,201.363,47,201.141Z" transform="translate(-33.765 -146.262)"/>
  <path class="cls-1" d="M61.983,214.623c-.519.305-.724,1.08-1.5,1a2.241,2.241,0,0,1-2.171.916,52.359,52.359,0,0,1-11.178-1.823c-.723-.224-1.03.367-1.584.413-.91.076-1.817.253-2.553-.5,1.065-2.154-1.441-2.269-2-3.5a4.317,4.317,0,0,1-2.226-2.186,7.322,7.322,0,0,0-1.942-2.172c-1.924-1.364-2-3.206-.328-5.13l-.5-1.5c-1.164-2.759.666-5.112,1.095-7.662-.221.836-.506,1.592-1.564,1.472a1.9,1.9,0,0,1-1.655-1.633,4.849,4.849,0,0,1,.381-3.148c1.426-1.645,3.441-.657,5.534-1.26-1.113.02-1.635-.234-1.432-1.1a4.278,4.278,0,0,1,2.776-1.453,2.154,2.154,0,0,1,2.91,1.523c.291.848.382,1.957,1.318,2.268,2.686.893,2.4,2.987,2.231,5.063a8.95,8.95,0,0,1-.63,2.632c-1.517,1.391-1.5,1.382-2.492-.452-.11-.2-.6-.145-.779-.459a6.137,6.137,0,0,1-.38-2.647c-.108-1.26.4-3.055-1.419-3.236-1.84-.183-2.068,1.624-2.319,2.986a26.008,26.008,0,0,0,.011,10.617A11.7,11.7,0,0,0,52.8,212.8c2.641-.331,5.254-.909,7.237-2.939a11.62,11.62,0,0,0,3.812-6.153c.224-.893.28-2.014,1.616-2.089l.051.052c1,1.778.206,3.6-.117,5.3-.3,1.568-1.138,3.043-1.534,4.656-.4,1.632-1.779,1.389-3.062,1.011C61.68,213.066,62.622,213.367,61.983,214.623Z" transform="translate(-33.765 -146.262)"/>
  <path class="cls-2" d="M61.983,214.623c-.065-1.3-.99-1.574-2.165-1.528.2-.3.293-.527.365-.521,4.612.389,3.442-3.914,4.628-6.1.65-1.2.679-3.156.7-4.8a2.365,2.365,0,0,1,2.963,1.463,5.322,5.322,0,0,0,2.163,5.451,2.177,2.177,0,0,1,1.064,2.342c-.24.741-1.05.672-1.724.7-1.162.043-1.892-.343-2.036-1.636-.109-.988-.732-1.869-1.764-1.719-1.079.157-1.168,1.274-1.183,2.2a6.6,6.6,0,0,0,.191,1.968c.351,1.178.593,2.32-.523,3.19C63.289,216.7,62.947,214.785,61.983,214.623Z" transform="translate(-33.765 -146.262)"/>
  <path class="cls-1" d="M49.493,196.148c-.676-2.293-.378-4.794-1.5-6.991a5.848,5.848,0,0,1,3.469,6.657C51.078,197.522,50.31,196.987,49.493,196.148Z" transform="translate(-33.765 -146.262)"/>
  <path class="cls-2" d="M94.457,198.145a2.255,2.255,0,0,1,.315,3.719c-.851.9-1.948.83-2.314-.723A2.914,2.914,0,0,1,94.457,198.145Z" transform="translate(-33.765 -146.262)"/>
  <path class="cls-1" d="M54.7,186.481a4.422,4.422,0,0,1,1.276,3.015c0,.636-.227,1.27-.97,1.022a2.385,2.385,0,0,1-1.463-2.552A1.576,1.576,0,0,1,54.7,186.481Z" transform="translate(-33.765 -146.262)"/>
  <path class="cls-1" d="M94.457,198.145l-2,3c-1.391-.236-1.03-1.113-.548-1.816.569-.828.2-2.37,1.656-2.475C94.208,196.8,94.42,197.525,94.457,198.145Z" transform="translate(-33.765 -146.262)"/>
  <path class="cls-1" d="M57.17,182.48c-.911-.984-.967-1.941-.066-2.48a4.174,4.174,0,0,1,3.053-.048c.391.092.353.712.228,1.112-.11.348-.465.6-.754.327C58.163,180.009,57.821,181.744,57.17,182.48Z" transform="translate(-33.765 -146.262)"/>
  <path class="cls-2" d="M76.471,200.642a6.727,6.727,0,0,1,5.5,0c-.847,1.476-1.845,2.05-3.214.557C78.124,200.513,77.273,200.658,76.471,200.642Z" transform="translate(-33.765 -146.262)"/>
  <path class="cls-1" d="M56.487,197.171c.073-.526-.147-1.347.689-1.292a1.366,1.366,0,0,1,1.3,1.714c-.077.683-.216,1.433-1.07,1.321C56.447,198.788,56.521,197.9,56.487,197.171Z" transform="translate(-33.765 -146.262)"/>
  <path class="cls-1" d="M65.974,181.082a20.643,20.643,0,0,0-2.4.318c-.659.163-1.23.118-1.361-.557-.165-.853.531-1.111,1.22-1.146C64.576,179.637,65.816,179.5,65.974,181.082Z" transform="translate(-33.765 -146.262)"/>
  <path class="cls-1" d="M71.7,180.764c-.909,1.424-3.147,1.467-3.893.2a.639.639,0,0,1,.119-.874c.351-.343.833-.405,1.083-.04C69.688,181.039,70.706,180.757,71.7,180.764Z" transform="translate(-33.765 -146.262)"/>
  <path class="cls-1" d="M51.241,202.85c-.2.825-.568,1.329-1.4,1.248-.623-.06-1.247-.308-1.147-1.02a1.527,1.527,0,0,1,1.545-1.352C50.992,201.713,51.054,202.413,51.241,202.85Z" transform="translate(-33.765 -146.262)"/>
  <path class="cls-2" d="M85.464,200.642c.394-.385.86-1.14,1.166-1.08.675.133.752.933.832,1.579a.918.918,0,0,1-1.123.954C85.4,202,85.5,201.28,85.464,200.642Z" transform="translate(-33.765 -146.262)"/>
  <path class="cls-1" d="M47.963,199.132c.962.092,2.111-.262,2.421,1.113a.665.665,0,0,1-.67.835C48.331,201.178,48.227,200.094,47.963,199.132Z" transform="translate(-33.765 -146.262)"/>
  <path class="cls-1" d="M91.905,182.415c-.87-.208-.944-.777-.918-1.364.022-.5.163-1.116.759-1.027.749.111.917.9,1.018,1.514C92.875,182.206,92.134,182.132,91.905,182.415Z" transform="translate(-33.765 -146.262)"/>
  <path class="cls-1" d="M65.952,181.124c.852.2,1.573.487,1.241,1.111s-.806.04-1.055-.366A2.642,2.642,0,0,1,65.952,181.124Z" transform="translate(-33.765 -146.262)"/>
  <path class="cls-3" d="M60.527,210.224c-4.271,4.051-9.274,3.864-14.355,2.213-5.06-1.643-7-5.85-7.592-10.681a27.216,27.216,0,0,1,.382-9.14c.39-1.792.786-3.766,2.971-3.579,2.347.2,2.155,2.313,2.047,4.089a33.138,33.138,0,0,0-.433,7.584,7.847,7.847,0,0,0,2.41,5.512,8.566,8.566,0,0,0,14.088-4.9,29.453,29.453,0,0,0-.324-11.1,9.29,9.29,0,0,1-.249-1.955,2.393,2.393,0,0,1,2.182-2.36,2.094,2.094,0,0,1,2.394,1.7c.386,1.165.6,2.454,1.866,3.1,2.141,1,2.514-1.162,3.617-2.018l2.392-2.047a64.141,64.141,0,0,1,6.526-4.064c4.128-1.963,8.778.371,10.423,4.232s-.373,8.61-4.242,10.464a18.345,18.345,0,0,1-8.949,1.6c-1.952-.693-4.081-.432-6.04-1.107-.31-.107-.787-.157-.934.107-1.056,1.892-3.568,2.512-4.27,4.569C63.483,205.234,61.783,207.607,60.527,210.224Z" transform="translate(-33.765 -146.262)"/>
  <path class="cls-4" d="M75.473,198.621a18.492,18.492,0,0,0,9.434-1.954c4.05-1.863,5.3-7.973,2.475-11.4-3.323-4.037-7.187-3.475-11.026-1.211-1.473.869-2.668,2.217-4.433,2.586,2.8-3.15,6.212-5.421,10.509-5.136a7.98,7.98,0,0,1,7.477,7.888,9.351,9.351,0,0,1-7.008,9.15c-2.963.7-6,1.13-9.032.154A1.341,1.341,0,0,1,75.473,198.621Z" transform="translate(-33.765 -146.262)"/>
  <path class="cls-5" d="M75.473,198.621l-1.6.072a7.68,7.68,0,0,0-8.406,2.93c-1.119.76-.877,2.081-1.259,3.136a10.884,10.884,0,0,1-3.678,5.464c.909-1.716.026-4.27,2.489-5.284.222-.092.389-.57.4-.878.16-3.3,3.605-4.091,4.97-6.475a1.3,1.3,0,0,1,1.115-.316C71.5,197.677,73.486,198.162,75.473,198.621Z" transform="translate(-33.765 -146.262)"/>
  <path class="cls-6" d="M69.531,188.685c-1.009,1.024-.974,3.919-3.617,2.018C67.631,190.947,68.224,189.177,69.531,188.685Z" transform="translate(-33.765 -146.262)"/>
  <path class="cls-7" d="M77.123,194.648a11.207,11.207,0,0,1-3.679-.406c-1.9-.646-1.96-2.159-.86-3.031,3.152-2.5,6.183-5.473,10.77-5.069,1.332.118,2.176.469,2.191,2,.012,1.144,2.027,2.169.436,3.385-2.092,1.6-4.276,3.149-7.115,3.118C78.285,194.644,77.7,194.649,77.123,194.648Z" transform="translate(-33.765 -146.262)"/>
  <path class="cls-8" d="M77.262,193.7c-1.174-.315-3.4.72-3.833-.724-.407-1.361,1.576-2.448,2.811-3.409a13.585,13.585,0,0,1,4.466-2.575c1.641-.485,2.968-.215,3.812,1.322.927,1.686.177,3.055-1.118,4.139C81.678,193.9,79.55,193.708,77.262,193.7Z" transform="translate(-33.765 -146.262)"/>
  <line class="cls-9" x1="26.007" y1="25.603" x2="52.419" y2="17.67"/>
</svg>
