<svg width="53" height="53" viewBox="0 0 53 53" fill="none" xmlns="http://www.w3.org/2000/svg">
<path d="M22.762 48.962C18.491 53.013 13.488 52.826 8.40697 51.175C3.34697 49.532 1.40697 45.325 0.814972 40.494C0.425695 37.4476 0.554852 34.3573 1.19697 31.354C1.58697 29.562 1.98297 27.588 4.16797 27.775C6.51497 27.975 6.32297 30.088 6.21497 31.864C5.7804 34.3671 5.63512 36.9118 5.78197 39.448C5.80137 40.4801 6.02423 41.4983 6.43778 42.4441C6.85133 43.39 7.44745 44.2449 8.19197 44.96C9.3308 45.9624 10.7154 46.6444 12.2043 46.9362C13.6931 47.228 15.2328 47.1191 16.6657 46.6207C18.0987 46.1223 19.3736 45.2522 20.36 44.0995C21.3464 42.9468 22.009 41.5528 22.28 40.06C22.8768 36.3729 22.7668 32.606 21.956 28.96C21.8039 28.319 21.7204 27.6637 21.707 27.005C21.7129 26.411 21.9395 25.8403 22.3428 25.4041C22.7461 24.9679 23.2972 24.6974 23.889 24.645C24.4312 24.5578 24.986 24.6871 25.4338 25.0051C25.8817 25.3231 26.1866 25.8043 26.283 26.345C26.669 27.51 26.883 28.799 28.149 29.445C30.29 30.445 30.663 28.283 31.766 27.427L34.158 25.38C36.2501 23.8961 38.4293 22.539 40.684 21.316C44.812 19.353 49.462 21.687 51.107 25.548C52.752 29.409 50.734 34.158 46.865 36.012C44.0635 37.2877 40.986 37.8379 37.916 37.612C35.964 36.919 33.835 37.18 31.876 36.505C31.566 36.398 31.089 36.348 30.942 36.612C29.886 38.504 27.374 39.124 26.672 41.181C25.718 43.972 24.018 46.345 22.762 48.962Z" fill="#EA9292"/>
<path d="M37.708 37.359C40.9701 37.5527 44.2252 36.8785 47.142 35.405C51.192 33.542 52.442 27.432 49.617 24.005C46.294 19.968 42.43 20.53 38.591 22.794C37.118 23.663 35.923 25.011 34.158 25.38C36.958 22.23 40.37 19.959 44.667 20.244C46.6793 20.371 48.5689 21.255 49.956 22.7183C51.343 24.1817 52.1248 26.1158 52.144 28.132C52.1657 30.2208 51.4874 32.2567 50.2173 33.915C48.9471 35.5734 47.1583 36.7587 45.136 37.282C42.173 37.982 39.136 38.412 36.104 37.436C36.3273 37.2518 36.6041 37.1447 36.8932 37.1309C37.1823 37.117 37.4682 37.197 37.708 37.359Z" fill="#E39B9E"/>
<path d="M37.708 37.359L36.108 37.431C34.5761 36.9859 32.9436 37.0288 31.4372 37.5539C29.9308 38.0789 28.6253 39.0601 27.702 40.361C26.583 41.121 26.825 42.442 26.443 43.497C25.8108 45.6545 24.5259 47.5633 22.765 48.961C23.674 47.245 22.791 44.691 25.254 43.677C25.476 43.585 25.643 43.107 25.654 42.799C25.814 39.499 29.259 38.708 30.624 36.324C30.7728 36.1887 30.9509 36.0897 31.1444 36.0349C31.3378 35.98 31.5414 35.9709 31.739 36.008C33.735 36.415 35.721 36.9 37.708 37.359Z" fill="#E19A9A"/>
<path d="M39.358 33.386C38.1176 33.4555 36.8743 33.3183 35.679 32.98C33.779 32.334 33.719 30.821 34.819 29.949C37.971 27.449 41.002 24.476 45.589 24.88C46.921 24.998 47.765 25.349 47.78 26.88C47.792 28.024 49.807 29.049 48.216 30.265C46.124 31.865 43.94 33.414 41.101 33.383C40.52 33.382 39.935 33.387 39.358 33.386Z" fill="#E6999C"/>
<path d="M39.497 32.438C38.323 32.123 36.097 33.158 35.664 31.714C35.257 30.353 37.24 29.266 38.475 28.305C39.7857 27.1695 41.3017 26.2954 42.941 25.73C44.582 25.245 45.909 25.515 46.753 27.052C47.68 28.738 46.93 30.107 45.635 31.191C43.913 32.638 41.785 32.446 39.497 32.438Z" fill="#FBF8F8"/>
<path d="M22.007 10.603L48.419 2.67" stroke="#EB9394" stroke-width="4" stroke-linecap="round" stroke-linejoin="round"/>
</svg>
