<svg xmlns="http://www.w3.org/2000/svg" viewBox="0 0 43.395 25.708">
  <defs>
    <style>
      .cls-1 {
        fill: #ea9292;
      }

      .cls-2 {
        fill: #eb9394;
      }

      .cls-3 {
        fill: #f19193;
      }
    </style>
  </defs>
  <g id="Layer_2" data-name="Layer 2">
    <g id="Layer_1-2" data-name="Layer 1">
      <path class="cls-1" d="M24.549,20c2.537.209,4.878-.931,7.366-1.065a13.235,13.235,0,0,0,5.554-2.662,4.43,4.43,0,0,0,1.413-5.148,9.1,9.1,0,0,1-.51-1.669A2.251,2.251,0,0,1,39.65,6.768c1.072-.463,1.711.268,2.321.973,1.987,2.3,1.832,7.651-.078,10.009A18.361,18.361,0,0,1,31.2,24.069a60.443,60.443,0,0,1-18.726,1.416l.018.012C8.4,24.774,4.615,23.444,1.939,20A9.39,9.39,0,0,1,.1,12.761c.2-1.452.858-2.9,2.636-2.685,1.653.2,2.276,1.569,2.076,3.129a7.11,7.11,0,0,0,1.23,4.664,8.283,8.283,0,0,0,5.493,2.573l2.339.247a18.912,18.912,0,0,0,2.546.336c.6.037,1.163.044,1.686.03l.816-.124h0C20.676,19.873,22.8,21.073,24.549,20Z"/>
      <path class="cls-2" d="M25.948,4.015l-.482-.48A3.5,3.5,0,0,1,25.458.961l-.009.007A1.916,1.916,0,0,1,28.267.385,1.8,1.8,0,0,1,29,2.757,2.221,2.221,0,0,1,25.948,4.015Z"/>
      <path class="cls-3" d="M17.7,2.6a2.1,2.1,0,0,1-2.056,2.3c-1.108.134-1.985-.2-2.06-1.512A2.121,2.121,0,0,1,15.311.852,1.941,1.941,0,0,1,17.7,2.6Z"/>
    </g>
  </g>
</svg>
