<svg id="Layer_1" data-name="Layer 1" xmlns="http://www.w3.org/2000/svg" viewBox="0 0 48.981 59.518">
  <defs>
    <style>
      .cls-1 {
        fill: #fbfdfe;
      }

      .cls-2 {
        fill: #fbfcfd;
      }

      .cls-3 {
        fill: #ea9292;
      }

      .cls-4 {
        fill: #eb9394;
      }

      .cls-5 {
        fill: #f19193;
      }

      .cls-6 {
        fill: none;
        stroke: #ea9292;
        stroke-linecap: round;
        stroke-miterlimit: 10;
        stroke-width: 4px;
      }
    </style>
  </defs>
  <path class="cls-1" d="M219.04,305.1a5.188,5.188,0,0,0-2.9-.5c-4.574.007-9.149.024-13.724-.007-1.945-.013-3.809.191-5.666-1.177-1.214-.9-3.182-.328-4.845-.049-1.723.288-3.432.755-5.107-.821-.861-.81-2.887-1.394-3.257,1.11-.185,1.249-1.2.852-1.969.947-1.244-.9-2.862-.266-4.154-.932.114.575,1.484-.21,1.157.932-.907-.2-2.561.491-2.6-.53-.059-1.522,1.621-.826,2.578-.947.667-.085,1.5.008,1.866-.523,1.592-2.279,3.943-1.987,6.214-1.991q9.855-.016,19.708.01c.948,0,2.4-.48,1.844,1.526-.21.762.5,1,1.118.936,3.26-.314,6.56.641,9.823-.617,1.466-.565,2.72.79,3.913,1.637-1.051,1.08-2.726-.584-3.7.844C219.241,305,219.141,305.051,219.04,305.1Z" transform="translate(-175.971 -246.372)"/>
  <path class="cls-2" d="M224.036,305.1c-.23,1.353-1.421.6-1.632.409-1.081-.962-2.232-.445-3.364-.409-.1-1.2.5-1.642,1.622-1.469.8.124,1.584.312,2.375.471A1.716,1.716,0,0,0,224.036,305.1Z" transform="translate(-175.971 -246.372)"/>
  <path class="cls-2" d="M178.573,304.6c-.285-.623-1.05-.317-1.765-1.057,1.814.514,3.591-1.022,4.762,1.057Z" transform="translate(-175.971 -246.372)"/>
  <path class="cls-3" d="M206.107,287.154c2.537.209,4.878-.931,7.365-1.065a13.239,13.239,0,0,0,5.555-2.662,4.43,4.43,0,0,0,1.413-5.148,9.1,9.1,0,0,1-.51-1.669,2.251,2.251,0,0,1,1.278-2.683c1.072-.463,1.711.268,2.321.973,1.987,2.3,1.832,7.651-.078,10.01a18.365,18.365,0,0,1-10.693,6.318,60.412,60.412,0,0,1-18.726,1.416l.018.012c-4.1-.723-7.878-2.053-10.554-5.5a9.39,9.39,0,0,1-1.834-7.236c.2-1.451.858-2.9,2.635-2.685,1.654.2,2.277,1.569,2.077,3.129a7.11,7.11,0,0,0,1.23,4.664A8.276,8.276,0,0,0,193.1,287.6l2.339.247a18.752,18.752,0,0,0,2.546.336c.6.038,1.162.044,1.685.031l.817-.125h0C202.234,287.032,204.36,288.232,206.107,287.154Z" transform="translate(-175.971 -246.372)"/>
  <path class="cls-4" d="M207.506,271.174l-.482-.48a3.5,3.5,0,0,1-.008-2.574l-.009.008a1.916,1.916,0,0,1,2.818-.583,1.793,1.793,0,0,1,.732,2.371A2.221,2.221,0,0,1,207.506,271.174Z" transform="translate(-175.971 -246.372)"/>
  <path class="cls-5" d="M199.262,269.755a2.1,2.1,0,0,1-2.056,2.3c-1.109.134-1.985-.2-2.06-1.512a2.12,2.12,0,0,1,1.723-2.526A1.94,1.94,0,0,1,199.262,269.755Z" transform="translate(-175.971 -246.372)"/>
  <line class="cls-6" x1="12.372" y1="9.932" x2="38.784" y2="2"/>
</svg>
