<svg width="49" height="60" viewBox="0 0 49 60" fill="none" xmlns="http://www.w3.org/2000/svg">
<g clip-path="url(#clip0_704_2044)">
<path d="M30.136 40.782C32.673 40.991 35.014 39.851 37.501 39.717C39.5362 39.2788 41.4394 38.3668 43.056 37.055C43.8192 36.4672 44.3701 35.6467 44.625 34.7178C44.88 33.7888 44.8252 32.802 44.469 31.907C44.2459 31.3683 44.0751 30.8094 43.959 30.238C43.8097 29.7119 43.8571 29.1494 44.0923 28.6556C44.3275 28.1619 44.7344 27.7707 45.237 27.555C46.309 27.092 46.948 27.823 47.558 28.528C49.545 30.828 49.39 36.179 47.48 38.538C44.7576 41.8219 40.9769 44.0558 36.787 44.856C30.657 46.3012 24.3387 46.779 18.061 46.272L18.079 46.284C13.979 45.561 10.201 44.231 7.52501 40.784C6.74084 39.7674 6.17351 38.6007 5.85806 37.3561C5.54261 36.1115 5.48576 34.8155 5.69101 33.548C5.89101 32.097 6.549 30.648 8.326 30.863C9.98 31.063 10.603 32.432 10.403 33.992C10.257 35.6425 10.6921 37.2922 11.633 38.656C13.0733 40.1783 15.0374 41.0975 17.129 41.228L19.468 41.475C20.308 41.645 21.1587 41.7573 22.014 41.811C22.614 41.849 23.176 41.855 23.699 41.842L24.516 41.717C26.263 40.66 28.389 41.86 30.136 40.782Z" fill="#EA9292"/>
<path d="M31.535 24.802L31.053 24.322C30.7235 23.4962 30.7206 22.5759 31.045 21.748L31.036 21.756C31.1707 21.5193 31.3542 21.3141 31.5744 21.1539C31.7947 20.9938 32.0465 20.8824 32.3132 20.8272C32.5798 20.7721 32.8552 20.7744 33.1209 20.834C33.3866 20.8936 33.6365 21.0092 33.854 21.173C34.2582 21.3976 34.56 21.7696 34.6964 22.2114C34.8328 22.6532 34.7933 23.1306 34.586 23.544C34.4816 23.8371 34.3167 24.105 34.1022 24.3303C33.8876 24.5556 33.6281 24.7333 33.3404 24.8519C33.0528 24.9705 32.7434 25.0274 32.4324 25.0188C32.1214 25.0102 31.8156 24.9363 31.535 24.802Z" fill="#EB9394"/>
<path d="M23.291 23.383C23.3186 23.6714 23.2863 23.9625 23.196 24.2378C23.1057 24.5131 22.9593 24.7668 22.7662 24.9828C22.5731 25.1989 22.3374 25.3726 22.0739 25.4931C21.8103 25.6136 21.5247 25.6782 21.235 25.683C20.126 25.817 19.25 25.483 19.175 24.171C19.1164 23.8915 19.1148 23.6031 19.1704 23.323C19.2259 23.0429 19.3375 22.7769 19.4984 22.541C19.6594 22.3051 19.8663 22.1041 20.1068 21.9501C20.3473 21.7962 20.6164 21.6924 20.898 21.645C21.1714 21.5785 21.456 21.5722 21.732 21.6267C22.0081 21.6811 22.269 21.795 22.4966 21.9603C22.7243 22.1257 22.9132 22.3386 23.0504 22.5842C23.1876 22.8299 23.2697 23.1024 23.291 23.383Z" fill="#F19193"/>
<path d="M12.372 9.932L38.784 2" stroke="#EA9292" stroke-width="4" stroke-miterlimit="10" stroke-linecap="round"/>
</g>
<defs>
<clipPath id="clip0_704_2044">
<rect width="48.981" height="59.518" fill="white"/>
</clipPath>
</defs>
</svg>
