<svg id="Layer_1" data-name="Layer 1" xmlns="http://www.w3.org/2000/svg" viewBox="0 0 56.013 79.529">
  <defs>
    <style>
      .cls-1 {
        fill: #fbfcfd;
      }

      .cls-2 {
        fill: #fcfdfe;
      }

      .cls-3 {
        fill: #ab7c8e;
      }

      .cls-4 {
        fill: #fbf9fb;
      }

      .cls-5 {
        fill: none;
        stroke: #aa7c8e;
        stroke-linecap: round;
        stroke-linejoin: round;
        stroke-width: 4px;
      }
    </style>
  </defs>
  <path class="cls-1" d="M75.221,151.681c.453.025.93.228.918.656a1.224,1.224,0,0,1-1.13,1.13.765.765,0,0,1-.872-.708C74.07,152.051,74.573,151.756,75.221,151.681Z" transform="translate(-55.588 -146.262)"/>
  <path class="cls-1" d="M81.519,146.334c1.331,0,2.665-.045,3.992.032a1.353,1.353,0,0,1,.932.685c.218.451-.282.671-.584.949a3.365,3.365,0,0,1-2.535.8c-1.664-.044-3.33.006-4.994-.03-1.024-.021-1.9-.552-1.942-1.563-.051-1.344,1.162-.845,1.886-.9,1.077-.075,2.163-.019,3.245-.019Z" transform="translate(-55.588 -146.262)"/>
  <path class="cls-1" d="M55.588,149.547H68.206c-4.2,1.146-8.4.663-12.59.7Z" transform="translate(-55.588 -146.262)"/>
  <path class="cls-1" d="M91.83,166.186c-.349-.913-1.054-1.526-.456-2.369a.636.636,0,0,1,.612-.084C92.689,164.408,92.612,165.14,91.83,166.186Z" transform="translate(-55.588 -146.262)"/>
  <path class="cls-2" d="M94.457,198.145a2.255,2.255,0,0,1,.315,3.719c-.851.9-1.948.83-2.314-.723A2.914,2.914,0,0,1,94.457,198.145Z" transform="translate(-55.588 -146.262)"/>
  <path class="cls-1" d="M94.457,198.145l-2,3c-1.391-.236-1.03-1.113-.548-1.816.569-.828.2-2.37,1.656-2.475C94.208,196.8,94.42,197.525,94.457,198.145Z" transform="translate(-55.588 -146.262)"/>
  <path class="cls-1" d="M91.905,182.415c-.87-.208-.944-.777-.918-1.364.022-.5.163-1.116.759-1.027.749.111.917.9,1.018,1.514C92.875,182.206,92.134,182.132,91.905,182.415Z" transform="translate(-55.588 -146.262)"/>
  <path class="cls-3" d="M77.209,190.166l-.017-.866c-.977-3.28-.866-6.7-1.234-10.051-.126-1.153-.276-2.294-.451-3.44a2.607,2.607,0,0,1,1.989-3.247c1.517-.311,3.019.044,3.567,1.89a7.311,7.311,0,0,1,.355,1.705c.349,7.187,2.223,14.23,2,21.475-.083,2.736.722,5.433.494,8.188a1.8,1.8,0,0,0,.993,1.863c.629.288,1.024-.408,1.395-.816,1.412-1.549,3.3-2.474,4.935-3.727,4.335-3.328,12.672-.886,13.654,4.175,1.189,6.129-.765,11.011-7.794,12.405-3.279.651-6.634.243-9.953.24a6.333,6.333,0,0,0-4.388,1.339c-1.562,1.317-3.082,1.236-4.719-.06-2.258-1.786-5.194-2.038-7.784-3.087A7.462,7.462,0,0,1,66.571,215c-.957-1.532-1.055-2.9.374-4.229,1.458-1.359,2.835-.784,3.992.256,1.739,1.565,3.811,1.888,5.984,2.123,1.625.176,2.123-.664,1.986-2.054C78.221,204.13,78,197.125,77.209,190.166Z" transform="translate(-55.588 -146.262)"/>
  <path class="cls-1" d="M77.209,190.166c1,3.2.875,6.555,1.257,9.834.478,4.118.506,8.286.856,12.423.134,1.582-.375,1.827-1.82,1.6-2.768-.427-5.654-.334-7.48-3.123a1.7,1.7,0,0,0-2.486-.2,2.578,2.578,0,0,0-1.085,3.051,5.743,5.743,0,0,0,3.375,3.786,23.364,23.364,0,0,0,4.976,1.537c1.676.254,3.082.4,4.161,2.064.792,1.217,2.37.964,3.2-.2s1.833-1.183,3.018-1.221c3.978-.128,7.976.429,11.933-.4a9.179,9.179,0,0,0,7.5-11.065c-.831-4.466-5.416-7.071-10.217-5.79a15.567,15.567,0,0,0-6.766,4.066,42.005,42.005,0,0,0-3.041,3.744c-1.133-3.749-1.008-6.73-1.274-9.626-.76-8.263-1.58-16.518-2.6-24.754-.21-1.708-.567-3.362-2.693-3.075-1.969.266-2.228,1.8-2.027,3.608.479,4.284.805,8.585,1.193,12.879-1.328-1.544-.8,1.047-1.962.5-.346-.224.039-.986-.139-1.584-.2-.673-1.14-1.613.772-1.546.638.022.273-1.565.193-2.4-.313-3.257-.316-6.605-1.144-9.731-.77-2.9,1.749-2.6,2.486-2.5,1.89.252,4.523-.415,5.247,2.478.171.681.529.261.91.242a1.839,1.839,0,0,1,2.018,2.182c-.142,1.713-.9,3.338-1.006,5.1-.043.7-.624.691-1.041.208a2.407,2.407,0,0,1-.344-.905c-.275-.959.573-2.2-.71-2.888-.109-.058-.577.264-.563.307.406,1.261-.139,2.716.624,3.861,2.483,3.727,3.378,7.557,1.267,11.8a5.593,5.593,0,0,0-.129,2.466c.081,2.894.755,5.753.512,8.67-.052.619.155,1.315.944,1.05.67-.226.242-.828.053-1.258a5.531,5.531,0,0,1,0-4.89c1.509,1.451.823,3.025.682,4.608a21.79,21.79,0,0,0,2.508-.331c1.25-.315,2.4-1.339,1.828-2.443-1.275-2.452,1.157-1.9,1.88-2.544,1.022-.916,3.128-.213,3.2.29.274,1.85,1.48,1.084,2.364,1.251a2.773,2.773,0,0,0,.838.458c7.039.971,7.916,4.679,6.894,10.706-.231,1.364-1.906,2.827-.12,4.283-1.887,1.19.108,1.565.478,2.281-2.238,1.753-2.5,1.687-3.2-.683-5.523,3.171-11.74,1.348-17.547,2.12-.029,1.48,2.987.021,1.73,2.128-.506.848-1.668,1.3-2.386,2.676,3.069,0,5.916-.026,8.762.015.871.012,1.855-.338,2.567.526l-22.016,0c-.686-.449,2.441-.458.127-1.133-.476-.139-.181-.532.069-.729,1.28-1,.3-.961-.483-1.25-.988-.364-2.386-.82-.519-2.032.919-.6.546-1.04-.255-1.358a.882.882,0,0,0-.243-.054c-3.413-.35-5.586-2.4-7.114-5.775-.871,1.7.254,2.164.746,2.867s1.465,1.347.716,2.315a7.062,7.062,0,0,1-1.786,1.234c-.5-.856-1.5-1.183-1.628-2.551-.144-1.6.373-3.063.368-4.608a3.614,3.614,0,0,0-.15-1.825,1.3,1.3,0,0,1,.2-1.795,1.068,1.068,0,0,1,1.38-.054c.769.539.351,1.158.079,1.76a2.845,2.845,0,0,0-.287,1.219c1.914-3.188,4.882-1.793,7.457-2.068,1.043-.111,1.622.738,2.377,1.181a5.109,5.109,0,0,0,2.709,1.112c.514-.012,1.026-.076,1.158-.7a1.034,1.034,0,0,0-.546-1.236c-1.175-.695-3.124-.971-3.206-2.4a15.277,15.277,0,0,1,.923-6.065c.046-.125.23-.2.57-.481.125,1.357.249,2.559.343,3.764.058.735-.061,1.87.824,1.815,1.207-.075.643-1.324.638-2.032a17.973,17.973,0,0,0-.461-3.174,9.123,9.123,0,0,1,.309-5.734c-1.145.68-.913,1.8-2.374,2.149A14.345,14.345,0,0,0,77.209,190.166Z" transform="translate(-55.588 -146.262)"/>
  <path class="cls-1" d="M109.661,217.713c-.076.605.047,1.085-.446,1.271a.836.836,0,0,1-1.023-.493,32.535,32.535,0,0,1-1.976-4.129c-.2-.548-.49-1.665.539-1.851a1.651,1.651,0,0,1,1.75,1.134C108.969,215.045,109.318,216.483,109.661,217.713Z" transform="translate(-55.588 -146.262)"/>
  <path class="cls-1" d="M71.671,186.725c0-1.893.03-3.787-.01-5.679-.027-1.3.3-2.655-.691-3.809a1.175,1.175,0,0,1,1.556-1.688c.47.311,1.011.642.791,1.376C72.366,180.1,72.271,183.384,71.671,186.725Z" transform="translate(-55.588 -146.262)"/>
  <path class="cls-1" d="M95.182,221.985c-2.044.453-3.819.09-5.47.711a.887.887,0,0,1-1.2-.6c-.1-.655.574-1.268,1.027-1.173C91.3,221.284,93.3,220.1,95.182,221.985Z" transform="translate(-55.588 -146.262)"/>
  <path class="cls-1" d="M97.589,201.3c.708-2.388.708-2.388,3.373-1.078C100.155,201.586,98.819,201.185,97.589,201.3Z" transform="translate(-55.588 -146.262)"/>
  <path class="cls-1" d="M72.666,200.084c-.046.654-.078,1.417-.919,1.449-.687.025-.892-.683-.9-1.218a1.3,1.3,0,0,1,1.2-1.308C72.724,198.938,72.626,199.618,72.666,200.084Z" transform="translate(-55.588 -146.262)"/>
  <path class="cls-1" d="M111.6,225.5a3.6,3.6,0,0,1-2.783-1C109.769,224.371,110.819,223.792,111.6,225.5Z" transform="translate(-55.588 -146.262)"/>
  <path class="cls-1" d="M87.936,201.013c.835.657.92,1.306.38,2-.066.085-.513.016-.651-.118C86.883,202.136,87.538,201.645,87.936,201.013Z" transform="translate(-55.588 -146.262)"/>
  <path class="cls-1" d="M106.337,222.264c.517-1.076,1.046-1.083,1.606-.79.15.079.185.375.273.571Z" transform="translate(-55.588 -146.262)"/>
  <path class="cls-1" d="M75.9,192.471c.524.9,1.039,1.421.327,2.129C75.392,194.1,75.67,193.4,75.9,192.471Z" transform="translate(-55.588 -146.262)"/>
  <path class="cls-1" d="M83.965,172.368c.493.106.644.382.622.739-.018.274-.23.465-.471.291a3.521,3.521,0,0,1-.594-.727Z" transform="translate(-55.588 -146.262)"/>
  <path class="cls-4" d="M91.691,214.365c-1.138-.272-3.186.728-3.676-.523-.456-1.162,1.475-2.147,2.463-3.083a12.738,12.738,0,0,1,5.248-3.234c1.722-.484,3.219-.15,4.006,1.543.85,1.826-.036,3.2-1.562,4.229C96.244,214.6,94.04,214.348,91.691,214.365Z" transform="translate(-55.588 -146.262)"/>
  <line class="cls-5" x1="31.814" y1="39.568" x2="45.019" y2="33.011"/>
</svg>
