<svg width="40" height="50" viewBox="0 0 40 50" fill="none" xmlns="http://www.w3.org/2000/svg">
<path d="M11.621 17.904L11.604 17.038C10.627 13.758 10.738 10.338 10.37 6.987C10.244 5.834 10.094 4.69301 9.91898 3.54701C9.82405 3.20286 9.80081 2.84289 9.85071 2.48939C9.9006 2.1359 10.0226 1.79642 10.2091 1.492C10.3955 1.18758 10.6425 0.924689 10.9348 0.719647C11.227 0.514606 11.5583 0.371775 11.908 0.3C13.425 -0.0110002 14.927 0.343999 15.475 2.19C15.6608 2.74216 15.78 3.31455 15.83 3.895C16.179 11.082 18.053 18.125 17.83 25.37C17.747 28.106 18.552 30.803 18.324 33.558C18.2722 33.9335 18.3404 34.3158 18.5187 34.6504C18.697 34.9849 18.9764 35.2546 19.317 35.421C19.946 35.709 20.341 35.013 20.712 34.605C22.124 33.056 24.012 32.131 25.647 30.878C29.982 27.55 38.319 29.992 39.301 35.053C40.49 41.182 38.536 46.064 31.507 47.458C28.228 48.109 24.873 47.701 21.554 47.698C19.9754 47.5802 18.4099 48.0579 17.166 49.037C15.604 50.354 14.084 50.273 12.447 48.977C10.189 47.191 7.25298 46.939 4.66298 45.89C3.11984 45.2779 1.82488 44.1688 0.982976 42.738C0.025976 41.206 -0.0720235 39.838 1.35698 38.509C2.81498 37.15 4.19197 37.725 5.34897 38.765C7.08797 40.33 9.15997 40.653 11.333 40.888C12.958 41.064 13.456 40.224 13.319 38.834C12.633 31.868 12.412 24.863 11.621 17.904Z" fill="#AB7C8E"/>
<path d="M26.103 42.103C24.965 41.831 22.917 42.831 22.427 41.58C21.971 40.418 23.902 39.433 24.89 38.497C26.3481 37.0056 28.1502 35.8951 30.138 35.263C31.86 34.779 33.357 35.113 34.144 36.806C34.994 38.632 34.108 40.006 32.582 41.035C30.656 42.338 28.452 42.086 26.103 42.103Z" fill="#FBF9FB"/>
<path d="M21.814 13.568L35.019 7.011" stroke="#AA7C8E" stroke-width="4" stroke-linecap="round" stroke-linejoin="round"/>
</svg>
