<svg id="Layer_1" data-name="Layer 1" xmlns="http://www.w3.org/2000/svg" viewBox="0 0 44.812 51.382">
  <defs>
    <style>
      .cls-1 {
        fill: #aa7c8e;
      }

      .cls-2 {
        fill: #ad8595;
      }

      .cls-3 {
        fill: #af8a99;
      }

      .cls-4 {
        fill: #a78291;
      }

      .cls-5 {
        fill: none;
        stroke: #aa7c8e;
        stroke-linecap: round;
        stroke-miterlimit: 10;
        stroke-width: 4px;
      }
    </style>
  </defs>
  <path class="cls-1" d="M193.9,219.474a6.329,6.329,0,0,0,2.891-1.151c.745-.2,1.01-1.137,1.844-1.206a4.918,4.918,0,0,0,1.186-5.8c-.911-2.191-.257-4.1,1.6-4.664,1.659-.506,3.179.782,3.846,2.964,2.7,8.827-2.165,13.394-9.394,15.674-2.135.674-4.344,1.119-6.525,1.659-4.6-.36-9.12.955-13.731.628a29.093,29.093,0,0,1-4.136-.533c-2.855-1.189-5.819-2.21-7.866-4.75a3.852,3.852,0,0,1-.444-.665c-1.449-2.6-2.367-5.328-1.785-8.34.287-1.486,1.111-2.725,2.758-2.771,1.6-.044,3.023,1.045,2.876,2.513-.291,2.911,1.272,4.824,2.773,6.876a18.387,18.387,0,0,0,11.983,1.521c1.48-.66,3.11.138,4.594-.476l2.431-.153C190.4,219.985,192.24,220.074,193.9,219.474Z" transform="translate(-161.209 -176.253)"/>
  <path class="cls-2" d="M179.272,196.958c.049-1.437.511-2.632,2.06-2.989a1.944,1.944,0,0,1,2.23,1.178,2.342,2.342,0,0,1-.327,2.776c-1.543,1.751-2.744.593-3.9-.578-.151-.065-.21-.144-.178-.237S179.228,196.958,179.272,196.958Z" transform="translate(-161.209 -176.253)"/>
  <path class="cls-3" d="M175.822,208.41c-.264-.319-.556-.619-.788-.959a2.438,2.438,0,0,1,.206-3.2,1.845,1.845,0,0,1,2.233-.638,2.29,2.29,0,0,1,1.392,2.643,2.163,2.163,0,0,1-2.057,2.118c-.328.037-.663.013-1,.017Z" transform="translate(-161.209 -176.253)"/>
  <path class="cls-4" d="M190.715,206.421a3.384,3.384,0,0,1-3.44.522l-.47-.494a3.062,3.062,0,0,1,.1-2.963c.957-.833,1.964-1.541,3.209-.566C191.34,203.883,191.16,205.142,190.715,206.421Z" transform="translate(-161.209 -176.253)"/>
  <line class="cls-5" x1="7.094" y1="9.932" x2="33.506" y2="2"/>
</svg>
