<svg xmlns="http://www.w3.org/2000/svg" viewBox="0 0 44.812 33.72">
  <defs>
    <style>
      .cls-1 {
        fill: #aa7c8e;
      }

      .cls-2 {
        fill: #ad8595;
      }

      .cls-3 {
        fill: #af8a99;
      }

      .cls-4 {
        fill: #a78291;
      }
    </style>
  </defs>
  <g id="Layer_2" data-name="Layer 2">
    <g id="Layer_1-2" data-name="Layer 1">
      <path class="cls-1" d="M32.69,25.559a6.307,6.307,0,0,0,2.891-1.151c.745-.2,1.01-1.136,1.844-1.205a4.918,4.918,0,0,0,1.186-5.8c-.91-2.192-.257-4.1,1.6-4.664,1.659-.506,3.179.782,3.846,2.964,2.7,8.827-2.165,13.393-9.394,15.674-2.135.674-4.344,1.119-6.525,1.659-4.6-.36-9.12.955-13.731.628a29.112,29.112,0,0,1-4.136-.533c-2.855-1.189-5.819-2.21-7.866-4.75a3.891,3.891,0,0,1-.444-.665C.513,25.122-.4,22.392.177,19.379c.287-1.486,1.111-2.724,2.758-2.77,1.6-.044,3.023,1.045,2.876,2.513C5.52,22.033,7.083,23.946,8.584,26a18.387,18.387,0,0,0,11.983,1.522c1.48-.661,3.11.138,4.594-.476l2.431-.153C29.193,26.07,31.031,26.16,32.69,25.559Z"/>
      <path class="cls-2" d="M18.063,3.043c.049-1.436.511-2.631,2.06-2.988a1.944,1.944,0,0,1,2.23,1.178,2.341,2.341,0,0,1-.327,2.775c-1.543,1.752-2.744.594-3.9-.577-.151-.065-.21-.144-.178-.237S18.019,3.043,18.063,3.043Z"/>
      <path class="cls-3" d="M14.613,14.5c-.264-.319-.556-.619-.788-.96a2.437,2.437,0,0,1,.206-3.195A1.845,1.845,0,0,1,16.264,9.7a2.292,2.292,0,0,1,1.392,2.644A2.163,2.163,0,0,1,15.6,14.464a9.737,9.737,0,0,1-1,.016Z"/>
      <path class="cls-4" d="M29.506,12.507a3.387,3.387,0,0,1-3.44.522l-.47-.494a3.062,3.062,0,0,1,.1-2.963c.957-.833,1.964-1.541,3.209-.566C30.131,9.968,29.951,11.228,29.506,12.507Z"/>
    </g>
  </g>
</svg>
