<svg xmlns="http://www.w3.org/2000/svg" viewBox="0 0 35.659 59.562">
  <defs>
    <style>
      .cls-1 {
        fill: #fcfdfd;
      }

      .cls-2 {
        fill: #e69797;
      }

      .cls-3 {
        fill: #eb9291;
      }

      .cls-4 {
        fill: #f9f0ef;
      }

      .cls-5 {
        fill: none;
        stroke: #eb9394;
        stroke-linecap: round;
        stroke-linejoin: round;
        stroke-width: 4px;
      }
    </style>
  </defs>
  <g id="Layer_2" data-name="Layer 2">
    <g id="Layer_1-2" data-name="Layer 1">
      <path class="cls-1" d="M0,58.563a1.757,1.757,0,0,1,2,1A2.738,2.738,0,0,1,0,58.563Z"/>
      <path class="cls-2" d="M12.219,58.605a24.381,24.381,0,0,1-9.8-1.842c-1.637-.614-2.835-1.6-2.177-3.557.679-2.022,2.213-1.888,3.887-1.371a25.873,25.873,0,0,0,11.5,1.278,11.232,11.232,0,0,0,9.172-8.119c.4-1.473.095-1.833-1.37-1.341a16.323,16.323,0,0,1-3.151.714,5.573,5.573,0,0,1-6.373-4.618,10.215,10.215,0,0,1,5.068-10.3c4.06-2.039,8.585.2,10.422,5.116C33.237,44.824,26.4,59.517,12.219,58.605Z"/>
      <path class="cls-3" d="M11.361,57.483c-2.715.7-5.206-.656-7.814-1.412a2.625,2.625,0,0,1-2-1.959c-.114-.471-.125-1.105.391-1.34a2.432,2.432,0,0,1,2.773.531c1.481,1.4,3.246.2,4.908.649C13.47,55,17.366,54,21.06,52.824c1.515-.482,2.013-2.515,2.9-3.866a32.009,32.009,0,0,0,2.09-4.729c.3-.673-.119-1.513-.47-1.42-1.563.416-3.241-1.372-4.7.316a1.713,1.713,0,0,1-2.287.179c-4.644-2.7-4.963-7.621-1.3-10.8,1.042-.9,1.565-2.438,3.491-2.462,4.815-.059,8.443,3.312,8.677,8.543.125,2.792-.037,5.548-1.776,7.98-.329.46-.195,1.285-.191,1.941A3.506,3.506,0,0,1,26.568,51C22.546,55.486,17.693,58.041,11.361,57.483Z"/>
      <path class="cls-4" d="M20.137,39.09c-.895.018-1.664-.067-1.6-1.291.1-1.832,1.969-3.778,3.685-3.715a2.088,2.088,0,0,1,2.272,2.1C24.557,37.561,22.161,39.1,20.137,39.09Z"/>
      <path class="cls-2" d="M27.405,35.89c.123,1.469.239,2.752.321,4.038.005.09-.235.2-.458.371C26.218,38.912,25.316,37.593,27.405,35.89Z"/>
      <line class="cls-5" x1="7.247" y1="9.932" x2="33.659" y2="2"/>
    </g>
  </g>
</svg>
