<svg id="Layer_1" data-name="Layer 1" xmlns="http://www.w3.org/2000/svg" viewBox="0 0 53.33 69.783">
  <defs>
    <style>
      .cls-1 {
        fill: #fbfcfd;
      }

      .cls-2 {
        fill: #eefbfc;
      }

      .cls-3 {
        fill: #effbfc;
      }

      .cls-4 {
        fill: #93bbc5;
      }

      .cls-5 {
        fill: #92b9c3;
      }

      .cls-6, .cls-7 {
        fill: none;
        stroke-linecap: round;
        stroke-linejoin: round;
        stroke-width: 4px;
      }

      .cls-6 {
        stroke: #7fb5c3;
      }

      .cls-7 {
        stroke: #81b4c3;
      }
    </style>
  </defs>
  <path class="cls-1" d="M143.123,144.449c-1.734-.514-3.283-1.9-5.326-.3-.771.606-1.506-1.032-1.051-1.528,2.525-2.76,1.7-5.939,1.47-9.075-.013-.184.266-.39.408-.586a3.249,3.249,0,0,1,.932,2.222,17.787,17.787,0,0,0,2.958,7.236C142.907,143.015,143.441,143.619,143.123,144.449Z" transform="translate(-133.226 -88.882)"/>
  <path class="cls-1" d="M183.17,158.267H170.547a.71.71,0,0,1,.664-.767,18.036,18.036,0,0,0,5.215-1.185A5.88,5.88,0,0,1,183.17,158.267Z" transform="translate(-133.226 -88.882)"/>
  <path class="cls-1" d="M148.643,146.867c.853,1.2,2.5.642,3.473,1.577-2.07-.068-3.93,1.411-6.183.59-.924-.337-2-.425-2.453-1.291-.734-1.41,1.133-.688,1.314-1.38.071-.271-.108-.608-.173-.915a1.421,1.421,0,0,1,1.021-.476C146.905,145.185,148.22,145.321,148.643,146.867Z" transform="translate(-133.226 -88.882)"/>
  <path class="cls-2" d="M165.1,158.431c-2.242.626-4.1.015-5.154-2.055-.852-1.674-.507-3.313,1.443-4.023,1.383-.5,3.1-1.34,3.679,1.119-.674.268-1.262-.221-1.908-.212a1.654,1.654,0,0,0-.582,3.238c1.023.279,1.473-.406,1.759-1.251.206-.606.178-1.307.718-1.779l1.044.471q-.25,1.247-.5,2.493c-.586.561.225,1.471-.5,2Z" transform="translate(-133.226 -88.882)"/>
  <path class="cls-1" d="M152.616,135.517c-.2-1.848,1.263-2.342,2.506-2.854.5-.207,1.339.692,1.148.973a13.947,13.947,0,0,1-2.987,3.405C152.86,137.357,152.675,136.138,152.616,135.517Z" transform="translate(-133.226 -88.882)"/>
  <path class="cls-1" d="M184.575,122.5a16.351,16.351,0,0,0,.882,4.324c.105.413.089.862-.434.988a.836.836,0,0,1-.657-.174C183.551,126.887,183.713,123.53,184.575,122.5Z" transform="translate(-133.226 -88.882)"/>
  <path class="cls-1" d="M165.105,158.431c.068-.691-.228-1.472.5-2,.582,2.074,2.729.251,4.227,2Z" transform="translate(-133.226 -88.882)"/>
  <path class="cls-1" d="M139.449,155.4a4.27,4.27,0,0,1,3.588-.112C141.623,156.958,140.511,155.792,139.449,155.4Z" transform="translate(-133.226 -88.882)"/>
  <path class="cls-1" d="M185.464,120.562c.693.171,1.113.566,1.008,1.234-.125.793-.84.595-1.386.689-.8.138-.468-.448-.478-.75C184.587,121.125,184.7,120.562,185.464,120.562Z" transform="translate(-133.226 -88.882)"/>
  <path class="cls-1" d="M185.914,131.257c.761.5.806,1.065.341,1.67-.108.14-.537.247-.6.177C185.045,132.4,185.561,131.866,185.914,131.257Z" transform="translate(-133.226 -88.882)"/>
  <path class="cls-1" d="M134.122,143.334c-.2.141-.4.373-.525.342a.636.636,0,0,1-.369-.464c-.027-.337.178-.62.551-.5C133.925,142.756,133.986,143.071,134.122,143.334Z" transform="translate(-133.226 -88.882)"/>
  <path class="cls-1" d="M183.743,132.976c-.163.049-.395.205-.557.15a.536.536,0,0,1-.388-.732.612.612,0,0,1,.556-.205A.545.545,0,0,1,183.743,132.976Z" transform="translate(-133.226 -88.882)"/>
  <path class="cls-1" d="M185.093,130.643c-.158.231-.249.521-.4.56-.42.1-.537-.243-.493-.556a.6.6,0,0,1,.405-.417C184.748,130.224,184.9,130.473,185.093,130.643Z" transform="translate(-133.226 -88.882)"/>
  <path class="cls-1" d="M143.123,144.45a1.521,1.521,0,0,1,1.5,1C143.9,145.455,143.168,145.463,143.123,144.45Z" transform="translate(-133.226 -88.882)"/>
  <path class="cls-3" d="M156.705,154.682c-.512,1.358.06,3.275-2.12,3.825-2.564.647-3.359-1.446-4.266-2.954-.825-1.371.571-2.373,1.547-3,1.045-.677,2.513-1.472,3.536-1.208C156.557,151.639,156.458,153.39,156.705,154.682Z" transform="translate(-133.226 -88.882)"/>
  <path class="cls-4" d="M165.059,153.468a10.673,10.673,0,0,1,.033,1.483c-.123,1.124-.51,2.166-1.753,2.406a2.128,2.128,0,0,1-2.423-1.305,2.2,2.2,0,0,1,.235-2.753c.882-.823,1.946-1.3,3.116-.4.261.2.536.381.805.571Z" transform="translate(-133.226 -88.882)"/>
  <path class="cls-5" d="M155.721,154.921c-.144,1.483-.755,2.534-2.3,2.441a2.235,2.235,0,0,1-2.094-2.384,2.285,2.285,0,0,1,2.26-2.488C155.128,152.466,155.676,153.581,155.721,154.921Z" transform="translate(-133.226 -88.882)"/>
  <path class="cls-6" d="M180.019,115.527s-21.851-9.946-8.466,13.7-46.571,20.216-23.216-7.89" transform="translate(-133.226 -88.882)"/>
  <line class="cls-7" x1="19.536" y1="9.932" x2="45.948" y2="2"/>
</svg>
