<svg width="42" height="69" viewBox="0 0 42 69" fill="none" xmlns="http://www.w3.org/2000/svg">
<path d="M24.833 64.586C24.8784 65.079 24.8894 65.5745 24.866 66.069C24.743 67.193 24.356 68.235 23.113 68.475C22.62 68.5796 22.1059 68.5059 21.6621 68.2669C21.2184 68.0279 20.8739 67.6392 20.69 67.17C20.4087 66.7533 20.2786 66.2529 20.3214 65.752C20.3641 65.2511 20.5772 64.78 20.925 64.417C21.807 63.594 22.871 63.117 24.041 64.017C24.302 64.217 24.577 64.398 24.846 64.588L24.833 64.586Z" fill="#93BBC5"/>
<path d="M15.495 66.039C15.351 67.522 14.74 68.573 13.195 68.48C12.9006 68.4621 12.6126 68.3861 12.3477 68.2563C12.0828 68.1266 11.8462 67.9457 11.6516 67.7241C11.4569 67.5025 11.308 67.2445 11.2135 66.9651C11.119 66.6856 11.0808 66.3903 11.101 66.096C11.073 65.7814 11.1104 65.4644 11.211 65.165C11.3117 64.8656 11.4732 64.5904 11.6856 64.3566C11.898 64.1228 12.1565 63.9355 12.4449 63.8067C12.7332 63.6779 13.0452 63.6102 13.361 63.608C14.902 63.584 15.45 64.699 15.495 66.039Z" fill="#92B9C3"/>
<path d="M39.793 26.645C39.793 26.645 17.942 16.699 31.327 40.345C44.712 63.991 -15.244 60.561 8.11103 32.455" stroke="#7FB5C3" stroke-width="4" stroke-linecap="round" stroke-linejoin="round"/>
<path d="M12.536 9.932L38.948 2" stroke="#81B4C3" stroke-width="4" stroke-linecap="round" stroke-linejoin="round"/>
</svg>
