<svg width="23" height="59" viewBox="0 0 23 59" fill="none" xmlns="http://www.w3.org/2000/svg">
<path d="M14.573 47.987C19.72 42.863 18.925 35.628 12.651 30.487C9.90002 28.229 9.34302 26.766 10.687 25.322C11.879 24.041 13.61 24.506 16.045 26.749C19.423 29.859 22.077 33.375 22.582 38.138C23.292 44.838 20.495 50.087 15.611 54.323C13.174 56.3575 10.3097 57.8163 7.23102 58.591C5.60502 59.037 4.12502 59.012 3.57602 57.169C3.02702 55.326 3.64602 53.941 5.77102 53.482C8.57216 53.0228 11.1266 51.6041 12.997 49.469C13.5646 49.022 14.092 48.5261 14.573 47.987Z" fill="#81B5C3"/>
<path d="M11.433 17.468C12.0196 17.5279 12.5609 17.8102 12.9458 18.2569C13.3307 18.7036 13.5298 19.2808 13.5023 19.8697C13.4748 20.4587 13.2227 21.0148 12.7978 21.4237C12.3729 21.8325 11.8076 22.0631 11.218 22.068C10.9252 22.1012 10.6287 22.0677 10.3507 21.97C10.0727 21.8723 9.82036 21.713 9.61267 21.5039C9.40498 21.2949 9.24729 21.0416 9.1514 20.7629C9.05551 20.4843 9.02392 20.1876 9.05898 19.895C9.02988 19.5735 9.07087 19.2496 9.17912 18.9455C9.28738 18.6415 9.46032 18.3645 9.68602 18.1338C9.91172 17.903 10.1848 17.724 10.4864 17.6091C10.788 17.4941 11.111 17.446 11.433 17.468Z" fill="#8EB8C4"/>
<path d="M2.461 9.287L15.667 2.731" stroke="#81B4C3" stroke-width="4" stroke-linecap="round" stroke-linejoin="round"/>
</svg>
