<svg id="Layer_1" data-name="Layer 1" xmlns="http://www.w3.org/2000/svg" viewBox="0 0 32.312 68.588">
  <defs>
    <style>
      .cls-1 {
        fill: #fbfcfd;
      }

      .cls-2 {
        fill: #81b5c3;
      }

      .cls-3 {
        fill: #8eb8c4;
      }

      .cls-4 {
        fill: #e5f5f7;
      }

      .cls-5 {
        fill: none;
        stroke: #81b4c3;
        stroke-linecap: round;
        stroke-linejoin: round;
        stroke-width: 4px;
      }
    </style>
  </defs>
  <path class="cls-1" d="M62.489,213.594c-1.218.629-2.182,1.346-3.277,0A2.7,2.7,0,0,1,62.489,213.594Z" transform="translate(-54.735 -146.262)"/>
  <path class="cls-1" d="M75.221,151.681c.453.025.93.228.918.656a1.224,1.224,0,0,1-1.13,1.13.765.765,0,0,1-.872-.708C74.07,152.051,74.573,151.756,75.221,151.681Z" transform="translate(-54.735 -146.262)"/>
  <path class="cls-1" d="M74.208,178.333c-2.257.183-4.026.478-5.105-1.594-.383-.735-1.556-.24-2.149.1-.257.149-.107,1.148-.969.732a1.068,1.068,0,0,1-.607-1.452,1.538,1.538,0,0,1,1.22-1c1.242-.265,3.018-.412,2.043-2.567-.192-.423-.609-.979.3-1.023a12.539,12.539,0,0,1,5.849.611c1.267.551.108,2.081,1.287,2.639.114.054,1.088,2.352-1.163,1.881-.029.229-.135.638-.077.663,1.519.649.863,3.381,3.259,3.322.469-.011.967,1.161,1.438,1.77.843-.321.545-1.182.9-1.827a2.1,2.1,0,0,1,.095,1.984c-.231.647-.548,1.389.231,1.75s1.073-.558,1.536-.963a3.853,3.853,0,0,0,.547-.825c.478-.728,1.258-1.085,1.915-.6.9.673.119,1.21-.41,1.771-2.828,3-2.852,3.811,0,7.039.431.488.907.721.894,1.516-.059,3.481-.026,6.964-.026,10.424-1.043.29-.786-.72-1.266-1.02-2.117,4.205-4.173,8.466-8.629,10.748,2.259.424,2.259.424,4.06-1l1.19,2.282c-.614.733-1.161.322-1.665.128-3-1.154-5.8.028-8.695.577a11.412,11.412,0,0,1-5.556.149c-1.69-.486-2.292-1.771-3.168-2.8-.973-1.144.206-3.075,1.96-3.488,1-.234,2.612.391,2.114-1.686,2.121.683,1.727-2,2.825-2.2a14.926,14.926,0,0,0,3.5-1.418l-.9,1.554c2.642-.908,5.323-5.236,4.856-7.7a1.2,1.2,0,0,1,.006-.727c1.673-3.011.044-4.808-1.855-7.12-1.526-1.857-3.377-3.57-4.551-5.751a1.982,1.982,0,0,0-.819-.868c-.683-.3-1.786.174-1.9-1.11,1.342-.114,1.342-2.054,2.883-2.026C70.993,179.245,72.461,179.608,74.208,178.333Z" transform="translate(-54.735 -146.262)"/>
  <path class="cls-1" d="M81.519,146.334c1.331,0,2.665-.045,3.992.032a1.353,1.353,0,0,1,.932.685c.218.451-.282.671-.584.949a3.365,3.365,0,0,1-2.535.8c-1.664-.044-3.33.006-4.994-.03-1.024-.021-1.9-.552-1.942-1.563-.051-1.344,1.162-.845,1.886-.9,1.077-.075,2.163-.019,3.245-.019Z" transform="translate(-54.735 -146.262)"/>
  <path class="cls-1" d="M65.212,185.05c.086-.757-.132-1.455.626-1.674.618-.178.864.363,1.121.775a31.52,31.52,0,0,0,3.347,4c.541.615,1.408,1.523.259,2.318a1.338,1.338,0,0,1-2.163-.855C67.977,187.545,65.188,187.143,65.212,185.05Z" transform="translate(-54.735 -146.262)"/>
  <path class="cls-1" d="M55.588,149.547H68.206c-4.2,1.146-8.4.663-12.59.7Z" transform="translate(-54.735 -146.262)"/>
  <path class="cls-1" d="M82.843,211.435c-.55-.283-1.445-.288-1.271-1.219a2.453,2.453,0,0,1,1.933-1.75c.833-.224.99.649.877,1.349C84.242,210.676,83.92,211.419,82.843,211.435Z" transform="translate(-54.735 -146.262)"/>
  <path class="cls-1" d="M85.7,211.865a1.525,1.525,0,0,1,1.328,1.216.753.753,0,0,1-.839.941c-.653-.056-1.337-.291-1.38-1.113A.982.982,0,0,1,85.7,211.865Z" transform="translate(-54.735 -146.262)"/>
  <path class="cls-1" d="M61.642,203.233c.684.039,1.371.156,1.4,1a.762.762,0,0,1-.969.8c-.59-.161-1.405-.294-1.487-1.06C60.527,203.388,61.144,203.291,61.642,203.233Z" transform="translate(-54.735 -146.262)"/>
  <path class="cls-1" d="M55.4,208.007c-.692-.09-.663-.639-.633-1.106.033-.515-.271-1.3.529-1.405.716-.093.881.572.914,1.167A1.2,1.2,0,0,1,55.4,208.007Z" transform="translate(-54.735 -146.262)"/>
  <path class="cls-1" d="M57.918,211.524a.792.792,0,0,1,.75.807.972.972,0,0,1-.713,1.14c-.538.13-.673-.3-.684-.75A1.082,1.082,0,0,1,57.918,211.524Z" transform="translate(-54.735 -146.262)"/>
  <path class="cls-1" d="M85.8,205.873c.422.137.751.37.735.827a.788.788,0,0,1-.929.829.767.767,0,0,1-.723-.8A.837.837,0,0,1,85.8,205.873Z" transform="translate(-54.735 -146.262)"/>
  <path class="cls-1" d="M65.409,179.994c.167-.137.4-.491.637-.493.91-.006.588.758.687,1.256.084.421-.037.58-.481.419A1.084,1.084,0,0,1,65.409,179.994Z" transform="translate(-54.735 -146.262)"/>
  <path class="cls-1" d="M67.043,173.493c-.146.136-.332.428-.589.519-.337.119-.622-.079-.62-.484,0-.344.141-.636.533-.666C66.7,172.837,67.011,172.9,67.043,173.493Z" transform="translate(-54.735 -146.262)"/>
  <path class="cls-2" d="M75.308,203.249c5.147-5.124,4.352-12.359-1.922-17.5-2.751-2.258-3.308-3.721-1.964-5.165,1.192-1.281,2.923-.816,5.358,1.427,3.378,3.11,6.032,6.626,6.537,11.389.71,6.7-2.087,11.949-6.971,16.185a21.117,21.117,0,0,1-8.38,4.268c-1.626.446-3.106.421-3.655-1.422s.07-3.228,2.195-3.687a12.239,12.239,0,0,0,7.226-4.013A12.372,12.372,0,0,0,75.308,203.249Z" transform="translate(-54.735 -146.262)"/>
  <path class="cls-3" d="M72.168,172.73a2.306,2.306,0,0,1-.215,4.6,1.953,1.953,0,0,1-2.159-2.173A2.231,2.231,0,0,1,72.168,172.73Z" transform="translate(-54.735 -146.262)"/>
  <path class="cls-4" d="M75.308,203.249a1.648,1.648,0,0,1-1.576,1.477C73.766,203.71,74.584,203.53,75.308,203.249Z" transform="translate(-54.735 -146.262)"/>
  <line class="cls-5" x1="8.461" y1="18.287" x2="21.667" y2="11.731"/>
</svg>
