<svg xmlns="http://www.w3.org/2000/svg" viewBox="0 0 162 162">
  <defs>
    <style>
      .cls-1 {
        fill: #ffc901;
      }

      .cls-1, .cls-2, .cls-3 {
        stroke: #323846;
        stroke-miterlimit: 10;
        stroke-width: 2px;
      }

      .cls-2 {
        fill: #ffa301;
      }

      .cls-3 {
        font-size: 103.028px;
        fill: #ffe101;
        font-family: ArialRoundedMTBold, Arial Rounded MT Bold;
      }

      .cls-4 {
        fill: #fe8501;
      }

      .cls-5 {
        fill: #ff8600;
      }

      .cls-6 {
        fill: #fff0c7;
      }

      .cls-7 {
        fill: #f88709;
      }
    </style>
  </defs>
  <g id="Layer_1" data-name="Layer 1">
    <circle class="cls-1" cx="81" cy="81" r="80"/>
    <circle class="cls-2" cx="81" cy="81" r="65"/>
    <text class="cls-3" transform="translate(40.694 117.829)">C</text>
    <circle class="cls-4" cx="40.005" cy="80.082" r="2.5"/>
  </g>
  <g id="Layer_2" data-name="Layer 2">
    <path class="cls-5" d="M281.851,251.149c-10.418-20.47-30.529-35.186-55.087-35.186-37.48,0-63.065,28.219-63.065,63.041,0,24.479,12.74,44.191,33.129,54.635-22.387-10.475-38.065-31.27-38.065-57.967a64.663,64.663,0,0,1,64.678-64.652C250.2,211.02,272.02,227.973,281.851,251.149Z" transform="translate(-141.776 -194.319)"/>
    <path class="cls-6" d="M224.333,354.263c-.44.02.1.026-.336.026-44.19,0-80.217-33.789-80.217-77.969a80,80,0,0,1,80-80c28.15,0,51.253,14.89,65.513,36.87C274.873,213.5,253,200.33,226.42,200.33c-43.85,0-79.4,34.92-79.4,77.99C147.02,320.97,181.873,352.039,224.333,354.263Z" transform="translate(-141.776 -194.319)"/>
    <polygon class="cls-7" points="91.908 45.721 87.959 44.725 83.358 44.175 78.139 44.141 71.837 45.129 66.259 47.197 61.456 49.756 57.71 52.897 54.379 56.742 51.907 60.519 49.881 64.777 48.199 70.099 47.409 75.489 47.134 81.807 47.548 87.822 48.394 92.256 49.443 95.844 50.182 97.963 52.393 102.702 54.315 105.371 55.863 107.72 57.999 109.535 55.045 103.929 52.606 96.03 51.593 88.129 51.593 82.025 52.532 75.921 54.165 69.719 56.242 64.789 59.833 59.523 63.783 55.453 68.092 52.581 72.904 50.049 77.189 48.631 79.944 48.032 83.123 47.437 86.739 47.433 90.594 47.433 93.706 47.437 96.131 47.434 91.908 45.721"/>
    <circle class="cls-4" cx="40.005" cy="101.275" r="2.5"/>
    <circle class="cls-4" cx="56.24" cy="120.628" r="2.5"/>
    <circle class="cls-4" cx="73.625" cy="89.845" r="2.5"/>
    <circle class="cls-4" cx="37.505" cy="56.172" r="2.5"/>
    <circle class="cls-4" cx="82.6" cy="125.628" r="2.5"/>
    <circle class="cls-4" cx="90.23" cy="34.932" r="2.5"/>
    <circle class="cls-4" cx="120.715" cy="89.001" r="2.5"/>
    <circle class="cls-4" cx="112.738" cy="112.871" r="2.5"/>
    <circle class="cls-4" cx="120.715" cy="56.172" r="2.5"/>
    <circle class="cls-4" cx="63.853" cy="52.193" r="2.5"/>
    <circle class="cls-4" cx="52.738" cy="44.536" r="2.5"/>
    <circle class="cls-4" cx="87.73" cy="70.603" r="2.5"/>
    <circle class="cls-4" cx="110.958" cy="73.103" r="2.5"/>
    <circle class="cls-6" cx="53.74" cy="13.701" r="3.5"/>
    <path class="cls-6" d="M189.762,332.5a64.728,64.728,0,0,0,7.661,3.758l-7.483,11-7.47-3.94Z" transform="translate(-141.776 -194.319)"/>
    <path class="cls-6" d="M277.516,218.308l-7.445,10.943a57.649,57.649,0,0,0-6.455-5.737l6.91-11.156Z" transform="translate(-141.776 -194.319)"/>
    <path class="cls-6" d="M204.34,338.743a64.273,64.273,0,0,0,15.361,2.472l-8.454,12.3-14.39-3.74Z" transform="translate(-141.776 -194.319)"/>
    <path class="cls-6" d="M291.392,236.18l-8.381,12.185a64.94,64.94,0,0,0-8.381-14.011l7.5-11.054,4.961,5.951Z" transform="translate(-141.776 -194.319)"/>
  </g>
</svg>
