<svg width="66" height="21" viewBox="0 0 66 21" fill="none" xmlns="http://www.w3.org/2000/svg">
<path d="M27.7969 4.20312V17H25.3799V4.20312H27.7969ZM37.2715 15.1982L40.6816 17.9053L39.1348 19.25L35.7773 16.5605L37.2715 15.1982ZM40.7432 10.2764V10.9355C40.7432 11.9023 40.6143 12.7725 40.3564 13.5459C40.0986 14.3135 39.7295 14.9668 39.249 15.5059C38.7744 16.0449 38.209 16.458 37.5527 16.7451C36.8965 17.0322 36.1699 17.1758 35.373 17.1758C34.582 17.1758 33.8555 17.0322 33.1934 16.7451C32.5371 16.458 31.9688 16.0449 31.4883 15.5059C31.0078 14.9668 30.6357 14.3135 30.3721 13.5459C30.1084 12.7725 29.9766 11.9023 29.9766 10.9355V10.2764C29.9766 9.30371 30.1055 8.43359 30.3633 7.66602C30.627 6.89844 30.9961 6.24512 31.4707 5.70605C31.9512 5.16113 32.5195 4.74512 33.1758 4.45801C33.8379 4.1709 34.5645 4.02734 35.3555 4.02734C36.1523 4.02734 36.8789 4.1709 37.5352 4.45801C38.1973 4.74512 38.7656 5.16113 39.2402 5.70605C39.7207 6.24512 40.0898 6.89844 40.3477 7.66602C40.6113 8.43359 40.7432 9.30371 40.7432 10.2764ZM38.2998 10.9355V10.2588C38.2998 9.56152 38.2354 8.94922 38.1064 8.42188C37.9775 7.88867 37.7842 7.44043 37.5264 7.07715C37.2744 6.71387 36.9668 6.44141 36.6035 6.25977C36.2402 6.07227 35.8242 5.97852 35.3555 5.97852C34.8926 5.97852 34.4795 6.07227 34.1162 6.25977C33.7529 6.44141 33.4453 6.71387 33.1934 7.07715C32.9414 7.44043 32.748 7.88867 32.6133 8.42188C32.4844 8.94922 32.4199 9.56152 32.4199 10.2588V10.9355C32.4199 11.627 32.4844 12.2393 32.6133 12.7725C32.748 13.3057 32.9414 13.7568 33.1934 14.126C33.4512 14.4893 33.7617 14.7646 34.125 14.9521C34.4941 15.1396 34.9102 15.2334 35.373 15.2334C35.8418 15.2334 36.2578 15.1396 36.6211 14.9521C36.9844 14.7646 37.2891 14.4893 37.5352 14.126C37.7871 13.7568 37.9775 13.3057 38.1064 12.7725C38.2354 12.2393 38.2998 11.627 38.2998 10.9355ZM42.8174 4.20312H47.4668C48.4395 4.20312 49.2744 4.34961 49.9717 4.64258C50.6689 4.93555 51.2051 5.36914 51.5801 5.94336C51.9551 6.51758 52.1426 7.22363 52.1426 8.06152C52.1426 8.72363 52.0254 9.29785 51.791 9.78418C51.5566 10.2705 51.2256 10.6777 50.7979 11.0059C50.376 11.334 49.8779 11.5918 49.3037 11.7793L48.5479 12.166H44.4434L44.4258 10.2588H47.4932C47.9912 10.2588 48.4043 10.1709 48.7324 9.99512C49.0605 9.81934 49.3066 9.57617 49.4707 9.26562C49.6406 8.95508 49.7256 8.60059 49.7256 8.20215C49.7256 7.77441 49.6436 7.40527 49.4795 7.09473C49.3154 6.77832 49.0664 6.53516 48.7324 6.36523C48.3984 6.19531 47.9766 6.11035 47.4668 6.11035H45.2344V17H42.8174V4.20312ZM50.042 17L47.0801 11.2695L49.6377 11.2607L52.6348 16.877V17H50.042ZM59.3496 6.14551L55.7021 17H53.1445L57.9258 4.20312H59.5605L59.3496 6.14551ZM62.3994 17L58.7344 6.14551L58.5146 4.20312H60.1582L64.9658 17H62.3994ZM62.2324 12.2451V14.1523H55.3682V12.2451H62.2324Z" fill="white"/>
<g clip-path="url(#clip0_3_98)">
<path d="M18.5 2.80248C18.0249 2.40611 17.4676 2.12052 16.8684 1.96643C16.2692 1.81234 15.6432 1.79362 15.0358 1.91164L13.5658 2.27164C12.7987 2.41222 12.1051 2.81734 11.6059 3.4165C11.1066 4.01565 10.8332 4.7709 10.8333 5.55081V18.44C10.2807 18.5208 9.71928 18.5208 9.16667 18.44V5.55081C9.16943 4.77809 8.90237 4.02865 8.41157 3.43181C7.92078 2.83498 7.23703 2.42819 6.47833 2.28164L4.91667 1.90164C4.31596 1.79172 3.69844 1.81519 3.10781 1.97037C2.51718 2.12556 1.96789 2.40868 1.4988 2.79969C1.02972 3.1907 0.652322 3.68004 0.393318 4.23307C0.134315 4.7861 4.0677e-05 5.3893 0 5.99998L0 14.9941C4.78799e-05 15.9698 0.342481 16.9145 0.967611 17.6636C1.59274 18.4127 2.46092 18.9187 3.42083 19.0933L8.65917 20.0458C9.5458 20.2069 10.4542 20.2069 11.3408 20.0458L16.5833 19.0933C17.5425 18.9178 18.4097 18.4115 19.034 17.6625C19.6583 16.9134 20.0001 15.9692 20 14.9941V5.99998C20.0004 5.38951 19.8662 4.78648 19.6069 4.2338C19.3476 3.68113 18.9697 3.19242 18.5 2.80248Z" fill="white"/>
</g>
<defs>
<clipPath id="clip0_3_98">
<rect width="20" height="20" fill="white" transform="translate(0 1)"/>
</clipPath>
</defs>
</svg>
